<svg id="Layer_1" data-name="Layer 1" xmlns="http://www.w3.org/2000/svg" viewBox="0 0 360 281.7747"><defs><style>.cls-1{fill:none;}.cls-2{fill:#fff;}</style></defs><polygon class="cls-1" points="258.153 255.964 262.569 255.964 260.397 249.64 258.153 255.964"/><path class="cls-1" d="M242.918,201.65381h-5.12232v21.12378H242.918c7.24151,0,10.38519-3.00263,10.38519-10.56189S250.15946,201.65381,242.918,201.65381Z"/><path class="cls-1" d="M85.56931,255.68249H79.8809v5.66089h5.57025c3.11615,0,3.53619-1.35156,3.53619-2.67456C88.98734,257.27795,88.59879,255.68249,85.56931,255.68249Z"/><path class="cls-1" d="M170.70274,201.12378c-6.67633,0-9.50226,5.58154-9.50226,11.09192,0,5.5108,2.82593,11.09192,9.50226,11.09192,6.64074,0,9.46667-5.58112,9.46667-11.09192C180.16941,206.70532,177.34348,201.12378,170.70274,201.12378Z"/><path class="cls-1" d="M20.745,244.95093H16.97465l.00006,6.36615H20.745c3.246,0,4.39692-.83319,4.39692-3.18207C25.142,245.78406,23.99107,244.95093,20.745,244.95093Z"/><polygon class="cls-1" points="263.163 214.936 273.089 214.936 268.214 202.007 263.163 214.936"/><path class="cls-1" d="M87.85136,247.15527c0-1.323-.54792-2.20434-3.22339-2.20434H79.8809v4.52673h5.21918C87.85136,249.47766,87.85136,247.72967,87.85136,247.15527Z"/><path class="cls-1" d="M317.49809,201.12378c-6.67634,0-9.50226,5.58154-9.50226,11.09192,0,5.5108,2.82592,11.09192,9.50226,11.09192,6.64074,0,9.46667-5.58112,9.46667-11.09192C326.96476,206.70532,324.13883,201.12378,317.49809,201.12378Z"/><polygon class="cls-2" points="197.968 145.746 129.741 145.746 129.741 77.501 95.551 77.501 95.551 179.875 197.968 179.875 197.968 145.746"/><polygon class="cls-2" points="129.692 43.48 232.077 43.48 232.077 145.746 215.037 145.746 215.037 179.875 266.193 179.875 266.193 9.203 95.574 9.203 95.574 60.401 129.692 60.401 129.692 43.48"/><path class="cls-2" d="M206.94413,71.7558a6.73716,6.73716,0,0,0,2.33228-.55243,5.71906,5.71906,0,0,0,3.436-3.38c.16071-.375.36261-.42663.74286-.39172a9.248,9.248,0,0,0,3.93622-.30389,3.24792,3.24792,0,0,0,2.43042-2.90979c.04541-.45026.11072-.47547.59009-.44086a14.20557,14.20557,0,0,0,2.92382.09173,6.26512,6.26512,0,0,0,3.35761-1.53356,5.367,5.367,0,0,0,1.62353-2.7851c.0528-.2016.01246-.287-.2434-.2876-.73523-.00183-1.47046-.03821-2.20441-.05975-2.83307-.08313-5.67.07129-8.50372-.09155-.95472-.05494-1.91138-.00684-2.87073-.062-1.2439-.07153-2.49268-.09118-3.73865-.17132-1.18164-.076-2.36352-.14044-3.544-.23712-1.46783-.1203-2.93273-.228-4.3861-.47412a28.85,28.85,0,0,1-5.63672-1.43335,12.15762,12.15762,0,0,0-5.71759-.95374,3.35093,3.35093,0,0,0-2.39478.97058,5.36716,5.36716,0,0,0-.92212,1.58148,2.59394,2.59394,0,0,1-2.129,1.74494c-.41107.0766-.82885.1178-1.23944.198-.234.04571-.27667.11853-.27478.30151.00751.726.00305,1.45209.00305,2.32892-.03.79455-.043,1.74078-.06707,2.68555-.06244,2.46325-.0492,4.92883.05548,7.39288.01056.24878.1319.32825.33655.36035,1.27606.20013,2.54437.44513,3.834.57,1.14862.1112,2.30292.17566,3.45245.26568a12.90636,12.90636,0,0,0,3.426-.24939,9.0237,9.0237,0,0,0,3.86682-1.69848,5.921,5.921,0,0,0,2.04169-2.13861c.105-.236.23181-.183.40643-.05774a9.88785,9.88785,0,0,0,2.65613,1.30029A7.88291,7.88291,0,0,0,206.94413,71.7558Z"/><path class="cls-2" d="M173.34068,57.90857a2.96883,2.96883,0,0,0-1.98865-1.93183,8.17494,8.17494,0,0,0-3.378-.16748,14.846,14.846,0,0,0-3.17243.814,24.31687,24.31687,0,0,1-3.64343,1.13647,51.75733,51.75733,0,0,1-6.11493.86872c-1.52978.12072-3.06091.23645-4.59387.314-1.246.063-2.494.10187-3.74078.15338-1.29413.05347-2.59229.0177-3.88874.08319-.8399.04248-1.68475.00733-2.52734.00812-2.18384.00208-4.368-.02148-6.55048.07837-.17529.008-.38281-.03192-.32666.22907a5.54874,5.54874,0,0,0,3.02893,3.80651,7.81187,7.81187,0,0,0,4.72425.49048c.57013-.06585.70324-.01556.76025.49a3.37093,3.37093,0,0,0,2.94519,3.046,10.65646,10.65646,0,0,0,3.45862.09986c.3385-.04963.56244.00653.68945.35577a5.68555,5.68555,0,0,0,3.42261,3.44226,6.52288,6.52288,0,0,0,4.6853.11743,10.84925,10.84925,0,0,0,2.9477-1.45819,7.52452,7.52452,0,0,0,2.57653,2.65985,10.90313,10.90313,0,0,0,5.89106,1.6756c1.18164.01257,2.36358-.11475,3.54431-.21185,1.61187-.13263,3.18945-.43848,4.78454-.65338a.361.361,0,0,0,.37012-.4134q-.02756-6.13668.005-12.273c.00244-.45916-.31562-.4179-.61048-.4472a6.464,6.464,0,0,1-1.558-.32825A2.989,2.989,0,0,1,173.34068,57.90857Z"/><path class="cls-2" d="M203.48905,85.565a3.29527,3.29527,0,0,0,.53687-1.10138,7.89331,7.89331,0,0,0,.10547-2.6474,5.6106,5.6106,0,0,0-3.46906-4.41424,14.237,14.237,0,0,0-3.95886-1.13269c-1.28705-.19251-2.58008-.25171-3.8703-.36017a10.95914,10.95914,0,0,0-3.09741.22766,6.02512,6.02512,0,0,0-3.58185,2.113,5.0472,5.0472,0,0,0-1.20313,3.51935,1.43374,1.43374,0,0,0,.7215,1.18183,7.012,7.012,0,0,0,3.66162.83392,6.56542,6.56542,0,0,0,4.04224-1.33276,4.8251,4.8251,0,0,1,1.44763-.922,7.27548,7.27548,0,0,1,2.2724-.16162c.63977.02972.63843.05224.63843.6131a8.951,8.951,0,0,0,.0047.91046,1.71427,1.71427,0,0,1-1.14594,1.78491,24.7586,24.7586,0,0,1-4.55786,1.73791,58.751,58.751,0,0,1-8.35577,1.37507c-1.21753.11755-2.43659.03833-3.6554.12713-.88824.06488-1.7735.11756-2.65173.25629a19.69851,19.69851,0,0,0-6.53907,2.26794,14.00425,14.00425,0,0,0-3.8974,3.16925,7.419,7.419,0,0,0-1.488,2.531,10.046,10.046,0,0,0-.38941,4.0293,5.73392,5.73392,0,0,0,2.21723,3.7705c.50519.44812,1.09833.816,1.63421,1.23786a2.42872,2.42872,0,0,0,2.79285.21136,10.53062,10.53062,0,0,1,1.51239-.76355c1.47-.71032,3.06-1.19464,4.54694-1.92651-.83509-.52716-1.70575-.993-2.51331-1.5415a3.01091,3.01091,0,0,1-1.184-1.61078,6.03451,6.03451,0,0,1-.099-2.19556,1.612,1.612,0,0,1,.79389-1.2926,5.60426,5.60426,0,0,1,1.51031-.68286,32.33556,32.33556,0,0,1,6.485-1.01526c.949-.05622,1.89923-.11457,2.84881-.15625a33.85854,33.85854,0,0,0,4.13092-.60987,28.742,28.742,0,0,0,6.08606-1.95123,21.1795,21.1795,0,0,0,5.09131-3.04242A11.43091,11.43091,0,0,0,203.48905,85.565ZM190.3754,80.15033c-.57025.38763-1.22229.27429-2.428-.439.06543-.09527.11273-.24969.20361-.27392a2.7128,2.7128,0,0,1,2.43591.16119C190.84538,79.78815,190.59727,79.99951,190.3754,80.15033Z"/><path class="cls-2" d="M194.99253,102.694a6.24128,6.24128,0,0,0,1.48639-3.43311,8.17326,8.17326,0,0,0-1.14075-4.63611c-.18286-.33306-.24829-.85357-.61963-.93121-.3396-.07092-.77337.21637-1.16528.34668a23.54709,23.54709,0,0,1-4.22381,1.03857,19.8867,19.8867,0,0,1-3.31513.22229,5.08081,5.08081,0,0,1,1.28583,2.48407,3.35286,3.35286,0,0,1-1.36157,3.39826,13.73812,13.73812,0,0,1-5.06073,2.34827,31.24644,31.24644,0,0,0-9.22669,3.82513,12.21787,12.21787,0,0,0-2.26965,1.77478,6.64155,6.64155,0,0,0-2.01752,3.55548,4.78758,4.78758,0,0,0,.38684,2.86469,10.76843,10.76843,0,0,0,4.03577,3.93341.33246.33246,0,0,0,.44366-.02607,16.63379,16.63379,0,0,1,5.553-2.58642,1.82511,1.82511,0,0,0,.76459-.24567c-.54077-.32873-1.03558-.66656-1.52832-1.0072a2.70151,2.70151,0,0,1-1.36908-2.67609,2.07734,2.07734,0,0,1,.88867-1.677,15.44213,15.44213,0,0,1,3.30707-1.54925c2.00769-.63074,4.04041-1.198,6.04858-1.82764a27.54848,27.54848,0,0,0,6.2212-2.76361A11.10667,11.10667,0,0,0,194.99253,102.694Z"/><path class="cls-2" d="M183.57963,56.40716a5.232,5.232,0,0,0,1.71838-1.36627,4.69106,4.69106,0,0,0,1.23767-2.81073,5.22954,5.22954,0,0,0-2.02807-4.25378,6.01957,6.01957,0,0,0-5.255-1.09461,5.64954,5.64954,0,0,0-2.51782,1.16046,5.5463,5.5463,0,0,0-1.80359,2.58747,6.11036,6.11036,0,0,0-.0907,2.09161,2.14633,2.14633,0,0,0,.26813,1.015,6.808,6.808,0,0,0,2.98969,2.82745c.18939.1051.38818.16913.39093.44556.05169,5.14874-.04273,10.29565.21362,15.44665.23059,4.6333-.01849,9.28217.13312,13.92322a.41724.41724,0,0,1-.00037.0791c-.03509.21777.05359.30335.314.2945.50195-.017,1.00512-.005,1.50775-.00483s1.00549-.00634,1.508.00342c.181.00354.31861-.02392.36963-.19433a4.68769,4.68769,0,0,0,.2879-1.2569c.059-3.94208-.02526-7.884.0691-11.82727.10162-4.24787.02221-8.49915.02185-12.7489-.00013-1.01624-.016-2.03278.00665-3.04865A1.20014,1.20014,0,0,1,183.57963,56.40716Z"/><path class="cls-2" d="M192.6677,116.87811a6.56692,6.56692,0,0,0,.88483-2.82678,4.87542,4.87542,0,0,0-.34784-2.50549,8.28615,8.28615,0,0,0-2.3324-3.17231,1.55823,1.55823,0,0,0-1.6734-.26861,41.37028,41.37028,0,0,1-4.92725,1.62933,20.71143,20.71143,0,0,0-5.1513,1.74548.46164.46164,0,0,0-.28864.4679c.01343.56726.00452,1.13489.00391,1.70239a17.01414,17.01414,0,0,0,.08691,2.48114c.02137.12964-.02386.27668.22766.22284a21.87887,21.87887,0,0,0,3.02778-.84082c.22271-.0824.31579-.18359.29608-.40252a22.18638,22.18638,0,0,1,.0946-2.479,12.41,12.41,0,0,1,.18018-1.59289c.01581-.10382-.01435-.36969.29584-.22724a5.88728,5.88728,0,0,1,2.71636,1.88037c.23963.36853.59113.75678.48462,1.17261a2.81965,2.81965,0,0,1-1.00531,1.56439,9.65171,9.65171,0,0,1-2.28674,1.18689c-1.31628.52259-2.73816.76984-4.06482,1.26276a22.29,22.29,0,0,0-4.35864,1.83118,8.34836,8.34836,0,0,0-2.5979,2.12493,6.25267,6.25267,0,0,0-1.36536,4.68506,4.86259,4.86259,0,0,0,1.61829,2.78125,1.03334,1.03334,0,0,0,1.33331.24628,41.391,41.391,0,0,1,3.87164-2.155c.204-.09888.17426-.17724.12061-.33307-.1535-.44525-.28711-.89618-.41553-1.34784a1.36459,1.36459,0,0,1,.69092-1.58069,18.53727,18.53727,0,0,1,4.20178-1.75091,45.71755,45.71755,0,0,0,7.23554-2.44775A7.81549,7.81549,0,0,0,192.6677,116.87811Z"/><path class="cls-2" d="M158.43687,86.53369a12.0216,12.0216,0,0,0,2.31915,2.328,31.93691,31.93691,0,0,0,5.35229,2.90265.3655.3655,0,0,0,.50586-.085,9.22976,9.22976,0,0,1,1.28974-1.16736,19.80141,19.80141,0,0,1,5.155-2.64563c.534-.19061,1.08978-.33252,1.74151-.52862-1.10058-.21-2.09332-.38636-3.07892-.58985a23.626,23.626,0,0,1-6.38653-1.98919c-.58209-.30909-1.27216-.51581-1.6012-1.13587a3.15634,3.15634,0,0,1-.16321-2.10834c.01508-.08972.04139-.14172.15412-.15209a7.52346,7.52346,0,0,1,2.74341.06372,9.04967,9.04967,0,0,1,2.33679,1.33178,3.94808,3.94808,0,0,0,1.80694.71778,12.20317,12.20317,0,0,0,3.852-.21588c1.21637-.33069,1.9209-.9007,1.86579-2.08759a5.17261,5.17261,0,0,0-2.65369-4.38074,6.798,6.798,0,0,0-3.61871-.97265c-1.53028-.00281-3.05762.01825-4.58319.15472a12.512,12.512,0,0,0-5.1109,1.44183,6.59026,6.59026,0,0,0-2.47077,2.17261,6.34958,6.34958,0,0,0-.64917,4.7229A5.17836,5.17836,0,0,0,158.43687,86.53369Zm12.34118-6.93506a2.71272,2.71272,0,0,1,2.43579-.16119c.09082.02423.13813.17865.20356.27392-1.20569.71326-1.85773.8266-2.42786.439C170.76768,79.99951,170.51957,79.78815,170.77805,79.59863Z"/><path class="cls-2" d="M181.953,126.69464a19.77628,19.77628,0,0,1-2.32989,1.4278c-2.21045,1.23571-4.54487,2.29583-6.63,3.709q-.93988.634-1.85541,1.29474c-.4115.297-.42022.38519.00861.64239.13013.07819.12933.35346.46142.22681,1.25263-.47772,2.52009-.92468,3.75031-1.44849,1.50659-.64148,3.06256-1.17883,4.60419-1.74609a47.04451,47.04451,0,0,0,6.17877-2.69049,8.12862,8.12862,0,0,0,2.49859-2.119,3.37431,3.37431,0,0,0,.74909-2.92023,4.63166,4.63166,0,0,0-.43659-1.38018c-.11346-.19275-.20385-.22486-.39758-.082a5.98774,5.98774,0,0,1-.84118.5545,20.11185,20.11185,0,0,1-3.99207,1.42261c-1.50055.39148-3.00769.76159-4.4928,1.199-.17029.05017-.277.10419-.31982.30359a21.72053,21.72053,0,0,0-.09119,2.43823c1.38812-.9013,2.80267-1.57708,4.07459-2.55633A2,2,0,0,1,181.953,126.69464Z"/><path class="cls-2" d="M179.73026,141.12543c.01764.18432-.03351.49438.24109.509a6.17482,6.17482,0,0,0,1.71094-.055c.16888-.03833.152-.11811.16931-.22229.1438-.86274.23969-1.73066.36231-2.59534.20953-1.47748.29083-2.96344.4215-4.44556.08594-.97467.16919-1.94842.29175-2.92761.05854.01733.10163.02624.141.04224a35.30955,35.30955,0,0,0,6.56891,2.11419,1.0265,1.0265,0,0,0,1.05451-.27954c.14465-.13513.17138-.16919.0202-.29993-.66608-.57611-1.29407-1.18908-2.02033-1.707a16.55647,16.55647,0,0,0-2.24731-1.40875,1.40416,1.40416,0,0,0-1.1861-.107c-.53.18567-1.03772.40362-1.54358.6289-1.37713.61328-2.83489,1.06775-4.1994,1.70539a1.03154,1.03154,0,0,0-.69189.993c-.0285,1.51062.33948,2.98565.44165,4.48218C179.34678,138.75213,179.61576,139.93011,179.73026,141.12543Z"/><path class="cls-2" d="M182.74461,101.02142c.00494-.66943.00518-1.33764.05969-2.00921.07983-.98487.01147-1.97883.02673-2.96863.00391-.25476-.13611-.308-.34784-.25653a7.19382,7.19382,0,0,1-1.585.06988,13.23919,13.23919,0,0,0-1.649.18695c-.11572.01685-.35345.00086-.325.234a11.8072,11.8072,0,0,1-.09625,1.29132c.0202,1.6355.00806,3.27136.00806,4.93561a16.59736,16.59736,0,0,0,3.60156-1.08252C182.63926,101.32782,182.743,101.24548,182.74461,101.02142Z"/><path class="cls-2" d="M22.428,238.15985H8.81144v29.97559h8.16321V258.11011H22.428c7.88287,0,10.68035-5.37366,10.68035-9.9751S30.31083,238.15985,22.428,238.15985ZM20.745,251.31708H16.97471l-.00006-6.36615H20.745c3.246,0,4.39692.83313,4.39692,3.18408C25.142,250.48389,23.99107,251.31708,20.745,251.31708Z"/><path class="cls-2" d="M57.18217,256.555c0,3.83228-1.16364,5.06183-4.78839,5.06183-3.9552,0-4.75-1.93677-4.75-5.06183V238.15985H39.48045V256.555c0,7.89771,4.58575,12.2464,12.91333,12.2464,8.35113,0,12.95068-4.34869,12.95068-12.2464V238.15985H57.18217Z"/><path class="cls-2" d="M93.19437,251.7489a6.96385,6.96385,0,0,0,2.62342-5.65106c0-5.2674-3.34241-7.938-9.93482-7.938H71.71751v29.97559h14.556c6.60711,0,10.87616-3.57752,10.87616-9.11347A7.87554,7.87554,0,0,0,93.19437,251.7489Zm-13.31347-6.798H84.628c2.67547,0,3.22339.88134,3.22339,2.20434,0,.5744,0,2.32239-2.75128,2.32239H79.8809Zm5.57025,16.39245H79.8809v-5.66089h5.68841c3.02948,0,3.418,1.59546,3.418,2.98633C88.98734,259.99182,88.5673,261.34338,85.45115,261.34338Z"/><polygon class="cls-2" points="111.686 238.16 103.523 238.16 103.523 268.136 125.314 268.136 125.314 260.952 111.686 260.952 111.686 238.16"/><rect class="cls-2" x="131.6854" y="238.15985" width="8.16327" height="29.97559"/><path class="cls-2" d="M166.31864,256.23041a5.38881,5.38881,0,0,1-5.34418,5.38641c-6.11529,0-6.59039-6.3927-6.59039-8.35211,0-2.01453.4751-8.58722,6.59039-8.58722a5.06107,5.06107,0,0,1,5.111,4.028l.122.86658h7.95666l-.1289-1.12231c-.75342-6.553-6.0022-10.95588-13.06086-10.95588-8.82428,0-14.75268,6.33765-14.75268,15.77082,0,9.14783,6.0661,15.53668,14.75268,15.53668A12.7859,12.7859,0,0,0,174.26969,256.546l.0036-.09723.09839-1.09772h-7.94092Z"/><polygon class="cls-2" points="205.681 249.529 196.359 249.529 196.359 238.779 188.181 238.779 188.181 268.812 196.359 268.812 196.359 256.726 205.681 256.726 205.681 268.812 213.859 268.812 213.859 238.779 205.681 238.779 205.681 249.529"/><polygon class="cls-2" points="227.815 256.767 241.389 256.767 241.389 249.962 227.815 249.962 227.815 245.977 242.605 245.977 242.605 238.779 219.636 238.779 219.636 268.812 242.918 268.812 242.918 261.616 227.815 261.616 227.815 256.767"/><path class="cls-2" d="M256.6157,238.77887,245.216,268.81213h8.41657l2.19787-6.23846h9.03839l2.11988,6.23846h8.57312l-11.2323-30.03326Zm1.53748,17.18481,2.24408-6.32324,2.172,6.32324Z"/><polygon class="cls-2" points="286.656 238.779 278.477 238.779 278.477 268.812 300.308 268.812 300.308 261.616 286.656 261.616 286.656 238.779"/><polygon class="cls-2" points="298.138 245.977 306.533 245.977 306.533 268.812 314.712 268.812 314.712 245.977 323.108 245.977 323.108 238.779 298.138 238.779 298.138 245.977"/><polygon class="cls-2" points="344.754 249.529 335.433 249.529 335.433 238.779 327.254 238.779 327.254 268.812 335.433 268.812 335.433 256.726 344.754 256.726 344.754 268.812 352.933 268.812 352.933 238.779 344.754 238.779 344.754 249.529"/><polygon class="cls-2" points="28.234 218.316 16.783 218.316 16.783 199.075 8.811 199.075 8.811 224.948 28.234 224.948 28.234 218.316"/><rect class="cls-2" x="33.44944" y="199.07532" width="7.97198" height="25.87225"/><polygon class="cls-2" points="63.126 212.917 63.053 212.917 55.516 199.075 47.363 199.075 47.363 224.948 54.9 224.948 54.9 210.816 54.973 210.816 62.908 224.948 70.662 224.948 70.662 199.075 63.126 199.075 63.126 212.917"/><path class="cls-2" d="M92.14768,213.17108c0,2.60876,0,5.94269-3.7688,5.94269-3.91327,0-3.87719-3.33393-3.87719-5.94269V199.07532h-7.9715v15.87133c0,7.21082,3.841,10.617,11.81256,10.617,7.97205,0,11.77649-3.40613,11.77649-10.617V199.07532H92.14768Z"/><polygon class="cls-2" points="130.229 199.075 121.387 199.075 117.546 206.105 113.633 199.075 104.284 199.075 112.8 211.178 103.451 224.948 112.582 224.948 117.148 217.229 121.568 224.948 131.171 224.948 121.931 211.251 130.229 199.075"/><polygon class="cls-2" points="155.652 210.768 143.571 210.768 143.571 201.654 157.171 201.654 157.171 199.605 141.17 199.605 141.17 224.826 143.571 224.826 143.571 212.816 155.652 212.816 155.652 210.768"/><path class="cls-2" d="M170.70274,199.07532c-7.94825,0-11.90454,6.217-11.90454,13.14038,0,6.92376,3.95629,13.1408,11.90454,13.1408,7.91259,0,11.86889-6.217,11.86889-13.1408C182.57163,205.29236,178.61533,199.07532,170.70274,199.07532Zm0,24.2323c-6.67633,0-9.50226-5.58112-9.50226-11.09192,0-5.51038,2.82593-11.09192,9.50226-11.09192,6.64074,0,9.46667,5.58154,9.46667,11.09192C180.16941,217.7265,177.34348,223.30762,170.70274,223.30762Z"/><path class="cls-2" d="M195.85819,225.3565c7.02973,0,9.82007-4.41558,9.82007-9.60815V199.60492H203.276v15.6134c0,5.82855-2.71918,8.0893-7.41779,8.0893-4.663,0-7.383-2.26075-7.383-8.0893v-15.6134h-2.40143v16.14343C186.07377,220.94092,188.8997,225.3565,195.85819,225.3565Z"/><polygon class="cls-2" points="212.888 203.49 212.959 203.49 227.654 224.826 230.338 224.826 230.338 199.605 227.936 199.605 227.936 220.941 227.865 220.941 213.171 199.605 210.486 199.605 210.486 224.826 212.888 224.826 212.888 203.49"/><path class="cls-2" d="M255.70542,212.2157c0-8.33631-3.95636-12.43415-11.58679-12.61078H235.3942v25.22156h8.72443C251.74906,224.64984,255.70542,220.55243,255.70542,212.2157ZM242.918,222.77759h-5.12232V201.65381H242.918c7.24151,0,10.38519,3.00262,10.38519,10.56189S250.15946,222.77759,242.918,222.77759Z"/><path class="cls-2" d="M269.66221,199.60492h-2.68445l-10.17334,25.22156h2.57849l3.03864-7.84186h11.48l3.07336,7.84186h2.57855ZM263.163,214.93573l5.05109-12.92859,4.87482,12.92859Z"/><polygon class="cls-2" points="285.526 224.826 287.929 224.826 287.929 201.654 296.724 201.654 296.724 199.605 276.731 199.605 276.731 201.654 285.526 201.654 285.526 224.826"/><rect class="cls-2" x="299.27061" y="199.60492" width="2.40222" height="25.22156"/><path class="cls-2" d="M317.49809,199.07532c-7.94819,0-11.90455,6.217-11.90455,13.14038,0,6.92376,3.95636,13.1408,11.90455,13.1408,7.91265,0,11.86895-6.217,11.86895-13.1408C329.367,205.29236,325.41074,199.07532,317.49809,199.07532Zm0,24.2323c-6.67634,0-9.50226-5.58112-9.50226-11.09192,0-5.51038,2.82592-11.09192,9.50226-11.09192,6.64074,0,9.46667,5.58154,9.46667,11.09192C326.96476,217.7265,324.13883,223.30762,317.49809,223.30762Z"/><polygon class="cls-2" points="350.531 199.605 350.531 220.941 350.46 220.941 335.765 199.605 333.081 199.605 333.081 224.826 335.483 224.826 335.483 203.49 335.554 203.49 350.248 224.826 352.933 224.826 352.933 199.605 350.531 199.605"/></svg>