<svg id="Layer_1" data-name="Layer 1" xmlns="http://www.w3.org/2000/svg" viewBox="0 0 748.59998 174.39999"><polygon points="15.3 61.8 15.3 30.6 0 30.6 0 77.4 45.8 77.4 45.8 61.8 15.3 61.8"/><polygon points="77.1 0 0 0 0 23.2 15.3 23.2 15.3 15.6 61.8 15.6 61.8 61.9 54 61.9 54 77.4 77.1 77.4 77.1 0"/><polygon points="96.6 0 120.4 0 120.4 57.5 154.5 57.5 154.5 77.3 96.6 77.3 96.6 0"/><polygon points="164.6 0 224.2 0 224.2 19.8 188.3 19.8 188.3 29.5 219 29.5 219 48 188.3 48 188.3 77.5 164.5 77.5 164.5 0 164.6 0"/><path d="M46.4,119.5c0,7.4-2.5,13.1-7.6,17.1s-12.2,6-21.5,6H5.4v31.8H0v-77H18.9C37.2,97.4,46.4,104.8,46.4,119.5ZM5.4,138H16c8.7,0,14.9-1.4,18.8-4.3s5.8-7.5,5.8-13.9c0-5.9-1.8-10.3-5.5-13.2s-9.3-4.3-17-4.3H5.4V138Z"/><path d="M117.8,97.4v49c0,8.7-2.6,15.6-7.6,20.4-5,4.9-12.1,7.4-21.1,7.4-8.8,0-15.7-2.5-20.6-7.4s-7.4-11.8-7.4-20.6V97.4h5.3v49c0,7.3,2.1,13,6.1,17s9.7,6.1,17.1,6.1q10.8,0,16.8-6c3.9-4,6-9.5,6-16.6V97.4Z"/><path d="M132.7,97.4h21.1q14.25,0,21,4.8c4.5,3.2,6.7,8.1,6.7,14.6a15.67947,15.67947,0,0,1-4.1,11.1c-2.7,3-6.7,4.9-11.9,5.7v.3c6.1.9,10.7,2.9,13.6,5.8,2.9,3,4.3,7.1,4.3,12.4,0,7.1-2.4,12.6-7.1,16.4s-11.4,5.7-20,5.7H132.7Zm5.4,34.3h17c7.2,0,12.5-1.2,15.8-3.6s4.9-6.2,4.9-11.3-1.9-8.8-5.6-11.2-9.2-3.5-16.6-3.5H138.1l0,29.6Zm0,4.7v33.2h18.1c14.3,0,21.4-5.8,21.4-17.4,0-10.5-7.6-15.8-22.6-15.8Z"/><path d="M198.3,174.2V97.4h5.4v71.7h36.6v5.1Z"/><path d="M255.1,174.4v-77h5.4v77Z"/><path d="M311.1,102q-14.1,0-22.2,9c-5.4,6-8.1,14.2-8.1,24.7,0,10.7,2.5,19,7.6,24.9s12.4,8.9,21.8,8.9a59.30075,59.30075,0,0,0,17.3-2.4v4.6a57.62316,57.62316,0,0,1-18.5,2.6c-10.5,0-18.8-3.4-24.8-10.2s-9.1-16.3-9.1-28.5a44.36754,44.36754,0,0,1,4.3-20.1,30.96871,30.96871,0,0,1,12.4-13.4c5.4-3.2,11.7-4.7,18.9-4.7a45.80977,45.80977,0,0,1,19.6,4.1l-2.1,4.7A36.64323,36.64323,0,0,0,311.1,102Z"/><path d="M414.4,174.2H409V136.4H364.1v37.8h-5.4V97.4h5.4v34.1H409V97.4h5.4Z"/><path d="M471.1,174.1H429.2V97.4h41.9v5H434.5v29h34.6v5H434.5v32.9h36.6Z"/><path d="M533.9,147.2h-31l-10.6,27h-6l30.8-76.8h3.4l30.1,76.8h-6.1Zm-29.1-4.8h27.3l-10.4-27.6c-.9-2.2-1.9-5.2-3.2-9a74.15011,74.15011,0,0,1-3.1,9.1Z"/><path d="M565.6,174.3V97.4H571v71.8h36.7v5.1H565.6Z"/><path d="M653,174.2h-5.4V102.5h-24.9V97.4H678v5.1H653.1l-.1,71.7Z"/><path d="M748.6,174.2h-5.4V136.4h-44.9v37.8h-5.4V97.4h5.4v34.1h44.9V97.4h5.4v76.8Z"/></svg>