<svg id="Layer_1" data-name="Layer 1" xmlns="http://www.w3.org/2000/svg" viewBox="0 0 2165.5892 1884"><defs><style>.cls-1{fill:#00746d;}.cls-2{fill:#fff;}.cls-3{fill:#6dc612;fill-rule:evenodd;}</style></defs><rect class="cls-1" x="0.34886" y="-2.80851" width="2165.5892" height="1884"/><g id="covid-green-logo-inverse"><path id="COVID" class="cls-2" d="M351.47865,1372.56182q45.05728,0,78.04116-14.56263a138.478,138.478,0,0,0,54.89011-43.19034h0L451.05266,1279.709a16.24047,16.24047,0,0,0-5.7255-3.85845,16.72223,16.72223,0,0,0-13.19355.49783,29.43723,29.43723,0,0,0-6.47232,4.10744,103.02937,103.02937,0,0,1-14.81161,10.82867,81.17546,81.17546,0,0,1-15.434,7.09472,86.31162,86.31162,0,0,1-17.54991,3.85845,178.73283,178.73283,0,0,1-20.91052,1.12015A91.173,91.173,0,0,1,319.615,1295.641a87.67611,87.67611,0,0,1-30.49447-22.52866q-13.06917-14.81161-20.66161-36.469t-7.59255-49.53809q0-26.636,7.59255-48.04445t21.15944-36.469a91.69478,91.69478,0,0,1,32.486-23.151q18.91906-8.09022,41.82105-8.09038a117.21027,117.21027,0,0,1,23.02649,1.99147,104.93109,104.93109,0,0,1,17.17657,4.85426,75.45064,75.45064,0,0,1,12.69565,6.22341q5.35209,3.36069,9.83294,6.2234a93.57048,93.57048,0,0,0,8.46379,4.85426,18.67343,18.67343,0,0,0,8.46379,1.99147q6.72126,0,10.45526-2.86279a36.131,36.131,0,0,0,6.47232-6.3479h0l28.37858-38.087a139.18634,139.18634,0,0,0-23.39991-19.54138,158.68846,158.68846,0,0,0-28.8764-15.185,187.98823,187.98823,0,0,0-33.73075-9.95743,195.93352,195.93352,0,0,0-38.46042-3.60953q-42.07,0-76.92094,13.69146t-59.86886,38.33593a173.89531,173.89531,0,0,0-38.95825,58.62413q-13.94046,33.97974-13.94038,74.55606,0,39.82973,12.19782,73.80923,12.19777,33.97974,34.97531,58.74863T277.4205,1358.497Q310.15547,1372.56189,351.47865,1372.56182Zm398.06729,0q42.319,0,77.04536-14.18929t59.3711-39.20725a176.39491,176.39491,0,0,0,38.21144-58.87313q13.567-33.85508,13.567-73.1869,0-39.08276-13.567-72.93792a175.03254,175.03254,0,0,0-38.21144-58.74863q-24.64463-24.89346-59.3711-39.20724-34.72625-14.31382-77.04536-14.31379-42.3188,0-77.16984,14.18929t-59.61995,39.08283a174.08984,174.08984,0,0,0-38.33593,58.74855q-13.567,33.85532-13.567,73.18691,0,39.33182,13.567,73.1869a175.43922,175.43922,0,0,0,38.33593,58.87313q24.769,25.01788,59.61995,39.20725T749.54594,1372.56182Zm0-69.7018q-24.39555,0-43.43918-7.84139a84.99477,84.99477,0,0,1-32.11253-22.77765q-13.06905-14.936-20.0392-36.469-6.97023-21.53277-6.97023-48.66677,0-26.88486,6.97023-48.41779,6.97-21.533,20.0392-36.469a86.20124,86.20124,0,0,1,32.11253-22.902q19.0437-7.966,43.43918-7.966,24.14673,0,43.06586,7.966a86.42009,86.42009,0,0,1,31.988,22.902q13.06905,14.936,20.03936,36.469,6.97023,21.53277,6.97007,48.41779,0,27.13392-6.97007,48.66677-6.97023,21.533-20.03936,36.469a85.20006,85.20006,0,0,1-31.988,22.77765Q773.69274,1302.86,749.54594,1302.86Zm462.29259,65.71885,145.378-362.69826h-68.20815q-10.45534,0-17.6744,5.60108t-9.70852,12.57123h0l-69.7018,194.1692q-4.48068,12.69579-9.086,27.63175-4.60534,14.93627-8.09038,31.36587-4.23186-16.42976-9.0862-31.36587-4.85418-14.936-9.584-27.63175h0l-70.19962-194.1692a27.27624,27.27624,0,0,0-9.95736-13.19355q-6.97022-4.97873-17.92339-4.97876H990.28634l145.37815,362.69826Zm324.38264,0V1005.88061h-84.63791v362.69826Zm265.136,0q42.319,0,77.04519-13.567,34.72649-13.567,59.37111-37.8381a169.76707,169.76707,0,0,0,38.21144-57.504q13.567-33.23275,13.56712-72.56458,0-39.08276-13.56712-72.31559a168.44372,168.44372,0,0,0-38.21144-57.37948q-24.64463-24.14673-59.37111-37.83811-34.726-13.69139-77.04519-13.69146H1660.46v362.69826Zm0-64.723h-56.25933V1070.60365h56.25933q24.14671,0,43.06569,8.09054a87.02361,87.02361,0,0,1,31.98819,23.15083q13.06883,15.06067,20.03936,36.71795,6.96977,21.65742,6.96992,48.54228,0,27.13392-6.96992,48.79127-6.97023,21.65742-20.03936,36.71795a87.02568,87.02568,0,0,1-31.98819,23.151q-18.91905,8.09023-43.06569,8.09038Z"/><path id="GREEN" class="cls-2" d="M293.11521,1729.30086a213.52409,213.52409,0,0,0,26.40486-1.52031,144.84892,144.84892,0,0,0,22.80424-4.64077,122.62645,122.62645,0,0,0,20.00371-7.76155,127.2197,127.2197,0,0,0,18.00331-10.882h0V1616.48h-70.413v17.60324a5.74632,5.74632,0,0,0,1.84038,4.32077,6.76689,6.76689,0,0,0,4.88085,1.76031h35.52664v50.56941q-6.08117,3.20046-12.16224,5.68108a99.75147,99.75147,0,0,1-12.96247,4.24077,108.349,108.349,0,0,1-14.6427,2.64047,151.92758,151.92758,0,0,1-17.04316.88015,89.33953,89.33953,0,0,1-33.92625-6.24123,74.93729,74.93729,0,0,1-26.56493-18.08324,81.94617,81.94617,0,0,1-17.36317-28.8854q-6.16115-17.04324-6.16115-38.8071,0-20.80393,5.92108-37.52694a80.03064,80.03064,0,0,1,16.96316-28.4854,74.13028,74.13028,0,0,1,26.72494-18.08324q15.68289-6.32115,35.04647-6.32123a110.614,110.614,0,0,1,22.96425,2.08046,97.26127,97.26127,0,0,1,16.80308,5.04093,76.7386,76.7386,0,0,1,12.08224,6.16108q4.96092,3.20068,8.96169,5.44108a11.34138,11.34138,0,0,0,5.601,1.76031q4.32081,0,7.04131-4.32093h0l8.80162-14.08247A112.92473,112.92473,0,0,0,362.408,1511.7406a101.01548,101.01548,0,0,0-18.4834-9.1217,118.20313,118.20313,0,0,0-21.684-5.76108,150.01479,150.01479,0,0,0-25.2847-2.00031q-26.885,0-48.569,8.48155a102.86871,102.86871,0,0,0-60.49118,60.97126q-8.24162,21.60393-8.24154,47.84894,0,25.92464,8.40154,47.52879a108.97842,108.97842,0,0,0,23.44432,37.04679,105.3934,105.3934,0,0,0,35.84663,24.00447Q268.15054,1729.30094,293.11521,1729.30086Zm361.87051-2.56047v-95.69773H678.51q6.40116,0,9.60185,1.6803a17.33991,17.33991,0,0,1,5.92108,5.52108h0l59.531,81.93512q4.00068,6.56115,12.48231,6.56123h27.52509L726.679,1635.68358a32.78706,32.78706,0,0,0-10.24185-9.76185,87.93268,87.93268,0,0,0,23.76432-8.9617,66.53809,66.53809,0,0,0,17.76339-14.32262,60.01856,60.01856,0,0,0,11.122-18.96355,65.99275,65.99275,0,0,0,3.84061-22.72416,67.12216,67.12216,0,0,0-4.96077-26.32478,50.94254,50.94254,0,0,0-15.28293-20.08386q-10.32184-8.32139-26.16478-12.72231-15.843-4.4007-37.60694-4.40077H624.1v229.32241Zm32.486-118.2619h-32.486v-86.576h33.92633q26.72485,0,40.2474,10.402t13.52247,30.88571a46.76892,46.76892,0,0,1-3.52062,18.4034,38.4983,38.4983,0,0,1-10.482,14.32262,48.67654,48.67654,0,0,1-17.28309,9.28169,79.08878,79.08878,0,0,1-23.92447,3.28062Zm473.73118,118.2619v-25.28462H1051.10256v-78.2545h89.1365v-24.32448h-89.1365V1522.7026h110.10036V1497.418H1019.89685v229.32241Zm378.83359,0v-25.28462H1429.93615v-78.2545h89.13651v-24.32448h-89.13651V1522.7026h110.10036V1497.418H1398.73045v229.32241Zm264.73262,0V1563.35016q0-3.20068-.16-7.04123-.16-3.84093-.48015-7.84154h0l132.66468,172.67192a15.55686,15.55686,0,0,0,4.88092,4.32078,13.33929,13.33929,0,0,0,6.16093,1.2803h15.68308V1497.418h-27.20524v162.43007q0,3.6807.16,7.60139.16045,3.9207.64031,8.08155h0L1804.289,1502.6989a15.94208,15.94208,0,0,0-4.56077-4.24077,13.92734,13.92734,0,0,0-6.16124-1.04015H1777.564v229.32241Z"/><g id="Group"><g id="knot"><g id="Combined-Shape"><path class="cls-3" d="M1420.64345,183.49115a113.42148,113.42148,0,0,1,0,160.4022L1392.046,372.49086a321.94577,321.94577,0,0,0-24.41271-44.02308l18.69628-18.69883a68.053,68.053,0,0,0-95.43909-97.03063l-.80222.78932-150.293,150.29178-29.942-29.942,150.38792-150.3863A113.42148,113.42148,0,0,1,1420.64345,183.49115Z"/><path class="cls-3" d="M1310.17534,293.95926c84.34881,84.34881,108.31884,206.26678,71.989,312.22368l-36.53954-36.53845c20.853-84.58005-1.6711-177.55648-67.62467-243.51a257.71956,257.71956,0,0,0-37.44707-30.99579l32.67083-32.66873A303.76763,303.76763,0,0,1,1310.17534,293.95926Z"/><path class="cls-3" d="M1301.69007,393.53944a254.75444,254.75444,0,0,1,20.99639,45.3033L1143.26827,618.25989l-33.14978-33.14977Zm60.3694,5.92925-4.26274,4.26331q-3.49054-8.08884-7.47459-16.00708Z"/></g><g id="Group-2" data-name="Group"><g id="Combined-Shape-2" data-name="Combined-Shape"><path class="cls-3" d="M1418.57467,835.75157a113.42148,113.42148,0,0,1-160.4022,0L1229.575,807.15412a321.94577,321.94577,0,0,0,44.02308-24.41271l18.69883,18.69629a68.053,68.053,0,0,0,97.03064-95.4391l-.78933-.80222-150.29178-150.293,29.942-29.942,150.3863,150.38792A113.42148,113.42148,0,0,1,1418.57467,835.75157Z"/><path class="cls-3" d="M1308.10656,725.28347c-84.34881,84.3488-206.26678,108.31883-312.22368,71.989l36.53845-36.53954c84.58005,20.85305,177.55648-1.6711,243.51-67.62467a257.71948,257.71948,0,0,0,30.99579-37.44706l32.66873,32.67082A303.76772,303.76772,0,0,1,1308.10656,725.28347Z"/><path class="cls-3" d="M1208.52638,716.79819a254.75444,254.75444,0,0,1-45.3033,20.99639L983.80593,558.37639l33.14977-33.14978Zm-5.92925,60.3694-4.26331-4.26274q8.08884-3.49054,16.00708-7.47459Z"/></g></g><g id="Group-3" data-name="Group"><g id="Combined-Shape-3" data-name="Combined-Shape"><path class="cls-3" d="M768.76243,833.63233a113.42148,113.42148,0,0,1,0-160.4022l28.59745-28.59751a321.94577,321.94577,0,0,0,24.41271,44.02308l-18.69628,18.69883a68.053,68.053,0,0,0,95.4391,97.03063l.80221-.78932,150.293-150.29178,29.942,29.942L929.16462,833.63232A113.42147,113.42147,0,0,1,768.76243,833.63233Z"/><path class="cls-3" d="M879.23054,723.16422c-84.34881-84.34881-108.31884-206.26678-71.989-312.22368L843.78106,447.479c-20.85306,84.58,1.6711,177.55647,67.62466,243.51a257.71956,257.71956,0,0,0,37.44707,30.99579L916.182,754.65355A303.76839,303.76839,0,0,1,879.23054,723.16422Z"/><path class="cls-3" d="M887.71581,623.584a254.75515,254.75515,0,0,1-20.99639-45.3033l179.4182-179.41716,33.14977,33.14978Zm-60.3694-5.92925,4.26274-4.26331q3.49056,8.08884,7.47459,16.00708Z"/></g></g><g id="Group-4" data-name="Group"><g id="Combined-Shape-4" data-name="Combined-Shape"><path class="cls-3" d="M769.76186,180.3025a113.42148,113.42148,0,0,1,160.4022,0L958.76156,208.9a321.94626,321.94626,0,0,0-44.02307,24.41271l-18.69883-18.69629a68.053,68.053,0,0,0-97.03064,95.4391l.78932.80222,150.29179,150.293-29.942,29.942L769.76186,340.70469A113.42148,113.42148,0,0,1,769.76186,180.3025Z"/><path class="cls-3" d="M880.23,290.7706c84.34881-84.3488,206.26678-108.31883,312.22368-71.989l-36.53845,36.53954c-84.58006-20.853-177.55648,1.6711-243.51,67.62467a257.72077,257.72077,0,0,0-30.99579,37.44706L848.74064,327.722A303.76683,303.76683,0,0,1,880.23,290.7706Z"/><path class="cls-3" d="M979.81015,299.25588a254.75444,254.75444,0,0,1,45.3033-20.99639L1204.5306,457.67768l-33.14978,33.14978Zm5.92925-60.3694,4.26331,4.26273q-8.08884,3.49056-16.00709,7.4746Z"/></g></g></g></g></g></svg>