<svg id="Layer_1" data-name="Layer 1" xmlns="http://www.w3.org/2000/svg" viewBox="0 0 400 310"><defs><style>.cls-1{fill:#15a3a6;}.cls-2{fill:#fff;fill-rule:evenodd;}.cls-3{fill:#002d42;}</style></defs><path class="cls-1" d="M200.30552,7.9l-97.026,24.2565V104.926c0,72.76949,97.026,121.28247,97.026,121.28247s97.026-48.513,97.026-121.28248V32.1565Z"/><path class="cls-2" d="M163.92075,104.926a36.38862,36.38862,0,0,1,67.58893-18.72235l20.803-12.48179a60.64125,60.64125,0,1,0,0,62.40833l-20.803-12.48179A36.38861,36.38861,0,0,1,163.92077,104.926Z"/><path class="cls-3" d="M27.47314,300.89334a21.939,21.939,0,0,1-11.07749-2.723,18.15931,18.15931,0,0,1-7.24057-7.79755,26.257,26.257,0,0,1-2.53729-11.882,25.8666,25.8666,0,0,1,2.53729-11.82009,18.15712,18.15712,0,0,1,7.24057-7.79755,21.93724,21.93724,0,0,1,11.07749-2.72295,23.37683,23.37683,0,0,1,7.67378,1.23771,19.47642,19.47642,0,0,1,6.37417,3.46558,3.55,3.55,0,0,1,1.11393,1.29959,4.02617,4.02617,0,0,1,.30943,1.6709,3.54931,3.54931,0,0,1-.74262,2.28975,2.2298,2.2298,0,0,1-1.79468.92829,4.57684,4.57684,0,0,1-2.53729-.86641,17.6235,17.6235,0,0,0-4.95082-2.72295,15.22238,15.22238,0,0,0-5.07459-.80452q-6.43614,0-9.77788,4.02254-3.28,4.02231-3.27991,11.82008,0,7.85934,3.27991,11.882,3.34182,4.02235,9.77788,4.02254a14.30129,14.30129,0,0,0,4.88893-.80453,23.28487,23.28487,0,0,0,5.13648-2.72294,8.65108,8.65108,0,0,1,1.23771-.61887,3.464,3.464,0,0,1,1.29958-.24754,2.2298,2.2298,0,0,1,1.79468.92829,3.549,3.549,0,0,1,.74263,2.28974,4.30649,4.30649,0,0,1-.30943,1.67091A3.55315,3.55315,0,0,1,41.52109,296.19a20.41974,20.41974,0,0,1-6.37417,3.52741A24.50261,24.50261,0,0,1,27.47314,300.89334Zm41.09433,0a21.72394,21.72394,0,0,1-11.07749-2.723,18.27233,18.27233,0,0,1-7.17868-7.79755,29.27221,29.27221,0,0,1-.06187-23.70206A18.15477,18.15477,0,0,1,57.49,258.87323a21.72185,21.72185,0,0,1,11.07748-2.72295,21.38444,21.38444,0,0,1,11.01557,2.72295,17.78139,17.78139,0,0,1,7.17869,7.79755,25.85657,25.85657,0,0,1,2.53749,11.82009,26.2468,26.2468,0,0,1-2.53749,11.882,18.15946,18.15946,0,0,1-7.24058,7.79755A21.25991,21.25991,0,0,1,68.56747,300.89334Zm0-6.37419a11.328,11.328,0,0,0,9.34467-4.14631q3.40362-4.14649,3.4037-11.882,0-7.73575-3.4037-11.82009a11.32715,11.32715,0,0,0-9.34467-4.1463,11.57372,11.57372,0,0,0-9.46842,4.1463q-3.3418,4.08443-3.3418,11.82009,0,7.7355,3.3418,11.882A11.57432,11.57432,0,0,0,68.56747,294.51915Zm60.54136-36.0791a3.38105,3.38105,0,0,1,3.27991-2.10411,4.33739,4.33739,0,0,1,2.78485.99019,3.046,3.046,0,0,1,1.2377,2.4754,3.9969,3.9969,0,0,1-.37132,1.54713l-17.14222,36.88362a4.1724,4.1724,0,0,1-1.73279,1.85656,4.88967,4.88967,0,0,1-2.41353.61887,5.24718,5.24718,0,0,1-2.47541-.61887,4.28,4.28,0,0,1-1.6709-1.85656L93.52483,261.34863a3.89784,3.89784,0,0,1-.37132-1.48524,3.11015,3.11015,0,0,1,1.23771-2.53729,4.68312,4.68312,0,0,1,2.90861-.99019,3.47012,3.47012,0,0,1,1.91844.557,3.253,3.253,0,0,1,1.42335,1.54714l14.23361,31.62338Zm17.55222,42.26766a3.93276,3.93276,0,0,1-2.90861-1.114,4.06053,4.06053,0,0,1-1.05207-2.9086V260.35848a3.84379,3.84379,0,0,1,1.05207-2.84672,3.93286,3.93286,0,0,1,2.90861-1.11393,3.80869,3.80869,0,0,1,2.90859,1.11393,3.72833,3.72833,0,0,1,1.114,2.84672v36.32664a3.934,3.934,0,0,1-1.114,2.9086,3.80875,3.80875,0,0,1-2.90856,1.114Zm19.21538-.37132a3.9858,3.9858,0,0,1-2.84672-.99018,3.76837,3.76837,0,0,1-.99016-2.78484V260.48225a3.76788,3.76788,0,0,1,.99016-2.78483,3.98485,3.98485,0,0,1,2.84672-.99016H178.1297q10.70712,0,16.58526,5.75533,5.941,5.69328,5.941,16.02828,0,10.39671-5.941,16.15205-5.88,5.69329-16.58526,5.69344Zm11.75821-6.49791q15.03813,0,15.03811-15.34756,0-15.28587-15.03811-15.28567h-7.61189v30.6332Zm62.96245,7.05492a32.30371,32.30371,0,0,1-9.03524-1.2377,20.2222,20.2222,0,0,1-6.86927-3.46559,3.77108,3.77108,0,0,1-.68071-5.19835,2.35027,2.35027,0,0,1,1.85657-.99018,5.02891,5.02891,0,0,1,2.53729.86641,18.54745,18.54745,0,0,0,5.56968,2.78483,22.487,22.487,0,0,0,6.43608.86641,12.88035,12.88035,0,0,0,6.93114-1.54713,5.23964,5.23964,0,0,0,2.41351-4.6414,3.89655,3.89655,0,0,0-2.28977-3.58936,28.28978,28.28978,0,0,0-7.48812-2.4754,44.51171,44.51171,0,0,1-8.8496-2.723,12.484,12.484,0,0,1-5.13648-3.96064,10.23689,10.23689,0,0,1-1.73278-6.12665,11.52374,11.52374,0,0,1,2.166-6.86928,14.06906,14.06906,0,0,1,6.00287-4.70329,21.25544,21.25544,0,0,1,8.72581-1.73279q8.84767,0,14.41926,4.70328a4.06888,4.06888,0,0,1,1.114,1.36145,3.09584,3.09584,0,0,1,.37131,1.609,3.52962,3.52962,0,0,1-.80452,2.28974,2.2315,2.2315,0,0,1-1.79465.9283,3.68813,3.68813,0,0,1-1.17584-.18566,10.12891,10.12891,0,0,1-1.36145-.68075,19.8117,19.8117,0,0,0-4.9508-2.72295,15.92731,15.92731,0,0,0-5.81722-.9283,11.45816,11.45816,0,0,0-6.68359,1.73279,5.392,5.392,0,0,0-2.41353,4.70329,4.34284,4.34284,0,0,0,2.166,3.89879,25.37736,25.37736,0,0,0,7.36433,2.53729,46.88685,46.88685,0,0,1,8.91151,2.78483,12.75407,12.75407,0,0,1,5.26023,3.83688,9.19355,9.19355,0,0,1,1.85657,5.8791,11.26466,11.26466,0,0,1-2.166,6.80739,13.9935,13.9935,0,0,1-6.00287,4.57952,22.73326,22.73326,0,0,1-8.84959,1.609ZM281.979,269.33187q10.64329,0,10.64427,12.43892v15.22376a3.55636,3.55636,0,0,1-1.05207,2.72295,3.76363,3.76363,0,0,1-2.78484.99018,3.98579,3.98579,0,0,1-2.84672-.99018,3.55639,3.55639,0,0,1-1.05207-2.72295V281.77079q0-3.28-1.36144-4.76517a5.12251,5.12251,0,0,0-4.14631-1.54713,7.16187,7.16187,0,0,0-5.384,2.10408,7.87967,7.87967,0,0,0-1.98033,5.63156v13.80042a3.55639,3.55639,0,0,1-1.05207,2.72295,4.58721,4.58721,0,0,1-5.69344,0,3.68252,3.68252,0,0,1-.99016-2.72295V259.98716a3.40137,3.40137,0,0,1,1.05207-2.59918,4.12555,4.12555,0,0,1,2.84672-.99015,4.0575,4.0575,0,0,1,2.78483.92827,3.20775,3.20775,0,0,1,1.05207,2.53729v14.41926a9.95,9.95,0,0,1,4.08442-3.65125A12.96455,12.96455,0,0,1,281.979,269.33187Zm22.33864,31.37584a4.20317,4.20317,0,0,1-2.78483-.9283,3.63675,3.63675,0,0,1-1.05207-2.78483V273.10683a3.437,3.437,0,0,1,1.05207-2.723,4.64141,4.64141,0,0,1,5.56967,0,3.34218,3.34218,0,0,1,1.11395,2.723v23.88772a3.53174,3.53174,0,0,1-1.11395,2.78483,4.20316,4.20316,0,0,1-2.78484.9283Zm0-36.75985a4.80473,4.80473,0,0,1-3.34181-1.11393,3.99361,3.99361,0,0,1-1.2377-3.03237,3.79857,3.79857,0,0,1,1.2377-2.9705,4.80483,4.80483,0,0,1,3.34181-1.11393,4.71843,4.71843,0,0,1,3.27993,1.11393,3.71594,3.71594,0,0,1,1.29959,2.9705,4.00067,4.00067,0,0,1-1.23771,3.03237,4.8115,4.8115,0,0,1-3.34181,1.1139Zm35.82574,28.09589a2.00064,2.00064,0,0,1,1.6709.80452,3.25033,3.25033,0,0,1,.68075,2.166q0,1.91837-2.28977,3.218a21.72588,21.72588,0,0,1-4.76517,1.91845,20.49571,20.49571,0,0,1-5.07457.68075q-7.30443,0-11.57254-4.20819-4.27009-4.20826-4.27009-11.51066a17.65977,17.65977,0,0,1,1.85657-8.23073,13.56065,13.56065,0,0,1,5.19838-5.56966,14.974,14.974,0,0,1,7.67378-1.98034,13.71645,13.71645,0,0,1,7.1168,1.79468,12.17189,12.17189,0,0,1,4.70328,5.0746,16.83808,16.83808,0,0,1,1.67091,7.73567q0,2.661-2.35166,2.66106H322.1348q.37131,4.27008,2.41351,6.3123a8.20106,8.20106,0,0,0,5.941,1.98034,10.98122,10.98122,0,0,0,3.46558-.49509,33.13765,33.13765,0,0,0,3.46559-1.36145,6.82394,6.82394,0,0,1,2.723-.99015Zm-10.70616-17.266a6.74155,6.74155,0,0,0-5.07458,1.98034,9.46105,9.46105,0,0,0-2.22785,5.69344h13.98605a8.69708,8.69708,0,0,0-1.85656-5.69344A6.07931,6.07931,0,0,0,329.43723,274.77774Zm23.47,25.92994a4.20312,4.20312,0,0,1-2.78483-.9283,3.63671,3.63671,0,0,1-1.05207-2.78483V260.049a3.4369,3.4369,0,0,1,1.05207-2.72294,4.64139,4.64139,0,0,1,5.56966,0,3.34216,3.34216,0,0,1,1.114,2.72294v36.94551a3.53171,3.53171,0,0,1-1.114,2.78483,4.203,4.203,0,0,1-2.7848.9283Zm37.12538-44.30985a4.12548,4.12548,0,0,1,2.84669.99015,3.31087,3.31087,0,0,1,1.11393,2.59918v37.00739a3.485,3.485,0,0,1-1.05207,2.66106,4.41128,4.41128,0,0,1-5.56967,0,3.47811,3.47811,0,0,1-1.05207-2.66106v-1.54713a9.64952,9.64952,0,0,1-3.96068,3.96067,11.6925,11.6925,0,0,1-5.81721,1.42336,12.69194,12.69194,0,0,1-6.993-1.98031,13.44339,13.44339,0,0,1-4.76517-5.56966,19.87248,19.87248,0,0,1-1.6709-8.35451,19.03523,19.03523,0,0,1,1.6709-8.23072,13.08327,13.08327,0,0,1,4.76517-5.4459,12.79339,12.79339,0,0,1,6.993-1.91845,12.11578,12.11578,0,0,1,5.81721,1.36144,9.45918,9.45918,0,0,1,3.89879,3.83691V259.86339a3.22742,3.22742,0,0,1,.99016-2.47541,3.89292,3.89292,0,0,1,2.78483-.99015Zm-11.44877,38.43075a6.79434,6.79434,0,0,0,5.69344-2.53729q2.04221-2.53742,2.0422-7.24057,0-4.70347-2.0422-7.17869a6.72809,6.72809,0,0,0-5.63155-2.53729,7.04321,7.04321,0,0,0-5.75533,2.47541q-2.04218,2.4753-2.04222,7.1168,0,4.7032,2.04222,7.30246A6.831,6.831,0,0,0,378.58383,294.82858Z"/></svg>