<svg id="Layer_1" data-name="Layer 1" xmlns="http://www.w3.org/2000/svg" viewBox="0 0 360 360"><polygon points="76.587 144.873 7.481 144.873 7.481 351.797 214.49 351.797 214.49 282.812 76.587 282.812 76.587 144.873"/><polygon points="7.527 6.827 7.527 110.309 76.488 110.309 76.488 76.11 283.433 76.11 283.433 282.812 248.99 282.812 248.99 351.797 352.39 351.797 352.39 6.827 7.527 6.827"/><path d="M258.66254,118.02528c.09173-.91.22381-.96094,1.19275-.891a28.712,28.712,0,0,0,5.90972.18543,12.66323,12.66323,0,0,0,6.78656-3.09973,10.84887,10.84887,0,0,0,3.2815-5.62946c.10669-.40747.02521-.57995-.49188-.58124-1.48615-.00372-2.97217-.0772-4.45569-.12072-5.72614-.16809-11.46057.1441-17.188-.18518-1.92975-.111-3.8634-.0138-5.80243-.12537-2.51434-.14447-5.03833-.1842-7.5567-.34625-2.38837-.15375-4.77728-.28382-7.16327-.47931-2.96692-.2431-5.9278-.46076-8.86542-.95825a58.32584,58.32584,0,0,1-11.39319-2.8971,24.57226,24.57226,0,0,0-11.55664-1.92779,6.7722,6.7722,0,0,0-4.84033,1.96185,10.84826,10.84826,0,0,0-1.86389,3.19653,5.24289,5.24289,0,0,1-4.30316,3.527c-.831.15479-1.67536.2381-2.50531.40021-.473.09228-.55915.2395-.55536.60937.0152,1.46741.00622,2.935.00622,4.70728-.06079,1.606-.087,3.51855-.1358,5.4281-.126,4.97882-.09943,9.96234.11224,14.94281.02131.50287.26661.66345.68018.72833,2.57922.40448,5.14288.89978,7.74939,1.1521,2.32165.22479,4.65485.35516,6.97833.537a26.08561,26.08561,0,0,0,6.92481-.504,18.2392,18.2392,0,0,0,7.81579-3.4331,11.96633,11.96633,0,0,0,4.12671-4.32257c.21234-.47693.46851-.36982.82147-.11658a19.98824,19.98824,0,0,0,5.36872,2.62811,15.93368,15.93368,0,0,0,4.89361.84918,13.61557,13.61557,0,0,0,4.71411-1.11651,11.55942,11.55942,0,0,0,6.945-6.83173c.32489-.75793.733-.86224,1.50147-.79169a18.69146,18.69146,0,0,0,7.95605-.61432A6.56475,6.56475,0,0,0,258.66254,118.02528Z"/><path d="M164.71265,105.27241a6.00078,6.00078,0,0,0-4.01935-3.90479,16.52368,16.52368,0,0,0-6.82782-.33844,30.00488,30.00488,0,0,0-6.41223,1.64514,49.1596,49.1596,0,0,1-7.36426,2.29706,104.59136,104.59136,0,0,1-12.35974,1.75586c-3.092.244-6.18677.47791-9.28528.63458-2.51843.12732-5.04095.206-7.561.31006-2.61579.108-5.23975.03571-7.86017.16822-1.69763.08581-3.40522.01477-5.10834.01641-4.414.00422-8.82886-.04339-13.24.15839-.35437.01624-.77374-.06451-.66028.463a11.21525,11.21525,0,0,0,6.12219,7.69385,15.78993,15.78993,0,0,0,9.54883.99146c1.15241-.13312,1.42139-.0315,1.53668.99035a6.81334,6.81334,0,0,0,5.953,6.15662,21.53935,21.53935,0,0,0,6.99072.20178c.68408-.10028,1.13672.01325,1.39349.71912a11.49156,11.49156,0,0,0,6.91791,6.95764,13.184,13.184,0,0,0,9.47009.23736,21.92726,21.92726,0,0,0,5.958-2.94732,15.211,15.211,0,0,0,5.2077,5.37616A22.03731,22.03731,0,0,0,155.02,138.24177c2.38831.02533,4.77734-.23194,7.16382-.42829,3.258-.268,6.44671-.88617,9.67077-1.32055a.73023.73023,0,0,0,.74811-.83557q-.05567-12.40385.01013-24.80677c.00489-.92816-.63787-.84454-1.23394-.90393a13.06549,13.06549,0,0,1-3.14911-.66339A6.04186,6.04186,0,0,1,164.71265,105.27241Z"/><path d="M219.9364,144.67323a28.77539,28.77539,0,0,0-8.00177-2.28943c-2.60138-.38916-5.215-.50873-7.82281-.728a22.1481,22.1481,0,0,0-6.26056.46008,12.1789,12.1789,0,0,0-7.23987,4.27076,10.20141,10.20141,0,0,0-2.4317,7.1134,2.8976,2.8976,0,0,0,1.45819,2.38873,14.17418,14.17418,0,0,0,7.40106,1.68567,13.27109,13.27109,0,0,0,8.17035-2.69391,9.75122,9.75122,0,0,1,2.926-1.86352,14.70772,14.70772,0,0,1,4.593-.32679c1.29321.06018,1.29047.1056,1.29047,1.23926a18.09116,18.09116,0,0,0,.00958,1.84027,3.46519,3.46519,0,0,1-2.31622,3.60773,50.05531,50.05531,0,0,1-9.21259,3.51282,118.75826,118.75826,0,0,1-16.889,2.77929c-2.461.23761-4.925.07746-7.38848.257-1.79535.13111-3.58472.23761-5.35987.51807a39.81694,39.81694,0,0,0-13.21692,4.584,28.30709,28.30709,0,0,0-7.87756,6.40589,14.99518,14.99518,0,0,0-3.00757,5.11578,20.30753,20.30753,0,0,0-.78711,8.1441,11.58943,11.58943,0,0,0,4.48157,7.6211c1.02112.90576,2.21991,1.64953,3.30316,2.50213a4.90932,4.90932,0,0,0,5.64514.42719,21.27,21.27,0,0,1,3.05683-1.54327c2.97113-1.4358,6.18506-2.4148,9.19043-3.894-1.68787-1.06543-3.4477-2.0072-5.08-3.11566a6.08644,6.08644,0,0,1-2.39313-3.2558,12.1963,12.1963,0,0,1-.2-4.4378,3.25821,3.25821,0,0,1,1.60455-2.61261,11.32587,11.32587,0,0,1,3.05274-1.38025,65.35884,65.35884,0,0,1,13.10773-2.05212c1.91827-.11359,3.83874-.23151,5.75811-.3158a68.42557,68.42557,0,0,0,8.34961-1.23273,58.09466,58.09466,0,0,0,12.30139-3.94378,42.81113,42.81113,0,0,0,10.29071-6.14948,23.10578,23.10578,0,0,0,5.208-6.13879,6.66,6.66,0,0,0,1.08515-2.2262,15.95538,15.95538,0,0,0,.21325-5.35113A11.3406,11.3406,0,0,0,219.9364,144.67323ZM199.144,150.22828c-1.15252.78345-2.47046.5545-4.90741-.88727.13227-.1925.22785-.50464.41138-.55371a5.48317,5.48317,0,0,1,4.92358.32593C200.09387,149.49622,199.59241,149.92341,199.144,150.22828Z"/><path d="M156.71033,208.80634a13.4247,13.4247,0,0,0-4.07788,7.18653,9.67726,9.67726,0,0,0,.78192,5.79034,21.76563,21.76563,0,0,0,8.15722,7.95026.672.672,0,0,0,.89679-.05255,33.61958,33.61958,0,0,1,11.22406-5.22791,3.68984,3.68984,0,0,0,1.54541-.49646c-1.093-.66449-2.0932-1.34735-3.08911-2.03577a5.46049,5.46049,0,0,1-2.76727-5.40911,4.19845,4.19845,0,0,1,1.7962-3.38953,31.21868,31.21868,0,0,1,6.68439-3.13153c4.058-1.27478,8.16669-2.42145,12.22565-3.69409a55.68043,55.68043,0,0,0,12.57452-5.58606,22.45,22.45,0,0,0,5.81415-4.91614,12.61468,12.61468,0,0,0,3.00439-6.93909,16.52067,16.52067,0,0,0-2.30578-9.37073c-.36951-.67321-.50183-1.72522-1.25238-1.88214-.6864-.14343-1.56317.43732-2.35529.70069a47.60572,47.60572,0,0,1-8.53735,2.09924,40.19539,40.19539,0,0,1-6.70075.44928,10.26817,10.26817,0,0,1,2.59912,5.02094,6.77684,6.77684,0,0,1-2.75219,6.86871,27.76535,27.76535,0,0,1-10.22888,4.74634,63.15774,63.15774,0,0,0-18.64936,7.7315A24.7003,24.7003,0,0,0,156.71033,208.80634Z"/><path d="M185.40833,102.23768a10.57606,10.57606,0,0,0,3.47326-2.76154,9.48226,9.48226,0,0,0,2.50165-5.68115,10.57,10.57,0,0,0-4.0993-8.5979,12.16675,12.16675,0,0,0-10.62153-2.21252,11.41921,11.41921,0,0,0-5.08911,2.34552,11.211,11.211,0,0,0-3.64557,5.22985,12.35409,12.35409,0,0,0-.18335,4.22779,4.339,4.339,0,0,0,.542,2.05139,13.76083,13.76083,0,0,0,6.0429,5.715c.38282.21247.78455.3418.79017.90058.10443,10.40686-.08631,20.80994.43182,31.22143.466,9.36493-.03748,18.76142.269,28.14215a.84284.84284,0,0,1-.00079.15986c-.07092.44024.10828.61322.63464.59521,1.01453-.0343,2.03156-.01,3.04755-.00976s2.03229-.01276,3.048.007c.366.00721.644-.0484.74714-.39276a9.47692,9.47692,0,0,0,.582-2.54052c.11914-7.968-.05115-15.93537.13958-23.90577.20539-8.58593.045-17.17877.04419-25.76861-.00024-2.05408-.03229-4.10871.01343-6.162A2.42588,2.42588,0,0,1,185.40833,102.23768Z"/><path d="M203.77728,224.46418a13.27323,13.27323,0,0,0,1.78858-5.71368,9.85531,9.85531,0,0,0-.70307-5.06421,16.748,16.748,0,0,0-4.71435-6.41211,3.14948,3.14948,0,0,0-3.38239-.54291,83.62716,83.62716,0,0,1-9.9591,3.29321,41.86407,41.86407,0,0,0-10.412,3.52808.933.933,0,0,0-.58344.94574c.02722,1.14648.00916,2.29388.00788,3.44092a34.38986,34.38986,0,0,0,.17578,5.01519c.04315.262-.04828.55915.46014.45032a44.23711,44.23711,0,0,0,6.11981-1.69946c.45014-.16663.63825-.37116.59839-.81366a44.83229,44.83229,0,0,1,.19123-5.01062,25.07922,25.07922,0,0,1,.36419-3.21961c.032-.21-.02905-.74719.5979-.45941a11.90088,11.90088,0,0,1,5.49054,3.80078c.48432.74494,1.19476,1.52961.97956,2.37018a5.69981,5.69981,0,0,1-2.03211,3.162,19.50629,19.50629,0,0,1-4.62207,2.39893c-2.6604,1.05639-5.53436,1.55609-8.21588,2.55236a45.05065,45.05065,0,0,0-8.80982,3.70124,16.87378,16.87378,0,0,0-5.251,4.295,12.63825,12.63825,0,0,0-2.75977,9.46967,9.82884,9.82884,0,0,0,3.27094,5.62158,2.08872,2.08872,0,0,0,2.695.49774,83.66862,83.66862,0,0,1,7.8255-4.35577c.41242-.19977.35224-.35822.24378-.67322-.31018-.89984-.58026-1.81134-.83985-2.72431a2.75808,2.75808,0,0,1,1.39643-3.19488,37.468,37.468,0,0,1,8.49286-3.53906,92.40692,92.40692,0,0,0,14.62475-4.94745A15.79719,15.79719,0,0,0,203.77728,224.46418Z"/><path d="M145.27655,152.67829a15.206,15.206,0,0,1,5.54511.12872,18.2898,18.2898,0,0,1,4.72332,2.692,7.9808,7.9808,0,0,0,3.65229,1.45068,24.66261,24.66261,0,0,0,7.7857-.43634c2.45856-.66833,3.88251-1.82055,3.77112-4.21954a10.45479,10.45479,0,0,0-5.36371-8.85449,13.73963,13.73963,0,0,0-7.31433-1.96594c-3.093-.00568-6.18011.03692-9.26367.31268a25.29168,25.29168,0,0,0-10.33039,2.91431,13.3197,13.3197,0,0,0-4.99395,4.39135,12.834,12.834,0,0,0-1.31214,9.54615,10.46517,10.46517,0,0,0,2.41278,4.49261,24.29762,24.29762,0,0,0,4.6875,4.70551,64.54426,64.54426,0,0,0,10.81836,5.867.73859.73859,0,0,0,1.02234-.17175,18.65436,18.65436,0,0,1,2.607-2.35956,40.01865,40.01865,0,0,1,10.41943-5.34735c1.07929-.38526,2.20258-.67206,3.52-1.06842-2.22461-.42438-4.23108-.78095-6.22327-1.1922a47.75161,47.75161,0,0,1-12.90863-4.02082c-1.17645-.62469-2.57135-1.04248-3.23639-2.29583a6.37838,6.37838,0,0,1-.32983-4.26136C144.99561,152.80439,145.04877,152.69923,145.27655,152.67829Zm14.25659-3.56506a5.48306,5.48306,0,0,1,4.92334-.32593c.1836.04907.27912.36121.41138.55371-2.43695,1.44177-3.75482,1.67072-4.90723.88727C159.51227,149.92341,159.01074,149.49622,159.53314,149.11323Z"/><path d="M182.1203,244.30573a39.98179,39.98179,0,0,1-4.70923,2.88593c-4.468,2.49762-9.18622,4.64038-13.40094,7.49676q-1.89954,1.28137-3.75018,2.61695c-.83179.60022-.84937.77856.01745,1.2984.263.158.26136.71447.93268.45849,2.5318-.96563,5.09369-1.86908,7.5802-2.92779,3.04517-1.29663,6.19019-2.38269,9.30616-3.52924a95.10093,95.10093,0,0,0,12.48889-5.43811,16.42993,16.42993,0,0,0,5.05011-4.283,6.81991,6.81991,0,0,0,1.51422-5.90252,9.364,9.364,0,0,0-.88251-2.78968c-.22937-.38965-.412-.45453-.80359-.16589a12.099,12.099,0,0,1-1.70025,1.12079,40.63941,40.63941,0,0,1-8.069,2.87536c-3.0329.79126-6.07923,1.53937-9.08094,2.42347-.34423.10144-.55981.21057-.64648.61358a43.9016,43.9016,0,0,0-.18433,4.92835c2.80573-1.82184,5.66492-3.18775,8.23572-5.167A4.04262,4.04262,0,0,1,182.1203,244.30573Z"/><path d="M177.62775,273.47352c.03558.37268-.06775.99933.4873,1.02881a12.47669,12.47669,0,0,0,3.45825-.11115c.34131-.07739.30713-.23871.34217-.44922.29071-1.74383.48449-3.4981.73236-5.24591.42346-2.98626.58777-5.98974.852-8.98547.17364-1.97.34185-3.93817.5896-5.91742.11834.03509.20544.053.285.08527a71.363,71.363,0,0,0,13.27734,4.27337,2.07459,2.07459,0,0,0,2.13141-.565c.29236-.27319.34644-.342.04084-.60626-1.34632-1.16449-2.61567-2.40338-4.08356-3.45014a33.45335,33.45335,0,0,0-4.54236-2.84741,2.83831,2.83831,0,0,0-2.3974-.21637c-1.07111.37531-2.09747.81592-3.11987,1.27118-2.78351,1.23962-5.73,2.15814-8.488,3.447a2.08508,2.08508,0,0,0-1.3985,2.00714c-.05768,3.05335.6861,6.03467.8927,9.05951C176.85266,268.67658,177.3963,271.05756,177.62775,273.47352Z"/><path d="M183.09967,193.22425c.40778-.191.61731-.35742.62067-.8103.01-1.35321.01056-2.7038.12054-4.06116.16144-1.99066.02326-3.99969.05408-6.00037.00793-.51489-.27515-.62243-.70307-.51843a14.539,14.539,0,0,1-3.20367.14118,26.79545,26.79545,0,0,0-3.333.37786c-.23382.034-.71435.00171-.65686.473a23.85621,23.85621,0,0,1-.19452,2.61c.04077,3.30573.01636,6.61231.01636,9.97608A33.54675,33.54675,0,0,0,183.09967,193.22425Z"/></svg>