<svg id="Layer_1" data-name="Layer 1" xmlns="http://www.w3.org/2000/svg" viewBox="0 0 360 174.12685"><defs><style>.cls-1{fill:none;}.cls-2{fill:#fff;}</style></defs><path class="cls-1" d="M263.18951,111.68288h-5.75543v5.7276H263.07c3.15289,0,3.57788-1.36743,3.57788-2.706v-.00006C266.64783,113.29713,266.25476,111.68288,263.18951,111.68288Z"/><path class="cls-1" d="M265.49847,103.05525c0-1.33862-.55438-2.23034-3.26135-2.23034h-4.803V105.405h5.28076C265.49847,105.405,265.49847,103.63643,265.49847,103.05525Z"/><path class="cls-1" d="M265.7453,61.05952h-4.03839v16.654h4.03839c5.70911,0,8.18762-2.36725,8.18762-8.327S271.45441,61.05952,265.7453,61.05952Z"/><polygon class="cls-1" points="285.689 61.338 281.706 71.531 289.532 71.531 285.689 61.338"/><path class="cls-1" d="M208.811,60.6418c-5.26362,0-7.49158,4.40057-7.49158,8.74487,0,4.34455,2.228,8.74475,7.49158,8.74475v.00006c5.23553,0,7.4635-4.40014,7.4635-8.74481C216.27454,65.04231,214.04651,60.6418,208.811,60.6418Z"/><polygon class="cls-1" points="256.324 151.543 260.792 151.543 258.595 145.146 256.324 151.543"/><path class="cls-1" d="M197.6015,107.266c3.28424,0,4.44867-.843,4.44867-3.21955,0-2.3786-1.16443-3.22162-4.44867-3.22162h-3.81482l.00006,6.44117Z"/><path class="cls-1" d="M324.54419,60.6418c-5.26355,0-7.49158,4.40057-7.49158,8.74487,0,4.34455,2.228,8.74475,7.49158,8.74475v.00006c5.2356,0,7.4635-4.40014,7.4635-8.74481C332.00769,65.04231,329.77972,60.6418,324.54419,60.6418Z"/><polygon class="cls-2" points="39.693 71.721 8.281 71.721 8.281 165.778 102.377 165.778 102.377 134.421 39.693 134.421 39.693 71.721"/><polygon class="cls-2" points="8.302 56.01 39.648 56.01 39.648 40.465 133.715 40.465 133.715 134.421 118.059 134.421 118.059 165.778 165.059 165.778 165.059 8.972 8.302 8.972 8.302 56.01"/><path class="cls-2" d="M122.45544,59.51735c.04169-.41364.10175-.43677.54218-.405a13.04742,13.04742,0,0,0,2.68622.08429,5.75514,5.75514,0,0,0,3.08484-1.409,4.93105,4.93105,0,0,0,1.49163-2.55883c.04853-.18519.01148-.26362-.22357-.26423-.67553-.00164-1.351-.03509-2.02533-.05487-2.60284-.07641-5.20941.06555-7.81286-.08416-.87714-.05042-1.75611-.00629-2.63745-.057-1.14289-.06561-2.29016-.08368-3.43494-.15735-1.08563-.06988-2.17151-.129-3.256-.2179-1.34864-.11047-2.69446-.20941-4.02979-.43554a26.51352,26.51352,0,0,1-5.17877-1.3169,11.16939,11.16939,0,0,0-5.253-.87628,3.07839,3.07839,0,0,0-2.20014.89179,4.92923,4.92923,0,0,0-.84722,1.453,2.38315,2.38315,0,0,1-1.95606,1.60315c-.37769.07037-.76147.10821-1.13873.18194-.215.04194-.25421.10883-.25244.277.00689.667.0028,1.33411.0028,2.13965-.02765.73-.03955,1.59937-.0617,2.46735-.05731,2.26312-.04523,4.52838.051,6.79223.00971.22858.12122.30164.30921.33112,1.17236.18384,2.3377.409,3.52246.52368,1.05529.10217,2.1159.16144,3.172.24408a11.85741,11.85741,0,0,0,3.14771-.22907A8.29162,8.29162,0,0,0,103.71,66.8799a5.43844,5.43844,0,0,0,1.87573-1.96478c.09656-.2168.213-.16816.37342-.053a9.08509,9.08509,0,0,0,2.44037,1.19464,7.24269,7.24269,0,0,0,2.22442.386,6.18933,6.18933,0,0,0,2.14276-.5075,5.25436,5.25436,0,0,0,3.15686-3.10535c.14765-.34454.33319-.392.6825-.35986a8.49626,8.49626,0,0,0,3.61639-.2793A2.9839,2.9839,0,0,0,122.45544,59.51735Z"/><path class="cls-2" d="M79.75055,53.72054a2.72757,2.72757,0,0,0-1.827-1.77491A7.5109,7.5109,0,0,0,74.82,51.79176a13.63726,13.63726,0,0,0-2.91468.74781,22.34616,22.34616,0,0,1-3.34741,1.04412,47.54765,47.54765,0,0,1-5.6181.79816c-1.40552.1109-2.81226.21723-4.22064.28839-1.14478.05792-2.29138.09369-3.43683.141-1.189.04908-2.38172.01624-3.57282.07642-.77166.039-1.54785.00677-2.322.00745-2.00641.002-4.01318-.01972-6.01825.072-.16107.00738-.35168-.0293-.30011.21045A5.0978,5.0978,0,0,0,45.852,58.67482a7.17735,7.17735,0,0,0,4.34039.45068c.52381-.06054.64612-.01434.69849.45014a3.09706,3.09706,0,0,0,2.70593,2.79852,9.7912,9.7912,0,0,0,3.17761.09174c.311-.0456.51673.006.63343.32684a5.2234,5.2234,0,0,0,3.14453,3.1626,5.9932,5.9932,0,0,0,4.30462.10791,9.96835,9.96835,0,0,0,2.7082-1.33972,6.91372,6.91372,0,0,0,2.36712,2.44372,10.01716,10.01716,0,0,0,5.41248,1.53949c1.08557.01154,2.17157-.10541,3.25635-.1947,1.48095-.12183,2.93029-.40277,4.39581-.60022a.33737.33737,0,0,0,.05975-.0033A.332.332,0,0,0,83.337,67.532q-.02536-5.63818.00457-11.27594c.0022-.42188-.29-.38385-.56091-.41083a5.93918,5.93918,0,0,1-1.4314-.30157A2.74631,2.74631,0,0,1,79.75055,53.72054Z"/><path class="cls-2" d="M104.85254,71.63014a13.08194,13.08194,0,0,0-3.63721-1.04065c-1.18249-.17688-2.37048-.23126-3.55591-.33087a10.06574,10.06574,0,0,0-2.8457.20911A5.53581,5.53581,0,0,0,91.52283,72.409a4.63715,4.63715,0,0,0-1.10535,3.2334,1.31727,1.31727,0,0,0,.66284,1.08575,6.44288,6.44288,0,0,0,3.36414.76624,6.03234,6.03234,0,0,0,3.71387-1.22449,4.43267,4.43267,0,0,1,1.32995-.8471,6.68484,6.68484,0,0,1,2.08777-.1485c.58783.02734.58655.048.58655.56329a8.24129,8.24129,0,0,0,.00439.83649,1.57506,1.57506,0,0,1-1.05285,1.63989,22.75151,22.75151,0,0,1-4.18757,1.59674A53.97689,53.97689,0,0,1,89.24969,81.174c-1.11865.108-2.23864.03521-3.35839.11682-.8161.05957-1.62946.108-2.43634.23547A18.09865,18.09865,0,0,0,77.4472,83.61a12.8665,12.8665,0,0,0-3.58074,2.9118,6.81462,6.81462,0,0,0-1.36707,2.32538,9.22976,9.22976,0,0,0-.35779,3.70191,5.26767,5.26767,0,0,0,2.03711,3.46411c.46411.41174,1.009.74982,1.5014,1.13733a2.23147,2.23147,0,0,0,2.566.19421,9.67027,9.67027,0,0,1,1.38953-.70148c1.35053-.65264,2.8114-1.09765,4.17749-1.77-.76721-.48432-1.56714-.91236-2.30908-1.41626a2.76639,2.76639,0,0,1-1.08783-1.47986,5.54478,5.54478,0,0,1-.09088-2.01728,1.48109,1.48109,0,0,1,.72937-1.18756,5.14716,5.14716,0,0,1,1.38757-.62732,29.70783,29.70783,0,0,1,5.95813-.9328c.87195-.05163,1.74487-.10522,2.61731-.14355a31.10633,31.10633,0,0,0,3.79535-.56036,26.40535,26.40535,0,0,0,5.59161-1.79267,19.45827,19.45827,0,0,0,4.67762-2.79523,10.50335,10.50335,0,0,0,2.3673-2.79034,3.02815,3.02815,0,0,0,.49323-1.0119,7.25192,7.25192,0,0,0,.09692-2.43237A5.15467,5.15467,0,0,0,104.85254,71.63014Zm-9.45123,2.525c-.52387.35614-1.12293.25207-2.23066-.40326.06012-.08753.10358-.22943.187-.25171a2.49238,2.49238,0,0,1,2.238.14813C95.83307,73.82246,95.60516,74.01662,95.40131,74.15517Z"/><path class="cls-2" d="M76.1131,100.78181a6.10253,6.10253,0,0,0-1.85358,3.26667,4.39872,4.39872,0,0,0,.35541,2.632,9.89374,9.89374,0,0,0,3.70788,3.61383.30551.30551,0,0,0,.40766-.02393,15.28186,15.28186,0,0,1,5.10187-2.37634,1.67691,1.67691,0,0,0,.70245-.22565c-.49683-.30206-.95142-.61243-1.40417-.92535a2.48217,2.48217,0,0,1-1.25782-2.45874,1.90842,1.90842,0,0,1,.81647-1.54071,14.191,14.191,0,0,1,3.03839-1.42341c1.84454-.57946,3.71216-1.1007,5.55713-1.67913a25.31113,25.31113,0,0,0,5.71576-2.53913,10.20565,10.20565,0,0,0,2.64282-2.23468A5.73357,5.73357,0,0,0,101.009,91.713a7.509,7.509,0,0,0-1.048-4.25946c-.168-.306-.22815-.78418-.56934-.85553-.31195-.06519-.71051.19879-1.07056.31854a21.64035,21.64035,0,0,1-3.88067.95422,18.26981,18.26981,0,0,1-3.04578.20417,4.66767,4.66767,0,0,1,1.1814,2.28228,3.0804,3.0804,0,0,1-1.251,3.1222,12.62245,12.62245,0,0,1-4.64953,2.15747,28.70531,28.70531,0,0,0-8.477,3.51434A11.22806,11.22806,0,0,0,76.1131,100.78181Z"/><path class="cls-2" d="M89.15778,52.34108a4.80731,4.80731,0,0,0,1.57879-1.25525,4.31008,4.31008,0,0,0,1.13709-2.58234,4.80457,4.80457,0,0,0-1.86335-3.9082,5.53038,5.53038,0,0,0-4.828-1.00568,5.19051,5.19051,0,0,0-2.31323,1.06617A5.09607,5.09607,0,0,0,81.212,47.033a5.61684,5.61684,0,0,0-.08332,1.92176,1.97187,1.97187,0,0,0,.24634.93243,6.25487,6.25487,0,0,0,2.74683,2.59778c.174.09656.35662.15533.35913.40936.04748,4.73041-.03925,9.45911.19629,14.19165.21185,4.25684-.017,8.528.12231,12.792a.37976.37976,0,0,1-.00037.0727c-.03222.20007.04926.27868.28846.27057.46118-.01563.92346-.00458,1.38525-.00446s.92383-.0058,1.3855.00317c.16638.0033.29272-.022.3396-.17852a4.30741,4.30741,0,0,0,.26459-1.15479c.05413-3.62182-.02326-7.24341.06341-10.86639.09338-3.90271.02045-7.8086.02008-11.71308-.00012-.93365-.01465-1.86761.00611-2.8009A1.10275,1.10275,0,0,1,89.15778,52.34108Z"/><path class="cls-2" d="M97.50739,107.89906a6.03254,6.03254,0,0,0,.813-2.5971A4.47936,4.47936,0,0,0,98.00079,103a7.61226,7.61226,0,0,0-2.14288-2.91462,1.43168,1.43168,0,0,0-1.53748-.24682,38.00111,38.00111,0,0,1-4.52691,1.497,19.0291,19.0291,0,0,0-4.73279,1.60369.4241.4241,0,0,0-.2652.42987c.01239.52118.00415,1.04267.0036,1.56409a15.62554,15.62554,0,0,0,.0799,2.27966c.01959.11908-.022.25416.20917.20466a20.10808,20.10808,0,0,0,2.78173-.77247c.20459-.07574.2901-.1687.272-.36987a20.38384,20.38384,0,0,1,.087-2.27759,11.39718,11.39718,0,0,1,.16553-1.46344c.01453-.09539-.01325-.33966.27179-.2088a5.40962,5.40962,0,0,1,2.49573,1.7276c.22009.33863.543.69532.44519,1.0774a2.5903,2.5903,0,0,1-.92365,1.43725,8.86675,8.86675,0,0,1-2.10095,1.09046c-1.20929.48016-2.51569.70727-3.73456,1.16015a20.475,20.475,0,0,0-4.00452,1.68244,7.671,7.671,0,0,0-2.38684,1.95227,5.74485,5.74485,0,0,0-1.25445,4.30444,4.4679,4.4679,0,0,0,1.48681,2.5553.94954.94954,0,0,0,1.225.22625,38.00977,38.00977,0,0,1,3.55707-1.97991c.18744-.09083.16009-.16285.11078-.306-.141-.409-.26373-.8233-.38172-1.23834a1.25359,1.25359,0,0,1,.63471-1.45221,17.0318,17.0318,0,0,1,3.86047-1.6087,42.00658,42.00658,0,0,0,6.64765-2.24884A7.18037,7.18037,0,0,0,97.50739,107.89906Z"/><path class="cls-2" d="M70.91589,75.26888a6.91238,6.91238,0,0,1,2.52051.05847,8.314,8.314,0,0,1,2.147,1.22363,3.62759,3.62759,0,0,0,1.66009.65942,11.21161,11.21161,0,0,0,3.539-.19836c1.11756-.30377,1.76483-.82752,1.71417-1.918a4.75232,4.75232,0,0,0-2.43805-4.02484,6.24532,6.24532,0,0,0-3.3247-.89356c-1.40595-.00262-2.80921.01673-4.21082.14209a11.49615,11.49615,0,0,0-4.69568,1.32471,6.0542,6.0542,0,0,0-2.27,1.9961,5.83388,5.83388,0,0,0-.59643,4.33917,4.75649,4.75649,0,0,0,1.09674,2.04211,11.04458,11.04458,0,0,0,2.13068,2.13892,29.341,29.341,0,0,0,4.91748,2.66681.33572.33572,0,0,0,.46472-.07807,8.4796,8.4796,0,0,1,1.185-1.07251,18.19243,18.19243,0,0,1,4.73614-2.43066c.4906-.17511,1.00122-.30548,1.6-.48566-1.01123-.19287-1.92328-.35492-2.8288-.54187a21.70606,21.70606,0,0,1-5.86761-1.8277c-.53479-.28393-1.16883-.47381-1.47113-1.04357a2.89943,2.89943,0,0,1-.14991-1.937C70.78821,75.32619,70.81238,75.2784,70.91589,75.26888Zm6.48035-1.62055a2.49233,2.49233,0,0,1,2.23785-.14813c.0835.02228.1269.16418.187.25171-1.10767.65533-1.70673.7594-2.23053.40326C77.38672,74.01662,77.15875,73.82246,77.39624,73.64833Z"/><path class="cls-2" d="M87.66321,116.91805a18.173,18.173,0,0,1-2.14057,1.31182c-2.03088,1.13526-4.17559,2.10926-6.09137,3.40766q-.86352.58236-1.70465,1.18951c-.37811.27283-.3861.35388.00788.59021.11956.07178.11883.32471.424.20838,1.15088-.43891,2.31537-.84955,3.44561-1.33081,1.38416-.58942,2.81379-1.08307,4.23011-1.60425A43.22356,43.22356,0,0,0,91.511,118.2187a7.46869,7.46869,0,0,0,2.29553-1.94683,3.1,3.1,0,0,0,.68829-2.683,4.25683,4.25683,0,0,0-.40112-1.26806c-.10431-.17713-.18732-.20661-.3653-.07538a5.50489,5.50489,0,0,1-.77288.50946,18.47486,18.47486,0,0,1-3.66773,1.30694c-1.3786.35968-2.7633.69971-4.12768,1.10163-.1565.04608-.25452.0957-.29389.27887a19.963,19.963,0,0,0-.0838,2.24017c1.27533-.82812,2.575-1.449,3.74353-2.34863A1.83756,1.83756,0,0,1,87.66321,116.91805Z"/><path class="cls-2" d="M85.62109,130.17628c.01624.16938-.03076.45423.22156.46766a5.67194,5.67194,0,0,0,1.5719-.05054c.15515-.03522.13965-.10852.15558-.20422.13208-.79267.22021-1.59.33289-2.38453.1925-1.35736.26715-2.72259.38726-4.08435.07892-.89544.1554-1.7901.268-2.68975.05377.016.09338.0241.12952.03875a32.44115,32.44115,0,0,0,6.03527,1.94251.943.943,0,0,0,.96881-.25684c.13288-.12421.15748-.15546.01856-.27557-.612-.52936-1.189-1.09247-1.8562-1.5683a15.20455,15.20455,0,0,0-2.0647-1.29425,1.29033,1.29033,0,0,0-1.08978-.09839c-.48688.17065-.95337.37091-1.41809.57788-1.26526.56342-2.60462.981-3.85828,1.56677a.94778.94778,0,0,0-.63568.91236c-.02618,1.38788.31189,2.743.40582,4.118C85.2688,127.9958,85.51593,129.07808,85.62109,130.17628Z"/><path class="cls-2" d="M88.3905,93.3307c.00458-.61511.00482-1.229.05481-1.846.07337-.90491.01056-1.81812.02454-2.72748.00366-.23407-.125-.283-.31952-.23566a6.60714,6.60714,0,0,1-1.45624.06415,12.18857,12.18857,0,0,0-1.515.17175c-.10633.0155-.32471.0008-.29859.215a10.83383,10.83383,0,0,1-.08844,1.1864c.01856,1.50262.00745,3.00562.00745,4.53461a15.24805,15.24805,0,0,0,3.3089-.99451C88.29376,93.6122,88.389,93.53651,88.3905,93.3307Z"/><path class="cls-2" d="M193.78668,114.13911h5.51752c7.97583,0,10.80627-5.437,10.80627-10.09265S207.28,93.95375,199.3042,93.95375h-13.777v30.3288h8.25946Zm3.81482-13.31427c3.28424,0,4.44867.843,4.44867,3.22162,0,2.37659-1.16443,3.21955-4.44867,3.21955h-3.81476l-.00006-6.44117Z"/><path class="cls-2" d="M234.468,112.56569c0,3.87744-1.17737,5.12146-4.84485,5.12146-4.00183,0-4.806-1.95966-4.806-5.12146V93.95375h-8.25946v18.61194c0,7.99072,4.63977,12.39069,13.06543,12.39069,8.44952,0,13.10327-4.4,13.10327-12.39069V93.95375H234.4679Z"/><path class="cls-2" d="M270.90448,107.703a7.04606,7.04606,0,0,0,2.6543-5.71765c0-5.32947-3.38184-8.03156-10.05188-8.03156H249.1745v30.3288H263.902c6.685,0,11.00427-3.61963,11.00427-9.22089A7.96823,7.96823,0,0,0,270.90448,107.703Zm-13.4704-6.87811h4.803c2.707,0,3.26135.89172,3.26135,2.23034,0,.58118,0,2.34973-2.78363,2.34973h-5.28076Zm9.21375,13.87957c0,1.33857-.425,2.706-3.57788,2.706h-5.63587v-5.7276h5.75543c3.06525,0,3.45832,1.61425,3.45832,3.02154Z"/><polygon class="cls-2" points="281.355 93.954 281.355 124.283 303.403 124.283 303.403 117.015 289.614 117.015 289.614 93.954 281.355 93.954"/><rect class="cls-2" x="309.849" y="93.95375" width="8.25946" height="30.3288"/><path class="cls-2" d="M344.89026,112.23726a5.45227,5.45227,0,0,1-5.40711,5.44989c-6.18737,0-6.66809-6.468-6.66809-8.45056,0-2.03821.48072-8.68842,6.66809-8.68842a5.12083,5.12083,0,0,1,5.17121,4.0755l.12341.87683h8.05048l-.13044-1.13556c-.76226-6.63024-6.07287-11.085-13.21472-11.085-8.92822,0-14.92651,6.4123-14.92651,15.95661,0,9.25567,6.13757,15.71972,14.92651,15.71972a12.93653,12.93653,0,0,0,13.452-12.39978l.0036-.09838.09955-1.11066h-8.03449Z"/><polygon class="cls-2" points="187.42 69.86 196.945 69.86 196.945 68.245 187.42 68.245 187.42 61.06 198.143 61.06 198.143 59.444 185.527 59.444 185.527 79.329 187.42 79.329 187.42 69.86"/><path class="cls-2" d="M208.811,59.02681c-6.26642,0-9.38556,4.90143-9.38556,10.35986,0,5.45868,3.11914,10.36017,9.38556,10.36017,6.23828,0,9.35742-4.90149,9.35742-10.36017C218.16846,63.9283,215.04932,59.02681,208.811,59.02681Zm0,19.10467v-.00006c-5.26362,0-7.49158-4.4002-7.49158-8.74475,0-4.3443,2.228-8.74487,7.49158-8.74487,5.23547,0,7.4635,4.40051,7.4635,8.74487C216.27454,73.73134,214.04657,78.13148,208.811,78.13148Z"/><path class="cls-2" d="M222.82275,71.7538V59.44423H220.9295V72.17171a7.72959,7.72959,0,0,0,15.45612,0V59.44423H234.4917V71.7538c0,4.59528-2.1438,6.37768-5.84815,6.37768C224.96722,78.13148,222.82275,76.349,222.82275,71.7538Z"/><polygon class="cls-2" points="253.878 76.266 242.293 59.444 240.176 59.444 240.176 79.329 242.07 79.329 242.07 62.508 242.126 62.508 253.711 79.329 255.827 79.329 255.827 59.444 253.933 59.444 253.933 76.266 253.878 76.266"/><path class="cls-2" d="M266.69189,59.44423h-6.87823V79.32887h6.87823c6.01587-.13934,9.135-3.36963,9.135-9.94232C275.8269,62.81422,272.70776,59.58351,266.69189,59.44423Zm-.94659,18.26929h-4.03839v-16.654h4.03839c5.70911,0,8.18762,2.36725,8.18762,8.327S271.45441,77.71352,265.7453,77.71352Z"/><path class="cls-2" d="M281.12189,73.14638h9.05084l2.423,6.18249h2.033l-7.79834-19.88464h-2.11639l-8.02063,19.88464h2.03284Zm4.56683-11.80823L289.532,71.531h-7.82556Z"/><polygon class="cls-2" points="308.166 59.444 292.403 59.444 292.403 61.06 299.338 61.06 299.338 79.329 301.232 79.329 301.232 61.06 308.166 61.06 308.166 59.444"/><rect class="cls-2" x="310.17358" y="59.44423" width="1.89392" height="19.88464"/><path class="cls-2" d="M333.90167,69.38667c0-5.45837-3.1192-10.35986-9.35748-10.35986-6.26636,0-9.3855,4.90143-9.3855,10.35986,0,5.45868,3.1192,10.36017,9.3855,10.36017C330.78253,79.74684,333.90167,74.84535,333.90167,69.38667Zm-9.35748,8.74481v-.00006c-5.26355,0-7.49158-4.4002-7.49158-8.74475,0-4.3443,2.228-8.74487,7.49158-8.74487,5.23553,0,7.4635,4.40051,7.4635,8.74487C332.00769,73.73134,329.77979,78.13148,324.54419,78.13148Z"/><polygon class="cls-2" points="350.531 76.266 338.946 59.444 336.83 59.444 336.83 79.329 338.724 79.329 338.724 62.508 338.779 62.508 350.365 79.329 352.481 79.329 352.481 59.444 350.587 59.444 350.587 76.266 350.531 76.266"/><polygon class="cls-2" points="212.122 38.914 196.443 38.914 196.443 12.571 185.527 12.571 185.527 47.992 212.122 47.992 212.122 38.914"/><rect class="cls-2" x="219.26343" y="12.57088" width="10.91589" height="35.42133"/><polygon class="cls-2" points="248.635 28.644 248.735 28.644 259.6 47.992 270.218 47.992 270.218 12.571 259.899 12.571 259.899 31.522 259.799 31.522 249.479 12.571 238.315 12.571 238.315 47.992 248.635 47.992 248.635 28.644"/><path class="cls-2" d="M294.42749,48.83559c10.91589,0,16.12518-4.66333,16.12518-14.53553V12.57088H299.63745v19.2984c0,3.57159,0,8.136-5.16052,8.136-5.35834,0-5.3089-4.56433-5.3089-8.136V12.57088H278.25281V34.30006C278.25281,44.17226,283.51221,48.83559,294.42749,48.83559Z"/><polygon class="cls-2" points="327.618 47.992 333.87 37.425 339.922 47.992 353.071 47.992 340.419 29.24 351.781 12.571 339.674 12.571 334.415 22.195 329.057 12.571 316.256 12.571 327.916 29.141 315.114 47.992 327.618 47.992"/><polygon class="cls-2" points="203.233 145.032 193.802 145.032 193.802 134.156 185.527 134.156 185.527 164.542 193.802 164.542 193.802 152.315 203.233 152.315 203.233 164.542 211.508 164.542 211.508 134.156 203.233 134.156 203.233 145.032"/><polygon class="cls-2" points="226.284 152.356 240.017 152.356 240.017 145.471 226.284 145.471 226.284 141.439 241.248 141.439 241.248 134.156 218.008 134.156 218.008 164.542 241.564 164.542 241.564 157.262 226.284 157.262 226.284 152.356"/><path class="cls-2" d="M254.76843,134.156l-11.534,30.38715h8.51574l2.22376-6.312h9.1449l2.14483,6.312h8.67414L262.57312,134.156Zm1.55561,17.38727,2.2705-6.39771,2.1977,6.39771Z"/><polygon class="cls-2" points="285.162 134.156 276.887 134.156 276.887 164.542 298.975 164.542 298.975 157.262 285.162 157.262 285.162 134.156"/><polygon class="cls-2" points="296.78 141.439 305.274 141.439 305.274 164.542 313.549 164.542 313.549 141.439 322.044 141.439 322.044 134.156 296.78 134.156 296.78 141.439"/><polygon class="cls-2" points="343.945 145.032 334.514 145.032 334.514 134.156 326.239 134.156 326.239 164.542 334.514 164.542 334.514 152.315 343.945 152.315 343.945 164.542 352.22 164.542 352.22 134.156 343.945 134.156 343.945 145.032"/></svg>