<svg id="Layer_1" data-name="Layer 1" xmlns="http://www.w3.org/2000/svg" viewBox="0 0 992.70001 77.5"><defs><style>.cls-1{fill:#fff;}</style></defs><polygon class="cls-1" points="15.3 61.8 15.3 30.6 0 30.6 0 77.4 45.8 77.4 45.8 61.8 15.3 61.8"/><polygon class="cls-1" points="77.1 0 0 0 0 23.2 15.3 23.2 15.3 15.6 61.8 15.6 61.8 61.9 54 61.9 54 77.4 77.1 77.4 77.1 0"/><polygon class="cls-1" points="96.6 0 120.4 0 120.4 57.5 154.5 57.5 154.5 77.3 96.6 77.3 96.6 0"/><polygon class="cls-1" points="164.6 0 224.2 0 224.2 19.8 188.3 19.8 188.3 29.5 219 29.5 219 48 188.3 48 188.3 77.5 164.5 77.5 164.5 0 164.6 0"/><path class="cls-1" d="M290.5,22.1c0,7.4-2.5,13.1-7.6,17.1s-12.2,6-21.5,6H249.5V77h-5.4V0H263C281.3,0,290.5,7.4,290.5,22.1Zm-41,18.5h10.6c8.7,0,14.9-1.4,18.8-4.3s5.8-7.5,5.8-13.9c0-5.9-1.8-10.3-5.5-13.2s-9.3-4.3-17-4.3H249.5l0,35.7Z"/><path class="cls-1" d="M361.9,0V49c0,8.7-2.6,15.6-7.6,20.4-5,4.9-12.1,7.4-21.1,7.4-8.8,0-15.7-2.5-20.6-7.4s-7.4-11.8-7.4-20.6V0h5.3V49c0,7.3,2.1,13,6.1,17s9.7,6.1,17.1,6.1q10.8,0,16.8-6c3.9-4,6-9.5,6-16.6V0Z"/><path class="cls-1" d="M376.8,0h21.1q14.25,0,21,4.8c4.5,3.2,6.7,8.1,6.7,14.6a15.67951,15.67951,0,0,1-4.1,11.1c-2.7,3-6.7,4.9-11.9,5.7v.3c6.1.9,10.7,2.9,13.6,5.8,2.9,3,4.3,7.1,4.3,12.4,0,7.1-2.4,12.6-7.1,16.4s-11.4,5.7-20,5.7H376.8Zm5.4,34.3h17c7.2,0,12.5-1.2,15.8-3.6s4.9-6.2,4.9-11.3-1.9-8.8-5.6-11.2-9.2-3.5-16.6-3.5H382.2V34.3Zm0,4.7V72.2h18.1c14.3,0,21.4-5.8,21.4-17.4,0-10.5-7.6-15.8-22.6-15.8Z"/><path class="cls-1" d="M442.4,76.8V0h5.4V71.7h36.6v5.1Z"/><path class="cls-1" d="M499.2,77V0h5.4V77Z"/><path class="cls-1" d="M555.2,4.6q-14.1,0-22.2,9c-5.4,6-8.1,14.2-8.1,24.7,0,10.7,2.5,19,7.6,24.9s12.4,8.9,21.8,8.9a59.3004,59.3004,0,0,0,17.3-2.4v4.6a57.62276,57.62276,0,0,1-18.5,2.6c-10.5,0-18.8-3.4-24.8-10.2s-9.1-16.3-9.1-28.5a44.368,44.368,0,0,1,4.3-20.1A30.96886,30.96886,0,0,1,535.9,4.7c5.4-3.2,11.7-4.7,18.9-4.7a45.80946,45.80946,0,0,1,19.6,4.1l-2.1,4.7A36.64383,36.64383,0,0,0,555.2,4.6Z"/><path class="cls-1" d="M658.5,76.8h-5.4V39h-44.9V76.8h-5.4V0h5.4V34.1h44.9V0h5.4Z"/><path class="cls-1" d="M715.2,76.7H673.3V0h41.9V5H678.6V34h34.6v5H678.6V71.9h36.6Z"/><path class="cls-1" d="M778,49.8H747l-10.6,27h-6L761.2,0h3.4l30.1,76.8h-6.1ZM748.9,45h27.3L765.8,17.4c-.9-2.2-1.9-5.2-3.2-9a74.15087,74.15087,0,0,1-3.1,9.1Z"/><path class="cls-1" d="M809.7,76.9V0h5.4V71.8h36.7v5.1Z"/><path class="cls-1" d="M897.1,76.8h-5.4V5.1h-24.9V0h55.3V5.1h-24.9L897.1,76.8Z"/><path class="cls-1" d="M992.7,76.8h-5.4V39H942.4V76.8H937V0h5.4V34.1h44.9V0h5.4V76.8Z"/></svg>