<svg id="Layer_1" data-name="Layer 1" xmlns="http://www.w3.org/2000/svg" viewBox="0 0 601.20797 108.10224"><defs><style>.cls-1{fill:none;}</style></defs><polygon points="25.744 81.469 25.744 44.69 7.318 44.69 7.318 99.863 62.513 99.863 62.513 81.469 25.744 81.469"/><polygon points="99.281 7.883 7.33 7.883 7.33 35.475 25.717 35.475 25.717 26.356 80.895 26.356 80.895 81.469 71.712 81.469 71.712 99.863 99.281 99.863 99.281 7.883"/><path d="M55.26264,36.82441c0-.47254.0024-.86385-.00166-1.2551-.001-.09862.022-.13787.14808-.16248.2213-.04323.44643-.06543.668-.10671a1.3979,1.3979,0,0,0,1.14736-.9404,2.89228,2.89228,0,0,1,.497-.8523,1.80577,1.80577,0,0,1,1.29059-.5231,6.55194,6.55194,0,0,1,3.08136.514,15.55085,15.55085,0,0,0,3.03777.77246c.78328.13264,1.57273.19068,2.3638.2555.63618.05212,1.27315.08681,1.91.12779.67148.04321,1.34445.05381,2.01485.09233.517.02974,1.03258.00383,1.54711.03343,1.52714.08779,3.0561.00455,4.58288.04937.39555.0116.79177.03119,1.188.03218.13787.00035.15961.04634.13116.155a2.89258,2.89258,0,0,1-.875,1.501,3.37644,3.37644,0,0,1-1.80951.8265,7.65626,7.65626,0,0,1-1.57572-.04945c-.25834-.01864-.29355-.00506-.318.23756a1.75039,1.75039,0,0,1-1.30981,1.56817,4.98373,4.98373,0,0,1-2.12134.16379c-.2049-.01881-.31372.009-.40035.2111a3.08207,3.08207,0,0,1-1.85175,1.82155,3.63062,3.63062,0,0,1-1.25692.29771,4.24834,4.24834,0,0,1-1.30479-.22643,5.32945,5.32945,0,0,1-1.43147-.70074c-.09411-.06752-.16242-.09608-.219.03109a3.19064,3.19064,0,0,1-1.1003,1.15253,4.86334,4.86334,0,0,1-2.08393.91537,6.9552,6.9552,0,0,1-1.84638.13439c-.61952-.0485-1.24162-.08325-1.86065-.14318-.695-.06729-1.37852-.19934-2.06622-.3072-.11028-.01729-.17568-.06012-.18137-.1942-.05642-1.32794-.06353-2.65671-.02992-3.98421C55.23945,37.76257,55.24644,37.25261,55.26264,36.82441Z"/><path d="M42.09294,40.58584a5.84682,5.84682,0,0,1-1.58858.78586,3.51532,3.51532,0,0,1-2.525-.0633,3.064,3.064,0,0,1-1.84453-1.85512c-.06846-.18821-.18916-.21847-.37156-.19173a5.74339,5.74339,0,0,1-1.86394-.0538,1.81665,1.81665,0,0,1-1.58724-1.64156c-.03075-.27246-.10247-.29956-.40973-.264a4.21012,4.21012,0,0,1-2.546-.26436A2.99034,2.99034,0,0,1,27.724,34.98636c-.03025-.14066.08156-.11913.17605-.12346,1.17616-.0538,2.35328-.0411,3.5302-.04223.45411-.00043.9094.01851,1.36205-.00438.69869-.03532,1.39831-.016,2.09576-.04484.67192-.02775,1.3445-.04872,2.016-.08268.82616-.04177,1.65132-.10414,2.47576-.16919a27.888,27.888,0,0,0,3.29549-.46817,13.10832,13.10832,0,0,0,1.96354-.61246,7.99983,7.99983,0,0,1,1.7097-.43866,4.40567,4.40567,0,0,1,1.82051.09025,1.6,1.6,0,0,1,1.07169,1.04112,1.611,1.611,0,0,0,.93777,1.06944,3.48387,3.48387,0,0,0,.83965.17687c.15893.01584.33032-.00645.329.241q-.01753,3.307-.00269,6.61427a.19471.19471,0,0,1-.19947.22279c-.85964.11582-1.70983.28064-2.57853.3521-.63631.05235-1.27331.121-1.9101.11419a5.87582,5.87582,0,0,1-3.17487-.903A4.05557,4.05557,0,0,1,42.09294,40.58584Z"/><path d="M65.83466,47.0161a3.02377,3.02377,0,0,0-1.86959-2.37894,7.67243,7.67243,0,0,0-2.13352-.61042c-.69362-.10377-1.39048-.13566-2.08581-.19411a5.90606,5.90606,0,0,0-1.66927.12267A3.24726,3.24726,0,0,0,56.14611,45.094a2.72,2.72,0,0,0-.64838,1.89666.77263.77263,0,0,0,.38881.63691,3.77917,3.77917,0,0,0,1.97335.44945,3.53842,3.53842,0,0,0,2.17847-.71828,2.60022,2.60022,0,0,1,.78016-.49688,3.92133,3.92133,0,0,1,1.22464-.08712c.3448.016.34407.02816.34407.33042a4.82894,4.82894,0,0,0,.00255.49067.9239.9239,0,0,1-.61757.96194,13.34579,13.34579,0,0,1-2.45637.93663,31.66447,31.66447,0,0,1-4.50313.741c-.65617.06335-1.31315.02065-1.97.06851-.47871.035-.95581.06335-1.42911.13814a10.61612,10.61612,0,0,0-3.524,1.22224,7.54733,7.54733,0,0,0-2.10041,1.708,3.99809,3.99809,0,0,0-.80191,1.364,5.41456,5.41456,0,0,0-.20987,2.17148,3.09013,3.09013,0,0,0,1.19494,2.032c.27226.24151.59189.43981.88071.66714a1.309,1.309,0,0,0,1.50518.1139,5.67257,5.67257,0,0,1,.815-.41148c.7922-.38282,1.64913-.64386,2.45046-1.03826-.45-.28408-.91925-.53518-1.35447-.83074a1.62279,1.62279,0,0,1-.63809-.86808,3.25248,3.25248,0,0,1-.05333-1.18327.86871.86871,0,0,1,.42784-.69661,3.01977,3.01977,0,0,1,.81395-.368,17.4262,17.4262,0,0,1,3.49492-.54716c.51147-.03029,1.02353-.06173,1.53529-.08421a18.243,18.243,0,0,0,2.22628-.32868A15.48968,15.48968,0,0,0,61.356,52.31289a11.41424,11.41424,0,0,0,2.74381-1.63965,6.16076,6.16076,0,0,0,1.38863-1.63679,1.776,1.776,0,0,0,.28933-.59356A4.25406,4.25406,0,0,0,65.83466,47.0161Z"/><path d="M56.07087,54.28344a10.718,10.718,0,0,0,1.78662-.11978,12.694,12.694,0,0,0,2.27634-.55973c.2112-.07022.445-.22507.628-.18683.20012.04184.2354.32235.33393.50184a4.40485,4.40485,0,0,1,.61479,2.49853,3.36336,3.36336,0,0,1-.80106,1.85019,5.98623,5.98623,0,0,1-1.55023,1.31079,14.84669,14.84669,0,0,1-3.35276,1.48942c-1.08225.33932-2.17774.64507-3.25975.985a8.32286,8.32286,0,0,0-1.78226.835,1.11944,1.11944,0,0,0-.47893.90375,1.45593,1.45593,0,0,0,.73783,1.44224c.26556.18355.53224.36562.82367.5428a.98374.98374,0,0,1-.41206.13238,8.96414,8.96414,0,0,0-2.99268,1.39391.17919.17919,0,0,1-.23912.014,5.80341,5.80341,0,0,1-2.175-2.1198,2.58017,2.58017,0,0,1-.20848-1.54388A3.57939,3.57939,0,0,1,47.107,61.73706a6.58579,6.58579,0,0,1,1.22319-.95647,16.83957,16.83957,0,0,1,4.9725-2.06146,7.40358,7.40358,0,0,0,2.72735-1.26553,1.8069,1.8069,0,0,0,.73381-1.83141A2.738,2.738,0,0,0,56.07087,54.28344Z"/><path d="M53.18391,49.67392c-.27089-.00005-.54207-.00655-.81257.00261-.14034.00479-.18813-.04133-.16921-.15871a.22487.22487,0,0,0,.0002-.04263c-.08173-2.50119.05252-5.00659-.07173-7.50358-.13815-2.776-.08729-5.54982-.11514-8.3246-.00149-.149-.1086-.18348-.21068-.24013a3.669,3.669,0,0,1-1.61123-1.52379,1.157,1.157,0,0,1-.14451-.547,3.29356,3.29356,0,0,1,.0489-1.12724,2.989,2.989,0,0,1,.972-1.39445,3.04479,3.04479,0,0,1,1.35691-.6254,3.244,3.244,0,0,1,2.832.58993,2.81831,2.81831,0,0,1,1.093,2.29247,2.52819,2.52819,0,0,1-.667,1.51477,2.82,2.82,0,0,1-.9261.73631.64683.64683,0,0,0-.35521.68345c-.01219.54747-.00366,1.0953-.00358,1.643.0002,2.29031.043,4.58144-.01179,6.87071-.05086,2.12516-.00545,4.24953-.03721,6.374a2.52732,2.52732,0,0,1-.15518.67737c-.0275.09182-.10163.10664-.19921.10473C53.72579,49.67051,53.4548,49.674,53.18391,49.67392Z"/><path d="M52.20208,64.17218c.00033-.30585.00515-.61177-.0021-.91746a.24878.24878,0,0,1,.15555-.25217,11.16264,11.16264,0,0,1,2.77618-.94069,22.29488,22.29488,0,0,0,2.65543-.87808.83976.83976,0,0,1,.90184.14476,4.4655,4.4655,0,0,1,1.257,1.70967,2.62757,2.62757,0,0,1,.18746,1.35027,3.539,3.539,0,0,1-.47689,1.52345,4.212,4.212,0,0,1-1.8562,1.64582,24.63693,24.63693,0,0,1-3.89942,1.31913,9.99112,9.99112,0,0,0-2.26446.94364.73538.73538,0,0,0-.37233.85185c.06921.24343.14122.48645.22393.72639.02892.084.045.12624-.065.1795a22.31032,22.31032,0,0,0-2.08653,1.16138.55689.55689,0,0,1-.71856-.13271,2.62064,2.62064,0,0,1-.87214-1.49889,3.36978,3.36978,0,0,1,.73584-2.52491,4.499,4.499,0,0,1,1.40009-1.14519,12.01179,12.01179,0,0,1,2.349-.98686c.715-.26565,1.48126-.39888,2.19061-.68055a5.20092,5.20092,0,0,0,1.23238-.63963,1.51956,1.51956,0,0,0,.54182-.84308c.05739-.22412-.132-.43335-.26117-.632a3.173,3.173,0,0,0-1.46395-1.0134c-.16717-.07674-.15088.06651-.15942.12249a6.68849,6.68849,0,0,0-.0971.85845,11.95512,11.95512,0,0,0-.051,1.336c.01062.118-.03954.17253-.15956.21695a11.79205,11.79205,0,0,1-1.63173.45313c-.13555.029-.11119-.05022-.12269-.12007A9.16791,9.16791,0,0,1,52.20208,64.17218Z"/><path d="M50.02741,49.99182c-.35125.1057-.65076.18215-.93853.28487a10.67041,10.67041,0,0,0-2.77815,1.42579,4.97305,4.97305,0,0,0-.6951.62912.19694.19694,0,0,1-.2726.0458,17.21147,17.21147,0,0,1-2.88451-1.56432,6.47936,6.47936,0,0,1-1.24984-1.25464,2.79061,2.79061,0,0,1-.64332-1.19787,3.422,3.422,0,0,1,.34987-2.5453,3.55142,3.55142,0,0,1,1.33154-1.17088,6.74337,6.74337,0,0,1,2.75441-.777c.82217-.07354,1.64529-.08489,2.47-.08337a3.66343,3.66343,0,0,1,1.95021.52417A2.78762,2.78762,0,0,1,50.85153,46.669c.0297.63965-.35.94686-1.0055,1.12507a6.57659,6.57659,0,0,1-2.07592.11634,2.12791,2.12791,0,0,1-.97381-.38681,4.877,4.877,0,0,0-1.25939-.71775,4.05431,4.05431,0,0,0-1.47849-.03432c-.06074.00558-.07492.03361-.083.082a1.70074,1.70074,0,0,0,.08795,1.13621c.17732.33419.54923.44558.86291.61215A12.73271,12.73271,0,0,0,48.3681,49.674C48.89927,49.78361,49.43426,49.87867,50.02741,49.99182Z"/><path d="M54.38817,70.27306c-.68544.52774-1.4478.89192-2.19589,1.37768a11.709,11.709,0,0,1,.04914-1.314c.02311-.10746.08059-.13655.17239-.1636.80033-.23573,1.61259-.43519,2.42125-.64617a10.8357,10.8357,0,0,0,2.15143-.76666,3.22669,3.22669,0,0,0,.45335-.29884c.10441-.077.1531-.05966.21427.04423a2.49619,2.49619,0,0,1,.23529.74382,1.81839,1.81839,0,0,1-.40372,1.5738,4.38087,4.38087,0,0,1-1.34653,1.142,25.3565,25.3565,0,0,1-3.32993,1.45c-.8308.3057-1.66938.59529-2.48131.941-.663.28229-1.34607.52317-2.02112.78063-.179.06826-.17855-.08011-.24869-.12223-.23111-.13861-.22642-.18616-.00465-.3462q.49344-.35611.99993-.69776c1.12376-.7616,2.38181-1.33293,3.5731-1.99888a10.65834,10.65834,0,0,0,1.25563-.76948A1.07785,1.07785,0,0,0,54.38817,70.27306Z"/><path d="M54.40713,73.732c-.06605.52773-.1109,1.05249-.1572,1.57777-.07045.79876-.11425,1.59959-.22716,2.39582-.06609.466-.11777.93376-.19527,1.39872-.00935.05613-.00023.09914-.09123.11978a3.3271,3.3271,0,0,1-.92208.02963c-.148-.00786-.12044-.175-.12994-.27431-.0617-.64417-.20666-1.279-.25082-1.92565-.05509-.80651-.25341-1.60143-.238-2.41555a.556.556,0,0,1,.37288-.53516c.73538-.34364,1.521-.58855,2.26319-.91906.2726-.12139.54626-.23887.83185-.33895a.75679.75679,0,0,1,.63922.05769,8.9189,8.9189,0,0,1,1.21114.75921c.39139.27909.72984.60943,1.0888.91991.08148.07047.06706.08881-.01089.16166a.55313.55313,0,0,1-.56829.15064,19.02762,19.02762,0,0,1-3.54017-1.13941C54.46192,73.7461,54.43869,73.74132,54.40713,73.732Z"/><path d="M52.20231,58.16574c0-.89688.00651-1.77852-.00436-2.65993a6.36057,6.36057,0,0,0,.05186-.69591c-.01534-.12566.11279-.117.17514-.12612a7.14428,7.14428,0,0,1,.88868-.10075,3.87621,3.87621,0,0,0,.8542-.03764c.1141-.02773.18957.001.18746.13823-.00822.53344.02863,1.06911-.01441,1.59989-.02933.36192-.02948.722-.03215,1.08283-.0009.12075-.05677.16513-.16548.216A8.944,8.944,0,0,1,52.20231,58.16574Z"/><path d="M57.11269,45.88175c.03526-.05133.06075-.13457.10969-.14764a1.462,1.462,0,0,1,1.31278.08689c.13927.10213.00557.216-.114.29731C58.11386,46.32721,57.76246,46.26616,57.11269,45.88175Z"/><path d="M49.28206,45.88175c-.03526-.05133-.06073-.13457-.10968-.14764a1.462,1.462,0,0,0-1.31272.08689c-.13928.10213-.00557.216.114.29731C48.28091,46.32721,48.6323,46.26616,49.28206,45.88175Z"/><polygon class="cls-1" points="468.936 31.125 482.591 31.125 475.885 13.338 468.936 31.125"/><path class="cls-1" d="M441.084,12.85226h-7.04687V41.91293H441.084c9.96216,0,14.28707-4.13077,14.28707-14.53034S451.04617,12.85226,441.084,12.85226Z"/><path class="cls-1" d="M341.73557,12.12336c-9.18483,0-13.07253,7.67886-13.07253,15.25948,0,7.58113,3.88776,15.2593,13.07253,15.2593v.00019c9.13591,0,13.02361-7.67817,13.02361-15.25949C354.75918,19.80209,350.87142,12.12336,341.73557,12.12336Z"/><path class="cls-1" d="M543.6861,12.12336c-9.18477,0-13.07253,7.67886-13.07253,15.25948,0,7.58113,3.88776,15.2593,13.07253,15.2593v.00019c9.1359,0,13.0236-7.67817,13.0236-15.25949C556.7097,19.80209,552.82188,12.12336,543.6861,12.12336Z"/><polygon points="301.106 44.732 304.41 44.732 304.41 28.209 321.03 28.209 321.03 25.39 304.41 25.39 304.41 12.852 323.12 12.852 323.12 10.034 301.106 10.034 301.106 44.732"/><path d="M341.73557,9.30524c-10.93463,0-16.37742,8.55278-16.37735,18.0776,0,9.5252,5.44279,18.07817,16.37735,18.07817,10.88565,0,16.32844-8.553,16.32844-18.07817C358.064,17.85821,352.62122,9.30524,341.73557,9.30524Zm0,33.33709v-.00019c-9.18477,0-13.07253-7.67817-13.07253-15.2593,0-7.58062,3.8877-15.25948,13.07253-15.25948,9.13585,0,13.02361,7.67873,13.02361,15.25948C354.75918,34.96416,350.87148,42.64233,341.73557,42.64233Z"/><path d="M386.54753,31.51343c0,8.01865-3.74085,11.12883-10.20485,11.12883-6.41508,0-10.15706-3.1103-10.15706-11.12883V10.03364h-3.3037v22.209a13.4879,13.4879,0,0,0,26.97044,0v-22.209h-3.30483Z"/><polygon points="420.473 39.386 420.376 39.386 400.16 10.034 396.467 10.034 396.467 44.732 399.772 44.732 399.772 15.379 399.868 15.379 420.084 44.732 423.777 44.732 423.777 10.034 420.473 10.034 420.473 39.386"/><path d="M442.73583,10.03364H430.73349v34.698h12.00234c10.49748-.24313,15.94027-5.87994,15.94027-17.349C458.6761,15.91421,453.23331,10.27665,442.73583,10.03364ZM441.084,41.91293h-7.04687V12.85226H441.084c9.96216,0,14.28707,4.13077,14.28707,14.53033S451.04617,41.91293,441.084,41.91293Z"/><path d="M474.18388,10.03364l-13.99582,34.6981h3.54727l4.18032-10.78829H483.709l4.22818,10.78829h3.54746l-13.60778-34.6981Zm-5.2482,21.091,6.949-17.78617,6.70645,17.78617Z"/><polygon points="487.602 12.852 499.702 12.852 499.702 44.732 503.007 44.732 503.007 12.852 515.107 12.852 515.107 10.034 487.602 10.034 487.602 12.852"/><rect x="518.60992" y="10.03364" width="3.30483" height="34.6981"/><path d="M543.6861,9.30524c-10.93463,0-16.37742,8.55278-16.37736,18.0776,0,9.5252,5.44285,18.07817,16.37736,18.07817,10.88564,0,16.32843-8.553,16.32843-18.07817C560.01453,17.85821,554.57174,9.30524,543.6861,9.30524Zm0,33.33709v-.00019c-9.18477,0-13.07253-7.67817-13.07253-15.2593,0-7.58062,3.88776-15.25948,13.07253-15.25948,9.13578,0,13.0236,7.67873,13.0236,15.25948C556.7097,34.96416,552.822,42.64233,543.6861,42.64233Z"/><polygon points="589.13 10.034 589.13 39.386 589.033 39.386 568.817 10.034 565.124 10.034 565.124 44.732 568.429 44.732 568.429 15.379 568.526 15.379 588.742 44.732 592.435 44.732 592.435 10.034 589.13 10.034"/><polygon points="128.266 8.284 117.119 8.284 117.119 44.454 144.276 44.454 144.276 35.184 128.266 35.184 128.266 8.284"/><rect x="151.56844" y="8.28409" width="11.14673" height="36.17036"/><polygon points="193.063 27.636 192.961 27.636 182.423 8.284 171.023 8.284 171.023 44.454 181.561 44.454 181.561 24.698 181.663 24.698 192.758 44.454 203.601 44.454 203.601 8.284 193.063 8.284 193.063 27.636"/><path d="M233.64208,27.99058c0,3.64719,0,8.308-5.26965,8.308-5.47164,0-5.42116-4.66085-5.42116-8.308V8.28409h-11.146V30.47277c0,10.081,5.37062,14.8429,16.51672,14.8429,11.14672,0,16.46617-4.76194,16.46617-14.8429V8.28409h-11.146Z"/><polygon points="286.888 8.284 274.526 8.284 269.155 18.112 263.683 8.284 250.612 8.284 262.518 25.204 249.446 44.455 262.214 44.455 268.598 33.664 274.779 44.455 288.205 44.455 275.286 25.306 286.888 8.284"/><path d="M135.21212,59.59007c8.95551,0,14.9828,5.71979,14.9828,14.67631,0,8.87211-6.39005,14.5919-15.79274,14.5919h-5.74692V99.85169H116.82478V59.59007Zm-6.55686,20.53528h3.32013c3.93412,0,6.2775-1.98063,6.2775-5.83134,0-3.82207-2.34338-5.80319-6.19409-5.80319h-3.40354Z"/><path d="M169.07867,84.19964c0,4.24061,2.09317,6.55586,5.91574,6.55586,3.82157,0,5.91474-2.31525,5.91474-6.55586V59.59007h11.82948V85.51c0,9.1796-7.11457,15.03907-17.74422,15.03907-10.63065,0-17.74522-5.85947-17.74522-15.03907V59.59007h11.82948Z"/><path d="M201.18869,99.85169V59.59007H220.9698c8.231,0,13.05845,3.7668,13.05845,10.04481,0,4.6315-3.51608,8.11894-8.17573,8.70479v.22359c5.44144.13917,9.98854,4.2406,9.98854,9.56949,0,7.0593-5.58012,11.71894-14.201,11.71894Zm11.82947-24.13476h4.57624c3.04077,0,4.938-1.59023,4.938-4.01752,0-2.48307-1.78567-3.98989-4.77118-3.98989h-4.74305Zm5.05054,16.01531c3.65476,0,5.74693-1.646,5.74693-4.68677,0-2.874-2.1203-4.5481-5.66352-4.5481h-5.13395v9.23487Z"/><path d="M270.23919,99.85169H242.617V59.59007h11.82948V90.449h15.79273Z"/><path d="M277.56981,99.85169V59.59007h11.82948V99.85169Z"/><path d="M296.86657,79.70681c0-13.28052,7.67228-20.81413,19.97706-20.81413,10.63066,0,18.6657,6.91962,18.69383,16.90815h-11.328c-.27935-4.57573-3.26386-7.617-7.36579-7.617-4.85458,0-7.92349,4.29688-7.92349,11.49536,0,7.28188,3.04077,11.57876,7.95163,11.57876,4.07379,0,7.03116-2.98551,7.39393-7.64515h11.327c-.05527,10.04481-7.89536,16.93629-18.7491,16.93629C304.51172,100.54908,296.86657,92.98835,296.86657,79.70681Z"/><path d="M382.67349,99.85169V84.28305H368.49962V99.85169H356.67014V59.59007h11.82948V74.88036h14.17387V59.59007H394.504V99.85169Z"/><path d="M431.357,99.85169H402.954V59.59007h28.403v9.40269H414.78351v6.50108H430.325v8.48272H414.78351V90.449H431.357Z"/><path d="M464.2187,91.84378H451.94205l-2.09216,8.00791H437.79632l13.14185-40.26162h14.84312l13.14186,40.26162H466.31087Zm-10.12821-8.34153h7.97977l-3.87784-14.621h-.22308Z"/><path d="M513.04193,99.85169H485.41971V59.59007h11.82948V90.449h15.79274Z"/><path d="M525.25326,99.85169V68.99276H514.65074V59.59007h33.03552v9.40269H537.08374V99.85169Z"/><path d="M580.6042,99.85169V84.28305H566.43033V99.85169H554.60085V59.59007h11.82948V74.88036H580.6042V59.59007h11.83048V99.85169Z"/></svg>