<svg id="Layer_1" data-name="Layer 1" xmlns="http://www.w3.org/2000/svg" viewBox="0 0 888 202"><defs><style>.cls-1{fill:#0e592f;}.cls-2{fill:#57ce68;}.cls-3{fill:none;}</style></defs><path class="cls-1" d="M60.476,97.09347a28.86045,28.86045,0,0,0-7.99117-2.96913,24.47373,24.47373,0,0,0-16.14887,2.24224c-1.90563.90876-1.927,1.30414-.27071,2.53154a20.65331,20.65331,0,0,0,12.72494,4.0199,22.646,22.646,0,0,0,11.77247-3.37939C62.199,98.57371,62.13766,98.02418,60.476,97.09347Z"/><path class="cls-1" d="M60.27325,90.7988c1.98835,1.035,4.02841,1.99175,5.9215,3.181a2.40537,2.40537,0,0,0,3.10083-.21339A120.98886,120.98886,0,0,0,79.354,85.5729,106.547,106.547,0,0,0,91.92838,72.17466a1.91508,1.91508,0,0,0,.12947-2.60491,50.67588,50.67588,0,0,1-2.80619-5.57021c-1.48966-3.1817-1.50122-3.20469-4.80338-2.04924a37.85685,37.85685,0,0,0-23.261,21.53759,20.12526,20.12526,0,0,0-1.87316,6.14089C59.22305,90.1812,59.70026,90.50058,60.27325,90.7988Z"/><path class="cls-1" d="M111.73259,94.02294A94.901,94.901,0,0,1,97.21814,77.72135c-.26665-.38141-.4673-.91295-1.09631-.86884a2.31076,2.31076,0,0,0-1.12081.91565A114.82118,114.82118,0,0,1,75.24981,96.78348c-2.03884,1.53322-2.04941,1.73934.05929,3.26208a98.54592,98.54592,0,0,1,20.07255,19.29749c1.14579,1.46626,1.41933,1.47133,2.52584-.04374a89.38807,89.38807,0,0,1,18.385-18.68276c1.52468-1.11479,1.52871-1.43972.20623-2.56424C114.91374,96.70463,113.281,95.411,111.73259,94.02294Z"/><path class="cls-1" d="M92.24314,124.26794a95.35278,95.35278,0,0,0-23.02435-21.833,1.70392,1.70392,0,0,0-2.0884-.054c-1.92608,1.15366-3.87345,2.27233-5.8238,3.38484-2.24844,1.28252-2.38119,1.64917-1.53,4.16307a38.89083,38.89083,0,0,0,14.32924,19.732,34.70551,34.70551,0,0,0,13.32033,5.86536c1.29935.36123,1.48809-.46608,1.77024-1.08944a46.08691,46.08691,0,0,1,3.19636-6.4825A2.74858,2.74858,0,0,0,92.24314,124.26794Z"/><path class="cls-1" d="M97.31167,63.975c.68492-.10621,1.02454-.92672,1.33258-1.57282a33.60451,33.60451,0,0,0,2.87334-8.54176,28.73339,28.73339,0,0,0-4.07685-20.95266c-.92585-1.48326-1.39992-1.45786-2.23268.11085a30.83992,30.83992,0,0,0-3.828,14.90719,28.28051,28.28051,0,0,0,4.51521,14.64713C96.2695,63.14069,96.491,64.10223,97.31167,63.975Z"/><path class="cls-1" d="M101.63026,71.51767a93.573,93.573,0,0,0,12.91246,15.24991,90.98,90.98,0,0,0,8.90042,7.53435,1.519,1.519,0,0,0,1.80332.23856c2.27369-1.20076,4.56074-2.37835,6.87215-3.50432a1.26425,1.26425,0,0,0,.76584-1.71947c-.45612-1.51543-.82963-3.06117-1.37667-4.54292A37.32887,37.32887,0,0,0,113.787,64.40294a33.10317,33.10317,0,0,0-6.989-2.81523c-.79507-.14216-1.03829.42585-1.35549.96067-1.2558,2.11742-2.48821,4.25176-3.834,6.3114A2.05239,2.05239,0,0,0,101.63026,71.51767Z"/><path class="cls-1" d="M99.12111,8.66669A90.8789,90.8789,0,1,0,190,99.54559,90.8789,90.8789,0,0,0,99.12111,8.66669Zm54.97038,104.6562a33.24209,33.24209,0,0,1-14.58319-1.7473c-1.01274-.35306-1.36476-.07155-1.68039.82328a44.377,44.377,0,0,1-17.5013,22.82322,43.75123,43.75123,0,0,1-10.12472,5.03667c-1.25267.43028-1.70592.86551-1.29229,2.31737,3.21562,11.28652.53583,21.13091-7.50953,29.57228-2.50712,2.63052-2.84124,2.62806-5.18181-.04385a37.55985,37.55985,0,0,1-9.5787-25.61119c.001-.547.08545-1.09408.13365-1.64088.35054-3.97495.89-2.92724-2.67738-4.03583a44.39109,44.39109,0,0,1-25.41822-19.7168A41.50125,41.50125,0,0,1,54.079,110.421c-.23137-.82771-.58461-1.21579-1.48358-1.03479a15.87065,15.87065,0,0,1-1.80569.16432c-10.45655-.17842-18.70079-4.42776-24.54029-13.21352-.67686-1.01837.12936-1.34336.56274-1.70018A30.64072,30.64072,0,0,1,35.69378,89.411a29.072,29.072,0,0,1,16.334-1.46831,1.59129,1.59129,0,0,0,2.182-1.28789,43.80531,43.80531,0,0,1,9.06-16.99142A44.45351,44.45351,0,0,1,84.525,55.91222c1.082-.31891,1.33547-.75922,1.21434-1.85083a37.75559,37.75559,0,0,1,.46579-13.2723,37.01107,37.01107,0,0,1,8.44224-16.15757c.89422-1.00072,1.48207-1.0656,2.46933-.21483a31.27358,31.27358,0,0,1,11.19409,20.43867,27.10189,27.10189,0,0,1-.24157,9.02259c-.24716,1.16293.08377,1.75516,1.30431,2.157,12.79848,4.214,21.96732,12.45,27.33845,24.85667a31.49372,31.49372,0,0,1,2.09915,6.2206c.24724,1.21741.97847,1.56352,2.14213,1.49166a42.01969,42.01969,0,0,1,14.67891,1.40873,44.545,44.545,0,0,1,18.18419,10.21917c1.65041,1.5542,1.69317,1.747.20223,3.27862A31.67308,31.67308,0,0,1,154.09149,113.32289Z"/><path class="cls-1" d="M96.1081,133.73924a28.011,28.011,0,0,0-3.397,14.07319,29.05751,29.05751,0,0,0,4.65694,15.98887c1.10375,1.683,1.61143,1.69238,2.48974-.10515,5.0243-10.28252,4.37641-20.3306-1.36777-30.122C97.50725,131.89883,97.03323,131.94046,96.1081,133.73924Z"/><path class="cls-1" d="M164.75325,101.99875a9.41792,9.41792,0,0,0-1.07255-.76588,34.10942,34.10942,0,0,0-18.97688-5.62431A34.63426,34.63426,0,0,0,132.053,98.283c-1.39654.55127-1.444,1.05245-.29044,2.04834a6.58231,6.58231,0,0,0,.65581.49618c5.779,3.84245,12.134,5.79706,20.55053,5.817,3.04244.03942,7.337-1.01784,11.51286-2.63115C165.73784,103.52806,165.80412,102.90722,164.75325,101.99875Z"/><path class="cls-1" d="M131.27586,107.49788c-1.93092-1.02549-3.81558-2.14883-5.65554-3.33111a2.62713,2.62713,0,0,0-3.39034.14625,90.714,90.714,0,0,0-20.76184,20.89068,2.238,2.238,0,0,0-.54823,1.37519,9.47375,9.47375,0,0,0,.51414,1.17312c1.10219,1.89393,2.32876,3.72269,3.31923,5.67214.78643,1.54785,1.71454,1.78154,3.29,1.20279a39.08326,39.08326,0,0,0,16.3103-10.943,36.05888,36.05888,0,0,0,7.84737-14.08912A1.54143,1.54143,0,0,0,131.27586,107.49788Z"/><path class="cls-2" d="M173.81634,100.2318a44.545,44.545,0,0,0-18.18419-10.21917,42.01969,42.01969,0,0,0-14.67891-1.40873c-1.16366.07186-1.89489-.27425-2.14213-1.49166a31.49372,31.49372,0,0,0-2.09915-6.2206C131.34083,68.485,122.172,60.249,109.37351,56.035c-1.22054-.40186-1.55147-.99409-1.30431-2.157a27.10189,27.10189,0,0,0,.24157-9.02259A31.27358,31.27358,0,0,0,97.11668,24.41669c-.98726-.85077-1.57511-.78589-2.46933.21483a37.01107,37.01107,0,0,0-8.44224,16.15757,37.75559,37.75559,0,0,0-.46579,13.2723c.12113,1.09161-.13234,1.53192-1.21434,1.85083A44.45351,44.45351,0,0,0,63.26977,69.66337a43.80531,43.80531,0,0,0-9.06,16.99142,1.59129,1.59129,0,0,1-2.182,1.28789,29.072,29.072,0,0,0-16.334,1.46831,30.64072,30.64072,0,0,0-8.88165,5.22587c-.43338.35682-1.2396.68181-.56274,1.70018,5.8395,8.78576,14.08374,13.0351,24.54029,13.21352a15.87065,15.87065,0,0,0,1.80569-.16432c.899-.181,1.25221.20708,1.48358,1.03479a41.50125,41.50125,0,0,0,4.59866,10.67883,44.39109,44.39109,0,0,0,25.41822,19.7168c3.56743,1.10859,3.02792.06088,2.67738,4.03583-.0482.5468-.13263,1.09384-.13365,1.64088a37.55985,37.55985,0,0,0,9.5787,25.61119c2.34057,2.67191,2.67469,2.67437,5.18181.04385,8.04536-8.44137,10.72515-18.28576,7.50953-29.57228-.41363-1.45186.03962-1.88709,1.29229-2.31737a43.75123,43.75123,0,0,0,10.12472-5.03667,44.377,44.377,0,0,0,17.5013-22.82322c.31563-.89483.66765-1.17634,1.68039-.82328a33.24209,33.24209,0,0,0,14.58319,1.7473,31.67308,31.67308,0,0,0,19.92708-9.81247C175.50951,101.97882,175.46675,101.786,173.81634,100.2318ZM106.798,61.58771a33.10317,33.10317,0,0,1,6.989,2.81523,37.32887,37.32887,0,0,1,17.72079,20.37084c.547,1.48175.92055,3.02749,1.37667,4.54292a1.26425,1.26425,0,0,1-.76584,1.71947c-2.31141,1.126-4.59846,2.30356-6.87215,3.50432a1.519,1.519,0,0,1-1.80332-.23856,90.98,90.98,0,0,1-8.90042-7.53435,93.573,93.573,0,0,1-12.91246-15.24991,2.05239,2.05239,0,0,1-.02178-2.65789c1.34579-2.05964,2.5782-4.194,3.834-6.3114C105.75968,62.01356,106.0029,61.44555,106.798,61.58771Zm9.49449,39.02884a89.38807,89.38807,0,0,0-18.385,18.68276c-1.10651,1.51507-1.38,1.51-2.52584.04374A98.54592,98.54592,0,0,0,75.3091,100.04556c-2.1087-1.52274-2.09813-1.72886-.05929-3.26208A114.82118,114.82118,0,0,0,95.001,77.76816a2.31076,2.31076,0,0,1,1.12081-.91565c.629-.04411.82966.48743,1.09631.86884a94.901,94.901,0,0,0,14.51445,16.30159c1.5484,1.388,3.18115,2.68169,4.7661,4.02937C117.82117,99.17683,117.81714,99.50176,116.29246,100.61655Zm-21.0844-67.598c.83276-1.56871,1.30683-1.59411,2.23268-.11085a28.73339,28.73339,0,0,1,4.07685,20.95266,33.60451,33.60451,0,0,1-2.87334,8.54176c-.308.6461-.64766,1.46661-1.33258,1.57282-.82064.12728-1.04217-.83426-1.4164-1.40207a28.28051,28.28051,0,0,1-4.51521-14.64713A30.83992,30.83992,0,0,1,95.20806,33.01856ZM59.31415,89.62878a20.12526,20.12526,0,0,1,1.87316-6.14089,37.85685,37.85685,0,0,1,23.261-21.53759c3.30216-1.15545,3.31372-1.13246,4.80338,2.04924a50.67588,50.67588,0,0,0,2.80619,5.57021,1.91508,1.91508,0,0,1-.12947,2.60491A106.547,106.547,0,0,1,79.354,85.5729a120.98886,120.98886,0,0,1-10.05842,8.19349,2.40537,2.40537,0,0,1-3.10083.21339c-1.89309-1.18923-3.93315-2.146-5.9215-3.181C59.70026,90.50058,59.22305,90.1812,59.31415,89.62878ZM48.79017,102.918a20.65331,20.65331,0,0,1-12.72494-4.0199c-1.65633-1.2274-1.63492-1.62278.27071-2.53154a24.47373,24.47373,0,0,1,16.14887-2.24224A28.86045,28.86045,0,0,1,60.476,97.09347c1.66168.93071,1.72306,1.48024.08666,2.44516A22.646,22.646,0,0,1,48.79017,102.918Zm40.40622,31.51876c-.28215.62336-.47089,1.45067-1.77024,1.08944a34.70551,34.70551,0,0,1-13.32033-5.86536,38.89083,38.89083,0,0,1-14.32924-19.732c-.85118-2.5139-.71843-2.88055,1.53-4.16307,1.95035-1.11251,3.89772-2.23118,5.8238-3.38484a1.70392,1.70392,0,0,1,2.0884.054,95.35278,95.35278,0,0,1,23.02435,21.833,2.74858,2.74858,0,0,1,.14961,3.68634A46.08691,46.08691,0,0,0,89.19639,134.43678Zm10.66142,29.25937c-.87831,1.79753-1.386,1.78812-2.48974.10515a29.05751,29.05751,0,0,1-4.65694-15.98887,28.011,28.011,0,0,1,3.397-14.07319c.92513-1.79878,1.39915-1.84041,2.38194-.16514C104.23422,143.36555,104.88211,153.41363,99.85781,163.69615Zm32.34311-54.10136a36.05888,36.05888,0,0,1-7.84737,14.08912,39.08326,39.08326,0,0,1-16.3103,10.943c-1.57543.57875-2.50354.34506-3.29-1.20279-.99047-1.94945-2.217-3.77821-3.31923-5.67214a9.47375,9.47375,0,0,1-.51414-1.17312,2.238,2.238,0,0,1,.54823-1.37519A90.714,90.714,0,0,1,122.23,104.313a2.62713,2.62713,0,0,1,3.39034-.14625c1.84,1.18228,3.72462,2.30562,5.65554,3.33111A1.54143,1.54143,0,0,1,132.20092,109.59479Zm32.28084-5.58144c-4.17588,1.61331-8.47042,2.67057-11.51286,2.63115-8.41657-.02-14.77157-1.97457-20.55053-5.817a6.58231,6.58231,0,0,1-.65581-.49618c-1.15357-.99589-1.1061-1.49707.29044-2.04834a34.63426,34.63426,0,0,1,12.65082-2.6744,34.10942,34.10942,0,0,1,18.97688,5.62431,9.41792,9.41792,0,0,1,1.07255.76588C165.80412,102.90722,165.73784,103.52806,164.48176,104.01335Z"/><path class="cls-3" d="M496.5421,82.59127H486.98V116.4999h9.56214c10.124,0,16.95361-6.83093,16.95361-16.793v-.16138C513.49571,89.58218,506.66612,82.59127,496.5421,82.59127Z"/><path class="cls-3" d="M325.86815,81.86929c-9.96344,0-16.873,7.8742-16.873,17.515v.16131c0,9.64209,7.07025,17.67627,17.03363,17.67627s16.87366-7.87414,16.87366-17.51489v-.16138C342.90245,89.90346,335.83153,81.86929,325.86815,81.86929Z"/><path class="cls-3" d="M663.31963,82.59127H651.02635V98.7416h12.53394c6.027,0,9.48077-3.21314,9.48077-7.95349v-.16132C673.04106,85.32442,669.34526,82.59127,663.31963,82.59127Z"/><path class="cls-1" d="M259.576,117.22182c-9.64209,0-16.311-8.03418-16.311-17.67627v-.16131c0-9.64075,6.82959-17.51495,16.311-17.51495,5.62433,0,10.0434,2.41052,14.38251,6.347l7.87421-9.0788c-5.223-5.14239-11.57068-8.67816-22.1767-8.67816-17.275,0-29.32757,13.09723-29.32757,29.08624v.16138c0,16.149,12.29327,28.92493,28.84558,28.92493,10.84735,0,17.275-3.85712,23.06-10.04407l-7.8742-7.95355C269.94078,114.65133,266.00365,117.22182,259.576,117.22182Z"/><path class="cls-1" d="M326.02879,70.45931c-17.355,0-29.97021,13.09723-29.97021,29.08624v.16138c0,15.989,12.45392,28.92493,29.80957,28.92493s29.97021-13.09723,29.97021-29.08631v-.16131C355.83836,83.39523,343.38444,70.45931,326.02879,70.45931Zm16.87366,29.24762c0,9.64075-6.91028,17.51489-16.87366,17.51489s-17.03363-8.03418-17.03363-17.67627v-.16131c0-9.64075,6.90955-17.51495,16.873-17.51495s17.0343,8.03417,17.0343,17.67626Z"/><polygon class="cls-1" points="394.812 111.036 380.108 71.423 366.449 71.423 389.188 128.07 400.115 128.07 422.854 71.423 409.517 71.423 394.812 111.036"/><rect class="cls-1" x="440.13408" y="71.42324" width="12.3739" height="56.24469"/><path class="cls-1" d="M496.5421,71.42324H474.60673v56.24469H496.5421c17.67694,0,29.88952-12.29327,29.88952-28.12238v-.16131C526.43162,83.55654,514.219,71.42324,496.5421,71.42324Zm16.95361,28.28369c0,9.962-6.82959,16.793-16.95361,16.793H486.98V82.59127h9.56214c10.124,0,16.95361,6.99091,16.95361,16.95428Z"/><path class="cls-1" d="M594.2957,105.97317h12.45392v8.03552A19.7462,19.7462,0,0,1,595.099,117.3832c-9.96338,0-17.03363-7.55292-17.03363-17.83765v-.16131c0-9.5614,7.15088-17.51495,16.14966-17.51495,6.5083,0,10.36542,2.08923,14.70447,5.70434l7.79358-9.40143c-5.86566-4.98108-11.972-7.71289-22.09607-7.71289-17.03363,0-29.48822,13.09723-29.48822,29.08624v.16138c0,16.63165,12.05261,28.92493,29.56891,28.92493A36.503,36.503,0,0,0,618.7216,119.713V95.28652H594.2957Z"/><path class="cls-1" d="M685.57628,90.14413v-.16c0-5.30371-1.6872-9.72278-4.82105-12.85656-3.69574-3.6958-9.24011-5.70435-16.391-5.70435H638.65245v56.24469h12.3739V109.669h9.72144l12.05261,17.999h14.46313l-13.73986-20.08685C680.67461,104.92861,685.57628,99.22427,685.57628,90.14413Zm-12.53522.644c0,4.74035-3.4538,7.95349-9.48077,7.95349H651.02635V82.59127h12.29328c6.02563,0,9.72143,2.73315,9.72143,8.03552Z"/><polygon class="cls-1" points="717.077 104.849 743.593 104.849 743.593 93.841 717.077 93.841 717.077 82.431 747.209 82.431 747.209 71.423 704.784 71.423 704.784 127.668 747.61 127.668 747.61 116.66 717.077 116.66 717.077 104.849"/><polygon class="cls-1" points="778.949 104.849 805.465 104.849 805.465 93.841 778.949 93.841 778.949 82.431 809.082 82.431 809.082 71.423 766.656 71.423 766.656 127.668 809.482 127.668 809.482 116.66 778.949 116.66 778.949 104.849"/><polygon class="cls-1" points="866.293 71.423 866.293 106.054 839.939 71.423 828.529 71.423 828.529 127.668 840.742 127.668 840.742 91.912 867.98 127.668 878.507 127.668 878.507 71.423 866.293 71.423"/></svg>