<svg id="Layer_1" data-name="Layer 1" xmlns="http://www.w3.org/2000/svg" viewBox="0 0 400 310"><defs><style>.cls-1{fill:none;}</style></defs><path class="cls-1" d="M148.31915,136.13019a60.64135,60.64135,0,0,0,103.99353,0l-20.803-12.48181A36.3886,36.3886,0,0,1,163.92078,104.926V104.926A36.38862,36.38862,0,0,1,231.5097,86.20361l20.803-12.48175a60.64127,60.64127,0,0,0-103.99353,62.40833Z"/><path class="cls-1" d="M68.56744,262.52448a11.57365,11.57365,0,0,0-9.46838,4.1463q-3.34187,4.08435-3.3418,11.82006,0,7.73548,3.3418,11.882a11.57439,11.57439,0,0,0,9.46838,4.14631,11.3281,11.3281,0,0,0,9.34473-4.14631q3.40356-4.14651,3.40369-11.882,0-7.73574-3.40369-11.82006A11.327,11.327,0,0,0,68.56744,262.52448Z"/><path class="cls-1" d="M378.64569,275.33472a7.04344,7.04344,0,0,0-5.75531,2.4754q-2.04217,2.47532-2.04224,7.11682,0,4.70325,2.04224,7.30249a7.5953,7.5953,0,0,0,11.3869.06189q2.04217-2.53747,2.04218-7.2406,0-4.70343-2.04218-7.17871A6.7283,6.7283,0,0,0,378.64569,275.33472Z"/><path class="cls-1" d="M177.63464,263.20526h-7.61187v30.63318l7.61187.00006q15.03809,0,15.03809-15.34759Q192.67273,263.20507,177.63464,263.20526Z"/><path d="M103.27954,32.15649V104.926c0,72.76954,97.026,121.28248,97.026,121.28248S297.33148,177.6955,297.33148,104.926V32.15649L200.30554,7.9ZM252.31268,73.72186l-20.803,12.48175A36.38862,36.38862,0,0,0,163.92078,104.926v.00007a36.3886,36.3886,0,0,0,67.58892,18.72235l20.803,12.48181a60.64127,60.64127,0,1,1,0-62.40833Z"/><path d="M27.84448,262.64819a15.22232,15.22232,0,0,1,5.07459.80451,17.62411,17.62411,0,0,1,4.9508,2.723,4.577,4.577,0,0,0,2.5373.86639,2.22966,2.22966,0,0,0,1.79467-.92828,3.54918,3.54918,0,0,0,.74262-2.28973,4.02676,4.02676,0,0,0-.30945-1.6709,3.54982,3.54982,0,0,0-1.114-1.29962,19.47729,19.47729,0,0,0-6.37415-3.46558,23.37783,23.37783,0,0,0-7.67377-1.23767,21.93676,21.93676,0,0,0-11.07751,2.723,18.1566,18.1566,0,0,0-7.24054,7.79755A25.86564,25.86564,0,0,0,6.6178,278.49084a26.25647,26.25647,0,0,0,2.53729,11.882,18.15937,18.15937,0,0,0,7.24054,7.79755,21.9387,21.9387,0,0,0,11.07751,2.7229,24.50062,24.50062,0,0,0,7.67377-1.1759A20.42027,20.42027,0,0,0,41.52112,296.19a3.553,3.553,0,0,0,1.11389-1.29962,4.30575,4.30575,0,0,0,.30945-1.6709,3.54929,3.54929,0,0,0-.74262-2.28973,2.22986,2.22986,0,0,0-1.79467-.92829,3.46407,3.46407,0,0,0-1.29963.24756,8.6536,8.6536,0,0,0-1.23767.61884,23.28364,23.28364,0,0,1-5.13647,2.723,14.30082,14.30082,0,0,1-4.889.8045q-6.43606-.00009-9.77783-4.02252-3.28-4.02264-3.27991-11.882-.00009-7.79772,3.27991-11.82006Q21.40826,262.64825,27.84448,262.64819Z"/><path d="M146.66107,256.39783a3.93261,3.93261,0,0,0-2.90863,1.11395,3.84359,3.84359,0,0,0-1.05206,2.84668v36.32666a4.06058,4.06058,0,0,0,1.05206,2.90863,3.93261,3.93261,0,0,0,2.90863,1.11395,3.80874,3.80874,0,0,0,2.90857-1.11395,3.93406,3.93406,0,0,0,1.114-2.90863V260.35846a3.72839,3.72839,0,0,0-1.114-2.84668A3.80861,3.80861,0,0,0,146.66107,256.39783Z"/><path d="M178.1297,256.70728H165.8764a3.98489,3.98489,0,0,0-2.84668.99011,3.768,3.768,0,0,0-.99017,2.78485V296.5614a3.76818,3.76818,0,0,0,.99017,2.78479,3.98556,3.98556,0,0,0,2.84668.99017h12.2533q10.70517-.00018,16.58527-5.69342,5.94094-5.75536,5.941-16.1521,0-10.335-5.941-16.02825Q188.83682,256.7073,178.1297,256.70728Zm-.49506,37.13122-7.61187-.00006V263.20526h7.61187q15.03809-.00018,15.03809,15.28565Q192.67282,293.83854,177.63464,293.8385Z"/><path d="M135.17358,257.32611a4.3375,4.3375,0,0,0-2.78485-.99017,3.38106,3.38106,0,0,0-3.2799,2.10412l-14.23359,31.62336L100.6416,258.44a3.253,3.253,0,0,0-1.42334-1.54712,3.4699,3.4699,0,0,0-1.91846-.55694,4.68272,4.68272,0,0,0-2.90856.99017,3.11,3.11,0,0,0-1.23774,2.53729,3.89754,3.89754,0,0,0,.37134,1.48523L110.6051,298.2323a4.28036,4.28036,0,0,0,1.6709,1.85657,5.24734,5.24734,0,0,0,2.4754.61883,4.89,4.89,0,0,0,2.41358-.61883,4.17253,4.17253,0,0,0,1.73279-1.85657L136.04,261.34863a3.99734,3.99734,0,0,0,.37134-1.54712A3.04637,3.04637,0,0,0,135.17358,257.32611Z"/><path d="M79.58307,258.87323a21.38437,21.38437,0,0,0-11.01557-2.723,21.72237,21.72237,0,0,0-11.07751,2.723,18.15486,18.15486,0,0,0-7.24054,7.79755,29.2723,29.2723,0,0,0,.06183,23.70208A18.27316,18.27316,0,0,0,57.49,298.17041a21.7236,21.7236,0,0,0,11.07745,2.7229,21.26,21.26,0,0,0,10.95374-2.7229,18.15951,18.15951,0,0,0,7.2406-7.79755,26.24732,26.24732,0,0,0,2.53748-11.882,25.857,25.857,0,0,0-2.53748-11.82006A17.78167,17.78167,0,0,0,79.58307,258.87323Zm-1.6709,31.49963a11.3281,11.3281,0,0,1-9.34473,4.14631,11.57439,11.57439,0,0,1-9.46838-4.14631q-3.34187-4.1466-3.3418-11.882,0-7.73565,3.3418-11.82006a11.57365,11.57365,0,0,1,9.46838-4.1463,11.327,11.327,0,0,1,9.34473,4.1463q3.40365,4.08426,3.40369,11.82006Q81.31577,286.22632,77.91217,290.37286Z"/><path d="M392.87927,257.388a4.12523,4.12523,0,0,0-2.84668-.99017h-.00006a3.89273,3.89273,0,0,0-2.78485.99017,3.22719,3.22719,0,0,0-.99017,2.4754v14.66687a9.45878,9.45878,0,0,0-3.89875-3.83691,12.11564,12.11564,0,0,0-5.81726-1.36145,12.79331,12.79331,0,0,0-6.993,1.91846,13.083,13.083,0,0,0-4.76519,5.44586,19.03536,19.03536,0,0,0-1.6709,8.23077,19.87208,19.87208,0,0,0,1.6709,8.35449,13.44322,13.44322,0,0,0,4.76519,5.56965,12.69169,12.69169,0,0,0,6.993,1.98034,11.69269,11.69269,0,0,0,5.81726-1.4234,9.64989,9.64989,0,0,0,3.96064-3.96069v1.54718a3.47843,3.47843,0,0,0,1.05206,2.66107,4.41137,4.41137,0,0,0,5.5697,0,3.48516,3.48516,0,0,0,1.05207-2.66107V259.98718A3.31082,3.31082,0,0,0,392.87927,257.388Zm-8.602,34.90332a7.5953,7.5953,0,0,1-11.3869-.06189q-2.04226-2.59927-2.04224-7.30249,0-4.64145,2.04224-7.11682a7.04344,7.04344,0,0,1,5.75531-2.4754,6.7283,6.7283,0,0,1,5.63159,2.53729q2.04217,2.47522,2.04218,7.17871Q386.31946,289.75388,384.27728,292.29132Z"/><path d="M250.49878,278.18152a46.88556,46.88556,0,0,0-8.9115-2.78485,25.3774,25.3774,0,0,1-7.36432-2.53729,4.34281,4.34281,0,0,1-2.166-3.89881,5.3919,5.3919,0,0,1,2.41357-4.70325,11.458,11.458,0,0,1,6.68359-1.73284,15.92769,15.92769,0,0,1,5.8172.92834,19.81252,19.81252,0,0,1,4.95081,2.7229,10.12087,10.12087,0,0,0,1.36145.68079,3.68889,3.68889,0,0,0,1.17584.18567,2.23152,2.23152,0,0,0,1.79462-.92835,3.52977,3.52977,0,0,0,.80456-2.28973,3.09555,3.09555,0,0,0-.37133-1.609,4.0679,4.0679,0,0,0-1.114-1.36145q-5.57152-4.70325-14.41925-4.70331a21.255,21.255,0,0,0-8.72583,1.73279,14.06921,14.06921,0,0,0-6.00287,4.70331,11.524,11.524,0,0,0-2.166,6.86926,10.23673,10.23673,0,0,0,1.73279,6.12665,12.48352,12.48352,0,0,0,5.13647,3.96063,44.51032,44.51032,0,0,0,8.84961,2.723,28.29181,28.29181,0,0,1,7.4881,2.4754,3.8965,3.8965,0,0,1,2.28979,3.58936,5.23976,5.23976,0,0,1-2.41351,4.64142,12.8804,12.8804,0,0,1-6.93115,1.54712,22.48822,22.48822,0,0,1-6.4361-.8664,18.54865,18.54865,0,0,1-5.5697-2.78485,5.02923,5.02923,0,0,0-2.53729-.86639,2.35008,2.35008,0,0,0-1.85651.99017,3.77107,3.77107,0,0,0,.68067,5.19836,20.2224,20.2224,0,0,0,6.86926,3.46558,32.30274,32.30274,0,0,0,9.03528,1.23767l.00006.00006a22.73246,22.73246,0,0,0,8.84955-1.60907,13.99258,13.99258,0,0,0,6.00286-4.57953,11.26415,11.26415,0,0,0,2.166-6.80737,9.194,9.194,0,0,0-1.85657-5.87909A12.75386,12.75386,0,0,0,250.49878,278.18152Z"/><path d="M350.12238,257.32611a3.43689,3.43689,0,0,0-1.05207,2.723v36.9455a3.63679,3.63679,0,0,0,1.05207,2.78479,4.64119,4.64119,0,0,0,5.5697,0,3.53185,3.53185,0,0,0,1.114-2.78479v-36.9455a3.34239,3.34239,0,0,0-1.114-2.723A4.64136,4.64136,0,0,0,350.12238,257.32611Z"/><path d="M304.31763,255.71716a4.80462,4.80462,0,0,0-3.3418,1.11389,3.79852,3.79852,0,0,0-1.23767,2.97052,3.99336,3.99336,0,0,0,1.23767,3.03235,4.80492,4.80492,0,0,0,3.3418,1.114v-.00007a4.81123,4.81123,0,0,0,3.34185-1.11389,4.00062,4.00062,0,0,0,1.23768-3.03235,3.716,3.716,0,0,0-1.29956-2.97052A4.71845,4.71845,0,0,0,304.31763,255.71716Z"/><path d="M301.53284,270.38391a3.43676,3.43676,0,0,0-1.05207,2.7229v23.88776a3.63649,3.63649,0,0,0,1.05207,2.78485,4.64122,4.64122,0,0,0,5.56964-.00006,3.53145,3.53145,0,0,0,1.11395-2.78479V273.10681a3.34189,3.34189,0,0,0-1.11395-2.7229A4.64127,4.64127,0,0,0,301.53284,270.38391Z"/><path d="M281.979,269.33185a12.96462,12.96462,0,0,0-5.87909,1.29956,9.94987,9.94987,0,0,0-4.08441,3.65124V259.8634a3.20758,3.20758,0,0,0-1.05206-2.53729,4.0575,4.0575,0,0,0-2.78485-.92828,4.12533,4.12533,0,0,0-2.84668.99017,3.40117,3.40117,0,0,0-1.05206,2.59918v37.00739a3.68229,3.68229,0,0,0,.99011,2.7229,4.58721,4.58721,0,0,0,5.69348,0,3.55645,3.55645,0,0,0,1.05206-2.7229V283.19415a7.87955,7.87955,0,0,1,1.98035-5.63159,7.16167,7.16167,0,0,1,5.384-2.10406,5.12232,5.12232,0,0,1,4.1463,1.54712q1.36149,1.48516,1.36145,4.76519v15.22376a3.55646,3.55646,0,0,0,1.05207,2.7229,3.986,3.986,0,0,0,2.84674.99023,3.76363,3.76363,0,0,0,2.78485-.99023,3.55645,3.55645,0,0,0,1.05206-2.7229V281.77081Q292.62228,269.33182,281.979,269.33185Z"/><path d="M342.74261,283.93683a16.8384,16.8384,0,0,0-1.67089-7.73566,12.17155,12.17155,0,0,0-4.70331-5.07458,13.71631,13.71631,0,0,0-7.11676-1.79468,14.97378,14.97378,0,0,0-7.67383,1.98035,13.56026,13.56026,0,0,0-5.19836,5.56964,17.65987,17.65987,0,0,0-1.85657,8.23071q0,7.30244,4.27008,11.51068,4.26819,4.20813,11.57257,4.20819a20.49682,20.49682,0,0,0,5.07458-.68072,21.72864,21.72864,0,0,0,4.76514-1.91846q2.28983-1.29969,2.2898-3.21808a3.25021,3.25021,0,0,0-.68079-2.166,2.00068,2.00068,0,0,0-1.6709-.80451l.00012.00012a6.82433,6.82433,0,0,0-2.723.99012,33.125,33.125,0,0,1-3.46557,1.36145,10.9803,10.9803,0,0,1-3.46558.49511,8.20113,8.20113,0,0,1-5.941-1.98034q-2.04226-2.04217-2.41351-6.31232H340.391Q342.74262,286.59781,342.74261,283.93683Zm-20.60778-1.48529a9.46109,9.46109,0,0,1,2.22784-5.69348,6.74164,6.74164,0,0,1,5.07459-1.98035,6.07943,6.07943,0,0,1,4.827,1.98035,8.69694,8.69694,0,0,1,1.85657,5.69348Z"/></svg>