<svg id="Layer_1" data-name="Layer 1" xmlns="http://www.w3.org/2000/svg" viewBox="0 0 360 174.12685"><defs><style>.cls-1{fill:#009ade;}.cls-2{fill:#003764;}.cls-3{fill:#fff;}</style></defs><polygon class="cls-1" points="39.693 134.421 39.693 71.721 8.281 71.721 8.281 165.778 102.377 165.778 102.377 134.421 39.693 134.421"/><polygon class="cls-2" points="165.059 8.972 8.302 8.972 8.302 56.01 39.648 56.01 39.648 40.465 133.715 40.465 133.715 134.421 118.059 134.421 118.059 165.778 165.059 165.778 165.059 8.972"/><path class="cls-2" d="M90.01672,58.31108c0-.80559.00408-1.47269-.00283-2.13968-.00173-.16813.03745-.23505.25244-.277.37726-.07369.76106-.11155,1.13878-.18191a2.38313,2.38313,0,0,0,1.956-1.60318,4.93106,4.93106,0,0,1,.84723-1.453,3.07843,3.07843,0,0,1,2.20017-.89176,11.1696,11.1696,0,0,1,5.25307.87628,26.51124,26.51124,0,0,0,5.17876,1.31689c1.33531.22612,2.68116.32506,4.02977.43556,1.08456.08886,2.17044.148,3.25607.21787,1.14473.07366,2.292.09172,3.43489.15739.88139.05071,1.76033.00654,2.63749.057,2.60344.14967,5.21.00775,7.81284.08416.67432.01978,1.3498.05318,2.02532.05487.23505.00059.27209.079.2236.26422a4.93124,4.93124,0,0,1-1.49162,2.55885,5.756,5.756,0,0,1-3.08483,1.409,13.052,13.052,0,0,1-2.68626-.0843c-.44042-.03178-.50045-.00862-.54217.405a2.984,2.984,0,0,1-2.23294,2.67338,8.49607,8.49607,0,0,1-3.61643.27924c-.34931-.03207-.53482.01535-.6825.35987a5.25428,5.25428,0,0,1-3.15685,3.10536,6.189,6.189,0,0,1-2.14278.50752,7.24255,7.24255,0,0,1-2.22439-.386,9.08564,9.08564,0,0,1-2.44035-1.19461c-.16043-.11512-.27688-.1638-.37341.053A5.43929,5.43929,0,0,1,103.71,66.87991a8.29092,8.29092,0,0,1-3.55266,1.56052,11.85753,11.85753,0,0,1-3.14768.2291c-1.05614-.08268-2.11669-.14192-3.172-.2441-1.18479-.11471-2.35009-.33983-3.52247-.5237-.188-.02948-.2995-.10249-.3092-.33107-.09619-2.26386-.10831-4.52912-.051-6.79224C89.97718,59.91043,89.9891,59.04107,90.01672,58.31108Z"/><path class="cls-2" d="M67.56519,64.72351A9.96743,9.96743,0,0,1,64.857,66.06323a5.99283,5.99283,0,0,1-4.30462-.10791,5.22344,5.22344,0,0,1-3.14454-3.16258c-.11671-.32087-.32247-.37246-.63342-.32687a9.7907,9.7907,0,0,1-3.17762-.09172,3.097,3.097,0,0,1-2.70591-2.7985c-.05242-.46448-.17469-.51068-.6985-.45015a7.17745,7.17745,0,0,1-4.34042-.45068,5.09791,5.09791,0,0,1-2.78285-3.49723c-.05157-.2398.13905-.20309.30013-.21047,2.0051-.09172,4.01185-.07008,6.01825-.072.77415-.00073,1.55033.03155,2.322-.00746,1.19111-.06021,2.38381-.02735,3.57282-.07645,1.14549-.04731,2.29208-.08306,3.43684-.14094,1.40842-.07122,2.81514-.17754,4.22063-.28844a47.54448,47.54448,0,0,0,5.61811-.79813,22.34477,22.34477,0,0,0,3.34742-1.04412A13.63816,13.63816,0,0,1,74.82,51.79177a7.51087,7.51087,0,0,1,3.10357.15385,2.72762,2.72762,0,0,1,1.827,1.7749,2.74632,2.74632,0,0,0,1.59871,1.82315,5.93861,5.93861,0,0,0,1.43142.30154c.27094.027.56312-.011.5609.41087q-.02991,5.63777-.00459,11.27592a.3319.3319,0,0,1-.34006.3798c-1.4655.19745-2.91489.47844-4.39584.60026-1.08477.08926-2.17072.20621-3.25631.19467a10.017,10.017,0,0,1-5.41247-1.53948A6.91375,6.91375,0,0,1,67.56519,64.72351Z"/><path class="cls-2" d="M108.03975,75.68574a5.15486,5.15486,0,0,0-3.18724-4.05559,13.07962,13.07962,0,0,0-3.6372-1.04064c-1.18247-.1769-2.37047-.23126-3.55586-.33091a10.06822,10.06822,0,0,0-2.84575.20912A5.53582,5.53582,0,0,0,91.52284,72.409a4.637,4.637,0,0,0-1.10534,3.2334,1.31713,1.31713,0,0,0,.66283,1.08579,6.44276,6.44276,0,0,0,3.36414.76622,6.03226,6.03226,0,0,0,3.71383-1.22452,4.433,4.433,0,0,1,1.33-.84707,6.68524,6.68524,0,0,1,2.08775-.14852c.58781.02735.58656.048.58656.56329a8.22674,8.22674,0,0,0,.00436.83649,1.57508,1.57508,0,0,1-1.05283,1.63991,22.75161,22.75161,0,0,1-4.18758,1.59674,53.98033,53.98033,0,0,1-7.67687,1.26332c-1.11863.108-2.23864.0352-3.35842.1168-.81609.0596-1.62944.108-2.43632.2355A18.09844,18.09844,0,0,0,77.44718,83.61a12.86646,12.86646,0,0,0-3.58074,2.9118,6.81574,6.81574,0,0,0-1.36708,2.32536,9.23054,9.23054,0,0,0-.35779,3.70191,5.268,5.268,0,0,0,2.03712,3.46416c.46415.41172,1.00905.74978,1.50143,1.13733a2.23149,2.23149,0,0,0,2.566.19418,9.67032,9.67032,0,0,1,1.38948-.7015c1.35052-.65262,2.81141-1.09763,4.1775-1.77-.76722-.48431-1.56712-.91238-2.30908-1.41624a2.76651,2.76651,0,0,1-1.0878-1.4799,5.54478,5.54478,0,0,1-.09092-2.01723,1.481,1.481,0,0,1,.72937-1.18756,5.14838,5.14838,0,0,1,1.38761-.62737,29.70849,29.70849,0,0,1,5.95811-.93279c.87194-.05163,1.74489-.10523,2.61734-.14355a31.10207,31.10207,0,0,0,3.79533-.56034,26.40645,26.40645,0,0,0,5.59159-1.79265,19.45928,19.45928,0,0,0,4.67762-2.79524A10.50293,10.50293,0,0,0,107.44958,79.13a3.02774,3.02774,0,0,0,.49325-1.0119A7.2522,7.2522,0,0,0,108.03975,75.68574Z"/><path class="cls-2" d="M91.39458,88.075a18.27149,18.27149,0,0,0,3.04581-.20421,21.63967,21.63967,0,0,0,3.88067-.95421c.36005-.11972.75859-.3837,1.07057-.31851.34117.07133.40131.54954.56928.85553a7.50931,7.50931,0,0,1,1.04808,4.25945,5.73394,5.73394,0,0,1-1.36562,3.15418,10.20522,10.20522,0,0,1-2.64282,2.23463A25.31129,25.31129,0,0,1,91.2848,99.641c-1.845.57847-3.71258,1.0997-5.55717,1.67914a14.19023,14.19023,0,0,0-3.03838,1.42343,1.90842,1.90842,0,0,0-.81646,1.54071,2.48208,2.48208,0,0,0,1.25784,2.45871c.45271.31291.90734.62331,1.40417.92536a1.67713,1.67713,0,0,1-.70246.22568,15.28137,15.28137,0,0,0-5.10188,2.37632.3055.3055,0,0,1-.40765.02391,9.89368,9.89368,0,0,1-3.70786-3.6138,4.39872,4.39872,0,0,1-.35541-2.632,6.10209,6.10209,0,0,1,1.85359-3.26663,11.22722,11.22722,0,0,1,2.08528-1.63059,28.708,28.708,0,0,1,8.47705-3.51434A12.62157,12.62157,0,0,0,91.325,93.47945,3.08041,3.08041,0,0,0,92.576,90.35728,4.6675,4.6675,0,0,0,91.39458,88.075Z"/><path class="cls-2" d="M86.47292,80.21675c-.46181-.0001-.9241-.01117-1.38526.00444-.23924.00816-.32071-.07046-.28847-.27056a.38282.38282,0,0,0,.00035-.07268c-.13933-4.264.08954-8.53516-.12229-12.792-.23552-4.73252-.1488-9.46125-.19628-14.19167-.00255-.254-.18515-.31279-.35918-.40936A6.255,6.255,0,0,1,81.375,49.88718a1.97239,1.97239,0,0,1-.24636-.93247A5.61536,5.61536,0,0,1,81.212,47.033a5.09566,5.09566,0,0,1,1.65709-2.37724,5.19076,5.19076,0,0,1,2.31324-1.06616,5.5304,5.5304,0,0,1,4.828,1.00569,4.80468,4.80468,0,0,1,1.86334,3.90818,4.31009,4.31009,0,0,1-1.13711,2.58236,4.80742,4.80742,0,0,1-1.5788,1.25525,1.10269,1.10269,0,0,0-.60556,1.16514c-.02079.93331-.00624,1.86725-.00611,2.80093.00035,3.90449.07327,7.81038-.0201,11.7131-.08669,3.62293-.00928,7.24454-.06343,10.86636a4.308,4.308,0,0,1-.26455,1.15478c-.04688.15654-.17325.18181-.33961.17855C87.39671,80.21093,86.93474,80.21685,86.47292,80.21675Z"/><path class="cls-2" d="M84.79911,104.93318c.00057-.5214.00878-1.04293-.00357-1.56408a.42412.42412,0,0,1,.26518-.42989,19.03,19.03,0,0,1,4.73279-1.60367,38.01037,38.01037,0,0,0,4.52693-1.49694,1.4316,1.4316,0,0,1,1.53745.24679A7.61272,7.61272,0,0,1,98.0008,103a4.47972,4.47972,0,0,1,.31958,2.30193,6.03351,6.03351,0,0,1-.813,2.59715,7.18048,7.18048,0,0,1-3.16443,2.80576,42.00074,42.00074,0,0,1-6.64767,2.24885,17.03184,17.03184,0,0,0-3.86043,1.6087,1.25367,1.25367,0,0,0-.63475,1.45222c.118.415.24076.8293.38175,1.23834.04932.14319.07665.2152-.1108.306a38.03225,38.03225,0,0,0-3.55708,1.97991.94939.94939,0,0,1-1.225-.22624,4.46767,4.46767,0,0,1-1.48682-2.55528,5.74474,5.74474,0,0,1,1.25446-4.30444,7.67021,7.67021,0,0,1,2.38684-1.9523,20.47707,20.47707,0,0,1,4.00451-1.68238c1.21887-.45288,2.52524-.68,3.73453-1.16019a8.86671,8.86671,0,0,0,2.10095-1.09045,2.59061,2.59061,0,0,0,.92368-1.43727c.09783-.38207-.22511-.73876-.44524-1.07737a5.4095,5.4095,0,0,0-2.49572-1.72762c-.285-.13083-.25723.11339-.27178.20882a11.40144,11.40144,0,0,0-.16554,1.46346,20.38281,20.38281,0,0,0-.08693,2.27757c.01812.20116-.0674.29412-.272.36984a20.10194,20.10194,0,0,1-2.78175.7725c-.23109.04946-.18955-.08561-.20916-.2047A15.63126,15.63126,0,0,1,84.79911,104.93318Z"/><path class="cls-2" d="M81.09177,80.7587c-.59881.18019-1.10941.31053-1.6.48565A18.19091,18.19091,0,0,0,74.75562,83.675a8.47858,8.47858,0,0,0-1.185,1.07252.33574.33574,0,0,1-.46472.07808,29.34135,29.34135,0,0,1-4.91747-2.66683,11.04514,11.04514,0,0,1-2.13071-2.13889A4.75727,4.75727,0,0,1,64.961,77.97777a5.83376,5.83376,0,0,1,.59644-4.3392,6.05463,6.05463,0,0,1,2.27-1.99609,11.49617,11.49617,0,0,1,4.69568-1.32469c1.40162-.12536,2.80487-.14472,4.2108-.14213a6.24536,6.24536,0,0,1,3.32471.89361,4.75226,4.75226,0,0,1,2.43809,4.02481c.05063,1.09046-.59664,1.61419-1.71416,1.918a11.21132,11.21132,0,0,1-3.539.19834,3.62764,3.62764,0,0,1-1.66013-.65943,8.31411,8.31411,0,0,0-2.147-1.22361,6.912,6.912,0,0,0-2.52051-.05852c-.10354.00952-.12772.05731-.14156.13972a2.89942,2.89942,0,0,0,.14993,1.937c.3023.56971.93633.75962,1.47109,1.04358A21.7064,21.7064,0,0,0,78.263,80.2168C79.16853,80.40374,80.08058,80.5658,81.09177,80.7587Z"/><path class="cls-2" d="M88.52594,115.33388c-1.16853.89968-2.46819,1.52053-3.74352,2.34865a19.958,19.958,0,0,1,.08377-2.24017c.03939-.1832.13739-.23279.29388-.2789,1.3644-.40187,2.74912-.74191,4.12772-1.10158a18.47376,18.47376,0,0,0,3.66774-1.307,5.49855,5.49855,0,0,0,.77286-.50946c.178-.1312.261-.10171.36529.07541a4.25618,4.25618,0,0,1,.40112,1.26805,3.1,3.1,0,0,1-.68827,2.683,7.46813,7.46813,0,0,1-2.29555,1.94682,43.22684,43.22684,0,0,1-5.6768,2.47189c-1.41635.52116-2.84594,1.01484-4.23011,1.60422-1.13024.48125-2.29476.89189-3.44559,1.33082-.30515.11636-.30439-.13657-.42395-.20839-.394-.2363-.386-.31736-.00793-.59019q.8412-.60711,1.70466-1.18954c1.91578-1.29837,4.06048-2.27236,6.09137-3.40766a18.17073,18.17073,0,0,0,2.14058-1.31179A1.83753,1.83753,0,0,0,88.52594,115.33388Z"/><path class="cls-2" d="M88.55826,121.23057c-.11261.89966-.18906,1.79427-.268,2.68976-.1201,1.36172-.19477,2.72695-.38726,4.08436-.11266.79446-.20077,1.59186-.33289,2.38452-.01594.09569-.00038.169-.15553.20419a5.67146,5.67146,0,0,1-1.57194.05052c-.25231-.0134-.20533-.29825-.22153-.46763-.10518-1.09818-.35231-2.18045-.4276-3.28282-.0939-1.37493-.432-2.7301-.40578-4.118a.94777.94777,0,0,1,.63567-.91234c1.25366-.58583,2.593-1.00335,3.85825-1.56681.46472-.20694.93125-.40722,1.41812-.57783a1.29016,1.29016,0,0,1,1.08974.09835,15.20578,15.20578,0,0,1,2.06474,1.29428c.66724.4758,1.24421,1.03895,1.85617,1.56826.13891.12013.11433.1514-.01857.27559a.943.943,0,0,1-.96881.25681,32.43833,32.43833,0,0,1-6.03523-1.94245C88.65166,121.25468,88.61205,121.24653,88.55826,121.23057Z"/><path class="cls-2" d="M84.7995,94.69349c0-1.529.01111-3.032-.00742-4.53462a10.846,10.846,0,0,0,.08842-1.18638c-.02615-.21422.19227-.19953.29858-.215a12.17854,12.17854,0,0,1,1.515-.17176,6.60819,6.60819,0,0,0,1.45623-.06416c.19452-.04729.32318.00161.31957.23564-.014.9094.04882,1.82261-.02456,2.72747-.05.617-.05026,1.23089-.05481,1.846-.00153.20586-.09677.28152-.28211.36831A15.248,15.248,0,0,1,84.7995,94.69349Z"/><path class="cls-3" d="M93.17066,73.7519c.06011-.0875.10357-.2294.187-.25169a2.4924,2.4924,0,0,1,2.238.14814c.23743.17411.0095.36827-.19433.50684C94.87744,74.51132,94.27838,74.40724,93.17066,73.7519Z"/><path class="cls-3" d="M79.82111,73.7519c-.06011-.0875-.10354-.2294-.187-.25169a2.49238,2.49238,0,0,0-2.23789.14814c-.23746.17411-.0095.36827.19433.50684C78.11436,74.51132,78.71341,74.40724,79.82111,73.7519Z"/><path class="cls-1" d="M193.78669,114.13913h5.51752c7.9758,0,10.80625-5.437,10.80625-10.09267S207.28,93.95378,199.30421,93.95378h-13.777v30.32879h8.25944Zm0-13.31426h3.81481c3.28426,0,4.44869.843,4.44869,3.22159,0,2.37659-1.16443,3.21958-4.44869,3.21958h-3.81475Z"/><path class="cls-1" d="M234.46793,112.56567c0,3.87745-1.17736,5.12149-4.8448,5.12149-4.00184,0-4.806-1.95963-4.806-5.12149V93.95378h-8.25947v18.61189c0,7.99074,4.63978,12.39069,13.06544,12.39069,8.44953,0,13.10326-4.4,13.10326-12.39069V93.95378h-8.25846Z"/><path class="cls-1" d="M270.90446,107.703a7.04587,7.04587,0,0,0,2.6543-5.71761c0-5.32949-3.38181-8.03155-10.05188-8.03155H249.1745v30.32878H263.902c6.685,0,11.00431-3.61967,11.00431-9.22087A7.96835,7.96835,0,0,0,270.90446,107.703Zm-4.25662,7.00148c0,1.33859-.425,2.706-3.57787,2.706h-5.63589v-5.72758h5.75545C266.25473,111.68289,266.64784,113.29716,266.64784,114.70443Zm-9.21376-9.29948v-4.58007h4.803c2.707,0,3.26138.89173,3.26138,2.23032,0,.5812,0,2.34974-2.78367,2.34974Z"/><polygon class="cls-1" points="303.403 117.015 289.614 117.015 289.614 93.954 281.355 93.954 281.355 124.283 303.403 124.283 303.403 117.015"/><rect class="cls-1" x="309.849" y="93.95378" width="8.25946" height="30.32878"/><path class="cls-1" d="M345.00372,111.34751l-.11345.88973a5.45231,5.45231,0,0,1-5.40712,5.44991c-6.18737,0-6.66807-6.468-6.66807-8.45055,0-2.03824.4807-8.6884,6.66807-8.6884a5.12077,5.12077,0,0,1,5.17124,4.07549l.12341.87681h8.05046l-.13044-1.13556C351.93553,97.73468,346.6249,93.28,339.48309,93.28c-8.92825,0-14.92653,6.41231-14.92653,15.9566,0,9.25564,6.13761,15.71974,14.92653,15.71974a12.93656,12.93656,0,0,0,13.45194-12.3998l.00364-.09837.09952-1.11068Z"/><path class="cls-2" d="M185.52725,59.44424H198.1428v1.61535H187.42048v7.18527h9.52446V69.8602h-9.52446v9.46869h-1.89326Z"/><path class="cls-2" d="M208.811,59.02681c6.23831,0,9.35745,4.9015,9.35745,10.35985,0,5.45867-3.11914,10.36019-9.35745,10.36019-6.26637,0-9.38551-4.90152-9.38551-10.36019C199.42546,63.92821,202.5446,59.02681,208.811,59.02681Zm0,19.1047c5.23555,0,7.46352-4.40015,7.46352-8.74485,0-4.34435-2.228-8.74483-7.46352-8.74483-5.26361,0-7.49157,4.40056-7.49157,8.74483,0,4.34459,2.228,8.74475,7.49157,8.74475Z"/><path class="cls-2" d="M220.92948,59.44424h1.89328V71.75382c0,4.59521,2.14445,6.37766,5.82078,6.37766,3.70435,0,5.84814-1.78238,5.84814-6.37766V59.44424h1.89393V72.1717a7.7296,7.7296,0,0,1-15.45613,0Z"/><path class="cls-2" d="M240.17616,59.44424h2.11639l11.58537,16.82129h.05545V59.44424h1.89394V79.3289h-2.1164L242.12555,62.5076h-.05544V79.3289h-1.89393Z"/><path class="cls-2" d="M259.81363,59.44424h6.87828c6.01586.13927,9.135,3.37,9.135,9.94232,0,6.57266-3.11913,9.803-9.135,9.94234h-6.87828Zm1.89324,18.26929h4.03839c5.7091,0,8.18761-2.36725,8.18761-8.327s-2.47851-8.327-8.18761-8.327h-4.03839Z"/><path class="cls-2" d="M284.71406,59.44424h2.1164l7.79832,19.88466h-2.033l-2.42306-6.18252h-9.05082l-2.39566,6.18252H276.6934ZM281.70646,71.531h7.8256l-3.84332-10.19284Z"/><path class="cls-2" d="M292.40337,59.44424h15.76275v1.61535h-6.93433v18.2693h-1.89393V61.05959h-6.93449Z"/><path class="cls-2" d="M310.17358,59.44424h1.89393V79.3289h-1.89393Z"/><path class="cls-2" d="M324.54418,59.02681c6.23829,0,9.35745,4.9015,9.35745,10.35985,0,5.45867-3.11913,10.36019-9.35745,10.36019-6.26634,0-9.3855-4.90152-9.3855-10.36019C315.15865,63.92821,318.27781,59.02681,324.54418,59.02681Zm0,19.1047c5.23556,0,7.46351-4.40015,7.46351-8.74485,0-4.34435-2.228-8.74483-7.46351-8.74483-5.26358,0-7.49157,4.40056-7.49157,8.74483,0,4.34459,2.228,8.74475,7.49157,8.74475Z"/><path class="cls-2" d="M336.8297,59.44424h2.1164l11.58538,16.82129h.05545V59.44424h1.89393V79.3289h-2.1164L338.77909,62.5076h-.05546V79.3289H336.8297Z"/><path class="cls-2" d="M185.52725,12.57087h10.91591V38.91356h15.67877v9.07862H185.52725Z"/><path class="cls-2" d="M219.26345,12.57087h10.9159V47.99218h-10.9159Z"/><path class="cls-2" d="M238.31537,12.57087h11.16321L259.799,31.52168h.09961V12.57087h10.31963V47.99218H259.60037L248.73452,28.6444h-.09959V47.99218H238.31537Z"/><path class="cls-2" d="M310.55267,34.30007c0,9.8722-5.20931,14.53549-16.1252,14.53549-10.91524,0-16.17469-4.66329-16.17469-14.53549V12.57087H289.168V31.86928c0,3.57163-.04945,8.136,5.3089,8.136,5.16051,0,5.16051-4.56438,5.16051-8.136V12.57087h10.91524Z"/><path class="cls-2" d="M327.91572,29.14061l-11.6598-16.56974h12.80072l5.35834,9.62427,5.25945-9.62427h12.10628L340.419,29.24l12.65167,18.75233H339.92243L333.86962,37.4254l-6.252,10.56688H315.11426Z"/><polygon class="cls-1" points="203.233 145.032 193.802 145.032 193.802 134.156 185.527 134.156 185.527 164.542 193.802 164.542 193.802 152.315 203.233 152.315 203.233 164.542 211.508 164.542 211.508 134.156 203.233 134.156 203.233 145.032"/><polygon class="cls-1" points="226.284 152.356 240.017 152.356 240.017 145.471 226.284 145.471 226.284 141.439 241.248 141.439 241.248 134.156 218.008 134.156 218.008 164.542 241.564 164.542 241.564 157.262 226.284 157.262 226.284 152.356"/><path class="cls-1" d="M254.76841,134.156l-11.534,30.38715h8.51578l2.22373-6.312h9.14487l2.14486,6.312h8.67412L262.5731,134.156Zm6.02378,17.3873H256.324l2.27051-6.39771Z"/><polygon class="cls-1" points="285.162 134.156 276.887 134.156 276.887 164.542 298.975 164.542 298.975 157.262 285.162 157.262 285.162 134.156"/><polygon class="cls-1" points="296.78 141.439 305.274 141.439 305.274 164.542 313.549 164.542 313.549 141.439 322.044 141.439 322.044 134.156 296.78 134.156 296.78 141.439"/><polygon class="cls-1" points="343.945 145.032 334.514 145.032 334.514 134.156 326.239 134.156 326.239 164.542 334.514 164.542 334.514 152.315 343.945 152.315 343.945 164.542 352.22 164.542 352.22 134.156 343.945 134.156 343.945 145.032"/></svg>