<svg id="Layer_1" data-name="Layer 1" xmlns="http://www.w3.org/2000/svg" viewBox="0 0 750.70001 59.2"><defs><style>.cls-1{fill:#2298d5;}.cls-2{fill:#193b65;}</style></defs><polygon class="cls-1" points="11.8 47.5 11.8 23.5 0 23.5 0 59.5 35.2 59.5 35.2 47.5 11.8 47.5"/><polygon class="cls-2" points="59.3 0 0 0 0 17.8 11.8 17.8 11.8 12 47.5 12 47.5 47.6 41.5 47.6 41.5 59.5 59.3 59.5 59.3 0"/><polygon class="cls-2" points="74.3 0 92.6 0 92.6 44.2 118.9 44.2 118.9 59.5 74.3 59.5 74.3 0"/><polygon class="cls-2" points="126.6 0 172.5 0 172.5 15.2 144.9 15.2 144.9 22.7 168.5 22.7 168.5 36.9 144.9 36.9 144.9 59.6 126.5 59.6 126.5 0 126.6 0"/><path class="cls-1" d="M223.5,17c0,5.7-1.9,10.1-5.8,13.2s-9.4,4.6-16.5,4.6H192V59.3h-4.2V0h14.5C216.4,0,223.5,5.7,223.5,17ZM191.9,31.2h8.2c6.7,0,11.5-1.1,14.5-3.3s4.5-5.8,4.5-10.7q0-6.75-4.2-10.2c-2.8-2.3-7.2-3.3-13.1-3.3H192l-.1,27.5Z"/><path class="cls-1" d="M278.4,0V37.7c0,6.7-2,12-5.8,15.7-3.8,3.8-9.3,5.7-16.2,5.7-6.8,0-12.1-1.9-15.8-5.7s-5.7-9.1-5.7-15.8V0H239V37.7c0,5.6,1.6,10,4.7,13.1s7.5,4.7,13.2,4.7c5.5,0,9.8-1.5,12.9-4.6,3-3.1,4.6-7.3,4.6-12.8V0Z"/><path class="cls-1" d="M289.9,0h16.2c7.3,0,12.7,1.2,16.2,3.7s5.2,6.2,5.2,11.2a11.78463,11.78463,0,0,1-3.2,8.5c-2.1,2.3-5.2,3.8-9.2,4.4V28q7.05,1.05,10.5,4.5c2.2,2.3,3.3,5.5,3.3,9.5,0,5.5-1.8,9.7-5.5,12.6-3.6,2.9-8.8,4.4-15.4,4.4H289.8V0ZM294,26.4h13.1c5.5,0,9.6-.9,12.2-2.8,2.5-1.8,3.8-4.8,3.8-8.7s-1.5-6.8-4.3-8.6S311.7,3.6,306,3.6H294V26.4Zm0,3.6V55.5h13.9c11,0,16.5-4.5,16.5-13.4,0-8.1-5.8-12.2-17.4-12.2C307,30,294,30,294,30Z"/><path class="cls-1" d="M340.3,59.1V0h4.2V55.2h28.2v3.9Z"/><path class="cls-1" d="M384,59.2V0h4.2V59.2Z"/><path class="cls-1" d="M427.1,3.5q-10.8,0-17.1,6.9c-4.2,4.6-6.2,10.9-6.2,19,0,8.2,1.9,14.6,5.8,19.2,3.9,4.5,9.5,6.8,16.8,6.8a46.99707,46.99707,0,0,0,13.3-1.8v3.5a44.10508,44.10508,0,0,1-14.2,2c-8.1,0-14.5-2.6-19.1-7.8s-7-12.5-7-21.9a34.96149,34.96149,0,0,1,3.3-15.5,23.72933,23.72933,0,0,1,9.5-10.3,27.64366,27.64366,0,0,1,14.5-3.6,35.19,35.19,0,0,1,15.1,3.2l-1.6,3.6A27.3933,27.3933,0,0,0,427.1,3.5Z"/><path class="cls-1" d="M506.6,59.1h-4.2V30H467.9V59.1h-4.2V0h4.2V26.2h34.5V0h4.2Z"/><path class="cls-1" d="M552.2,59H520V0h32.2V3.8H524V26.1h26.6V30H524V55.3h28.2Z"/><path class="cls-1" d="M598.5,38.3H574.7l-8.2,20.8h-4.6L585.6,0h2.6l23.2,59.1h-4.7Zm-22.4-3.7h21l-8-21.2c-.7-1.7-1.5-4-2.5-6.9a51.92753,51.92753,0,0,1-2.4,7Z"/><path class="cls-1" d="M622.9,59.2V0h4.2V55.2h28.2v3.9H622.9Z"/><path class="cls-1" d="M677.1,59.1H673V3.9H653.8V0h42.5V3.9H677.1V59.1Z"/><path class="cls-1" d="M750.7,59.1h-4.2V30H712V59.1h-4.2V0H712V26.2h34.5V0h4.2V59.1Z"/></svg>