<?xml version="1.0" encoding="utf-8"?>
<!-- Generator: Adobe Illustrator 24.1.3, SVG Export Plug-In . SVG Version: 6.00 Build 0)  -->
<svg version="1.1" id="Layer_1" xmlns="http://www.w3.org/2000/svg" xmlns:xlink="http://www.w3.org/1999/xlink" x="0px" y="0px"
	 viewBox="0 0 992.7 77.5" style="enable-background:new 0 0 992.7 77.5;" xml:space="preserve">
<style type="text/css">
	.st0{fill:#1D98D5;}
	.st1{fill:#183A64;}
</style>
<polygon class="st0" points="15.3,61.8 15.3,30.6 0,30.6 0,77.4 45.8,77.4 45.8,61.8 "/>
<polygon class="st1" points="77.1,0 0,0 0,23.2 15.3,23.2 15.3,15.6 61.8,15.6 61.8,61.9 54,61.9 54,77.4 77.1,77.4 "/>
<polygon class="st1" points="96.6,0 120.4,0 120.4,57.5 154.5,57.5 154.5,77.3 96.6,77.3 "/>
<polygon class="st1" points="164.6,0 224.2,0 224.2,19.8 188.3,19.8 188.3,29.5 219,29.5 219,48 188.3,48 188.3,77.5 164.5,77.5 
	164.5,0 "/>
<path class="st0" d="M290.5,22.1c0,7.4-2.5,13.1-7.6,17.1s-12.2,6-21.5,6h-11.9V77h-5.4V0H263C281.3,0,290.5,7.4,290.5,22.1z
	 M249.5,40.6h10.6c8.7,0,14.9-1.4,18.8-4.3c3.9-2.9,5.8-7.5,5.8-13.9c0-5.9-1.8-10.3-5.5-13.2s-9.3-4.3-17-4.3h-12.7L249.5,40.6
	L249.5,40.6z"/>
<path class="st0" d="M361.9,0v49c0,8.7-2.6,15.6-7.6,20.4c-5,4.9-12.1,7.4-21.1,7.4c-8.8,0-15.7-2.5-20.6-7.4s-7.4-11.8-7.4-20.6V0
	h5.3v49c0,7.3,2.1,13,6.1,17s9.7,6.1,17.1,6.1c7.2,0,12.8-2,16.8-6c3.9-4,6-9.5,6-16.6V0H361.9z"/>
<path class="st0" d="M376.8,0h21.1c9.5,0,16.5,1.6,21,4.8s6.7,8.1,6.7,14.6c0,4.5-1.4,8.2-4.1,11.1c-2.7,3-6.7,4.9-11.9,5.7v0.3
	c6.1,0.9,10.7,2.9,13.6,5.8c2.9,3,4.3,7.1,4.3,12.4c0,7.1-2.4,12.6-7.1,16.4s-11.4,5.7-20,5.7h-23.6V0z M382.2,34.3h17
	c7.2,0,12.5-1.2,15.8-3.6s4.9-6.2,4.9-11.3s-1.9-8.8-5.6-11.2s-9.2-3.5-16.6-3.5h-15.5V34.3L382.2,34.3z M382.2,39v33.2h18.1
	c14.3,0,21.4-5.8,21.4-17.4c0-10.5-7.6-15.8-22.6-15.8H382.2z"/>
<path class="st0" d="M442.4,76.8V0h5.4v71.7h36.6v5.1H442.4z"/>
<path class="st0" d="M499.2,77V0h5.4v77H499.2z"/>
<path class="st0" d="M555.2,4.6c-9.4,0-16.8,3-22.2,9s-8.1,14.2-8.1,24.7c0,10.7,2.5,19,7.6,24.9s12.4,8.9,21.8,8.9
	c6.3,0,12-0.8,17.3-2.4v4.6c-5,1.7-11.1,2.6-18.5,2.6c-10.5,0-18.8-3.4-24.8-10.2s-9.1-16.3-9.1-28.5c0-7.6,1.4-14.3,4.3-20.1
	c2.9-5.8,7-10.3,12.4-13.4c5.4-3.2,11.7-4.7,18.9-4.7c7.3,0,13.8,1.4,19.6,4.1l-2.1,4.7C566.9,6,561.2,4.6,555.2,4.6z"/>
<path class="st0" d="M658.5,76.8h-5.4V39h-44.9v37.8h-5.4V0h5.4v34.1h44.9V0h5.4V76.8z"/>
<path class="st0" d="M715.2,76.7h-41.9V0h41.9v5h-36.6v29h34.6v5h-34.6v32.9h36.6V76.7z"/>
<path class="st0" d="M778,49.8h-31l-10.6,27h-6L761.2,0h3.4l30.1,76.8h-6.1L778,49.8z M748.9,45h27.3l-10.4-27.6
	c-0.9-2.2-1.9-5.2-3.2-9c-0.9,3.4-2,6.4-3.1,9.1L748.9,45z"/>
<path class="st0" d="M809.7,76.9V0h5.4v71.8h36.7v5.1H809.7z"/>
<path class="st0" d="M897.1,76.8h-5.4V5.1h-24.9V0h55.3v5.1h-24.9L897.1,76.8L897.1,76.8z"/>
<path class="st0" d="M992.7,76.8h-5.4V39h-44.9v37.8H937V0h5.4v34.1h44.9V0h5.4V76.8z"/>
</svg>
