<svg xmlns="http://www.w3.org/2000/svg" role="img" viewBox="1.65 1.40 355.95 356.20"><defs><clipPath id="a"><path fill="none" d="M24.627 159.559h295.705v233.152H24.627z"/></clipPath></defs><path fill="#d2e4f4" d="M8.74823 16.80294h313.32648v311.58524H8.74823z"/><path fill="#fed147" d="M238.08255 85.17047a35.84922 35.84922 0 0 1 36.247 35.447q.00544.48847-.00241.977a36.33482 36.33482 0 0 1-72.66854-.17942 35.9585 35.9585 0 0 1 35.66823-36.24643q.37786-.003.75574.00186z"/><g clip-path="url(#a)"><path fill="#43af5a" d="M.7888 194.83842V62.10307c0-16.79076 7.3725-23.50707 25.80376-23.50707h291.99c17.46118 0 24.63965 6.36282 24.83368 22.26986q.29113 133.354 0 266.708c0 16.08383-7.95453 23.1536-25.80377 23.1536-97.39464.17679-194.59531 0-291.99 0-16.68513 0-24.8337-7.6-24.8337-22.62332zM172.29651 60.51235c-45.98116 0-91.96229.1768-137.74942-.1768-6.98447 0-10.08869 1.414-10.08869 8.48375.194 60.27.194 120.36326.194 180.63325 0 2.65118-1.35809 6.18608 2.32815 7.42327 3.10422 1.23722 5.04435-1.76745 7.17849-3.18139 28.52-21.03258 57.0399-41.88852 85.36583-63.09792 5.23836-3.88838 8.73059-3.88838 13.58093.707 19.20733 18.028 39.19068 35.5257 58.592 53.377 4.07426 3.88839 7.37251 3.88839 11.83482.707 10.67072-7.77677 21.72946-15.02335 32.20621-22.97684 5.62637-4.24188 9.89468-4.06514 15.521-.17679 19.4013 13.25585 38.99667 26.15823 58.786 39.06062 2.32815 1.5907 4.65628 4.7721 7.95456 3.35813s2.13415-4.94885 2.13415-7.77677q0-93.8515.194-187.52627c0-7.24655-2.32815-9.19074-10.08868-9.19074-45.98114.35348-91.96228.35348-137.94342.35348z"/></g><path fill="#009ade" d="M77.32005 282.295V145.4169H8.748V350.747h205.41445v-68.452z"/><path fill="#003764" d="M351 8.43338H8.79342v102.68613h68.42931V77.18385h205.35118V282.295h-34.17733v68.452H351z"/></svg>