<svg id="Layer_1" data-name="Layer 1" xmlns="http://www.w3.org/2000/svg" viewBox="0 0 360 360"><defs><style>.cls-1{fill-rule:evenodd;}</style></defs><g id="covid-green-logo-inverse"><g id="Group"><g id="knot"><g id="Combined-Shape"><path class="cls-1" d="M336.384,23.16816a54.71536,54.71536,0,0,1,0,77.37922L322.58841,114.343A155.30878,155.30878,0,0,0,310.81153,93.106l9.01923-9.02046a32.82926,32.82926,0,0,0-46.04053-46.8083l-.387.38077-72.50245,72.50189L186.45655,95.71563l72.54826-72.54747A54.71536,54.71536,0,0,1,336.384,23.16816Z"/><path class="cls-1" d="M283.09339,76.4588a145.87671,145.87671,0,0,1,34.728,150.61905l-17.627-17.62642a124.02415,124.02415,0,0,0-50.6874-132.42368l15.76066-15.75964A146.53989,146.53989,0,0,1,283.09339,76.4588Z"/><path class="cls-1" d="M279,124.497a122.8961,122.8961,0,0,1,10.12882,21.85465l-86.55269,86.55218-15.9917-15.9917Zm29.12265,2.86031-2.05637,2.05666q-1.68387-3.90213-3.6058-7.72194Z"/></g><g id="Group-2" data-name="Group"><g id="Combined-Shape-2" data-name="Combined-Shape"><path class="cls-1" d="M335.386,337.82348a54.71539,54.71539,0,0,1-77.37923,0l-13.79565-13.79563A155.30764,155.30764,0,0,0,265.44822,312.251l9.02046,9.01923A32.82927,32.82927,0,0,0,321.277,275.22967l-.38078-.387-72.50188-72.50245L262.83856,187.896,335.386,260.44426A54.71537,54.71537,0,0,1,335.386,337.82348Z"/><path class="cls-1" d="M282.09539,284.53284a145.87672,145.87672,0,0,1-150.619,34.728l17.62642-17.62695a124.02419,124.02419,0,0,0,132.42367-50.68739l15.75964,15.76065A146.54,146.54,0,0,1,282.09539,284.53284Z"/><path class="cls-1" d="M234.05717,280.43948a122.89567,122.89567,0,0,1-21.85465,10.12881l-86.55219-86.55268,15.9917-15.9917Zm-2.86032,29.12265-2.05665-2.05638q3.90212-1.68387,7.72194-3.6058Z"/></g></g><g id="Group-3" data-name="Group"><g id="Combined-Shape-3" data-name="Combined-Shape"><path class="cls-1" d="M21.91174,336.80114a54.71536,54.71536,0,0,1,0-77.37922l13.79562-13.79566a155.30948,155.30948,0,0,0,11.77688,21.23707L38.465,275.88378a32.82927,32.82927,0,0,0,46.04054,46.80831l.387-.38078L157.395,249.80943l14.44423,14.44423L99.291,336.80114A54.71537,54.71537,0,0,1,21.91174,336.80114Z"/><path class="cls-1" d="M75.20238,283.51049a145.8767,145.8767,0,0,1-34.72805-150.619l17.627,17.62642a124.02421,124.02421,0,0,0,50.6874,132.42368L93.028,298.70118A146.539,146.539,0,0,1,75.20238,283.51049Z"/><path class="cls-1" d="M79.29574,235.47227a122.89642,122.89642,0,0,1-10.12882-21.85465l86.55269-86.55219,15.9917,15.99171ZM50.17309,232.612l2.05638-2.05666q1.68387,3.90212,3.60579,7.72194Z"/></g></g><g id="Group-4" data-name="Group"><g id="Combined-Shape-4" data-name="Combined-Shape"><path class="cls-1" d="M22.39387,21.62993a54.71536,54.71536,0,0,1,77.37922,0l13.79565,13.79562A155.311,155.311,0,0,0,92.33168,47.20242L83.31123,38.1832A32.82927,32.82927,0,0,0,36.50292,84.22373l.38077.387,72.50189,72.50245L94.94135,171.55741,22.39387,99.00915A54.71537,54.71537,0,0,1,22.39387,21.62993Z"/><path class="cls-1" d="M75.68451,74.92057a145.87672,145.87672,0,0,1,150.61905-34.728l-17.62642,17.627a124.02415,124.02415,0,0,0-132.42368,50.6874L60.49383,92.74621A146.5398,146.5398,0,0,1,75.68451,74.92057Z"/><path class="cls-1" d="M123.72274,79.01393a122.89642,122.89642,0,0,1,21.85465-10.12882l86.55218,86.55269-15.9917,15.9917Zm2.86031-29.12265,2.05666,2.05637q-3.90212,1.68387-7.72194,3.6058Z"/></g></g></g></g></g></svg>