<svg id="Layer_1" data-name="Layer 1" xmlns="http://www.w3.org/2000/svg" viewBox="0 0 360 281.7747"><defs><style>.cls-1{fill:#009ade;}.cls-2{fill:#003764;}.cls-3{fill:#fff;}</style></defs><polygon class="cls-1" points="129.741 145.746 129.741 77.501 95.551 77.501 95.551 179.875 197.968 179.875 197.968 145.746 129.741 145.746"/><polygon class="cls-2" points="266.193 9.203 95.574 9.203 95.574 60.401 129.692 60.401 129.692 43.48 232.077 43.48 232.077 145.746 215.037 145.746 215.037 179.875 266.193 179.875 266.193 9.203"/><path class="cls-2" d="M184.51459,62.90511c0-.87683.00444-1.60292-.00308-2.3289-.00188-.183.04076-.25583.27477-.30154.41061-.0802.82836-.12141,1.23948-.198a2.59387,2.59387,0,0,0,2.129-1.745,5.367,5.367,0,0,1,.92216-1.58144,3.35061,3.35061,0,0,1,2.39472-.97062,12.15722,12.15722,0,0,1,5.71761.95377,28.856,28.856,0,0,0,5.63672,1.43334c1.45339.24612,2.91826.35381,4.38612.47407,1.18048.09673,2.36238.16111,3.544.23714,1.246.08018,2.49473.09983,3.73865.17132.95933.05519,1.916.00711,2.87071.062,2.83367.1629,5.67068.00843,8.50374.0916.73395.02153,1.46917.05788,2.20442.05973.25583.00064.29615.086.24337.28758a5.36734,5.36734,0,0,1-1.62352,2.78513,6.265,6.265,0,0,1-3.35762,1.53355,14.20539,14.20539,0,0,1-2.92381-.09175c-.47937-.03459-.54471-.00938-.59012.44086a3.24783,3.24783,0,0,1-2.43039,2.90978,9.24744,9.24744,0,0,1-3.93624.30394c-.3802-.0349-.58211.01671-.74285.39169a5.71894,5.71894,0,0,1-3.436,3.38,6.73645,6.73645,0,0,1-2.33227.55241,7.88312,7.88312,0,0,1-2.4211-.42016,9.88906,9.88906,0,0,1-2.65615-1.30026c-.17461-.1253-.30136-.17827-.40643.05769a5.92036,5.92036,0,0,1-2.04165,2.13862,9.0241,9.0241,0,0,1-3.86682,1.69852,12.90592,12.90592,0,0,1-3.426.24935c-1.14954-.09-2.30388-.15447-3.4525-.26568-1.28956-.12485-2.55791-.36988-3.834-.57-.20463-.03209-.326-.11155-.33654-.36035-.1047-2.46405-.11789-4.92963-.05547-7.39288C184.47156,64.64589,184.48453,63.69966,184.51459,62.90511Z"/><path class="cls-2" d="M160.07766,69.88459A10.84871,10.84871,0,0,1,157.13,71.34278a6.52275,6.52275,0,0,1-4.68529-.11744,5.68543,5.68543,0,0,1-3.42261-3.44225c-.127-.34925-.351-.4054-.68943-.35578a10.65667,10.65667,0,0,1-3.45862-.09983,3.37089,3.37089,0,0,1-2.94519-3.046c-.05706-.50554-.19015-.55584-.76028-.48995a7.81208,7.81208,0,0,1-4.72424-.49054,5.54872,5.54872,0,0,1-3.02894-3.80649c-.05613-.261.15134-.221.32667-.22908,2.18241-.09983,4.36662-.07628,6.55045-.07833.84261-.0008,1.68743.03434,2.52735-.00812,1.29644-.06554,2.59461-.02977,3.88876-.08322,1.24679-.05148,2.49477-.0904,3.74077-.1534,1.533-.07751,3.06408-.19323,4.59386-.31394a51.7515,51.7515,0,0,0,6.11492-.86871,24.3205,24.3205,0,0,0,3.64344-1.13646,14.84442,14.84442,0,0,1,3.17244-.814,8.17493,8.17493,0,0,1,3.378.16745,2.96886,2.96886,0,0,1,1.98861,1.93186,2.98912,2.98912,0,0,0,1.74008,1.98436,6.46341,6.46341,0,0,0,1.558.32821c.2949.02935.61292-.01193.6105.4472q-.03255,6.13632-.005,12.27306a.36123.36123,0,0,1-.37013.41339c-1.59509.21491-3.17265.52075-4.78456.65334-1.1807.09715-2.36268.22445-3.54427.21189a10.903,10.903,0,0,1-5.8911-1.67562A7.52511,7.52511,0,0,1,160.07766,69.88459Z"/><path class="cls-2" d="M204.13141,81.81622a5.61068,5.61068,0,0,0-3.46909-4.41422,14.23631,14.23631,0,0,0-3.95884-1.13267c-1.287-.19254-2.58009-.25171-3.87031-.36017a10.95871,10.95871,0,0,0-3.0974.22761,6.02538,6.02538,0,0,0-3.58187,2.113,5.04707,5.04707,0,0,0-1.20309,3.51933,1.43359,1.43359,0,0,0,.72145,1.18181,7.01252,7.01252,0,0,0,3.66163.834,6.56573,6.56573,0,0,0,4.04225-1.3328,4.82486,4.82486,0,0,1,1.44763-.922,7.276,7.276,0,0,1,2.27237-.16165c.63979.02977.63844.05226.63844.61309a8.95114,8.95114,0,0,0,.00474.91047,1.71437,1.71437,0,0,1-1.14593,1.78493,24.76329,24.76329,0,0,1-4.5579,1.73793,58.75074,58.75074,0,0,1-8.35574,1.375c-1.21755.11758-2.43661.03831-3.6554.12714-.88826.06486-1.77354.11758-2.65177.25632a19.699,19.699,0,0,0-6.53907,2.26789,14.00442,14.00442,0,0,0-3.89738,3.1693,7.41823,7.41823,0,0,0-1.488,2.531,10.04667,10.04667,0,0,0-.38943,4.02928,5.73393,5.73393,0,0,0,2.21726,3.77049c.50519.44813,1.09829.81609,1.63421,1.23791a2.4288,2.4288,0,0,0,2.79287.21135,10.52657,10.52657,0,0,1,1.51236-.76353c1.47-.71034,3.06-1.1947,4.54692-1.92655-.83506-.52714-1.7057-.99307-2.51328-1.54148a3.01118,3.01118,0,0,1-1.184-1.61077,6.03524,6.03524,0,0,1-.099-2.19561,1.612,1.612,0,0,1,.79387-1.29258,5.60385,5.60385,0,0,1,1.51032-.68285,32.33515,32.33515,0,0,1,6.485-1.01527c.949-.0562,1.8992-.11454,2.8488-.15625a33.853,33.853,0,0,0,4.13095-.60989,28.742,28.742,0,0,0,6.08606-1.95117,21.18046,21.18046,0,0,0,5.09127-3.04243,11.432,11.432,0,0,0,2.57668-3.03716,3.2955,3.2955,0,0,0,.53687-1.10139A7.89351,7.89351,0,0,0,204.13141,81.81622Z"/><path class="cls-2" d="M186.01429,95.3011a19.88583,19.88583,0,0,0,3.31516-.22227,23.5523,23.5523,0,0,0,4.22384-1.03858c.39189-.13031.82567-.41763,1.16524-.34668.37135.07764.4368.59814.61962.93118a8.17338,8.17338,0,0,1,1.14077,4.63613,6.241,6.241,0,0,1-1.48638,3.4331,11.10792,11.10792,0,0,1-2.87653,2.43224,27.54887,27.54887,0,0,1-6.2212,2.76361c-2.00818.62963-4.04088,1.197-6.04859,1.82763a15.44485,15.44485,0,0,0-3.30707,1.5493,2.07717,2.07717,0,0,0-.88866,1.677,2.70158,2.70158,0,0,0,1.36907,2.67614c.49275.34057.98758.67843,1.52834,1.00718a1.82521,1.82521,0,0,1-.76458.24564,16.63282,16.63282,0,0,0-5.553,2.58646.33251.33251,0,0,1-.4437.026,10.76863,10.76863,0,0,1-4.03575-3.93337,4.78772,4.78772,0,0,1-.38684-2.86471,6.6417,6.6417,0,0,1,2.01751-3.5555,12.2198,12.2198,0,0,1,2.26968-1.77478,31.24634,31.24634,0,0,1,9.22668-3.82512,13.738,13.738,0,0,0,5.06072-2.34824,3.35282,3.35282,0,0,0,1.36157-3.39827A5.08026,5.08026,0,0,0,186.01429,95.3011Z"/><path class="cls-2" d="M180.65741,86.74791c-.50265-.00011-1.00582-.01216-1.50775.00484-.26041.00887-.34908-.07669-.314-.29448a.41745.41745,0,0,0,.00038-.07912c-.15166-4.64106.09746-9.28992-.13312-13.92321-.25634-5.151-.162-10.29791-.21363-15.44664-.00278-.27646-.20153-.34045-.39094-.44556a6.8082,6.8082,0,0,1-2.9897-2.82746,2.14691,2.14691,0,0,1-.26814-1.01493,6.11208,6.11208,0,0,1,.09071-2.09165,5.54631,5.54631,0,0,1,1.80363-2.58747,5.64989,5.64989,0,0,1,2.5178-1.16045,6.01949,6.01949,0,0,1,5.25492,1.09463,5.22956,5.22956,0,0,1,2.02811,4.25379,4.69119,4.69119,0,0,1-1.23767,2.81071,5.23244,5.23244,0,0,1-1.71841,1.36625,1.2002,1.2002,0,0,0-.65911,1.26818c-.02263,1.01584-.00679,2.03237-.00666,3.04862.00039,4.24977.07976,8.50106-.02187,12.7489-.09435,3.94331-.0101,7.88518-.069,11.82727A4.68932,4.68932,0,0,1,182.535,86.557c-.051.17038-.18857.19788-.36964.19434C181.66289,86.74158,181.16007,86.748,180.65741,86.74791Z"/><path class="cls-2" d="M178.83558,113.65c.00062-.56751.00957-1.13516-.00388-1.7024a.46164.46164,0,0,1,.28862-.4679,20.71322,20.71322,0,0,1,5.15132-1.74548,41.3734,41.3734,0,0,0,4.92726-1.62932,1.55819,1.55819,0,0,1,1.6734.26861,8.28593,8.28593,0,0,1,2.33241,3.1723,4.8759,4.8759,0,0,1,.34784,2.50549,6.567,6.567,0,0,1-.88487,2.82681,7.81548,7.81548,0,0,1-3.44427,3.05388,45.71483,45.71483,0,0,1-7.23552,2.44772,18.53768,18.53768,0,0,0-4.20181,1.751,1.36452,1.36452,0,0,0-.69088,1.58064c.12838.45166.262.90263.4155,1.34785.05369.15585.08343.23423-.1206.33306a41.39138,41.39138,0,0,0-3.87163,2.155,1.03334,1.03334,0,0,1-1.33331-.24626,4.86264,4.86264,0,0,1-1.6183-2.78124,6.2527,6.2527,0,0,1,1.36538-4.68509,8.34856,8.34856,0,0,1,2.59791-2.12493,22.28755,22.28755,0,0,1,4.35864-1.83116c1.32665-.49293,2.74855-.74018,4.06477-1.26278a9.6508,9.6508,0,0,0,2.28675-1.18689,2.81971,2.81971,0,0,0,1.00535-1.56437c.10649-.41585-.245-.80409-.48461-1.17264a5.88783,5.88783,0,0,0-2.71642-1.88039c-.31016-.1424-.28.12342-.29581.22729a12.40911,12.40911,0,0,0-.18018,1.59287,22.18595,22.18595,0,0,0-.09462,2.479c.01972.21894-.07336.32012-.29608.40254a21.87892,21.87892,0,0,1-3.02774.84081c-.25153.05384-.20632-.09318-.22766-.2228A17.01468,17.01468,0,0,1,178.83558,113.65Z"/><path class="cls-2" d="M174.8004,87.33779c-.65176.19612-1.20752.338-1.74151.5286a19.79973,19.79973,0,0,0-5.15495,2.64563,9.22844,9.22844,0,0,0-1.28978,1.16736.36543.36543,0,0,1-.50582.085,31.93672,31.93672,0,0,1-5.35232-2.90267,12.02194,12.02194,0,0,1-2.31913-2.328,5.17787,5.17787,0,0,1-1.19374-2.22274,6.34963,6.34963,0,0,1,.64917-4.72292,6.59,6.59,0,0,1,2.47073-2.1726,12.51283,12.51283,0,0,1,5.11093-1.44184c1.52556-.13644,3.0529-.15751,4.58316-.1547a6.79775,6.79775,0,0,1,3.61872.97263,5.17252,5.17252,0,0,1,2.65369,4.38073c.05511,1.18689-.6494,1.75693-1.86575,2.08759a12.20273,12.20273,0,0,1-3.852.21588,3.94845,3.94845,0,0,1-1.80693-.71774,9.04939,9.04939,0,0,0-2.33684-1.33182,7.52318,7.52318,0,0,0-2.7434-.06369c-.1127.01035-.139.06237-.15408.15207a3.15583,3.15583,0,0,0,.16319,2.10832c.329.62009,1.01913.82678,1.60117,1.13586a23.6259,23.6259,0,0,0,6.38655,1.98926C172.70709,86.95144,173.69979,87.12783,174.8004,87.33779Z"/><path class="cls-2" d="M182.892,124.97048c-1.27186.97924-2.68646,1.655-4.07456,2.55634a21.719,21.719,0,0,1,.09118-2.43827c.04286-.1994.14953-.25337.31986-.30356,1.48505-.43741,2.99223-.80752,4.49274-1.199a20.10749,20.10749,0,0,0,3.99208-1.4226,5.98341,5.98341,0,0,0,.84121-.55451c.19369-.14281.28412-.11071.39759.08208a4.63322,4.63322,0,0,1,.4366,1.38019,3.37421,3.37421,0,0,1-.74914,2.9202,8.1287,8.1287,0,0,1-2.49855,2.119,47.0488,47.0488,0,0,1-6.17881,2.69048c-1.5416.56724-3.0976,1.10458-4.60418,1.74608-1.23019.5238-2.49768.97076-3.75028,1.44851-.33213.12665-.33131-.14865-.46145-.22683-.42885-.25718-.42009-.34542-.00863-.64238q.91558-.66078,1.85541-1.29473c2.0852-1.41317,4.41956-2.4733,6.63-3.709a19.77874,19.77874,0,0,0,2.32988-1.4278A2,2,0,0,0,182.892,124.97048Z"/><path class="cls-2" d="M182.92716,131.38862c-.12257.97922-.20578,1.95294-.29173,2.92762-.13072,1.48213-.212,2.96809-.42151,4.44553-.12262.86472-.21852,1.73263-.36232,2.59539-.01735.10416-.00043.18391-.16929.22225a6.17346,6.17346,0,0,1-1.71095.055c-.27462-.01459-.22348-.32463-.24112-.509-.11448-1.19529-.38347-2.37327-.46541-3.57311-.10221-1.49652-.47016-2.97153-.44166-4.48215a1.03157,1.03157,0,0,1,.69188-.993c1.36452-.63764,2.82229-1.09208,4.19943-1.70537.50582-.22524,1.01361-.44323,1.54353-.62892a1.40429,1.40429,0,0,1,1.18611.107,16.55034,16.55034,0,0,1,2.24733,1.40874c.72624.51787,1.35423,1.13082,2.02031,1.70694.15119.13075.12444.16479-.02021.3a1.02645,1.02645,0,0,1-1.05449.27952,35.30811,35.30811,0,0,1-6.56893-2.11422C183.02881,131.41485,182.9857,131.406,182.92716,131.38862Z"/><path class="cls-2" d="M178.836,102.50484c0-1.66422.01209-3.30009-.00808-4.93562a11.8049,11.8049,0,0,0,.09624-1.29129c-.02846-.23316.20927-.21717.325-.234a13.251,13.251,0,0,1,1.649-.18695,7.19294,7.19294,0,0,0,1.585-.06984c.21173-.05147.35177.00175.34784.25647-.01521.98983.05313,1.9838-.02673,2.96867-.05447.67156-.05471,1.33974-.05966,2.00919-.00166.22407-.10533.30641-.30705.40088A16.59692,16.59692,0,0,1,178.836,102.50484Z"/><path class="cls-3" d="M187.94744,79.71137c.06542-.09524.11272-.24969.20359-.27394a2.71275,2.71275,0,0,1,2.43589.16124c.25843.1895.01034.40084-.21151.55165C189.80515,80.538,189.15311,80.42466,187.94744,79.71137Z"/><path class="cls-3" d="M173.41738,79.71137c-.06543-.09524-.1127-.24969-.20356-.27394a2.71276,2.71276,0,0,0-2.43579.16124c-.25845.1895-.01034.40084.21151.55165C171.55969,80.538,172.21172,80.42466,173.41738,79.71137Z"/><path class="cls-1" d="M16.97467,258.11014h5.45327c7.88292,0,10.6804-5.37365,10.6804-9.97514s-2.79748-9.97515-10.6804-9.97515H8.81141v29.97561h8.16326Zm0-13.15921h3.77039c3.246,0,4.39688.83314,4.39688,3.18407,0,2.34891-1.15087,3.18209-4.39688,3.18209H16.97473Z"/><path class="cls-1" d="M57.18217,256.555c0,3.8323-1.16365,5.06185-4.78838,5.06185-3.95524,0-4.75-1.93681-4.75-5.06185V238.15986H39.48048V256.555c0,7.89769,4.58575,12.2464,12.91329,12.2464,8.35113,0,12.95068-4.34871,12.95068-12.2464V238.15986H57.18216Z"/><path class="cls-1" d="M93.1944,251.74891a6.96384,6.96384,0,0,0,2.62338-5.651c0-5.26743-3.34243-7.938-9.93482-7.938H71.71748v29.9756h14.556c6.60714,0,10.87616-3.57752,10.87616-9.11349A7.87557,7.87557,0,0,0,93.1944,251.74891Zm-4.20706,6.91994c0,1.323-.42,2.67453-3.5362,2.67453H79.88088v-5.66087H85.5693C88.5988,255.68251,88.98734,257.278,88.98734,258.66885Zm-9.10646-9.19118v-4.52673H84.628c2.67552,0,3.22341.88134,3.22341,2.20434,0,.57444,0,2.32238-2.75126,2.32238Z"/><polygon class="cls-1" points="125.314 260.952 111.686 260.952 111.686 238.16 103.523 238.16 103.523 268.136 125.314 268.136 125.314 260.952"/><rect class="cls-1" x="131.68542" y="238.15986" width="8.16327" height="29.9756"/><path class="cls-1" d="M166.43075,255.351l-.11213.87938a5.3888,5.3888,0,0,1-5.34415,5.38644c-6.11532,0-6.59042-6.39271-6.59042-8.35214,0-2.01451.4751-8.58722,6.59042-8.58722a5.06115,5.06115,0,0,1,5.111,4.028l.122.8666h7.9567l-.12891-1.12234c-.75342-6.55305-6.00221-10.95585-13.06085-10.95585-8.82428,0-14.75271,6.33763-14.75271,15.77078,0,9.14786,6.06614,15.53668,14.75271,15.53668A12.78591,12.78591,0,0,0,174.2697,256.546l.0036-.09722.09836-1.09775Z"/><polygon class="cls-1" points="205.681 249.529 196.359 249.529 196.359 238.779 188.181 238.779 188.181 268.812 196.359 268.812 196.359 256.727 205.681 256.727 205.681 268.812 213.859 268.812 213.859 238.779 205.681 238.779 205.681 249.529"/><polygon class="cls-1" points="227.815 256.767 241.389 256.767 241.389 249.962 227.815 249.962 227.815 245.977 242.605 245.977 242.605 238.779 219.636 238.779 219.636 268.812 242.918 268.812 242.918 261.616 227.815 261.616 227.815 256.767"/><path class="cls-1" d="M256.61569,238.77887,245.216,268.81216h8.4166l2.19784-6.23846h9.03838l2.11987,6.23846h8.57312L264.3295,238.77887Zm5.95364,17.18482h-4.41617l2.24407-6.32321Z"/><polygon class="cls-1" points="286.656 238.779 278.477 238.779 278.477 268.812 300.308 268.812 300.308 261.616 286.656 261.616 286.656 238.779"/><polygon class="cls-1" points="298.138 245.977 306.533 245.977 306.533 268.812 314.712 268.812 314.712 245.977 323.108 245.977 323.108 238.779 298.138 238.779 298.138 245.977"/><polygon class="cls-1" points="344.754 249.529 335.433 249.529 335.433 238.779 327.254 238.779 327.254 268.812 335.433 268.812 335.433 256.727 344.754 256.727 344.754 268.812 352.933 268.812 352.933 238.779 344.754 238.779 344.754 249.529"/><path class="cls-2" d="M8.81141,199.07532h7.972v19.2411h11.4504v6.63115H8.81141Z"/><path class="cls-2" d="M33.44941,199.07532h7.972v25.87225h-7.972Z"/><path class="cls-2" d="M47.36337,199.07532H55.516l7.53711,13.842h.07274v-13.842h7.53662v25.87225H62.90814l-7.93542-14.1319H54.9v14.1319H47.36337Z"/><path class="cls-2" d="M100.11921,214.94666c0,7.2108-3.80443,10.61692-11.77646,10.61692-7.97154,0-11.81258-3.40612-11.81258-10.61692V199.07532h7.97154v14.09579c0,2.60877-.03612,5.94266,3.87716,5.94266,3.7688,0,3.7688-3.33389,3.7688-5.94266V199.07532h7.97154Z"/><path class="cls-2" d="M112.79966,211.1781l-8.51532-12.10278h9.34854l3.91328,7.02971,3.841-7.02971h8.84138L121.931,211.25059l9.23968,13.697H121.5683l-4.42044-7.71821-4.56591,7.71821h-9.13132Z"/><path class="cls-2" d="M141.16977,199.60492h16.0015v2.04891H143.57118v9.11376H155.652v2.04891H143.57118v12.01h-2.40141Z"/><path class="cls-2" d="M170.70272,199.07532c7.91262,0,11.86894,6.21706,11.86894,13.1404,0,6.92376-3.95632,13.14082-11.86894,13.14082-7.94821,0-11.90453-6.21706-11.90453-13.14082C158.79819,205.29238,162.75451,199.07532,170.70272,199.07532Zm0,24.23231c6.64074,0,9.46668-5.58112,9.46668-11.09191,0-5.51037-2.82594-11.09191-9.46668-11.09191-6.67633,0-9.50227,5.58154-9.50227,11.09191C161.20045,217.72651,164.02639,223.30763,170.70272,223.30763Z"/><path class="cls-2" d="M186.07379,199.60492h2.40141v15.61341c0,5.82855,2.72,8.0893,7.383,8.0893,4.6986,0,7.41777-2.26075,7.41777-8.0893V199.60492h2.40226v16.14343c0,5.19261-2.79035,9.60819-9.82,9.60819-6.9585,0-9.78443-4.41558-9.78443-9.60819Z"/><path class="cls-2" d="M210.48616,199.60492h2.68442l14.69488,21.336h.07033v-21.336h2.40226v25.2216h-2.68443l-14.69487-21.336h-.07034v21.336h-2.40225Z"/><path class="cls-2" d="M235.39423,199.60492h8.72439c7.63046.17667,11.58677,4.2745,11.58677,12.6108,0,8.33673-3.95631,12.43412-11.58677,12.6108h-8.72439Zm2.40141,23.17269h5.12228c7.24152,0,10.38521-3.00261,10.38521-10.56189s-3.14369-10.56189-10.38521-10.56189h-5.12228Z"/><path class="cls-2" d="M266.97779,199.60492h2.68443l9.8912,25.2216h-2.57851l-3.07336-7.84187h-11.48l-3.03863,7.84187h-2.57851Zm-3.8148,15.33082h9.92594l-4.87485-12.92856Z"/><path class="cls-2" d="M276.73087,199.60492h19.99341v2.04891H287.9287v23.17269h-2.40225V201.65383h-8.79558Z"/><path class="cls-2" d="M299.27059,199.60492h2.40225v25.2216h-2.40225Z"/><path class="cls-2" d="M317.49809,199.07532c7.91263,0,11.86894,6.21706,11.86894,13.1404,0,6.92376-3.95631,13.14082-11.86894,13.14082-7.94821,0-11.90452-6.21706-11.90452-13.14082C305.59357,205.29238,309.54988,199.07532,317.49809,199.07532Zm0,24.23231c6.64074,0,9.46668-5.58112,9.46668-11.09191,0-5.51037-2.82594-11.09191-9.46668-11.09191-6.67633,0-9.50226,5.58154-9.50226,11.09191C307.99583,217.72651,310.82176,223.30763,317.49809,223.30763Z"/><path class="cls-2" d="M333.081,199.60492h2.68443l14.69487,21.336h.07033v-21.336h2.40226v25.2216h-2.68443l-14.69487-21.336h-.07033v21.336H333.081Z"/></svg>