<svg xmlns="http://www.w3.org/2000/svg" role="img" viewBox="-12.62 12.88 968.24 257.74"><defs><clipPath id="clip-path"><path d="M15.124 116.319h165.108v130.182H15.124z" class="cls-1"/></clipPath><style>.cls-1{fill:none}</style></defs><path d="M742.36646 80.21082a8.48009 8.48009 0 0 0 2.715-6.656 9.03009 9.03009 0 0 0-2.507-6.826q-2.5079-2.412-7.486-2.489h-10.068v18.403h9.804q4.82603 0 7.542-2.432zm-12.083 128.324a11.505 11.505 0 0 0 3.962 9.293 15.22515 15.22515 0 0 0 10.182 3.349 22.21961 22.21961 0 0 0 11.275-3.076 18.612 18.612 0 0 0 7.721-7.994v-15.17h-9.908q-23.234 0-23.23193 13.598zm-205.609-42.297q-9.295 0-14.487 7.175-5.194 7.175-5.193 21.25 0 12.575 5.193 19.68a16.784 16.784 0 0 0 14.35 7.107q12.024 0 17.56-10.797v-33.96q-5.672-10.454-17.424-10.455zm14.134-85.235q2.678-2.395 2.678-6.92a9.49906 9.49906 0 0 0-2.715-7.109 10.472 10.472 0 0 0-7.467-2.734h-11.727v19.157h11.463q5.09 0 7.76795-2.394zm137.415 9.974h15.914l-7.957-22.777-7.957 22.777zm227.279 74.919a16.864 16.864 0 0 0-12.846 5.57q-5.193 5.569-6.423 15.613h37.035v-.956q-.54793-9.636-5.193-14.93-4.647-5.295-12.573-5.297zm-515.043-101.656h-6.675v39.52h6.222q7.504 0 11.52-4.686 4.017-4.686 4.092-13.455v-3.048q0-8.92-3.884-13.625-3.88494-4.706-11.2749-4.706zm-35.845 144.295a11.505 11.505 0 0 0 3.964 9.293 15.224 15.224 0 0 0 10.181 3.349 22.21978 22.21978 0 0 0 11.275-3.076 18.605 18.605 0 0 0 7.721-7.994v-15.17h-9.907q-23.234 0-23.233 13.598zm473.127-42.297q-11.47906 0-17.22 10.182v35.327q5.67105 10.113 17.356 10.113a17.087 17.087 0 0 0 14.452-7.209q5.365-7.208 5.365-21.422-.00009-12.505-5.33-19.748a17.17 17.17 0 0 0-14.623-7.243z" class="cls-1"/><path fill="#fc0" d="M153.90079 112.46294a25.27147 25.27147 0 1 0-.2499.00122q.12495.00001.2499-.00122z"/><path fill="#d2e4f4" d="M6.25739 36.61013h174.94718v173.975H6.25739z"/><g id="gPSyY2"><path fill="#fed147" d="M134.30721 74.78344a20.01655 20.01655 0 0 1 20.23863 19.792q.003.27275-.00135.5455a20.2877 20.2877 0 0 1-40.57479-.10018 20.0776 20.0776 0 0 1 19.91551-20.23836q.211-.00169.422.001z"/><g clip-path="url(#clip-path)"><path fill="#43af5a" d="M1.81321 136.017V61.90365c0-9.37519 4.11647-13.12527 14.40764-13.12527H179.2547c9.74954 0 13.75766 3.5527 13.866 12.43447q.16253 74.45877 0 148.91754c0 8.98048-4.44146 12.9279-14.40764 12.9279-54.38072.09871-108.65313 0-163.03385 0-9.31622 0-13.866-4.24352-13.866-12.63184zm95.76207-75.00153c-25.67378 0-51.34755.09871-76.913-.09872-3.89981 0-5.63306.78949-5.63306 4.73694.10833 33.652.10833 67.20535.10833 100.85733 0 1.4803-.7583 3.454 1.29993 4.14483 1.73325.6908 2.81653-.98687 4.00814-1.77635 15.92424-11.74364 31.84847-23.38864 47.66439-35.231 2.92486-2.1711 4.87476-2.1711 7.583.39474 10.72449 10.066 21.88228 19.83594 32.71509 29.80326 2.27488 2.17109 4.11647 2.17109 6.608.39474 5.958-4.34219 12.13273-8.38835 17.98247-12.82922 3.14151-2.36847 5.52473-2.26979 8.66621-.09871 10.83281 7.40146 21.774 14.60557 32.82342 21.80968 1.29993.88818 2.59986 2.66452 4.44147 1.875s1.19161-2.76322 1.19161-4.3422q0-52.4024.10833-104.7061c0-4.04614-1.29992-5.13169-5.633-5.13169-25.67377.19737-51.34754.19737-77.02131.19737z"/></g></g><path fill="#474747" d="M227.555 33.023h18.725v45.081h26.828v15.5h-45.553V33.023zm53.5 0h46.89v15.5h-28.244v7.552h24.153v14.477h-24.153v23.052h-18.725V33.023h.079zm98.26537 17.38772c0 5.822-1.96688 10.30649-5.97934 13.4535s-9.59842 4.72053-16.91522 4.72053h-9.36236v25.0188H342.815V33.02344h14.86966c14.39758 0 21.63571 5.82199 21.63571 17.38728zm-32.25692 14.555h8.3396c6.84475 0 11.72262-1.10146 14.791-3.383s4.56317-5.90066 4.56317-10.93589c0-4.64186-1.41614-8.10358-4.32715-10.38516s-7.3168-3.383-13.37481-3.383h-9.99179v28.08705zm89.92605-31.94228v39.18038c0 6.92344-2.04556 12.43073-6.058 16.28582-4.01245 3.93378-9.67706 5.90066-16.83655 5.90066-7.00211 0-12.5094-1.96688-16.44318-5.90066s-5.90066-9.441-5.90066-16.44317v-39.023h4.24847v39.18035c0 5.822 1.65219 10.38516 4.8779 13.61086s7.78888 4.87787 13.68955 4.87787c5.74328 0 10.22781-1.57351 13.45352-4.7992 3.147-3.22569 4.79922-7.63152 4.79922-13.29615V33.02344zm16.52185 0h16.60053q11.21123 0 16.52185 3.77643c3.5404 2.51761 5.27127 6.37271 5.27127 11.48661a12.336 12.336 0 0 1-3.22571 8.733c-2.12424 2.36026-5.27127 3.8551-9.36236 4.4845v.236c4.79922.70808 8.41827 2.28159 10.69985 4.56317 2.28159 2.36026 3.383 5.586 3.383 9.75576 0 5.586-1.88821 9.91311-5.586 12.90278s-8.969 4.48448-15.73508 4.48448h-18.56735zm4.24848 26.98569h13.37481c5.66465 0 9.83445-.94411 12.43073-2.83232s3.8551-4.87788 3.8551-8.89033-1.49484-6.92344-4.40582-8.81165-7.23816-2.75364-13.06012-2.75364h-12.1947zm0 3.69774v26.12025h14.24026c11.25058 0 16.83655-4.56317 16.83655-13.68953 0-8.26092-5.97934-12.43072-17.78067-12.43072zM506.696 93.60355V33.02344h4.24848V89.5911h28.87382v4.01245zm43.58617 0V33.02344h4.24847v60.58011zm46.41851-56.88236q-11.09325 0-17.466 7.08079c-4.24847 4.72053-6.37268 11.17192-6.37268 19.43285 0 8.41828 1.96692 14.94834 5.97931 19.59018s9.7558 7.00212 17.15124 7.00212a46.65528 46.65528 0 0 0 13.61084-1.8882V91.558a45.33518 45.33518 0 0 1-14.555 2.04556c-8.26092 0-14.791-2.675-19.51147-8.0249s-7.15943-12.8241-7.15943-22.4225a34.907 34.907 0 0 1 3.383-15.81377 24.36489 24.36489 0 0 1 9.7558-10.54251 28.58511 28.58511 0 0 1 14.86971-3.69776 36.04086 36.04086 0 0 1 15.42035 3.22569l-1.65217 3.69775a28.82987 28.82987 0 0 0-13.4535-3.30437zm93.54511 56.88236h-4.24848v-29.818h-35.404v29.818h-4.24847V33.02344h4.24847v26.907h35.404v-26.907h4.24848zm50.27362 0h-33.12232V33.02344h33.12238v3.93378h-28.8739v22.89455H738.946v3.93378h-27.30049v25.9629h28.8739zm42.87811-21.1637h-24.62536l-8.41828 21.39973h-4.72052l24.38941-60.81613h2.675l23.83863 60.81613h-4.7992zm-23.05188-3.77642h21.63574l-8.26092-21.87178c-.70813-1.73086-1.49487-4.09113-2.51764-7.15947a64.8212 64.8212 0 0 1-2.4389 7.23814zm44.84503 24.94012V33.02344h4.24848V89.5911h28.8739v4.01245zm59.32123 0h-4.24847V37.03589h-19.66889v-4.01245h43.66492v4.01245h-19.66888v56.56766zm72.53882 0h-4.24847v-29.818h-35.404v29.818h-4.24847V33.02344h4.24847v26.907h35.404v-26.907h4.24847z"/><path fill="#666" d="M241.56348 116.19269H227.5554v105.67674h64.089v-11.39406h-50.0809v-94.28268zm123.67758 51.16968q-.291-11.90284-7.98444-18.69022-7.6934-6.78522-21.26492-6.7863a38.09506 38.09506 0 0 0-15.715 3.19292 28.49385 28.49385 0 0 0-11.32287 8.67379 18.52765 18.52765 0 0 0-4.17331 11.359h13.50036q0-5.15163 4.86374-8.78215a19.57918 19.57918 0 0 1 12.04731-3.62949q8.20215 0 12.41162 4.17438 4.2084 4.17436 4.20944 11.21242v6.17028h-13.06488q-16.91212 0-26.237 6.7863-9.32707 6.78741-9.326 19.0524a21.24787 21.24787 0 0 0 7.43848 16.6572q7.43952 6.56856 19.05239 6.56747a29.95471 29.95471 0 0 0 22.35474-9.72537q.72551 5.95352 1.88751 8.27442h14.08033v-1.162q-2.75848-6.38479-2.75745-17.201zM351.81293 199.878a19.76187 19.76187 0 0 1-8.20008 8.4911 23.60185 23.60185 0 0 1-11.9772 3.26727 16.17067 16.17067 0 0 1-10.81409-3.55832 12.22034 12.22034 0 0 1-4.20944-9.86981q0-14.44251 24.67774-14.44357h10.52307zm71.12918-57.99208a28.61528 28.61528 0 0 0-23.51679 11.32289l-.43548-9.87088h-12.69947v78.53157h13.426v-55.958a23.655 23.655 0 0 1 7.69446-9.14542 19.38075 19.38075 0 0 1 11.46734-3.484q8.05665 0 11.8678 4.065 3.81 4.06606 3.88336 12.55608v51.96739h13.426v-51.89416q-.21671-28.08947-25.11218-28.08947zm94.9349 9.43537q-8.05673-9.43535-21.846-9.43537a27.08142 27.08142 0 0 0-22.428 10.99574q-8.56545 10.99573-8.5644 29.0688v1.01544q0 18.003 8.60157 29.17822 8.60055 11.17736 22.24536 11.1763 14.37139 0 22.427-9.87088l.65326 8.41994h12.33942V110.38573H517.877zm0 49.13666q-5.87814 11.47051-18.652 11.4684a17.82765 17.82765 0 0 1-15.24237-7.5479q-5.51693-7.54788-5.5159-20.90379 0-14.95131 5.5159-22.57249 5.51385-7.62117 15.38681-7.62119 12.4817 0 18.5075 11.10513zm81.14563-18.57974a72.47281 72.47281 0 0 0-16.29394-5.37148q-10.05461-2.24757-13.89972-4.71714a8.14265 8.14265 0 0 1-3.84613-7.3312 10.05239 10.05239 0 0 1 4.13611-8.34664q4.13727-3.19293 11.46838-3.194a17.54512 17.54512 0 0 1 11.7945 3.99275 12.12182 12.12182 0 0 1 4.681 9.50761h13.50036a21.9023 21.9023 0 0 0-8.31048-17.63652q-8.31262-6.89463-21.66535-6.89571-12.70266 0-20.86664 6.678-8.16614 6.678-8.16607 16.33109a17.3566 17.3566 0 0 0 2.86792 10.0164 23.02126 23.02126 0 0 0 8.85437 7.25685 67.62249 67.62249 0 0 0 16.18554 5.22594q10.196 2.17749 14.2981 5.18983a9.889 9.889 0 0 1 4.1 8.455 9.479 9.479 0 0 1-4.60779 8.23829q-4.61 3.08565-12.23 3.0846-8.27436 0-13.31873-3.95557a13.8968 13.8968 0 0 1-5.40655-10.70575h-13.4292a22.47357 22.47357 0 0 0 4.10113 12.95548 27.13464 27.13464 0 0 0 11.359 9.326 39.55554 39.55554 0 0 0 16.6933 3.33949q13.426 0 21.847-6.3508a20.09667 20.09667 0 0 0 8.41889-16.87492 18.47787 18.47787 0 0 0-3.01127-10.70581 23.77333 23.77333 0 0 0-9.25482-7.51178zm45.3255-21.59322q5.62317-7.36623 15.85944-7.36731a17.95105 17.95105 0 0 1 12.80994 4.89986 18.50974 18.50974 0 0 1 5.76977 12.52H691.489q-.58191-12.62832-9.326-20.53945-8.74713-7.91115-21.95532-7.91222a34.32676 34.32676 0 0 0-18.61688 4.936 32.05683 32.05683 0 0 0-12.08447 13.86152 47.27568 47.27568 0 0 0-4.21051 20.39607v2.24969q0 18.58078 9.47259 29.28656 9.47049 10.70682 25.51154 10.7047a32.99737 32.99737 0 0 0 15.134-3.62842 30.60472 30.60472 0 0 0 11.43018-9.72537 24.36045 24.36045 0 0 0 4.64489-12.84606h-12.70167a15.32432 15.32432 0 0 1-5.95035 10.88634 19.34248 19.34248 0 0 1-12.55719 4.355q-10.38071 0-15.96784-7.33014-5.5903-7.33012-5.58813-20.90377v-2.54076q0-13.93479 5.62426-21.30209zm122.045 7.07734q-.291-11.90283-7.9845-18.69019-7.69336-6.78522-21.26495-6.7863a38.09529 38.09529 0 0 0-15.714 3.19292 28.48458 28.48458 0 0 0-11.32288 8.67379 18.529 18.529 0 0 0-4.17438 11.359h13.50037q0-5.15163 4.86371-8.78215a19.58037 19.58037 0 0 1 12.04834-3.62949q8.20112 0 12.41058 4.17438t4.21051 11.21242v6.17029h-13.06469q-16.91219 0-26.2381 6.7863-9.326 6.78741-9.326 19.0524a21.248 21.248 0 0 0 7.43957 16.6572q7.43857 6.56856 19.05133 6.56747a29.95677 29.95677 0 0 0 22.35578-9.72537q.72336 5.95352 1.88745 8.27442h14.08032v-1.162q-2.75967-6.38479-2.75848-17.201zm-13.426 32.51559a19.76925 19.76925 0 0 1-8.20221 8.4911 23.60119 23.60119 0 0 1-11.97613 3.26729 16.17183 16.17183 0 0 1-10.81519-3.55833 12.22044 12.22044 0 0 1-4.20837-9.86983q0-14.44255 24.67663-14.44357H752.966zm70.1839-57.99208q-14.5881 0-22.79022 10.16193l-.65326-8.70992h-12.26609v108.7252h13.42816v-37.81377q8.19991 9.0732 22.49921 9.07105 14.0072 0 22.21026-10.95856 8.19993-10.95858 8.20111-28.88718v-1.2332q-.00018-19.01524-8.23828-29.687-8.23847-10.66857-22.39087-10.6686zm11.50348 62.81865a18.14952 18.14952 0 0 1-15.35071 7.65835q-12.40943 0-18.4342-10.74293v-37.52485q6.09686-10.81411 18.28973-10.81517a18.23762 18.23762 0 0 1 15.53229 7.69341q5.66161 7.69446 5.66144 20.976 0 15.09786-5.69861 22.7541zm67.10138-62.81864a31.38434 31.38434 0 0 0-17.38263 5.18984 34.808 34.808 0 0 0-12.48393 14.37131 47.12879 47.12879 0 0 0-4.46435 20.86662v2.46745q.00009 17.56536 10.01642 28.05229 10.01632 10.48909 25.98425 10.487 19.74161 0 29.61157-15.168l-8.2-6.38691a30.25711 30.25711 0 0 1-8.6377 7.6934 23.38887 23.38887 0 0 1-12.0484 2.903 21.331 21.331 0 0 1-16.51275-7.1485q-6.4953-7.14846-6.78522-18.76244h53.2016v-5.5892q0-18.79749-8.49323-28.88718-8.49-10.08861-23.80566-10.08862zm18.87075 33.53215h-39.338q1.30646-10.66965 6.82238-16.58389a17.91271 17.91271 0 0 1 13.64484-5.91639q8.41773 0 13.35486 5.62534 4.93478 5.62638 5.51593 15.85841z" opacity=".8" style="isolation:isolate"/><path fill="#009ade" d="M44.54476 184.84875v-76.42646H6.25726v114.64694h114.69405v-38.22048z"/><path fill="#003764" d="M197.35513 31.937H6.28262v57.33519h38.2078V70.32407h114.65873v114.52468h-19.08306v38.22049h57.28906z"/></svg>