<svg id="Layer_1" data-name="Layer 1" xmlns="http://www.w3.org/2000/svg" xmlns:xlink="http://www.w3.org/1999/xlink" viewBox="0 0 968.23999 257.73999"><defs><style>.cls-1{fill:none;}.cls-2{fill:#fc0;}.cls-3{fill:#d2e4f4;}.cls-4{fill:#fed147;}.cls-5{clip-path:url(#clip-path);}.cls-6{fill:#43af5a;}.cls-7{fill:#666;opacity:0.8;isolation:isolate;}.cls-8{fill:#009ade;}.cls-9{fill:#003764;}.cls-10{fill:#474747;}</style><clipPath id="clip-path"><rect class="cls-1" x="27.744" y="103.439" width="165.108" height="130.18201"/></clipPath></defs><path class="cls-1" d="M754.98645,67.33083a8.48009,8.48009,0,0,0,2.715-6.656,9.03009,9.03009,0,0,0-2.507-6.826q-2.5079-2.412-7.486-2.489h-10.068v18.403h9.804Q752.27048,69.76283,754.98645,67.33083Zm-12.083,128.324a11.505,11.505,0,0,0,3.962,9.293,15.22514,15.22514,0,0,0,10.182,3.349,22.2195,22.2195,0,0,0,11.275-3.076,18.612,18.612,0,0,0,7.721-7.994v-15.17h-9.908q-23.234,0-23.23193,13.598Zm-205.609-42.297q-9.295,0-14.487,7.175-5.194,7.175-5.193,21.25,0,12.575,5.193,19.68a16.784,16.784,0,0,0,14.35,7.107q12.024,0,17.56-10.797v-33.96q-5.672-10.454-17.424-10.455Zm14.134-85.235q2.678-2.395,2.678-6.92a9.499,9.499,0,0,0-2.715-7.109,10.47194,10.47194,0,0,0-7.467-2.734h-11.727v19.157h11.463q5.09006,0,7.76794-2.394Zm137.415,9.974h15.914l-7.957-22.777-7.957,22.777Zm227.279,74.919a16.864,16.864,0,0,0-12.846,5.57q-5.193,5.569-6.423,15.613h37.035v-.956q-.54793-9.636-5.193-14.93-4.647-5.295-12.573-5.297Zm-515.043-101.656h-6.675v39.52h6.222q7.504,0,11.52-4.686,4.017-4.686,4.092-13.455v-3.048q0-8.92-3.884-13.625-3.88494-4.706-11.2749-4.706Zm-35.845,144.295a11.505,11.505,0,0,0,3.964,9.293,15.2239,15.2239,0,0,0,10.181,3.349,22.21987,22.21987,0,0,0,11.275-3.076,18.60508,18.60508,0,0,0,7.721-7.994v-15.17h-9.907q-23.234,0-23.233,13.598Zm473.127-42.297q-11.47906,0-17.22,10.182v35.327q5.67105,10.113,17.356,10.113a17.087,17.087,0,0,0,14.452-7.209q5.365-7.208,5.365-21.422-.00009-12.505-5.33-19.748a17.17,17.17,0,0,0-14.623-7.243Z"/><path class="cls-2" d="M166.52079,99.58294a25.27155,25.27155,0,1,0-.2499.00122Q166.39584,99.58418,166.52079,99.58294Z"/><path class="cls-3" d="M18.87739,23.73013H193.82456v173.975H18.87739Z"/><g id="gPSyY2"><path class="cls-4" d="M146.92721,61.90344a20.01655,20.01655,0,0,1,20.23863,19.792v0q.003.27276-.00135.54551a20.2877,20.2877,0,0,1-40.57479-.10019,20.07759,20.07759,0,0,1,19.91551-20.23835q.211-.0017.422.001Z"/><g class="cls-5"><path class="cls-6" d="M14.43321,123.137V49.02365c0-9.37519,4.11647-13.12527,14.40764-13.12527H191.8747c9.74954,0,13.75766,3.5527,13.866,12.43447q.16253,74.45877,0,148.91754c0,8.98049-4.44147,12.9279-14.40764,12.9279-54.38072.09871-108.65313,0-163.03385,0-9.31622,0-13.866-4.24351-13.866-12.63183Zm95.76207-75.00153c-25.67378,0-51.34755.09871-76.913-.09872-3.89981,0-5.63306.78949-5.63306,4.73694.10833,33.652.10833,67.20535.10833,100.85733,0,1.4803-.7583,3.454,1.29993,4.14484,1.73325.69079,2.81653-.98688,4.00814-1.77635,15.92424-11.74364,31.84847-23.38865,47.66439-35.231,2.92486-2.17109,4.87476-2.17109,7.583.39475,10.72449,10.066,21.88228,19.83594,32.71509,29.80325,2.27488,2.1711,4.11647,2.1711,6.608.39475,5.958-4.3422,12.13273-8.38836,17.98247-12.82923,3.14151-2.36847,5.52473-2.26979,8.66621-.09871,10.83281,7.40146,21.774,14.60558,32.82342,21.80968,1.29993.88818,2.59986,2.66452,4.44147,1.875s1.19161-2.76321,1.19161-4.34219q0-52.40241.10833-104.7061c0-4.04614-1.29992-5.13169-5.633-5.13169-25.67377.19736-51.34754.19736-77.02131.19736Z"/></g></g><path class="cls-7" d="M254.18348,104.31269H240.1754V209.98944h64.089V198.59538h-50.0809V104.3127Zm123.67758,51.16968q-.291-11.90284-7.98444-18.69022-7.6934-6.78522-21.26492-6.7863a38.09522,38.09522,0,0,0-15.715,3.19292,28.4937,28.4937,0,0,0-11.32287,8.6738,18.52762,18.52762,0,0,0-4.17331,11.359h13.50036q0-5.15163,4.86374-8.78215a19.57916,19.57916,0,0,1,12.0473-3.62948q8.20217,0,12.41163,4.17437,4.2084,4.17438,4.20944,11.21242V162.377H351.36811q-16.91212,0-26.237,6.7863-9.32707,6.78743-9.326,19.0524a21.24787,21.24787,0,0,0,7.43848,16.6572q7.43952,6.56855,19.05239,6.56747a29.95471,29.95471,0,0,0,22.35474-9.72537q.72551,5.95355,1.88751,8.27441h14.08033v-1.162q-2.75848-6.38479-2.75745-17.201ZM364.43293,187.998a19.76193,19.76193,0,0,1-8.20008,8.4911,23.60176,23.60176,0,0,1-11.9772,3.26728,16.17072,16.17072,0,0,1-10.81409-3.55832,12.22037,12.22037,0,0,1-4.20944-9.86981q0-14.44253,24.67774-14.44358h10.52307Zm71.12918-57.99208a28.61528,28.61528,0,0,0-23.51679,11.32289l-.43548-9.87088H398.91037v78.53157h13.426v-55.958a23.655,23.655,0,0,1,7.69446-9.14541,19.38074,19.38074,0,0,1,11.46734-3.484q8.05665,0,11.8678,4.065,3.81,4.066,3.88336,12.55607v51.96739h13.426V158.0964q-.2167-28.08948-25.11218-28.08946Zm94.9349,9.43536q-8.05673-9.43535-21.846-9.43536a27.08142,27.08142,0,0,0-22.428,10.99574q-8.56545,10.99573-8.5644,29.0688v1.01545q0,18.003,8.60157,29.17822,8.60055,11.17736,22.24536,11.1763,14.3714,0,22.427-9.87088l.65326,8.41994h12.33942V98.50573H530.497Zm0,49.13666q-5.87814,11.47049-18.652,11.4684a17.82765,17.82765,0,0,1-15.24237-7.5479q-5.51693-7.54789-5.5159-20.90379,0-14.9513,5.5159-22.57249,5.51385-7.62117,15.38681-7.62119,12.4817,0,18.5075,11.10513Zm81.14563-18.57974a72.47332,72.47332,0,0,0-16.29394-5.37148q-10.05461-2.24757-13.89972-4.71714a8.14266,8.14266,0,0,1-3.84613-7.33121,10.0524,10.0524,0,0,1,4.13611-8.34664q4.13727-3.19295,11.46838-3.194a17.54518,17.54518,0,0,1,11.7945,3.99276,12.12182,12.12182,0,0,1,4.681,9.50761h13.50036a21.90231,21.90231,0,0,0-8.31048-17.63652q-8.31263-6.89463-21.66535-6.89571-12.70266,0-20.86664,6.678-8.16614,6.678-8.16607,16.33108a17.35668,17.35668,0,0,0,2.86792,10.01641,23.02135,23.02135,0,0,0,8.85437,7.25685,67.62233,67.62233,0,0,0,16.18554,5.22593q10.196,2.17749,14.2981,5.18984a9.889,9.889,0,0,1,4.1,8.455,9.479,9.479,0,0,1-4.60779,8.2383q-4.61,3.08567-12.23,3.08459-8.27436,0-13.31873-3.95556a13.89681,13.89681,0,0,1-5.40655-10.70575h-13.4292a22.47353,22.47353,0,0,0,4.10113,12.95547,27.13459,27.13459,0,0,0,11.359,9.326,39.55554,39.55554,0,0,0,16.6933,3.33949q13.426,0,21.847-6.3508a20.0967,20.0967,0,0,0,8.41889-16.87493A18.478,18.478,0,0,0,620.89637,177.51a23.77333,23.77333,0,0,0-9.25482-7.51178Zm45.3255-21.59322q5.62317-7.36623,15.85944-7.36731a17.9511,17.9511,0,0,1,12.80994,4.89986,18.50974,18.50974,0,0,1,5.76977,12.52H704.109q-.58191-12.62832-9.326-20.53944-8.74713-7.91114-21.95532-7.91222a34.32686,34.32686,0,0,0-18.61688,4.936,32.0568,32.0568,0,0,0-12.08447,13.86153,47.27568,47.27568,0,0,0-4.21051,20.39607v2.24969q0,18.58078,9.47259,29.28656,9.47049,10.70682,25.51154,10.7047a32.99762,32.99762,0,0,0,15.134-3.62842,30.60472,30.60472,0,0,0,11.43018-9.72537,24.36045,24.36045,0,0,0,4.64489-12.84606H691.40735a15.32416,15.32416,0,0,1-5.95038,10.88634,19.34244,19.34244,0,0,1-12.55718,4.355q-10.38072,0-15.96784-7.33014-5.59022-7.33013-5.58813-20.90376v-2.54076q0-13.93479,5.62426-21.30209Zm122.045,7.07735q-.291-11.90284-7.9845-18.69019-7.69337-6.78522-21.26495-6.7863a38.09529,38.09529,0,0,0-15.714,3.19292,28.48461,28.48461,0,0,0-11.32288,8.6738,18.5293,18.5293,0,0,0-4.17438,11.359H732.0528q0-5.15163,4.86371-8.78215a19.58036,19.58036,0,0,1,12.04834-3.62948q8.20112,0,12.41058,4.17437t4.21051,11.21242V162.377H752.52125q-16.91219,0-26.2381,6.7863-9.326,6.7874-9.326,19.0524a21.248,21.248,0,0,0,7.43957,16.65719q7.43866,6.56858,19.05133,6.56748a29.95677,29.95677,0,0,0,22.35578-9.72537q.72336,5.95351,1.88745,8.27441h14.08032v-1.162q-2.75967-6.38479-2.75848-17.201Zm-13.426,32.51559a19.76933,19.76933,0,0,1-8.20221,8.49111,23.60119,23.60119,0,0,1-11.97613,3.26729,16.17184,16.17184,0,0,1-10.81519-3.55834,12.22044,12.22044,0,0,1-4.20837-9.86982q0-14.44257,24.67663-14.44358H765.586Zm70.1839-57.99208q-14.5881,0-22.79022,10.16193l-.65326-8.70992H800.06141V240.18305h13.42816V202.36929q8.19992,9.0732,22.4992,9.071,14.00712,0,22.21027-10.95855,8.19992-10.95859,8.20111-28.88718v-1.2332q-.00018-19.01526-8.23828-29.687-8.23847-10.66857-22.39087-10.66859Zm11.50348,62.81865a18.14953,18.14953,0,0,1-15.35071,7.65836q-12.40943,0-18.4342-10.74294V152.21507q6.09686-10.81411,18.28973-10.81517a18.23753,18.23753,0,0,1,15.53229,7.6934q5.66161,7.69446,5.66144,20.976,0,15.09785-5.69861,22.7541Zm67.10138-62.81863a31.38417,31.38417,0,0,0-17.38263,5.18983,34.80849,34.80849,0,0,0-12.484,14.37131,47.12882,47.12882,0,0,0-4.46435,20.86662v2.46746q.00009,17.56534,10.01642,28.05229,10.01633,10.48908,25.98425,10.487,19.74161,0,29.61157-15.168l-8.2-6.38692a30.25714,30.25714,0,0,1-8.6377,7.69341,23.389,23.389,0,0,1-12.0484,2.903,21.331,21.331,0,0,1-16.51275-7.1485q-6.4953-7.14845-6.78522-18.76244h53.2016v-5.5892q0-18.79749-8.49323-28.88718-8.49-10.08861-23.80566-10.08862ZM933.24659,163.538h-39.338q1.30636-10.66965,6.82239-16.58389a17.91278,17.91278,0,0,1,13.64484-5.9164q8.41772,0,13.35486,5.62533,4.93469,5.62638,5.51593,15.85842Z"/><path class="cls-8" d="M57.16476,171.96876V95.5423H18.87726v114.647H133.57132V171.96876Z"/><path class="cls-9" d="M209.97513,19.057H18.90262V76.39219h38.2078V57.44408H171.76915V171.96876h-19.083v38.22049h57.28906Z"/><polygon class="cls-10" points="240.107 20.939 259.075 20.939 259.075 66.753 286.335 66.753 286.335 82.611 240.107 82.611 240.107 20.939"/><polygon class="cls-10" points="294.316 20.939 341.892 20.939 341.892 36.694 313.284 36.694 313.284 44.468 337.746 44.468 337.746 59.186 313.284 59.186 313.284 82.715 294.213 82.715 294.213 20.939 294.316 20.939"/><path class="cls-10" d="M394.75375,38.55961c0,5.90808-1.96935,10.46871-6.01173,13.68187s-9.74314,4.76792-17.10233,4.76792h-9.53585V82.40378h-4.35331V20.939h15.02932C387.39456,20.939,394.75375,26.84711,394.75375,38.55961ZM362.00019,53.278h8.49934c6.94458,0,11.9198-1.14016,15.02932-3.42047s4.66427-6.01173,4.66427-11.0906q0-6.99642-4.35332-10.57235c-2.90221-2.384-7.46283-3.42047-13.57822-3.42047H362.10383L362.00019,53.278Z"/><path class="cls-10" d="M451.65787,20.939V60.01527c0,6.94458-2.073,12.43806-6.01171,16.27313-3.93871,3.93872-9.63949,5.90808-16.7914,5.90808-7.04824,0-12.54172-1.96936-16.37678-5.90808s-5.90808-9.4322-5.90808-16.37678V20.939h4.24968V60.01527c0,5.80443,1.65841,10.365,4.87157,13.57822s7.77379,4.87157,13.68186,4.87157c5.70078,0,10.15774-1.55476,13.37091-4.76792,3.10952-3.21316,4.76793-7.56649,4.76793-13.26726V20.939Z"/><path class="cls-10" d="M463.57768,20.939h16.79139c7.56648,0,13.16363,1.24381,16.7914,3.83507s5.38984,6.42633,5.38984,11.60885a12.21484,12.21484,0,0,1-3.31683,8.8103c-2.17667,2.384-5.38984,3.93871-9.53586,4.56062v.2073q7.30739,1.08832,10.8833,4.66427c2.28033,2.384,3.42046,5.70078,3.42046,9.8468,0,5.70078-1.8657,10.0541-5.70078,13.06-3.73143,3.00587-9.12123,4.56063-15.96217,4.56063H463.474V20.939Zm4.24968,27.36373h13.57822c5.70078,0,9.95045-.93285,12.64537-2.90221,2.59127-1.86571,3.93871-4.97523,3.93871-9.0176s-1.55476-7.04823-4.457-8.91394-7.35919-2.79856-13.26725-2.79856H467.82736V48.30276Zm0,3.73142V78.46506h14.40741c11.40156,0,17.10233-4.66427,17.10233-13.88917,0-8.39569-6.01171-12.64536-18.03518-12.64536C481.30192,52.03418,467.82736,52.03418,467.82736,52.03418Z"/><path class="cls-10" d="M515.81753,82.19647V20.939h4.35333V78.15411h29.22945v4.04237Z"/><path class="cls-10" d="M561.11281,82.30013V20.939h4.35333v61.3611Z"/><path class="cls-10" d="M605.78618,24.5668q-11.19427,0-17.72424,7.15188c-4.35333,4.76792-6.42634,11.29791-6.42634,19.6936,0,8.49934,1.96935,15.133,6.01171,19.90089,4.04236,4.66427,9.8468,7.04823,17.41327,7.04823a48.713,48.713,0,0,0,13.78551-1.8657v3.62776a45.71509,45.71509,0,0,1-14.71839,2.073c-8.39569,0-15.02932-2.69491-19.79725-8.08473s-7.25553-12.95632-7.25553-22.69946a36.23776,36.23776,0,0,1,3.42045-16.06583,24.59557,24.59557,0,0,1,9.8468-10.676A28.6527,28.6527,0,0,1,605.37149,20.939a36.47456,36.47456,0,0,1,15.65123,3.31681l-1.65841,3.73142A28.39331,28.39331,0,0,0,605.78618,24.5668Z"/><path class="cls-10" d="M688.18833,82.19647H683.835V52.03418H648.07557V82.19647h-4.35333V20.939h4.35333V48.09546H683.835V20.939h4.35333Z"/><path class="cls-10" d="M735.453,82.09283H702.07749V20.939H735.453v3.93872H706.22351V47.99181h27.571v4.04237h-27.571V78.25776H735.453Z"/><path class="cls-10" d="M783.44314,60.63717H758.77433L750.275,82.19647h-4.76789L770.0722,20.939h2.69488L796.814,82.19647h-4.87158ZM760.2254,56.8021H781.992L773.7,34.82819c-.72556-1.76205-1.55475-4.146-2.59126-7.15188a53.82339,53.82339,0,0,1-2.48764,7.25553Z"/><path class="cls-10" d="M808.73388,82.30013V20.939h4.35334V78.15411h29.22945v4.04237H808.73388Z"/><path class="cls-10" d="M864.9124,82.19647h-4.24964V24.9814H840.76185V20.939h44.05146V24.9814H864.9124V82.19647Z"/><path class="cls-10" d="M941.19921,82.19647h-4.35333V52.03418H901.08645V82.19647h-4.35333V20.939h4.35333V48.09546h35.75943V20.939h4.35333V82.19647Z"/></svg>