<svg id="Layer_1" data-name="Layer 1" xmlns="http://www.w3.org/2000/svg" xmlns:xlink="http://www.w3.org/1999/xlink" viewBox="0 0 941.05072 265.26263"><defs><style>.cls-1{fill:none;}.cls-2{fill:#fc0;}.cls-3{fill:#d2e4f4;}.cls-4{fill:#fed147;}.cls-5{clip-path:url(#clip-path);}.cls-6{fill:#43af5a;}.cls-7{fill:#474747;}.cls-8{fill:#666;opacity:0.8;isolation:isolate;}.cls-9{fill:#009ade;}.cls-10{fill:#003764;}</style><clipPath id="clip-path"><rect class="cls-1" x="15.12363" y="116.3187" width="165.10828" height="130.18166"/></clipPath></defs><path class="cls-1" d="M742.36646,80.21082a8.48009,8.48009,0,0,0,2.715-6.656,9.03009,9.03009,0,0,0-2.507-6.826q-2.5079-2.412-7.486-2.489h-10.068v18.403h9.804Q739.65049,82.64282,742.36646,80.21082Zm-12.083,128.324a11.505,11.505,0,0,0,3.962,9.293,15.2251,15.2251,0,0,0,10.182,3.349,22.21961,22.21961,0,0,0,11.275-3.076,18.612,18.612,0,0,0,7.721-7.994v-15.17h-9.908q-23.234,0-23.23193,13.598Zm-205.609-42.297q-9.295,0-14.487,7.175-5.194,7.175-5.193,21.25,0,12.575,5.193,19.68a16.784,16.784,0,0,0,14.35,7.107q12.024,0,17.56-10.797v-33.96q-5.672-10.454-17.424-10.455Zm14.134-85.235q2.678-2.395,2.678-6.92a9.49906,9.49906,0,0,0-2.715-7.109,10.472,10.472,0,0,0-7.467-2.734h-11.727v19.157h11.463Q536.13046,83.39682,538.80841,81.00282Zm137.415,9.974h15.914l-7.957-22.777-7.957,22.777Zm227.279,74.919a16.864,16.864,0,0,0-12.846,5.57q-5.193,5.569-6.423,15.613h37.035v-.956q-.54793-9.636-5.193-14.93-4.647-5.295-12.573-5.297Zm-515.043-101.656h-6.675v39.52h6.222q7.504,0,11.52-4.686,4.017-4.686,4.092-13.455v-3.048q0-8.92-3.884-13.625-3.88494-4.706-11.2749-4.706Zm-35.845,144.295a11.505,11.505,0,0,0,3.964,9.293,15.224,15.224,0,0,0,10.181,3.349,22.21978,22.21978,0,0,0,11.275-3.076,18.605,18.605,0,0,0,7.721-7.994v-15.17h-9.907q-23.234,0-23.233,13.598Zm473.127-42.297q-11.47906,0-17.22,10.182v35.327q5.67105,10.113,17.356,10.113a17.087,17.087,0,0,0,14.452-7.209q5.365-7.208,5.365-21.422-.00009-12.505-5.33-19.748a17.17,17.17,0,0,0-14.623-7.243Z"/><path class="cls-2" d="M153.90079,112.46294a25.2714,25.2714,0,1,0-.2499.00122Q153.77584,112.46417,153.90079,112.46294Z"/><path class="cls-3" d="M6.25739,36.61013H181.20458v173.975H6.25739Z"/><g id="gPSyY2"><path class="cls-4" d="M134.3072,74.78344a20.01655,20.01655,0,0,1,20.23863,19.792q.003.27275-.00134.5455a20.2877,20.2877,0,0,1-40.57479-.10018,20.07759,20.07759,0,0,1,19.91551-20.23836q.211-.00169.422.001Z"/><g class="cls-5"><path class="cls-6" d="M1.81321,136.017V61.90365c0-9.37519,4.11647-13.12527,14.40764-13.12527H179.2547c9.74954,0,13.75766,3.5527,13.866,12.43447q.16254,74.45877,0,148.91754c0,8.98048-4.44145,12.92791-14.40764,12.92791-54.38072.09871-108.65313,0-163.03385,0-9.31622,0-13.866-4.24351-13.866-12.63184ZM97.57528,61.01547c-25.67378,0-51.34755.09871-76.913-.09872-3.89981,0-5.63306.78949-5.63306,4.73694.10833,33.652.10833,67.20535.10833,100.85734,0,1.4803-.7583,3.454,1.29993,4.14483,1.73325.69079,2.81653-.98687,4.00814-1.77635,15.92424-11.74363,31.84847-23.38864,47.66439-35.231,2.92486-2.17109,4.87476-2.17109,7.583.39475,10.72449,10.066,21.88228,19.83593,32.71509,29.80325,2.27489,2.1711,4.11648,2.1711,6.608.39475,5.958-4.34219,12.13274-8.38835,17.98246-12.82922,3.14151-2.36847,5.52474-2.26979,8.66622-.09871,10.83281,7.40146,21.774,14.60557,32.82343,21.80967,1.29993.88818,2.59986,2.66452,4.44147,1.875s1.19161-2.76321,1.19161-4.34219q0-52.40241.10833-104.7061c0-4.04614-1.29993-5.13169-5.633-5.13169-25.67377.19737-51.34754.19737-77.02131.19737Z"/></g></g><polygon class="cls-7" points="227.555 33.023 246.28 33.023 246.28 78.104 273.108 78.104 273.108 93.604 227.555 93.604 227.555 33.023"/><polygon class="cls-7" points="281.055 33.023 327.945 33.023 327.945 48.523 299.701 48.523 299.701 56.075 323.854 56.075 323.854 70.552 299.701 70.552 299.701 93.604 280.976 93.604 280.976 33.023 281.055 33.023"/><path class="cls-7" d="M379.32037,50.41072c0,5.822-1.96689,10.30649-5.97934,13.4535s-9.59842,4.72053-16.91523,4.72053h-9.36237v25.0188H342.815V33.02344h14.86965C372.08224,33.02344,379.32037,38.84543,379.32037,50.41072Zm-32.25694,14.555h8.3396c6.84477,0,11.72264-1.10146,14.791-3.383s4.56316-5.90066,4.56316-10.93589c0-4.64186-1.41614-8.10358-4.32715-10.38516s-7.3168-3.383-13.37482-3.383h-9.99179V64.96568Z"/><path class="cls-7" d="M436.9895,33.02344V72.20382c0,6.92344-2.04557,12.43073-6.058,16.28582-4.01245,3.93378-9.67707,5.90066-16.83654,5.90066-7.00211,0-12.50939-1.96688-16.44317-5.90066s-5.90066-9.441-5.90066-16.44317v-39.023h4.24847V72.20382c0,5.822,1.65219,10.38516,4.87789,13.61086s7.78887,4.87787,13.68953,4.87787c5.7433,0,10.22781-1.57351,13.45351-4.7992,3.147-3.22569,4.79921-7.63152,4.79921-13.29615V33.02344Z"/><path class="cls-7" d="M453.51134,33.02344h16.60053q11.21125,0,16.52185,3.77643c3.54039,2.51761,5.27126,6.37271,5.27126,11.48661a12.33591,12.33591,0,0,1-3.2257,8.733c-2.12424,2.36026-5.27126,3.8551-9.36237,4.4845v.236c4.79921.70808,8.41828,2.28159,10.69987,4.56317,2.28158,2.36027,3.383,5.586,3.383,9.75576,0,5.586-1.8882,9.91311-5.586,12.90278s-8.969,4.48449-15.73509,4.48449H453.51134Zm4.24847,26.98569h13.37483c5.66464,0,9.83443-.94411,12.43071-2.83232s3.8551-4.87788,3.8551-8.89033-1.49483-6.92344-4.40583-8.81165-7.23816-2.75364-13.06013-2.75364h-12.1947V60.00913Zm0,3.69774V89.82712h14.24027c11.25058,0,16.83654-4.56317,16.83654-13.68953,0-8.26092-5.97934-12.43072-17.78066-12.43072Z"/><path class="cls-7" d="M506.69594,93.60355V33.02344h4.24847V89.5911h28.8739v4.01245Z"/><path class="cls-7" d="M550.28216,93.60355V33.02344h4.2485V93.60355Z"/><path class="cls-7" d="M596.70069,36.72119q-11.09328,0-17.466,7.08079c-4.24849,4.72053-6.37269,11.17192-6.37269,19.43284,0,8.41828,1.96689,14.94834,5.97932,19.59019s9.75577,7.00212,17.15124,7.00212a46.65509,46.65509,0,0,0,13.61084-1.88821V91.558a45.335,45.335,0,0,1-14.555,2.04556c-8.26092,0-14.791-2.675-19.5115-8.0249s-7.15945-12.8241-7.15945-22.4225a34.90669,34.90669,0,0,1,3.383-15.81377,24.36493,24.36493,0,0,1,9.75578-10.54251A28.585,28.585,0,0,1,596.386,33.10212a36.04093,36.04093,0,0,1,15.42037,3.22569l-1.65216,3.69775A28.82975,28.82975,0,0,0,596.70069,36.72119Z"/><path class="cls-7" d="M690.24578,93.60355h-4.24849v-29.818h-35.404v29.818h-4.24849V33.02344h4.24849v26.907h35.404v-26.907h4.24849Z"/><path class="cls-7" d="M740.51942,93.60355H707.39707V33.02344h33.12235v3.93378h-28.8739V59.85177h27.30039v3.93378H711.64552v25.9629h28.8739Z"/><path class="cls-7" d="M783.39755,72.43985H758.77214l-8.41828,21.39973h-4.72053l24.38939-60.81614h2.675l23.83865,60.81614h-4.79918Zm-23.0519-3.77642H781.9814l-8.26092-21.87178c-.7081-1.73086-1.49486-4.09113-2.51763-7.15947a64.81994,64.81994,0,0,1-2.43892,7.23814Z"/><path class="cls-7" d="M805.19066,93.60355V33.02344h4.2485V89.5911h28.8739v4.01245Z"/><path class="cls-7" d="M864.51193,93.60355h-4.24849V37.03589H840.59457V33.02344h43.66489v4.01245H864.59059V93.60355Z"/><path class="cls-7" d="M937.05072,93.60355h-4.24849v-29.818h-35.404v29.818h-4.2485V33.02344h4.2485v26.907h35.404v-26.907h4.24849Z"/><path class="cls-8" d="M241.56348,116.19269H227.5554V221.86943h64.089V210.47537H241.56351V116.19269Zm123.67759,51.16967q-.291-11.90283-7.98443-18.69021-7.69343-6.78523-21.26493-6.7863a38.09526,38.09526,0,0,0-15.715,3.19292,28.49415,28.49415,0,0,0-11.32289,8.6738,18.52767,18.52767,0,0,0-4.17331,11.359h13.50036q-.00006-5.15163,4.86375-8.78215a19.57922,19.57922,0,0,1,12.04731-3.62949q8.20215,0,12.41162,4.17438,4.20842,4.17438,4.20945,11.21242V174.257H338.74811q-16.91212,0-26.237,6.7863-9.32706,6.78738-9.326,19.0524a21.24793,21.24793,0,0,0,7.43847,16.65719q7.43955,6.56856,19.05241,6.56748a29.95467,29.95467,0,0,0,22.35473-9.72537q.72551,5.95351,1.88751,8.27441h14.08033v-1.162q-2.75849-6.38479-2.75744-17.201ZM351.81294,199.878a19.76181,19.76181,0,0,1-8.20007,8.49111,23.60177,23.60177,0,0,1-11.97719,3.26728,16.17069,16.17069,0,0,1-10.8141-3.55832,12.22041,12.22041,0,0,1-4.20945-9.86981q0-14.4425,24.67773-14.44358h10.52308Zm71.12918-57.99209a28.61529,28.61529,0,0,0-23.51678,11.32289l-.4355-9.87088H386.29037v78.53156h13.426v-55.958a23.65516,23.65516,0,0,1,7.69445-9.14541,19.38076,19.38076,0,0,1,11.46734-3.484q8.05662,0,11.86779,4.065,3.81,4.06605,3.88335,12.55608v51.96739h13.426V169.9764q-.21672-28.08948-25.11217-28.08948Zm94.93489,9.43538q-8.05673-9.43537-21.846-9.43538a27.0815,27.0815,0,0,0-22.428,10.99574q-8.56547,10.99575-8.56438,29.06881v1.01544q0,18.003,8.60156,29.17822,8.60054,11.17737,22.24536,11.1763,14.3714,0,22.427-9.87088l.65323,8.41994h12.33941V110.38573H517.877Zm0,49.13666q-5.87813,11.47051-18.652,11.4684a17.82766,17.82766,0,0,1-15.24236-7.54789q-5.51694-7.54788-5.51591-20.9038,0-14.95134,5.51591-22.57249,5.51385-7.62118,15.3868-7.62118,12.48171,0,18.50752,11.10514Zm81.14561-18.57974a72.47248,72.47248,0,0,0-16.29394-5.37148q-10.05465-2.24757-13.89975-4.71715a8.14264,8.14264,0,0,1-3.84614-7.33119,10.05239,10.05239,0,0,1,4.13613-8.34665q4.13723-3.19292,11.4684-3.194a17.54517,17.54517,0,0,1,11.7945,3.99275,12.12173,12.12173,0,0,1,4.681,9.50762h13.50039a21.90225,21.90225,0,0,0-8.3105-17.63652q-8.31258-6.89463-21.66535-6.8957-12.70264,0-20.86664,6.67795-8.16612,6.678-8.16606,16.33109a17.3563,17.3563,0,0,0,2.86791,10.01641,23.02127,23.02127,0,0,0,8.85437,7.25685,67.62238,67.62238,0,0,0,16.18554,5.22594q10.196,2.17749,14.29807,5.18984a9.889,9.889,0,0,1,4.1,8.455,9.47888,9.47888,0,0,1-4.60777,8.2383q-4.61,3.08567-12.23,3.08459-8.27436,0-13.31873-3.95557a13.89675,13.89675,0,0,1-5.40655-10.70575h-13.4292a22.47369,22.47369,0,0,0,4.10112,12.95547,27.13449,27.13449,0,0,0,11.359,9.326,39.55547,39.55547,0,0,0,16.69329,3.3395q13.42606,0,21.847-6.3508a20.09663,20.09663,0,0,0,8.4189-16.87492A18.47766,18.47766,0,0,0,608.27634,189.39a23.77319,23.77319,0,0,0-9.25483-7.51178ZM644.34815,160.285q5.62315-7.36624,15.85945-7.36731a17.951,17.951,0,0,1,12.80994,4.89986,18.50982,18.50982,0,0,1,5.76979,12.52H691.489q-.582-12.62832-9.326-20.53946-8.74707-7.91115-21.95533-7.91222a34.32675,34.32675,0,0,0-18.61689,4.936,32.0568,32.0568,0,0,0-12.08449,13.86151,47.27629,47.27629,0,0,0-4.21048,20.39607v2.2497q0,18.5808,9.47259,29.28656,9.47049,10.70682,25.51155,10.7047a32.9973,32.9973,0,0,0,15.134-3.62842,30.60461,30.60461,0,0,0,11.43016-9.72537,24.36037,24.36037,0,0,0,4.64492-12.84606H678.78733a15.32441,15.32441,0,0,1-5.95034,10.88633,19.34247,19.34247,0,0,1-12.55717,4.355q-10.38071,0-15.96784-7.33014-5.59027-7.33012-5.58814-20.90378v-2.54075q0-13.93478,5.62425-21.3021Zm122.045,7.07733q-.291-11.90281-7.98447-18.69019-7.69341-6.78523-21.26495-6.7863a38.09529,38.09529,0,0,0-15.714,3.19292,28.48445,28.48445,0,0,0-11.32286,8.6738,18.5289,18.5289,0,0,0-4.17437,11.359h13.50038q0-5.15163,4.86373-8.78215a19.58041,19.58041,0,0,1,12.04837-3.62949q8.20114,0,12.41059,4.17438t4.21049,11.21242V174.257H739.90126q-16.91212,0-26.23811,6.7863-9.32607,6.78738-9.326,19.0524a21.248,21.248,0,0,0,7.43957,16.65719q7.43853,6.56856,19.05131,6.56748a29.95678,29.95678,0,0,0,22.3558-9.72537q.72341,5.95351,1.88748,8.27441h14.0803v-1.162q-2.75966-6.38479-2.75848-17.201Zm-13.426,32.5156a19.76934,19.76934,0,0,1-8.20218,8.4911,23.60133,23.60133,0,0,1-11.97615,3.26729,16.17186,16.17186,0,0,1-10.81517-3.55833,12.22043,12.22043,0,0,1-4.20835-9.86982q0-14.44253,24.67666-14.44358h10.52415ZM823.151,141.88585q-14.58815,0-22.79022,10.16192l-.65324-8.70991H787.44148V252.06305h13.42816V214.24928q8.2,9.07318,22.4992,9.07105,14.00721,0,22.21025-10.95856,8.2-10.95858,8.20114-28.88717v-1.2332q-.0001-19.01524-8.23828-29.687-8.23839-10.66857-22.39087-10.66859Zm11.50348,62.81864a18.14958,18.14958,0,0,1-15.35072,7.65836q-12.40945,0-18.43419-10.74293V164.09506q6.09693-10.81411,18.28975-10.81517a18.23768,18.23768,0,0,1,15.53231,7.6934q5.66164,7.69446,5.66146,20.976,0,15.09789-5.69861,22.75411Zm67.10136-62.81864a31.3844,31.3844,0,0,0-17.38264,5.18983A34.80816,34.80816,0,0,0,871.88936,161.447a47.12918,47.12918,0,0,0-4.46436,20.86662v2.46745q.00009,17.56536,10.01639,28.0523,10.01633,10.48907,25.98423,10.487,19.7417,0,29.61157-15.168l-8.2-6.38691a30.257,30.257,0,0,1-8.6377,7.6934,23.38877,23.38877,0,0,1-12.04838,2.90295,21.331,21.331,0,0,1-16.51275-7.1485q-6.49524-7.14849-6.78523-18.76243h53.20161v-5.58921q0-18.79748-8.4932-28.88717-8.49-10.08863-23.80566-10.08863Zm18.87076,33.5321h-39.338q1.30641-10.66965,6.82238-16.58389a17.91266,17.91266,0,0,1,13.64484-5.91638q8.41779,0,13.35484,5.62534,4.93484,5.62638,5.51592,15.85842Z"/><path class="cls-9" d="M44.54476,184.84875V108.42229H6.25726V223.06923H120.95131V184.84875Z"/><path class="cls-10" d="M197.35514,31.937H6.28262V89.27219h38.2078V70.32407H159.14915V184.84875H140.06608v38.22048h57.28906Z"/><path class="cls-10" d="M58.63688,88.239c7.06861-.2039,14.14442-.28067,21.0979-1.75731,1.9899-.42258,3.9101-1.16849,5.86918-1.74255a11.21153,11.21153,0,0,1,4.89524-.31236A3.22256,3.22256,0,0,1,93.337,86.57308a3.57452,3.57452,0,0,0,3.13716,2.62637c1.11673.13693,1.4019.60737,1.38812,1.66153-.0518,3.9645-.02046,7.93006-.02684,11.89521-.001.643.15236,1.40043-.81487,1.51767-3.92162.47536-7.81659,1.35076-11.809.541a9.91586,9.91586,0,0,1-5.91117-3.33557c-.74317-.90189-1.21992-.97307-2.23594-.42713-2.68766,1.44416-5.484,1.80977-8.3053.24183a3.62748,3.62748,0,0,1-1.76453-1.54c-.79963-1.99179-2.22224-2.34771-4.19946-2.24189-2.34776.12566-4.32107-.726-4.9133-3.34684-.25815-1.14243-1.04729-.721-1.72282-.66671-3.41322.27456-6.12976-1.02706-7.40228-3.50866-.56663-1.105-.68931-1.80714.96049-1.76987C52.68912,88.28713,55.66355,88.239,58.63688,88.239Z"/><path class="cls-10" d="M153.91676,88.07667c2.53933.13266,1.39262,1.49162.87866,2.64a7.5999,7.5999,0,0,1-7.22794,2.7308c-.56389-.07162-1.31077-.34034-1.49093.48651-.78256,3.59149-3.65513,3.52608-6.35685,3.59269a2.10169,2.10169,0,0,0-2.15362,1.26315,6.58413,6.58413,0,0,1-4.46524,3.29027c-2.41528.65567-4.53739-.11715-6.63678-1.15368-.47231-.2332-.86184-.83118-1.45631-.01365-2.00355,2.75526-4.94074,3.79854-8.16619,4.25008a67.41957,67.41957,0,0,1-9.25335-.76778c-1.18715-.16993-1.55912-.63177-1.544-1.75764.05393-4.02244.0627-8.04566.05961-12.06856-.00061-.78459.22341-1.25669,1.07857-1.31093a3.499,3.499,0,0,0,3.22659-2.48189,3.65089,3.65089,0,0,1,3.70832-2.42969c1.11886.00694,2.23752.04317,3.35715.06637,2.2854.64144,4.45365,1.64772,6.80445,2.09006C134.08954,88.34888,144.00778,88.11437,153.91676,88.07667Z"/><path class="cls-10" d="M128.43948,114.88836c-.21948,3.63286-2.59755,5.83609-5.31771,7.679a32.2361,32.2361,0,0,1-15.80088,5.2,60.4037,60.4037,0,0,0-9.62806,1.13421c-1.49244.36764-3.22594.57674-3.5353,2.6085a4.17458,4.17458,0,0,0,2.35029,4.76318c.57383.29763,1.09211.70239,1.78831,1.15776-2.50569,1.10831-4.833,2.14432-7.16649,3.16612a2.5482,2.5482,0,0,1-2.28218-.1067,8.30245,8.30245,0,0,1-2.90554-13.01422c3.18684-3.97493,7.56886-5.88428,12.50417-6.48937,4.77568-.58552,9.6264-.48479,14.35371-1.56737a32.5235,32.5235,0,0,0,6.19059-2.02752,5.71317,5.71317,0,0,0,1.362-.79339,2.4593,2.4593,0,0,0,.56238-2.75187c-.27669-.9032-1.215-.47924-1.89376-.503a4.40793,4.40793,0,0,0-2.88728,1.1064,8.00155,8.00155,0,0,1-7.52376,1.09723c-2.01878-.594-2.49343-1.61145-1.82037-3.62609a6.52174,6.52174,0,0,1,4.877-4.4663,21.47248,21.47248,0,0,1,6.30766-.22256c.57744.08694,1.15473.19006,1.7361.25888C125.29489,108.15237,127.84134,110.30766,128.43948,114.88836Zm-18.51057-3.41688c1.01507.38393,1.73315.98249,2.695.43792.26572-.15044.41318-.46854.21841-.61272a2.53877,2.53877,0,0,0-2.55055-.19668C110.23718,111.12073,110.20087,111.18957,109.92891,111.47148Z"/><path class="cls-10" d="M96.71449,154.23966a5.80932,5.80932,0,0,0-3.2435,1.317c-1.3453,1.05638-2.323.64231-3.46962-.249-3.46772-2.69548-4.08428-4.98406-2.39754-9.29556,3.64636-3.89313,8.31445-5.93251,13.32077-7.37268a39.15493,39.15493,0,0,0,3.7542-1.232c4.58272-1.83715,5.409-3.7634,3.4964-8.318a27.03115,27.03115,0,0,0,8.65207-1.67522c.68743-.27435,1.06572.06094,1.4347.6468a7.837,7.837,0,0,1-1.78657,10.81715c-2.86395,2.35455-6.27238,3.59407-9.74229,4.70023a71.38072,71.38072,0,0,0-7.8898,2.57516c-3.65145,1.651-3.89444,3.90482-.703,6.26948.25433.18843.50318.38425.8952.68425Z"/><path class="cls-10" d="M99.2816,102.22847c0-5.0229-.011-10.04585.00958-15.06867a2.42191,2.42191,0,0,0-1.03788-2.34966c-3.44387-2.39727-4.17029-5.2967-2.15259-7.98994a7.22869,7.22869,0,0,1,9.90687-1.37625c3.21752,2.59331,3.1725,6.65537-.22791,9.04544A3.31471,3.31471,0,0,0,104.207,87.587c.03282,9.71586-.00992,19.432-.03722,29.148-.00694,2.46468-1.48513,3.44282-3.85816,2.61958-.92367-.32043-.6179-1.06985-.62073-1.66188-.02472-5.15475-.01427-10.30967-.01427-15.46453Z"/><path class="cls-10" d="M103.34679,159.634c-1.15822.452-2.31337.912-3.47537,1.35408-1.61882.61582-2.5837,1.59507-1.90187,3.45609a.80009.80009,0,0,1-.41845,1.13118c-1.26827.69351-2.48732,1.4958-3.805,2.07482-1.32.58-3.20138-1.18531-3.427-3.1713a7.06155,7.06155,0,0,1,3.18953-6.9683c1.28136-.896,2.69771-1.59892,4.05439-2.38862a38.18038,38.18038,0,0,0,8.25184-2.64682c1.1579-.53244,2.3718-1.31929,2.11394-2.77105-.2775-1.56226-1.70951-2.26119-3.05012-2.87581-.65247-.29912-.81217.17619-.85843.67443-.09752,1.05085-.22215,2.10444-.22449,3.15716a1.41084,1.41084,0,0,1-.9895,1.49088c-2.74247,1.16839-2.98264.91863-3.18859-2.02692-.15287-2.18618.62093-3.23726,2.69339-3.78952a77.80406,77.80406,0,0,0,8.89313-2.69336,2.25869,2.25869,0,0,1,2.52559.61107,7.25782,7.25782,0,0,1-.82027,11.73062C110.02793,157.96114,106.65214,158.72359,103.34679,159.634Z"/><path class="cls-10" d="M94.61684,120.02423c-3.28665,1.31176-6.39,2.4362-8.77949,4.81876-.30662.30572-.757.14718-1.123-.02817-3.16206-1.51467-6.312-3.02738-8.42472-6.03166a6.50487,6.50487,0,0,1,1.7459-9.50292c4.47938-2.74662,9.44474-2.75976,14.36432-1.7468a5.5405,5.5405,0,0,1,4.36649,5.26586,2.06626,2.06626,0,0,1-1.58926,2.40471c-2.51949.5845-5.063,1.10224-7.38307-.70556a5.66346,5.66346,0,0,0-3.27047-1.27092c-.80112-.0335-1.85186-.46528-2.16294.6976a2.2108,2.2108,0,0,0,.93742,2.61059,16.79275,16.79275,0,0,0,4.914,2.03478C90.23428,119.07,92.27464,119.49635,94.61684,120.02423Zm-1.06718-8.7419a2.79262,2.79262,0,0,0-2.84825-.05567c-.26.14739-.14719.48692.10231.63482C91.82783,112.46848,92.62072,111.94722,93.54966,111.28233Z"/><path class="cls-10" d="M109.24013,165.6283c-5.38673,2.67623-11.06949,4.62807-16.66352,6.79605-.50753.1967-1.15079.7899-1.59029.08785-.49878-.7967.46511-.96524.85566-1.25782a66.35169,66.35169,0,0,1,8.02008-4.708c1.46869-.80808,3.17884-1.35966,4.02487-3.02246.05943-.09491.19314-.233.16741-.27627-.14865-.25017-.27286-.06467-.39327.0537-1.48538.27994-2.43589,1.6831-4.03049,2.0188-.22686-1.79808.116-3.04844,2.04883-3.37759a6.12408,6.12408,0,0,0,2.5653-.82989,12.358,12.358,0,0,0,5.57545-1.78515c1.19124-.69865,1.41676-.1868,1.70492.79674a4.15989,4.15989,0,0,1-.92789,3.85531C110.17049,164.55319,109.44148,164.87431,109.24013,165.6283Z"/><path class="cls-10" d="M99.67013,133.54831c0-.26362-.00072-.52726.00011-.79088.00937-2.99224.577-3.44289,3.64317-3.109.71754.07812.89037.354.873.97859-.04023,1.44916-.00781,2.90207-.09983,4.34741-.05908.92766-3.1979,2.41121-4.05349,1.9759-.44512-.22647-.33645-.6616-.34654-1.02962-.02168-.79027-.00665-1.58154-.00665-2.3724Z"/><path class="cls-10" d="M99.59984,172.80669c-.72643-1.52587.68633-2.2494,2.45839-2.80193a27.49134,27.49134,0,0,0,2.56949-1.038,6.4602,6.4602,0,0,1,7.91691,2.23429c.18892.26554.47339.51455.20264.85912a.89833.89833,0,0,1-1.071.24714c-1.953-.5984-3.93834-1.10562-5.855-1.80244-1.19436-.43416-1.61183-.30786-1.69226,1.06553-.154,2.62883-.4943,5.24695-.77019,7.86816a9.51317,9.51317,0,0,1-.23306,1.15985,1.25022,1.25022,0,0,1-1.48257.99841c-.73624-.04707-.96332-.51442-1.04487-1.1938C100.32359,178.11481,100.002,175.83225,99.59984,172.80669Z"/></svg>