<svg id="Layer_1" data-name="Layer 1" xmlns="http://www.w3.org/2000/svg" xmlns:xlink="http://www.w3.org/1999/xlink" viewBox="0 0 908.44 247.44"><defs><style>.cls-1{fill:none;}.cls-2{fill:#009ade;}.cls-3{fill:#d2e4f4;}.cls-4{fill:#fed147;}.cls-5{clip-path:url(#clip-path);}.cls-6{fill:#43af5a;}.cls-7{fill:#003764;}.cls-8{fill:#fff;}</style><clipPath id="clip-path"><rect class="cls-1" x="27.538" y="111.007" width="182.30801" height="143.743"/></clipPath></defs><path class="cls-2" d="M253.405,165.623H890.997v64.601H253.405Z"/><path class="cls-3" d="M17.74814,22.995H210.92V215.09335H17.74814Z"/><g id="gPSyY2"><path class="cls-4" d="M159.13721,65.14491a22.10173,22.10173,0,0,1,22.34694,21.85376q.00336.30115-.00148.60233a22.40112,22.40112,0,0,1-44.80156-.11062,22.16909,22.16909,0,0,1,21.99015-22.34663q.233-.00187.46593.00114Z"/><g class="cls-5"><path class="cls-6" d="M12.841,132.75734V50.92341c0-10.35183,4.54529-14.49257,15.90852-14.49257H208.767c10.76516,0,15.19082,3.9228,15.31045,13.7298q.17948,82.21532,0,164.43064c0,9.916-4.90413,14.27464-15.90852,14.27464-60.04569.109-119.97178,0-180.01747,0-10.28671,0-15.31046-4.68556-15.31046-13.94773ZM118.57883,49.9427c-28.34827,0-56.69654.109-84.92519-.109-4.30606,0-6.21987.87173-6.21987,5.2304.11961,37.15762.11961,74.20628.11961,111.36389,0,1.63451-.83729,3.81384,1.43535,4.5766,1.91381.76276,3.10994-1.08968,4.42567-1.9614,17.58312-12.967,35.16621-25.82508,52.6297-38.90109,3.22956-2.39726,5.38258-2.39726,8.37291.43587,11.84169,11.11459,24.16182,21.90228,36.1231,32.90793,2.51188,2.39726,4.54531,2.39726,7.29641.43587,6.5787-4.79453,13.39663-9.26218,19.85574-14.16567,3.46877-2.6152,6.10027-2.50624,9.569-.109,11.96129,8.17248,24.04221,16.12706,36.24272,24.08163,1.43535.9807,2.8707,2.94209,4.90415,2.07034s1.31575-3.05105,1.31575-4.79452q0-57.8613.11961-115.61359c0-4.46764-1.43535-5.66627-6.21986-5.66627-28.34827.21793-56.69654.21793-85.0448.21793Z"/></g></g><path class="cls-2" d="M60.024,186.676V102.288H17.748v126.59H144.39V186.676Z"/><path class="cls-7" d="M228.753,17.835H17.776V81.143H59.964V60.221H186.567V186.676H165.496v42.202h63.257Z"/><path class="cls-7" d="M127.75435,84.24016c0-1.08425.00549-1.98208-.00382-2.87977-.00233-.22629.0504-.31636.33977-.37287.50774-.09917,1.02431-.15014,1.53267-.24483a3.20741,3.20741,0,0,0,2.63257-2.15769,6.63679,6.63679,0,0,1,1.14027-1.95552,4.14317,4.14317,0,0,1,2.96117-1.20021,15.03306,15.03306,0,0,1,7.07,1.17937,35.68114,35.68114,0,0,0,6.97,1.77239c1.79716.30433,3.60853.43749,5.4236.5862,1.4597.1196,2.92117.19922,4.38229.29323,1.5407.09915,3.08482.12344,4.623.21183,1.18625.06826,2.36919.0088,3.54974.07667,3.50394.20144,7.012.01043,10.51519.11328.90756.02661,1.81668.07157,2.72584.07385.31635.0008.3662.10635.30094.35561A6.637,6.637,0,0,1,179.91,83.53562a7.7469,7.7469,0,0,1-4.15182,1.89629,17.56608,17.56608,0,0,1-3.6154-.11345c-.59276-.04277-.67356-.01161-.72971.54513a4.01609,4.01609,0,0,1-3.00526,3.59806,11.43487,11.43487,0,0,1-4.86731.37583c-.47013-.04316-.71981.02066-.91857.48434a7.07171,7.07171,0,0,1-4.24875,4.17946,8.32961,8.32961,0,0,1-2.88394.68306,9.7477,9.7477,0,0,1-2.99377-.51953,12.22862,12.22862,0,0,1-3.28443-1.60782c-.21591-.15494-.37263-.22045-.50256.07133a7.3205,7.3205,0,0,1-2.52458,2.64447,11.1584,11.1584,0,0,1-4.78147,2.10028,15.95808,15.95808,0,0,1-4.2364.30835c-1.42143-.11127-2.84883-.191-4.26913-.32853-1.59459-.15438-3.16295-.45738-4.74085-.70484-.253-.03968-.40309-.13794-.41614-.44558-.12945-3.04689-.14578-6.09568-.06858-9.14158C127.70114,86.39267,127.71718,85.22262,127.75435,84.24016ZM97.53718,92.87053a13.4147,13.4147,0,0,1-3.64492,1.80311,8.06567,8.06567,0,0,1-5.79353-.14523A7.03014,7.03014,0,0,1,83.86654,90.272c-.15707-.43187-.434-.5013-.85251-.43995a13.1774,13.1774,0,0,1-4.27671-.12344,4.16824,4.16824,0,0,1-3.64184-3.76647c-.07055-.62512-.23512-.68731-.94011-.60584a9.66012,9.66012,0,0,1-5.8417-.60657,6.86124,6.86124,0,0,1-3.7454-4.70687c-.06939-.32274.18715-.27333.40394-.28326,2.69864-.12345,5.39949-.09432,8.09989-.09687,1.04191-.001,2.08657.04247,3.12516-.01,1.60309-.081,3.20833-.03682,4.8086-.1029,1.5417-.06367,3.08487-.11178,4.62559-.18969,1.89556-.09585,3.78884-.23894,5.68048-.3882a63.99112,63.99112,0,0,0,7.56133-1.07419,30.07486,30.07486,0,0,0,4.50525-1.40527,18.35474,18.35474,0,0,1,3.92283-1.0065,10.10851,10.10851,0,0,1,4.177.20706,3.67107,3.67107,0,0,1,2.459,2.38881,3.69622,3.69622,0,0,0,2.15168,2.45375,7.99268,7.99268,0,0,0,1.92653.40584c.36466.03629.75789-.01476.75489.553q-.04025,7.58778-.00617,15.1761a.44669.44669,0,0,1-.45768.51116c-1.97239.26574-3.9231.64393-5.91629.80788-1.46.12013-2.92154.27754-4.38263.262a13.48184,13.48184,0,0,1-7.28456-2.072A9.30488,9.30488,0,0,1,97.53718,92.87053Zm54.4741,14.75392a6.93788,6.93788,0,0,0-4.28966-5.45836,17.60423,17.60423,0,0,0-4.89527-1.40059c-1.59146-.23808-3.19038-.31124-4.78576-.44536a13.55041,13.55041,0,0,0-3.83007.28147,7.45052,7.45052,0,0,0-4.42912,2.61279,6.24085,6.24085,0,0,0-1.48765,4.35179,1.77268,1.77268,0,0,0,.8921,1.46135,8.671,8.671,0,0,0,4.52774,1.03124,8.1188,8.1188,0,0,0,4.9984-1.648,5.96576,5.96576,0,0,1,1.79-1.14006,8.99756,8.99756,0,0,1,2.80988-.1999c.79112.03682.78944.06463.78944.75812a11.07034,11.07034,0,0,0,.00588,1.12583,2.11989,2.11989,0,0,1-1.417,2.20713,30.62074,30.62074,0,0,1-5.636,2.149,72.64929,72.64929,0,0,1-10.33219,1.70028c-1.50555.1454-3.013.04738-4.52.15721-1.09836.08021-2.193.1454-3.279.317a24.3586,24.3586,0,0,0-8.0858,2.80433,17.3167,17.3167,0,0,0-4.81926,3.919,9.17268,9.17268,0,0,0-1.83992,3.12966,12.42256,12.42256,0,0,0-.48155,4.98235,7.09021,7.09021,0,0,0,2.74173,4.66236c.62468.55412,1.35807,1.00913,2.02075,1.53072a3.00332,3.00332,0,0,0,3.45349.26135,13.01445,13.01445,0,0,1,1.87009-.94414c1.81764-.87836,3.78383-1.47729,5.62243-2.38225-1.03258-.65181-2.10916-1.228-3.10776-1.90609a3.72342,3.72342,0,0,1-1.464-1.99179,7.46241,7.46241,0,0,1-.12237-2.715,1.99327,1.99327,0,0,1,.98165-1.59832,6.92889,6.92889,0,0,1,1.86757-.84437,39.98454,39.98454,0,0,1,8.01893-1.25542c1.17353-.06949,2.34842-.14163,3.52265-.19321a41.86146,41.86146,0,0,0,5.10806-.75414,35.54074,35.54074,0,0,0,7.52563-2.41271,26.19052,26.19052,0,0,0,6.29555-3.76207A14.1355,14.1355,0,0,0,151.217,112.26a4.07479,4.07479,0,0,0,.66387-1.3619,9.761,9.761,0,0,0,.1304-3.27365Z"/><path class="cls-7" d="M129.60878,124.299a24.59256,24.59256,0,0,0,4.0993-.27484,29.12433,29.12433,0,0,0,5.22293-1.28425c.48461-.16114,1.021-.51642,1.44088-.42869.45918.096.54011.73963.76617,1.15145a10.10657,10.10657,0,0,1,1.4106,5.73275,7.71715,7.71715,0,0,1-1.838,4.24516,13.73509,13.73509,0,0,1-3.55694,3.00755,34.06564,34.06564,0,0,1-7.69274,3.41732c-2.48318.77856-4.9967,1.48-7.47931,2.25993a19.09807,19.09807,0,0,0-4.08931,1.91577,2.5685,2.5685,0,0,0-1.09886,2.07361,3.34064,3.34064,0,0,0,1.6929,3.30914c.60931.42114,1.22118.83891,1.88985,1.24544a2.25714,2.25714,0,0,1-.94542.30373,20.56684,20.56684,0,0,0-6.86654,3.19825.41115.41115,0,0,1-.54865.03218,13.31566,13.31566,0,0,1-4.99036-4.86375,5.92009,5.92009,0,0,1-.47834-3.54231,8.21272,8.21272,0,0,1,2.49472-4.39652,15.11079,15.11079,0,0,1,2.80655-2.19459,38.63724,38.63724,0,0,1,11.40913-4.72989,16.98758,16.98758,0,0,0,6.25777-2.90369,4.1459,4.1459,0,0,0,1.68362-4.20209,6.28184,6.28184,0,0,0-1.59-3.07164Zm-6.624-10.57633c-.62154-.00014-1.24373-.015-1.8644.006-.322.011-.43164-.09484-.38824-.36415a.51634.51634,0,0,0,.00047-.09781c-.18752-5.73886.12051-11.48735-.1646-17.21657-.317-6.36941-.20027-12.73375-.26417-19.10034-.00344-.34186-.24921-.421-.48342-.551a8.41866,8.41866,0,0,1-3.69687-3.49626,2.65484,2.65484,0,0,1-.33158-1.255,7.558,7.558,0,0,1,.11217-2.58639,6.8584,6.8584,0,0,1,2.23025-3.19951,6.98618,6.98618,0,0,1,3.11336-1.43492,7.4433,7.4433,0,0,1,6.49789,1.35353,6.46657,6.46657,0,0,1,2.50784,5.26,5.80088,5.80088,0,0,1-1.53042,3.47555,6.4701,6.4701,0,0,1-2.1249,1.68942,1.4841,1.4841,0,0,0-.815,1.56816c-.028,1.25612-.00841,2.5131-.00822,3.76973.00047,5.255.09861,10.51187-.02706,15.76448-.11667,4.87606-.01248,9.75032-.08537,14.62487a5.79762,5.79762,0,0,1-.356,1.5542c-.06309.21068-.23317.24469-.45708.24031-.62132-.01213-1.24307-.00417-1.86465-.0043Z"/><path class="cls-7" d="M120.732,146.98813c.00077-.70174.01183-1.40366-.0048-2.10508a.57084.57084,0,0,1,.3569-.57858,25.61242,25.61242,0,0,1,6.3698-2.15835,51.16216,51.16216,0,0,0,6.09272-2.01471,1.92677,1.92677,0,0,1,2.06922.33215,10.24591,10.24591,0,0,1,2.88411,3.92265,6.02918,6.02918,0,0,1,.43011,3.09815,8.12026,8.12026,0,0,1-1.09417,3.49545,9.66416,9.66416,0,0,1-4.259,3.77623,56.53014,56.53014,0,0,1-8.947,3.0267,22.92259,22.92259,0,0,0-5.1957,2.16513,1.68727,1.68727,0,0,0-.8543,1.95452c.15875.55848.324,1.11613.51378,1.66665.06639.19271.10317.28965-.14912.41184a51.18729,51.18729,0,0,0-4.78742,2.66473,1.27775,1.27775,0,0,1-1.64869-.3045,6.013,6.013,0,0,1-2.00109-3.43912,7.73168,7.73168,0,0,1,1.68835-5.79327,10.32318,10.32318,0,0,1,3.21241-2.62757,27.55966,27.55966,0,0,1,5.38962-2.26429c1.64046-.60953,3.39868-.91526,5.02625-1.56148a11.93425,11.93425,0,0,0,2.82765-1.46764,3.48676,3.48676,0,0,0,1.24315-1.9344c.13168-.51422-.303-.99429-.59923-1.45a7.28057,7.28057,0,0,0-3.359-2.32516c-.38353-.17609-.34621.1526-.36579.281a15.34657,15.34657,0,0,0-.22279,1.96964,27.42972,27.42972,0,0,0-.117,3.06535c.02438.27074-.09072.39584-.36611.49776a27.05416,27.05416,0,0,1-3.74393,1.03969c-.311.06657-.25512-.11521-.2815-.2755a21.03652,21.03652,0,0,1-.10744-3.068Zm-4.98961-32.53606c-.80593.24251-1.49314.41794-2.15344.65363a24.48377,24.48377,0,0,0-6.3743,3.27143,11.41187,11.41187,0,0,0-1.59485,1.44348.45186.45186,0,0,1-.62546.10511,39.49164,39.49164,0,0,1-6.61834-3.58925,14.86579,14.86579,0,0,1-2.86769-2.87871,6.40256,6.40256,0,0,1-1.47611-2.7485,7.85146,7.85146,0,0,1,.80272-5.84005,8.14884,8.14884,0,0,1,3.05516-2.6865,15.47255,15.47255,0,0,1,6.31984-1.78289c1.88642-.16871,3.775-.19478,5.66726-.1913a8.40569,8.40569,0,0,1,4.47467,1.20269,6.396,6.396,0,0,1,3.28138,5.41694c.06816,1.46763-.803,2.17251-2.30706,2.58139a15.09,15.09,0,0,1-4.76313.26695,4.88239,4.88239,0,0,1-2.23434-.88752,11.18984,11.18984,0,0,0-2.88959-1.64685,9.30284,9.30284,0,0,0-3.39232-.07875c-.13935.0128-.17189.07713-.19052.188a3.90226,3.90226,0,0,0,.20179,2.607c.40686.76677,1.26019,1.02236,1.97991,1.40455a29.21513,29.21513,0,0,0,7.8972,2.45978c1.21876.25165,2.44629.46976,3.80723.72939Z"/><path class="cls-7" d="M125.74792,160.98628c-1.57269,1.21086-3.3219,2.04646-5.03834,3.161a26.85938,26.85938,0,0,1,.11275-3.015c.053-.24657.1849-.31331.39552-.37537,1.83632-.54088,3.7-.99854,5.55543-1.48261a24.86333,24.86333,0,0,0,4.93636-1.75909,7.39906,7.39906,0,0,0,1.04018-.68567c.23951-.17657.35133-.13689.49163.10149a5.72883,5.72883,0,0,1,.53988,1.70666,4.17234,4.17234,0,0,1-.92635,3.611,10.05154,10.05154,0,0,1-3.08954,2.62019,58.18131,58.18131,0,0,1-7.64033,3.32688c-1.90625.70141-3.8303,1.36586-5.69324,2.1591-1.52118.6477-3.08847,1.20038-4.63736,1.79112-.4107.15662-.40968-.18381-.5706-.28047-.53029-.318-.51947-.42712-.01068-.79433q1.13214-.81708,2.29428-1.601c2.57843-1.74744,5.465-3.05834,8.19828-4.58631a24.4532,24.4532,0,0,0,2.881-1.76553,2.47311,2.47311,0,0,0,1.16112-2.132Zm.04351,7.93626c-.15157,1.21085-.25446,2.41489-.36074,3.62012-.16163,1.8327-.26213,3.67015-.52121,5.49707-.15162,1.06925-.2702,2.14246-.448,3.20929-.02146.12878-.00052.22742-.20934.27483a7.63361,7.63361,0,0,1-2.11565.068c-.33958-.018-.27635-.40143-.29815-.62939-.14156-1.478-.47418-2.93464-.57552-4.41829-.12637-1.8505-.58137-3.6744-.54613-5.54233a1.27562,1.27562,0,0,1,.85553-1.22791c1.68729-.78846,3.48987-1.3504,5.19277-2.10875.62546-.27852,1.25336-.54806,1.90863-.77769a1.73642,1.73642,0,0,1,1.46667.13235,20.466,20.466,0,0,1,2.7789,1.742c.898.64036,1.67456,1.39831,2.49819,2.1107.18695.16167.15387.20377-.025.3709a1.26921,1.26921,0,0,1-1.30392.34565,43.66022,43.66022,0,0,1-8.12273-2.6143c-.04863-.01979-.10193-.03079-.17433-.05225Zm-5.05886-35.71586c0-2.05786.015-4.08068-.01-6.10308a14.596,14.596,0,0,0,.119-1.59673c-.03518-.28831.25878-.26854.40186-.28941a16.389,16.389,0,0,1,2.03908-.23118,8.89366,8.89366,0,0,0,1.95991-.08635c.26181-.06365.435.00217.43012.31714-.01882,1.224.0657,2.453-.03307,3.67086-.06735.83041-.06764,1.65665-.07376,2.48444-.00206.27707-.13025.3789-.37969.4957a20.52182,20.52182,0,0,1-4.45344,1.3386Z"/><path class="cls-8" d="M131.99918,105.02172c.0809-.11777.13938-.30875.25175-.33874a3.35442,3.35442,0,0,1,3.01207.19938c.31956.23432.01279.49565-.26154.68214-.70515.47931-1.51141.33923-3.00227-.54278Zm-17.96695,0c-.08091-.11777-.13936-.30875-.25172-.33874a3.35441,3.35441,0,0,0-3.01193.19938c-.31959.23432-.01279.49565.26154.68214C111.73513,106.04381,112.54139,105.90373,114.03223,105.02172Z"/><path class="cls-2" d="M268.53033,126.80977h10.10389c14.60556,0,19.78875-9.95637,19.78875-18.48208s-5.18319-18.482-19.78875-18.482H253.40536v55.53915h15.125Zm0-24.38154h6.98581c6.01425,0,8.14658,1.54365,8.14658,5.89946,0,4.3521-2.13236,5.89583-8.14658,5.89583h-6.98571Zm74.49692,21.50015c0,7.10053-2.156,9.37867-8.872,9.37867-7.32831,0-8.8009-3.58855-8.8009-9.37867V89.84565h-15.125v34.08272c0,14.63294,8.49655,22.69028,23.9259,22.69028,15.47309,0,23.99515-8.05734,23.99515-22.69027V89.84565h-15.1232Zm66.72388-8.90478a12.90263,12.90263,0,0,0,4.86062-10.47029c0-9.75955-6.1929-14.70765-18.40734-14.70765h-26.246v55.53913H396.928c12.24179,0,20.15149-6.62846,20.15149-16.88558A14.592,14.592,0,0,0,409.75113,115.0236Zm-7.79486,12.8214c0,2.45127-.7782,4.9554-6.55191,4.9554H385.08371V122.31182h10.53958C401.23639,122.31182,401.95627,125.26793,401.95627,127.845Zm-16.87256-17.02953v-8.38723h8.79544c4.95721,0,5.97235,1.633,5.97235,4.08424,0,1.06432,0,4.30293-5.09756,4.30293ZM469.263,132.076H444.012V89.846H428.888v55.54h40.375v-13.31Zm11.805-42.23h15.125v55.539H481.068Zm64.37631,31.85165-.20776,1.62931a9.98442,9.98442,0,0,1-9.90167,9.98006c-11.33057,0-12.21082-11.84449-12.21082-15.47494,0-3.7325.88025-15.9105,12.21082-15.9105a9.37731,9.37731,0,0,1,9.46979,7.46318l.226,1.60564H559.773l-.23883-2.07949c-1.39594-12.14156-11.121-20.29911-24.19928-20.29911-16.34973,0-27.334,11.74244-27.334,29.22028,0,16.94926,11.23938,28.78654,27.334,28.78654a23.68988,23.68988,0,0,0,24.63367-22.70692v-.00008q.00366-.09.00665-.18013l.18225-2.03392ZM618.167,110.91h-17.27V90.993H585.743v55.644h15.154V124.246h17.27v22.391h15.154V90.993H618.167Zm41.011,13.411h25.149V111.712H659.178V104.33h27.404V90.993H644.024v55.644H687.16V133.305H659.178ZM712.54,90.99257l-21.12152,55.646h15.59436l4.07214-11.55867h16.7464l3.92773,11.55868h15.88434l-20.81128-55.646Zm11.031,31.84024H715.3887l4.15784-11.71572ZM768.198,90.993H753.044v55.644h40.45V133.305H768.198Zm21.276,13.337h15.553v42.307h15.154V104.33h15.557V90.993H789.474Zm86.37,6.58H858.573V90.993H843.419v55.644h15.154V124.246h17.271v22.391h15.154V90.993H875.844Z"/><path class="cls-8" d="M426.678,215.4114H403.39285V180.55594h8.86475V208.262H426.678Zm29.72754-7.65722H445.00516L442.783,215.4114H433.7493l11.71484-34.85546h10.84473l11.71582,34.85546h-9.4209Zm-9.68555-6.377h7.94727l-3.86475-13.42968h-.19336Zm29.582,14.03418V180.55594h7.07715l14.7832,20.26562h.19336V180.55594H506.761V215.4114h-7.00489l-14.85547-20.459h-.19238v20.459Zm54.82425-34.85546c10.53223,0,16.71582,6.11132,16.71582,17.22265,0,11.13477-6.208,17.63281-16.71582,17.63281H516.972V180.55594ZM525.83719,208.262h4.12988c5.77344,0,8.86523-3.50293,8.86523-10.459,0-6.5459-3.26074-10.09668-8.86523-10.09668h-4.12988Zm38.35058-3.11623c.41016,2.48829,3.0918,3.9375,6.49707,3.9375,3.45508,0,5.70118-1.54589,5.70118-3.67187,0-1.93262-1.49805-2.92287-5.62793-3.71973l-3.5752-.67676c-6.95605-1.30371-10.55566-4.71-10.55566-10.02343,0-6.71582,5.82129-11.03907,13.84082-11.03907,8.76758,0,13.9375,4.29981,14.03418,10.94239h-8.23731c-.14453-2.5127-2.51172-4.00977-5.72461-4.00977s-5.12109,1.44922-5.12109,3.502c0,1.83593,1.59473,2.85058,5.38672,3.57519l3.57519.67578c7.43946,1.42578,10.82129,4.44531,10.82129,9.92774,0,7.00488-5.4834,11.44921-14.68652,11.44921-8.69531,0-14.44434-4.00976-14.56445-10.86914ZM593.264,197.972c0-11.377,6.5459-18.01953,16.93164-18.01953,8.81738,0,15.50781,5.67675,15.77343,13.91308h-8.52636c-.43457-4.10644-3.35742-6.81152-7.24707-6.81152-4.83008,0-7.89844,4.12988-7.89844,10.89355,0,6.83594,3.04395,10.96582,7.92285,10.96582,3.88867,0,6.71485-2.55957,7.27051-6.6416h8.52637c-.41016,8.28418-6.835,13.74317-15.82129,13.74317C599.761,216.01492,593.264,209.37234,593.264,197.972Zm60.74115,9.78218H642.60477l-2.22266,7.65722h-9.03418l11.71484-34.85546h10.84571l11.71484,34.85546H656.2034Zm-9.68555-6.377h7.94629l-3.86426-13.42968h-.19336Zm44.67969-20.82128c7.48828,0,12.56054,4.85546,12.56054,12.34375,0,7.43945-5.33789,12.29394-13.09179,12.29394h-5.7002V215.4114h-8.86523V180.55594Zm-6.23145,17.97168h3.83985c3.76855,0,5.99023-1.957,5.99023-5.6045,0-3.623-2.22168-5.5791-5.94141-5.5791h-3.88867Zm51.5625,16.88378H710.44168V180.55594h23.88867v7.15039H719.30691V194.638H733.4368v6.52246H719.30691V208.262h15.02344Z"/><path class="cls-7" d="M253.40536,21.135H268.176V56.78512h21.21543V69.0714H253.40536Zm45.64957,0h14.77069V69.0714H299.05493Zm25.77994,0h15.10528L353.905,46.78154h.13476V21.135h13.96393V69.0714H353.63638L338.93353,42.88764h-.13476V69.0714H324.83484Zm97.74664,29.40659c0,13.36026-7.04889,19.67117-21.81958,19.67117-14.76977,0-21.88647-6.31091-21.88647-19.67117V21.135h14.76977V47.25183c0,4.83357-.06692,11.01063,7.18366,11.01063,6.98288,0,6.98288-6.17706,6.98288-11.01063V21.135h14.76974ZM446.076,43.55916,430.29871,21.135h17.32107l7.25058,13.02472L461.98709,21.135H478.3685L462.9946,43.69347,480.114,69.0714H462.32263L454.13238,54.771l-8.45977,14.3004H428.754Zm52.56445-21.44292h29.6478v3.79625h-25.1984V42.79856h22.3834V46.5948h-22.3834V68.84711h-4.44937Zm54.719-.98124c14.66058,0,21.9909,11.519,21.9909,24.34668,0,12.82842-7.33032,24.34746-21.9909,24.34746-14.72657,0-22.05683-11.519-22.05683-24.34746C531.30264,32.654,538.633,21.135,553.35947,21.135Zm0,44.8979c12.304,0,17.54-10.34077,17.54-20.55122,0-10.20967-5.2359-20.55122-17.54-20.55122-12.37,0-17.6059,10.34155-17.6059,20.55122C535.75357,55.69213,540.98947,66.0329,553.35947,66.0329Zm28.47967-43.91666h4.44934V51.045c0,10.7992,5.03967,14.98795,13.67938,14.98795,8.70563,0,13.74372-4.18875,13.74372-14.98795V22.11624h4.45093V52.027c0,9.62092-5.17,17.80216-18.19465,17.80216-12.89276,0-18.12872-8.18124-18.12872-17.80216Zm45.23151,0h4.97375L659.27121,61.6479h.13031V22.11624h4.45093V68.84711h-4.97376l-27.2268-39.53166h-.13032V68.84711h-4.45092Zm46.15,0h16.16467c14.13782.32735,21.46808,7.91984,21.46808,23.36544,0,15.44638-7.33032,23.03809-21.46808,23.36543H673.22061ZM677.67,65.05087h9.4906c13.41718,0,19.24182-5.56328,19.24182-19.56919s-5.8247-19.56919-19.24182-19.56919H677.67Zm54.069-42.93463h4.97376l18.32654,46.73087h-4.77747l-5.6944-14.52951H723.29721l-5.63,14.52951h-4.77746Zm-7.06811,28.40512H743.0618l-9.03217-23.95418Zm25.13873-28.40512h37.044v3.79625H770.5571V68.84711h-4.45093V25.91249H749.80966Zm41.76184,0h4.45093V68.84711H791.5715Zm33.77216-.98124c14.66058,0,21.9909,11.519,21.9909,24.34668,0,12.82842-7.33032,24.34746-21.9909,24.34746-14.72657,0-22.05683-11.519-22.05683-24.34746C803.28683,32.654,810.61716,21.135,825.34366,21.135Zm0,44.8979c12.304,0,17.54-10.34077,17.54-20.55122,0-10.20967-5.23591-20.55122-17.54-20.55122-12.37,0-17.6059,10.34155-17.6059,20.55122C807.73776,55.69213,812.97366,66.0329,825.34366,66.0329Zm28.87219-43.91666h4.97375L886.41641,61.6479h.13031V22.11624h4.45093V68.84711h-4.97376L858.797,29.31545h-.13031V68.8471h-4.45093Z"/></svg>