<svg id="Layer_1" data-name="Layer 1" xmlns="http://www.w3.org/2000/svg" viewBox="0 0 360 360"><defs><style>.cls-1{fill:#009ade;}.cls-2{fill:#003764;}.cls-3{fill:#fff;}</style></defs><polygon class="cls-1" points="76.587 282.812 76.587 144.873 7.481 144.873 7.481 351.797 214.49 351.797 214.49 282.812 76.587 282.812"/><polygon class="cls-2" points="352.39 6.827 7.527 6.827 7.527 110.309 76.488 110.309 76.488 76.11 283.433 76.11 283.433 282.812 248.99 282.812 248.99 351.797 352.39 351.797 352.39 6.827"/><path class="cls-2" d="M187.298,115.37153c0-1.77229.009-3.23989-.00622-4.70726-.00381-.36988.08239-.5171.55536-.60939.83-.16211,1.67433-.24541,2.50529-.4002a5.24288,5.24288,0,0,0,4.30317-3.527,10.84782,10.84782,0,0,1,1.86389-3.19657,6.77241,6.77241,0,0,1,4.84033-1.96185,24.57289,24.57289,0,0,1,11.55665,1.9278,58.32331,58.32331,0,0,0,11.39316,2.89713c2.93766.49746,5.8985.71513,8.86541.95822,2.386.19549,4.77493.3256,7.1633.47931,2.51838.162,5.04235.20178,7.55669.34625,1.939.11156,3.87269.01439,5.80243.1254,5.72751.32927,11.46189.017,17.18808.18515,1.48348.04352,2.96952.117,4.45565.12072.5171.0013.59861.17379.49192.58128a10.84857,10.84857,0,0,1-3.28154,5.62942,12.66311,12.66311,0,0,1-6.78656,3.09977,28.7142,28.7142,0,0,1-5.90972-.18546c-.96892-.06992-1.101-.019-1.19275.891a6.56475,6.56475,0,0,1-4.91243,5.88139,18.6912,18.6912,0,0,1-7.95608.61432c-.76848-.07056-1.17659.03377-1.50149.79171a11.55924,11.55924,0,0,1-6.945,6.83172,13.61534,13.61534,0,0,1-4.71406,1.11654,15.93384,15.93384,0,0,1-4.89361-.84919,19.98848,19.98848,0,0,1-5.36873-2.62812c-.353-.25326-.60913-.36037-.8215.1166a11.96635,11.96635,0,0,1-4.12668,4.32255,18.23985,18.23985,0,0,1-7.81578,3.4331,26.08625,26.08625,0,0,1-6.92484.504c-2.32348-.1819-4.65668-.31223-6.97833-.537-2.60651-.25236-5.17015-.74762-7.74936-1.15213-.4136-.06485-.65889-.22548-.68022-.72834-.21162-4.98046-.23828-9.964-.11221-14.9428C187.211,118.89006,187.23721,116.97749,187.298,115.37153Z"/><path class="cls-2" d="M137.90506,129.47875a21.92836,21.92836,0,0,1-5.958,2.94736,13.18412,13.18412,0,0,1-9.47007-.2374,11.49146,11.49146,0,0,1-6.91793-6.95761c-.25676-.70591-.70943-.81941-1.39351-.71911a21.53951,21.53951,0,0,1-6.9907-.20178,6.81336,6.81336,0,0,1-5.953-6.15665c-.11532-1.02185-.38431-1.12349-1.53669-.99032a15.79021,15.79021,0,0,1-9.54884-.99149,11.2153,11.2153,0,0,1-6.12221-7.69383c-.11345-.52756.30591-.4468.66028-.463,4.41118-.20178,8.826-.15418,13.24-.1584,1.70312-.0016,3.4107.06942,5.10835-.01641,2.62042-.13247,5.24434-.06017,7.86013-.16819,2.52006-.10408,5.04253-.18273,7.561-.31007,3.0985-.15668,6.19326-.39058,9.28531-.63456a104.59818,104.59818,0,0,0,12.35972-1.75587,49.15776,49.15776,0,0,0,7.36426-2.297,30.00414,30.00414,0,0,1,6.41224-1.64517,16.52371,16.52371,0,0,1,6.82779.33847,6.00072,6.00072,0,0,1,4.01937,3.90474,6.04183,6.04183,0,0,0,3.51713,4.0109,13.06476,13.06476,0,0,0,3.1491.66338c.59607.0594,1.23884-.0242,1.234.90391q-.06579,12.403-.0101,24.80679a.73012.73012,0,0,1-.74812.83555c-3.22407.43439-6.4127,1.05256-9.67077,1.32056-2.38648.19636-4.77555.45365-7.16382.42827a22.03718,22.03718,0,0,1-11.90732-3.38683A15.2104,15.2104,0,0,1,137.90506,129.47875Z"/><path class="cls-2" d="M226.94829,153.59543a11.34059,11.34059,0,0,0-7.01187-8.92221,28.77538,28.77538,0,0,0-8.00177-2.2894c-2.60141-.38918-5.215-.50877-7.82282-.728a22.15052,22.15052,0,0,0-6.2606.46006,12.17874,12.17874,0,0,0-7.23981,4.27077,10.20132,10.20132,0,0,0-2.43173,7.11342,2.89767,2.89767,0,0,0,1.45821,2.38872,14.174,14.174,0,0,0,7.401,1.68567,13.27091,13.27091,0,0,0,8.17035-2.69392,9.75285,9.75285,0,0,1,2.926-1.86353,14.70743,14.70743,0,0,1,4.593-.32675c1.29316.06018,1.29043.1056,1.29043,1.23924a18.10231,18.10231,0,0,0,.00958,1.84025,3.46514,3.46514,0,0,1-2.31621,3.60777,50.05414,50.05414,0,0,1-9.2126,3.5128,118.7574,118.7574,0,0,1-16.889,2.77928c-2.461.2376-4.925.07744-7.38846.25695-1.79539.13112-3.58474.2376-5.35985.51809a39.81613,39.81613,0,0,0-13.217,4.584,28.30635,28.30635,0,0,0-7.87756,6.4059,14.99456,14.99456,0,0,0-3.00755,5.11575,20.30715,20.30715,0,0,0-.78713,8.14413,11.58951,11.58951,0,0,0,4.48162,7.62108c1.02112.90578,2.21988,1.6495,3.30311,2.5021a4.90924,4.90924,0,0,0,5.64515.4272,21.27523,21.27523,0,0,1,3.05683-1.54328c2.97111-1.43575,6.185-2.41478,9.19041-3.894-1.68786-1.06547-3.44764-2.00721-5.07993-3.11569a6.08639,6.08639,0,0,1-2.39314-3.25575,12.19822,12.19822,0,0,1-.2-4.43786,3.25817,3.25817,0,0,1,1.6046-2.61261,11.32611,11.32611,0,0,1,3.05272-1.38021,65.35825,65.35825,0,0,1,13.10772-2.05212c1.91825-.11358,3.83872-.23151,5.75809-.3158a68.42566,68.42566,0,0,0,8.34965-1.23274A58.0937,58.0937,0,0,0,210.1512,173.461a42.81025,42.81025,0,0,0,10.29067-6.14948,23.10614,23.10614,0,0,0,5.20805-6.13879,6.66126,6.66126,0,0,0,1.08514-2.22616A15.955,15.955,0,0,0,226.94829,153.59543Z"/><path class="cls-2" d="M190.32924,180.85156a40.19789,40.19789,0,0,0,6.70071-.44926,47.60666,47.60666,0,0,0,8.5374-2.09924c.79209-.26338,1.66888-.84412,2.35523-.70072.75057.15692.88288,1.209,1.25241,1.88215a16.52031,16.52031,0,0,1,2.30576,9.37071,12.61451,12.61451,0,0,1-3.00435,6.93914,22.45158,22.45158,0,0,1-5.81415,4.91614,55.68447,55.68447,0,0,1-12.57453,5.58605c-4.059,1.27262-8.1676,2.41932-12.22566,3.69407a31.2186,31.2186,0,0,0-6.68438,3.13153,4.19842,4.19842,0,0,0-1.79619,3.38953,5.46048,5.46048,0,0,0,2.76723,5.40911c.99595.6884,1.99613,1.37126,3.08914,2.03578a3.68977,3.68977,0,0,1-1.54541.49648,33.61862,33.61862,0,0,0-11.224,5.22786.67209.67209,0,0,1-.89683.0526,21.76583,21.76583,0,0,1-8.15722-7.95028,9.677,9.677,0,0,1-.78189-5.79034,13.42446,13.42446,0,0,1,4.07786-7.18653,24.69959,24.69959,0,0,1,4.58758-3.58727,63.15692,63.15692,0,0,1,18.64935-7.73149,27.767,27.767,0,0,0,10.2289-4.74634,6.77684,6.77684,0,0,0,2.75217-6.86871A10.2685,10.2685,0,0,0,190.32924,180.85156Z"/><path class="cls-2" d="M179.50169,163.56357c-1.016-.00022-2.033-.02457-3.04754.00977-.52633.018-.70556-.155-.63463-.59523a.84231.84231,0,0,0,.00077-.15989c-.30651-9.38072.197-18.77719-.269-28.14215-.51814-10.41145-.32737-20.81456-.43182-31.22139-.00561-.5588-.40733-.68813-.79018-.90058a13.761,13.761,0,0,1-6.0429-5.715,4.33934,4.33934,0,0,1-.542-2.05141,12.354,12.354,0,0,1,.18339-4.22773,11.21042,11.21042,0,0,1,3.64557-5.22988,11.41937,11.41937,0,0,1,5.08908-2.34552,12.16675,12.16675,0,0,1,10.62151,2.2125,10.57018,10.57018,0,0,1,4.09932,8.59792,9.48211,9.48211,0,0,1-2.50162,5.68114,10.57623,10.57623,0,0,1-3.47332,2.76152,2.42589,2.42589,0,0,0-1.33222,2.56328c-.04574,2.05327-.01373,4.10791-.01345,6.162.00078,8.58981.1612,17.18268-.04422,25.76858-.19073,7.97038-.02041,15.93784-.13955,23.90579a9.4774,9.4774,0,0,1-.582,2.54049c-.10314.34438-.38115.4-.74713.39281C181.534,163.55076,180.51768,163.56379,179.50169,163.56357Z"/><path class="cls-2" d="M175.81934,217.93923c.00126-1.14707.01932-2.29443-.00786-3.44094a.933.933,0,0,1,.5834-.94576,41.86568,41.86568,0,0,1,10.412-3.528,83.62282,83.62282,0,0,0,9.95916-3.29324,3.14951,3.14951,0,0,1,3.38237.54293,16.74791,16.74791,0,0,1,4.71435,6.41209,9.85513,9.85513,0,0,1,.70307,5.06421,13.27353,13.27353,0,0,1-1.78859,5.71368,15.79713,15.79713,0,0,1-6.96168,6.17263,92.403,92.403,0,0,1-14.62474,4.94742,37.4702,37.4702,0,0,0-8.49287,3.53911,2.75805,2.75805,0,0,0-1.39643,3.19485c.25958.913.52966,1.82445.83984,2.72433.1085.315.16864.47344-.24376.6732a83.67071,83.67071,0,0,0-7.82551,4.35576,2.08864,2.08864,0,0,1-2.695-.49773,9.82874,9.82874,0,0,1-3.271-5.62157,12.63831,12.63831,0,0,1,2.75979-9.46969,16.87424,16.87424,0,0,1,5.251-4.295,45.04924,45.04924,0,0,1,8.80984-3.70121c2.68149-.99633,5.55547-1.496,8.21588-2.55238a19.50675,19.50675,0,0,0,4.62206-2.399,5.69922,5.69922,0,0,0,2.03208-3.162c.21523-.84056-.49524-1.62527-.97951-2.3702a11.90065,11.90065,0,0,0-5.49053-3.80073c-.627-.28782-.56591.24945-.59792.45939a25.08406,25.08406,0,0,0-.36419,3.21959,44.84186,44.84186,0,0,0-.19124,5.01061c.03986.44255-.14828.64706-.5984.81365a44.22446,44.22446,0,0,1-6.11981,1.69948c-.50838.10882-.417-.18834-.46014-.45032A34.38668,34.38668,0,0,1,175.81934,217.93923Z"/><path class="cls-2" d="M167.66325,164.75584c-1.31736.39642-2.44068.68316-3.52,1.06842a40.01974,40.01974,0,0,0-10.41943,5.3474,18.65333,18.65333,0,0,0-2.607,2.35951.73862.73862,0,0,1-1.02238.17178,64.551,64.551,0,0,1-10.81834-5.867,24.29884,24.29884,0,0,1-4.68751-4.70552,10.46588,10.46588,0,0,1-2.41278-4.4926,12.83414,12.83414,0,0,1,1.31217-9.54616,13.31991,13.31991,0,0,1,4.99394-4.39137,25.29134,25.29134,0,0,1,10.3304-2.91429c3.08354-.27579,6.17066-.31839,9.26368-.31268a13.73972,13.73972,0,0,1,7.31429,1.96592,10.45492,10.45492,0,0,1,5.36375,8.8545c.11138,2.399-1.3126,3.55119-3.77112,4.21956a24.66465,24.66465,0,0,1-7.78573.43635,7.98063,7.98063,0,0,1-3.65226-1.45074,18.29086,18.29086,0,0,0-4.72336-2.69191,15.2058,15.2058,0,0,0-5.54507-.12874c-.22779.02095-.281.12609-.31144.30737a6.37869,6.37869,0,0,0,.32985,4.26136c.665,1.25335,2.05991,1.67115,3.23637,2.29585a47.75335,47.75335,0,0,0,12.90867,4.0208C163.43218,163.97494,165.43867,164.33148,167.66325,164.75584Z"/><path class="cls-2" d="M184.01829,240.82056c-2.57075,1.97928-5.43,3.34514-8.23568,5.167a43.909,43.909,0,0,1,.1843-4.92834c.08666-.403.30225-.51213.64652-.61357,3.00166-.88411,6.048-1.6322,9.08089-2.42345a40.64137,40.64137,0,0,0,8.069-2.87538,12.0975,12.0975,0,0,0,1.70027-1.1208c.3916-.28864.5742-.22375.80363.1659a9.363,9.363,0,0,1,.88246,2.78969,6.81993,6.81993,0,0,1-1.51418,5.90254,16.42971,16.42971,0,0,1-5.05016,4.283,95.09694,95.09694,0,0,1-12.48886,5.43812c-3.11594,1.14653-6.261,2.23263-9.30616,3.52925-2.4865,1.05873-5.04843,1.96214-7.58022,2.92777-.67133.256-.66965-.30046-.93268-.45845-.86679-.51985-.8492-.69819-.01744-1.2984q1.85061-1.33563,3.75021-2.617c4.21468-2.85639,8.933-4.99915,13.4009-7.49679a39.97384,39.97384,0,0,0,4.70923-2.88591A4.04254,4.04254,0,0,0,184.01829,240.82056Z"/><path class="cls-2" d="M184.08939,253.79316c-.24774,1.97923-.41592,3.94737-.58959,5.91742-.26422,2.99575-.42849,5.99924-.852,8.9855-.24785,1.74781-.44168,3.50206-.73235,5.2459-.03507.21052-.00084.37181-.34217.44922a12.47671,12.47671,0,0,1-3.45824.11115c-.55508-.02947-.45172-.65614-.48735-1.02879-.23139-2.416-.77508-4.797-.94071-7.22214-.20658-3.02482-.95039-6.00617-.8927-9.05951a2.08508,2.08508,0,0,1,1.39847-2.00713c2.758-1.28881,5.70456-2.20735,8.48808-3.44695,1.02238-.45526,2.04874-.89587,3.11984-1.27121a2.8383,2.8383,0,0,1,2.3974.21637,33.453,33.453,0,0,1,4.5424,2.84739c1.4679,1.04675,2.73723,2.28567,4.08354,3.45014.30559.26429.25151.33308-.04086.60629a2.07456,2.07456,0,0,1-2.13136.565,71.36407,71.36407,0,0,1-13.2774-4.27336C184.29487,253.8462,184.20774,253.82827,184.08939,253.79316Z"/><path class="cls-2" d="M175.82019,195.41211c0-3.36377.02444-6.67034-.01633-9.97608a23.86118,23.86118,0,0,0,.19452-2.61c-.05754-.47128.423-.439.65686-.473a26.79208,26.79208,0,0,1,3.333-.37787,14.53717,14.53717,0,0,0,3.20368-.14116c.42794-.104.711.00355.703.51841-.0308,2.00067.1074,4.00971-.054,6.00038-.11,1.35738-.11058,2.70793-.12058,4.06117-.00337.45288-.21289.61933-.62064.81027A33.54584,33.54584,0,0,1,175.82019,195.41211Z"/><path class="cls-3" d="M194.23659,149.341c.13224-.1925.22785-.50467.41139-.55372a5.48322,5.48322,0,0,1,4.92355.32591c.52233.383.0209.81019-.42752,1.115C197.99147,151.01174,196.67355,150.78276,194.23659,149.341Z"/><path class="cls-3" d="M164.86784,149.341c-.13224-.1925-.22778-.50467-.41139-.55372a5.48315,5.48315,0,0,0-4.92331.32591c-.52241.383-.0209.81019.42751,1.115C161.113,151.01174,162.43092,150.78276,164.86784,149.341Z"/></svg>