<svg id="Layer_1" data-name="Layer 1" xmlns="http://www.w3.org/2000/svg" viewBox="0 0 260.78 38.7777"><defs><style>.cls-1{fill:#fff;}</style></defs><path class="cls-1" d="M92.30817,9.723a11.39755,11.39755,0,0,0-5.871-1.45123A11.57715,11.57715,0,0,0,80.5332,9.723a9.67612,9.67612,0,0,0-3.85907,4.15588,14.07579,14.07579,0,0,0-1.31933,6.29981,13.99406,13.99406,0,0,0,1.35235,6.33276,9.73845,9.73845,0,0,0,3.826,4.15583,11.57825,11.57825,0,0,0,5.904,1.45129,11.33083,11.33083,0,0,0,5.838-1.45129,9.67849,9.67849,0,0,0,3.85907-4.15583,13.98934,13.98934,0,0,0,1.35241-6.33276,13.78107,13.78107,0,0,0-1.35241-6.29981A9.47745,9.47745,0,0,0,92.30817,9.723ZM91.4176,26.51142a6.03758,6.03758,0,0,1-4.98047,2.20984,6.16858,6.16858,0,0,1-5.04638-2.20984,9.87418,9.87418,0,0,1-1.78113-6.33276q0-4.123,1.78113-6.29981A6.16825,6.16825,0,0,1,86.43713,11.669a6.03726,6.03726,0,0,1,4.98047,2.20983q1.814,2.17686,1.81409,6.29981A9.74658,9.74658,0,0,1,91.4176,26.51142Z"/><path class="cls-1" d="M232.56488,23.08112a8.97446,8.97446,0,0,0-.89056-4.12286,6.48682,6.48682,0,0,0-2.50672-2.70459,7.31007,7.31007,0,0,0-3.79309-.95654,7.98064,7.98064,0,0,0-4.0899,1.05548,7.2274,7.2274,0,0,0-2.77057,2.96844,9.41215,9.41215,0,0,0-.9895,4.38678,8.2219,8.2219,0,0,0,2.27581,6.13489,8.40347,8.40347,0,0,0,6.16785,2.2428,10.92281,10.92281,0,0,0,2.70459-.36279,11.58043,11.58043,0,0,0,2.53973-1.02246,2.00036,2.00036,0,0,0,1.2204-1.71515,1.7322,1.7322,0,0,0-.36285-1.15442,1.06635,1.06635,0,0,0-.8905-.42877,3.63689,3.63689,0,0,0-1.45124.52777,17.65835,17.65835,0,0,1-1.847.72558,5.85259,5.85259,0,0,1-1.84711.26386,4.37084,4.37084,0,0,1-3.16638-1.05542,5.26377,5.26377,0,0,1-1.28632-3.36432h9.73Q232.56378,24.4994,232.56488,23.08112Zm-10.9834-.79156a5.04207,5.04207,0,0,1,1.18738-3.03442,3.593,3.593,0,0,1,2.70459-1.05549,3.24012,3.24012,0,0,1,2.57269,1.05549,4.6352,4.6352,0,0,1,.9895,3.03442Z"/><path class="cls-1" d="M128.05884,8.40363a2.096,2.096,0,0,0-1.55017.59375,2.04863,2.04863,0,0,0-.56073,1.51722V29.87568a2.16406,2.16406,0,0,0,.56073,1.55017,2.096,2.096,0,0,0,1.55017.59375,2.03,2.03,0,0,0,1.55023-.59375,2.09658,2.09658,0,0,0,.59369-1.55017V10.5146a1.987,1.987,0,0,0-.59369-1.51722A2.03,2.03,0,0,0,128.05884,8.40363Z"/><path class="cls-1" d="M259.28632,8.93141a2.19849,2.19849,0,0,0-1.51722-.52778H257.769a2.07474,2.07474,0,0,0-1.48425.52778,1.72015,1.72015,0,0,0-.52771,1.31933v7.817a5.04116,5.04116,0,0,0-2.07794-2.04492,6.457,6.457,0,0,0-3.1004-.72565,6.81882,6.81882,0,0,0-3.72712,1.02246,6.97331,6.97331,0,0,0-2.53967,2.90253,10.14557,10.14557,0,0,0-.89056,4.38678,10.59156,10.59156,0,0,0,.89056,4.45269,7.16509,7.16509,0,0,0,2.53967,2.96851,6.76482,6.76482,0,0,0,3.72712,1.05542,6.23147,6.23147,0,0,0,3.1004-.75861,5.14308,5.14308,0,0,0,2.111-2.1109v.82459a1.85372,1.85372,0,0,0,.56067,1.41827,2.35117,2.35117,0,0,0,2.9685,0A1.85748,1.85748,0,0,0,259.88,30.0406V10.31666A1.76443,1.76443,0,0,0,259.28632,8.93141Zm-4.58466,18.60247a4.04794,4.04794,0,0,1-6.06885-.033,6.16241,6.16241,0,0,1-1.0885-3.892,5.81962,5.81962,0,0,1,1.0885-3.7931,3.75383,3.75383,0,0,1,3.06739-1.31933,3.58579,3.58579,0,0,1,3.00146,1.35235,5.87728,5.87728,0,0,1,1.08844,3.826A6.019,6.019,0,0,1,254.70166,27.53388Z"/><path class="cls-1" d="M64.73291,11.73493a8.11252,8.11252,0,0,1,2.70465.42884A9.392,9.392,0,0,1,70.07617,13.615a2.43964,2.43964,0,0,0,1.3523.46173A1.18855,1.18855,0,0,0,72.385,13.582a1.89188,1.89188,0,0,0,.39581-1.2204,2.14706,2.14706,0,0,0-.16491-.89056,1.89259,1.89259,0,0,0-.59375-.69263,10.37935,10.37935,0,0,0-3.39722-1.847A12.45928,12.45928,0,0,0,64.535,8.27174,11.692,11.692,0,0,0,58.631,9.723a9.67706,9.67706,0,0,0-3.859,4.15588,13.7857,13.7857,0,0,0-1.35235,6.29981A13.99406,13.99406,0,0,0,54.772,26.51142a9.67794,9.67794,0,0,0,3.859,4.15583,11.69275,11.69275,0,0,0,5.904,1.45129,13.05846,13.05846,0,0,0,4.08991-.62671,10.88349,10.88349,0,0,0,3.39722-1.88,1.89423,1.89423,0,0,0,.59375-.69269,2.296,2.296,0,0,0,.16491-.89051,1.89164,1.89164,0,0,0-.39581-1.22039,1.18842,1.18842,0,0,0-.95654-.49475,1.84643,1.84643,0,0,0-.69263.13195,4.60555,4.60555,0,0,0-.65967.32984,12.40979,12.40979,0,0,1-2.73761,1.45123,7.62148,7.62148,0,0,1-2.60565.42877,6.38759,6.38759,0,0,1-5.2113-2.14386q-1.7482-2.144-1.74811-6.33276,0-4.15595,1.74811-6.29981A6.38727,6.38727,0,0,1,64.73291,11.73493Z"/><path class="cls-1" d="M121.93634,8.89839a2.31169,2.31169,0,0,0-1.48419-.52771A1.80193,1.80193,0,0,0,118.704,9.49207l-7.58612,16.85444L103.5318,9.49207a1.73372,1.73372,0,0,0-.75867-.82452,1.84891,1.84891,0,0,0-1.02246-.29687,2.4959,2.4959,0,0,0-1.55017.52771,1.6577,1.6577,0,0,0-.65967,1.35235,2.07766,2.07766,0,0,0,.19788.79157l9.10333,19.658a2.28168,2.28168,0,0,0,.89056.9895,2.79653,2.79653,0,0,0,1.31934.32983,2.606,2.606,0,0,0,1.28632-.32983,2.22388,2.22388,0,0,0,.92352-.9895l9.13635-19.658a2.13061,2.13061,0,0,0,.19788-.82459A1.62353,1.62353,0,0,0,121.93634,8.89839Z"/><path class="cls-1" d="M212.08539,8.04084a2.56078,2.56078,0,0,0-1.78107.59369,2.02453,2.02453,0,0,0-.65967,1.58319,2.12864,2.12864,0,0,0,.65967,1.61621,2.96854,2.96854,0,0,0,3.5622,0,2.13237,2.13237,0,0,0,.65966-1.61621,1.98045,1.98045,0,0,0-.69268-1.58319A2.51471,2.51471,0,0,0,212.08539,8.04084Z"/><path class="cls-1" d="M144.83081,8.56855h-6.5307a2.12365,2.12365,0,0,0-1.51721.52777,2.00815,2.00815,0,0,0-.52771,1.48426V29.8097a2.00825,2.00825,0,0,0,.52771,1.48425,2.12415,2.12415,0,0,0,1.51721.52771h6.5307q5.70657,0,8.83948-3.03442,3.16635-3.06747,3.16638-8.60858,0-5.50827-3.16638-8.54266Q150.53634,8.56861,144.83081,8.56855Zm-.26392,19.78992H140.51V12.03181h4.05688q8.015,0,8.015,8.14685Q152.58185,28.35834,144.56689,28.35847Z"/><path class="cls-1" d="M237.9823,8.40363a2.24012,2.24012,0,0,0-1.48425.49476,1.83189,1.83189,0,0,0-.56067,1.45129V30.0406a1.93842,1.93842,0,0,0,.56067,1.48425,2.47375,2.47375,0,0,0,2.9685,0,1.88243,1.88243,0,0,0,.59369-1.48425V10.34968a1.7813,1.7813,0,0,0-.59369-1.45129A2.24012,2.24012,0,0,0,237.9823,8.40363Z"/><path class="cls-1" d="M212.08539,15.36311a2.23984,2.23984,0,0,0-1.48419.49475,1.8316,1.8316,0,0,0-.56073,1.45123V30.0406a1.93823,1.93823,0,0,0,.56073,1.48425,2.47366,2.47366,0,0,0,2.96844,0,1.88246,1.88246,0,0,0,.59369-1.48425V17.30909a1.78122,1.78122,0,0,0-.59369-1.45123A2.24,2.24,0,0,0,212.08539,15.36311Z"/><path class="cls-1" d="M183.40149,20.01374a24.98811,24.98811,0,0,0-4.74957-1.48425,13.5254,13.5254,0,0,1-3.925-1.3523,2.31464,2.31464,0,0,1-1.15442-2.07794,2.87373,2.87373,0,0,1,1.28632-2.50671A6.10672,6.10672,0,0,1,178.421,11.669a8.48848,8.48848,0,0,1,3.1004.49475A10.559,10.559,0,0,1,184.1601,13.615a5.39692,5.39692,0,0,0,.72558.36279,1.96559,1.96559,0,0,0,.62671.09894,1.18943,1.18943,0,0,0,.95648-.49469,1.88131,1.88131,0,0,0,.42877-1.2204,1.64979,1.64979,0,0,0-.19787-.85754,2.16878,2.16878,0,0,0-.59369-.72565A11.50434,11.50434,0,0,0,178.421,8.27174a11.32822,11.32822,0,0,0-4.65063.92352A7.49841,7.49841,0,0,0,170.571,11.702a6.14173,6.14173,0,0,0-1.15441,3.66114,5.45576,5.45576,0,0,0,.92352,3.26532,6.65356,6.65356,0,0,0,2.73761,2.1109,23.72283,23.72283,0,0,0,4.71655,1.45129,15.07557,15.07557,0,0,1,3.991,1.31934,2.07673,2.07673,0,0,1,1.2204,1.913,2.79245,2.79245,0,0,1-1.28638,2.4737,6.86427,6.86427,0,0,1-3.69409.82458,11.98619,11.98619,0,0,1-3.43024-.46173,9.88783,9.88783,0,0,1-2.96851-1.48425,2.6797,2.6797,0,0,0-1.35229-.46179,1.25268,1.25268,0,0,0-.9895.52771,2.00991,2.00991,0,0,0,.36279,2.77063,10.77872,10.77872,0,0,0,3.66113,1.847,17.21712,17.21712,0,0,0,4.81556.65967h.00006a12.117,12.117,0,0,0,4.71655-.85754,7.45871,7.45871,0,0,0,3.1994-2.4408,6.00353,6.00353,0,0,0,1.15436-3.62811,4.90008,4.90008,0,0,0-.9895-3.13343A6.79769,6.79769,0,0,0,183.40149,20.01374Z"/><path class="cls-1" d="M200.17957,15.29713a6.91008,6.91008,0,0,0-3.13343.69263,5.30325,5.30325,0,0,0-2.17688,1.946V10.25074a1.70972,1.70972,0,0,0-.56073-1.35235,2.16246,2.16246,0,0,0-1.48425-.49476,2.19866,2.19866,0,0,0-1.51721.52778,1.81277,1.81277,0,0,0-.56073,1.38525V30.0406a1.96249,1.96249,0,0,0,.52777,1.45123,2.44469,2.44469,0,0,0,3.03442,0,1.89536,1.89536,0,0,0,.56073-1.45123V22.68537a4.19941,4.19941,0,0,1,1.05548-3.00146,3.817,3.817,0,0,1,2.86951-1.12146,2.73,2.73,0,0,1,2.20984.82458,3.69051,3.69051,0,0,1,.72565,2.53974V30.0406a1.89536,1.89536,0,0,0,.56073,1.45123,2.12418,2.12418,0,0,0,1.51721.52777,2.0059,2.0059,0,0,0,1.48425-.52777,1.89536,1.89536,0,0,0,.56073-1.45123V21.92677Q205.85266,15.29716,200.17957,15.29713Z"/><path class="cls-1" d="M1.16864,5.0229V17.39155c0,12.36865,16.49158,20.61444,16.49158,20.61444S34.15179,29.7602,34.15179,17.39155V5.0229L17.66022.9Zm25.3313,7.06488L22.964,14.2093a6.18433,6.18433,0,1,0,0,6.3645l3.53589,2.12152a10.30714,10.30714,0,1,1,.00006-10.60754Z"/></svg>