<svg id="Layer_1" data-name="Layer 1" xmlns="http://www.w3.org/2000/svg" viewBox="0 0 2165.5892 1884"><defs><style>.cls-1{fill-rule:evenodd;}</style></defs><g id="covid-green-logo-inverse"><path id="COVID" d="M240.20909,1443.84534q51.9805,0,90.0325-16.80022a159.75579,159.75579,0,0,0,63.32419-49.82672h0l-38.48273-40.493a18.73609,18.73609,0,0,0-6.60525-4.45132,19.29158,19.29158,0,0,0-15.22079.57433,33.96044,33.96044,0,0,0-7.46682,4.73856,118.85909,118.85909,0,0,1-17.08748,12.49254,93.64789,93.64789,0,0,1-17.80551,8.18485,99.57225,99.57225,0,0,1-20.24652,4.45131,206.19427,206.19427,0,0,1-24.12351,1.29227,105.18205,105.18205,0,0,1-43.07775-8.90262,101.148,101.148,0,0,1-35.18007-25.99028q-15.0773-17.08748-23.83635-42.07256t-8.75917-57.14981q0-30.72876,8.75917-55.42668t24.41067-42.07255a105.78392,105.78392,0,0,1,37.47763-26.70823q21.826-9.33331,48.247-9.3335a135.21915,135.21915,0,0,1,26.5646,2.29747,121.05387,121.05387,0,0,1,19.81582,5.60013,87.0443,87.0443,0,0,1,14.64639,7.17966q6.17445,3.87708,11.3438,7.17966a107.95277,107.95277,0,0,0,9.76429,5.60013,21.54273,21.54273,0,0,0,9.76429,2.29747q7.754,0,12.06175-3.30267a41.68331,41.68331,0,0,0,7.46682-7.32328h0l32.73906-43.93924a160.57335,160.57335,0,0,0-26.99539-22.544,183.072,183.072,0,0,0-33.31338-17.51826,216.87293,216.87293,0,0,0-38.91361-11.48743,226.03926,226.03926,0,0,0-44.37-4.16415q-48.53416,0-88.74014,15.79521t-69.06795,44.2264a200.61517,200.61517,0,0,0-44.94435,67.632q-16.08244,39.20085-16.08236,86.01189,0,45.94972,14.07206,85.15031,14.072,39.20087,40.34941,67.77559,26.27739,28.57491,64.04222,44.8009T240.20909,1443.84534Zm459.23192,0q48.82152,0,88.88368-16.36952,40.06234-16.36953,68.49371-45.2316a203.49879,203.49879,0,0,0,44.08278-67.91922q15.65158-39.057,15.65158-84.43236,0-45.088-15.65158-84.14512a201.92692,201.92692,0,0,0-44.08278-67.77559q-28.43136-28.71844-68.49371-45.2316-40.06208-16.5132-88.88368-16.51315-48.82125,0-89.0273,16.36953-40.20588,16.36953-68.78079,45.08806a200.83942,200.83942,0,0,0-44.2264,67.7755q-15.65159,39.05732-15.65158,84.43237,0,45.37531,15.65158,84.43236a202.39618,202.39618,0,0,0,44.2264,67.91922q28.57491,28.862,68.78079,45.2316T699.441,1443.84534Zm0-80.41175q-28.144,0-50.11379-9.04625a98.05466,98.05466,0,0,1-37.04674-26.27753q-15.07718-17.231-23.11831-42.07255-8.04123-24.84138-8.04123-56.14462,0-31.01583,8.04123-55.85737,8.041-24.84164,23.11831-42.07256a99.44647,99.44647,0,0,1,37.04674-26.421q21.96985-9.19005,50.11379-9.19,27.857,0,49.68309,9.19a99.69885,99.69885,0,0,1,36.90312,26.421q15.07717,17.231,23.11849,42.07256,8.04123,24.84136,8.04105,55.85737,0,31.30316-8.04105,56.14462-8.04123,24.84163-23.11849,42.07255a98.2914,98.2914,0,0,1-36.90312,26.27753Q727.29807,1363.4336,699.441,1363.43359Zm533.32568,75.81682,167.71591-418.4283H1321.794q-12.06184,0-20.39015,6.46171t-11.20027,14.50285h0l-80.41175,224.00407q-5.16916,14.64656-10.48214,31.87748-5.313,17.23128-9.3335,36.18535-4.8821-18.95424-10.48232-36.18535-5.60005-17.231-11.05665-31.87748h0l-80.98607-224.00407a31.46738,31.46738,0,0,0-11.48735-15.22079q-8.04123-5.74373-20.67739-5.74377H977.17212l167.71609,418.4283Zm374.22533,0v-418.4283h-97.64286v418.4283Zm305.87523,0q48.82152,0,88.8835-15.65158,40.06235-15.65158,68.49371-43.65208a195.85248,195.85248,0,0,0,44.08278-66.33969q15.65159-38.33911,15.65176-83.71442,0-45.088-15.65176-83.42717a194.3259,194.3259,0,0,0-44.08278-66.19607q-28.43136-27.857-68.49371-43.65208-40.06181-15.79512-88.8835-15.79521H1750.3206v418.4283Zm0-74.668h-64.90379V1095.49011h64.90379q27.857,0,49.68291,9.33367a100.39516,100.39516,0,0,1,36.9033,26.708q15.07691,17.37482,23.11849,42.35981,8.04069,24.98517,8.04087,56.001,0,31.30316-8.04087,56.28824-8.04123,24.98517-23.11849,42.35981a100.39764,100.39764,0,0,1-36.9033,26.70823q-21.826,9.33331-49.68291,9.3335Z"/><path id="GREEN" d="M172.87788,1855.39876a246.33233,246.33233,0,0,0,30.46207-1.75391,167.106,167.106,0,0,0,26.30821-5.35384,141.46942,141.46942,0,0,0,23.07735-8.95414,146.7678,146.7678,0,0,0,20.76959-12.55407h0V1725.24257H192.26283v20.30805a6.62926,6.62926,0,0,0,2.12317,4.98467,7.80663,7.80663,0,0,0,5.63081,2.03079h40.98544v58.3396q-7.01556,3.69222-14.031,6.554a115.07937,115.07937,0,0,1-14.95421,4.89238,124.99616,124.99616,0,0,1-16.89261,3.04618,175.271,175.271,0,0,1-19.66191,1.01539,103.06687,103.06687,0,0,1-39.13915-7.20022,86.45158,86.45158,0,0,1-30.64674-20.8618,94.53735,94.53735,0,0,1-20.03108-33.32376q-7.10785-19.662-7.10785-44.77,0-24.00054,6.83088-43.2931a92.3278,92.3278,0,0,1,19.56962-32.8623,85.52083,85.52083,0,0,1,30.83133-20.8618q18.09262-7.29242,40.43151-7.29251a127.60987,127.60987,0,0,1,26.49279,2.40013,112.20614,112.20614,0,0,1,19.38494,5.81549,88.53,88.53,0,0,1,13.93872,7.10775q5.72319,3.69249,10.3387,6.27712a13.0839,13.0839,0,0,0,6.46162,2.03079q4.98472,0,8.12324-4.98485h0l10.154-16.2463a130.2743,130.2743,0,0,0-18.27726-13.93881,116.53681,116.53681,0,0,0-21.32344-10.52328,136.36589,136.36589,0,0,0-25.01585-6.64629,173.06473,173.06473,0,0,0-29.1698-2.30767q-31.016,0-56.03175,9.78477a118.6749,118.6749,0,0,0-69.7859,70.33974q-9.508,24.92346-9.50789,55.20112,0,29.908,9.69248,54.83178a125.7234,125.7234,0,0,0,27.04663,42.73918,121.58764,121.58764,0,0,0,41.35461,27.69285Q144.0773,1855.39886,172.87788,1855.39876Zm417.47336-2.95389V1742.0428h27.13892q7.38473,0,11.07721,1.93849a20.00423,20.00423,0,0,1,6.83088,6.36942h0l68.67812,94.52477q4.61542,7.5693,14.40027,7.56939h31.75443l-77.17061-105.04805a37.82507,37.82507,0,0,0-11.81555-11.2618,101.44409,101.44409,0,0,0,27.4158-10.3387,76.7621,76.7621,0,0,0,20.49281-16.52335,69.24072,69.24072,0,0,0,12.83094-21.87737,76.13271,76.13271,0,0,0,4.43075-26.21582,77.43583,77.43583,0,0,0-5.723-30.36969,58.77006,58.77006,0,0,0-17.63121-23.16982q-11.90784-9.6-30.18511-14.67715-18.27735-5.07688-43.38539-5.077H554.71982v264.55872Zm37.47762-136.43331H590.35124v-99.8788h39.13924q30.83124,0,46.43157,12.00032,15.60034,12.00014,15.60025,35.63142a53.95522,53.95522,0,0,1-4.06157,21.23114,44.41365,44.41365,0,0,1-12.09261,16.52335,56.15581,56.15581,0,0,1-19.9387,10.70787,91.24111,91.24111,0,0,1-27.60056,3.7847Zm546.52186,136.43331v-29.16971H1047.333v-90.27861h102.83268v-28.062H1047.333v-87.87866h127.01772v-29.16971H1011.33241v264.55872Zm437.04288,0v-29.16971H1484.37589v-90.27861h102.83268v-28.062H1484.37589v-87.87866H1611.3936v-29.16971H1448.3753v264.55872Zm305.40984,0V1663.94908q0-3.69249-.18458-8.12315-.18459-4.43109-.55393-9.04642h0l153.04913,199.20366a17.94729,17.94729,0,0,0,5.6309,4.98467,15.38881,15.38881,0,0,0,7.10758,1.477h18.09285V1587.88615H2068.56v187.38811q0,4.24625.18459,8.76937.18511,4.52313.73869,9.3233h0l-153.23372-199.38842a18.39143,18.39143,0,0,0-5.26155-4.89238q-2.30784-1.20006-7.10793-1.2h-18.46185v264.55872Z"/><g id="Group"><g id="knot"><g id="Combined-Shape"><path class="cls-1" d="M1473.65533,72.06924a130.84915,130.84915,0,0,1,0,185.04863l-32.99157,32.99163a371.41475,371.41475,0,0,0-28.16382-50.7874l21.569-21.572a78.50959,78.50959,0,0,0-110.10369-111.93978l-.92548.91061L1149.65375,280.10566,1115.11108,245.563,1288.6067,72.06924A130.84914,130.84914,0,0,1,1473.65533,72.06924Z"/><path class="cls-1" d="M1346.21335,199.51121c97.30934,97.30934,124.96246,237.96049,83.05043,360.19809l-42.154-42.15272c24.0572-97.57612-1.92787-204.83874-78.01547-280.92634a297.31963,297.31963,0,0,0-43.20095-35.75841l37.69083-37.68841A350.4429,350.4429,0,0,1,1346.21335,199.51121Z"/><path class="cls-1" d="M1336.42428,314.39228a293.89886,293.89886,0,0,1,24.22257,52.26433L1153.66034,573.64193,1115.417,535.39856Zm69.6454,6.8403L1401.152,326.151q-4.0269-9.33172-8.6231-18.46664Z"/></g><g id="Group-2" data-name="Group"><g id="Combined-Shape-2" data-name="Combined-Shape"><path class="cls-1" d="M1471.26866,824.55207a130.84914,130.84914,0,0,1-185.04863,0l-32.99163-32.99156a371.41475,371.41475,0,0,0,50.7874-28.16382l21.572,21.569A78.50959,78.50959,0,0,0,1437.52756,674.862l-.91061-.92548L1263.23224,500.5505l34.54267-34.54268,173.49375,173.49562A130.84914,130.84914,0,0,1,1471.26866,824.55207Z"/><path class="cls-1" d="M1343.82669,697.1101c-97.30934,97.30934-237.96049,124.96245-360.19809,83.05043l42.15272-42.154c97.57612,24.0572,204.83874-1.92788,280.92634-78.01547a297.321,297.321,0,0,0,35.75842-43.201l37.6884,37.69083A350.443,350.443,0,0,1,1343.82669,697.1101Z"/><path class="cls-1" d="M1228.94562,687.321a293.89853,293.89853,0,0,1-52.26433,24.22257L969.696,504.55708l38.24338-38.24337Zm-6.8403,69.6454-4.91839-4.91773q9.33172-4.02689,18.46664-8.62309Z"/></g></g><g id="Group-3" data-name="Group"><g id="Combined-Shape-3" data-name="Combined-Shape"><path class="cls-1" d="M721.61019,822.10719a130.84913,130.84913,0,0,1,0-185.04863l32.99156-32.99163a371.41475,371.41475,0,0,0,28.16382,50.7874l-21.569,21.572A78.50959,78.50959,0,0,0,871.30022,788.36609l.92548-.91061,173.38606-173.38471,34.54268,34.54267L906.65881,822.10719A130.84913,130.84913,0,0,1,721.61019,822.10719Z"/><path class="cls-1" d="M849.05216,694.66522c-97.30934-97.30934-124.96246-237.96049-83.05043-360.19809l42.154,42.15272c-24.0572,97.57612,1.92787,204.83874,78.01547,280.92634a297.32042,297.32042,0,0,0,43.201,35.75842L891.68132,730.993A350.44223,350.44223,0,0,1,849.05216,694.66522Z"/><path class="cls-1" d="M858.84123,579.78415a293.89853,293.89853,0,0,1-24.22257-52.26433L1041.60518,320.5345l38.24337,38.24338Zm-69.6454-6.8403,4.91772-4.91839q4.0269,9.33173,8.6231,18.46664Z"/></g></g><g id="Group-4" data-name="Group"><g id="Combined-Shape-4" data-name="Combined-Shape"><path class="cls-1" d="M722.76318,68.39063a130.84916,130.84916,0,0,1,185.04864,0l32.99162,32.99157A371.41416,371.41416,0,0,0,890.01605,129.546l-21.572-21.56905a78.50959,78.50959,0,0,0-111.93978,110.1037l.9106.92548L930.79961,392.39221l-34.54268,34.54267L722.76319,253.43926A130.84914,130.84914,0,0,1,722.76318,68.39063Z"/><path class="cls-1" d="M850.20516,195.83261c97.30934-97.30934,237.96049-124.96246,360.19809-83.05043l-42.15273,42.154C1070.6744,130.879,963.41178,156.864,887.32419,232.95164a297.31906,297.31906,0,0,0-35.75842,43.20095l-37.6884-37.69083A350.442,350.442,0,0,1,850.20516,195.83261Z"/><path class="cls-1" d="M965.08623,205.62168a293.89928,293.89928,0,0,1,52.26433-24.22258l206.98531,206.98652L1186.0925,426.629Zm6.8403-69.64541,4.91839,4.91773q-9.33173,4.0269-18.46664,8.62309Z"/></g></g></g></g></g></svg>