<svg id="artwork" xmlns="http://www.w3.org/2000/svg" viewBox="0 0 314.85517 240"><defs><style>.cls-1{fill:#fff;}</style></defs><path class="cls-1" d="M48.30236,184.53832v54.16777H42.15147V214.02745H10.21893v24.67864H4.06932V184.53832h6.14961v23.65393H42.15147V184.53832Z"/><path class="cls-1" d="M69.35374,190.37352v17.81873H98.7633v5.8352H69.35374v18.84408h32.64221v5.83456H63.12456V184.53832h38.87139v5.8352Z"/><path class="cls-1" d="M152.4171,210.08513a17.31719,17.31719,0,0,1-6.03155,6.07068,20.95194,20.95194,0,0,1-8.67259,2.9176l13.79812,19.63268H144.494l-13.71984-19.47483H118.78931v19.47483H112.6397V184.53832h21.99846a22.927,22.927,0,0,1,10.09192,2.20793,17.68818,17.68818,0,0,1,7.21476,6.1894,16.53209,16.53209,0,0,1,.47226,17.14948Zm-33.62779,3.31157h14.7452q6.70078,0,10.76182-3.07545a10.79462,10.79462,0,0,0,0-16.87292q-4.06167-3.07514-10.76182-3.07481h-14.7452Z"/><path class="cls-1" d="M200.39355,226.40623H170.196l-5.44123,12.29986h-6.70143l23.89005-54.16777h6.70272l23.89005,54.16777h-6.70143Zm-2.523-5.83456-12.53663-28.46376L172.719,220.57167Z"/><path class="cls-1" d="M256.45355,232.87153v5.83456h-35.717V184.53832h6.1496v48.33321Z"/><path class="cls-1" d="M264.6526,184.53832h18.29226a32.3834,32.3834,0,0,1,15.17768,3.46943,25.93285,25.93285,0,0,1,10.40762,9.61967,27.94177,27.94177,0,0,1,0,27.95043,25.82976,25.82976,0,0,1-10.40762,9.65882,32.36792,32.36792,0,0,1-15.17768,3.46942H264.6526Zm18.29226,48.57a25.25572,25.25572,0,0,0,11.945-2.75975A20.55154,20.55154,0,0,0,303.09022,222.7a22.304,22.304,0,0,0,0-22.1948,20.65507,20.65507,0,0,0-8.20033-7.60873,25.26319,25.26319,0,0,0-11.945-2.75976H270.80221V233.1083Z"/><path class="cls-1" d="M157.46158,5.80325a68.99069,68.99069,0,1,0,68.99061,68.99069A68.99065,68.99065,0,0,0,157.46158,5.80325Zm.24263,128.90053A60.12039,60.12039,0,1,1,217.8246,74.5834,60.12038,60.12038,0,0,1,157.70421,134.70378Z"/><rect class="cls-1" x="120.08033" y="60.23164" width="3.63813" height="3.94288" transform="translate(-14.93702 60.08609) rotate(-26.14806)"/><rect class="cls-1" x="126.61364" y="57.02658" width="3.63813" height="3.94288" transform="translate(-12.85594 62.63726) rotate(-26.14806)"/><rect class="cls-1" x="113.54772" y="63.43666" width="3.6367" height="3.94232" transform="translate(-17.01565 57.4962) rotate(-26.13132)"/><path class="cls-1" d="M109.597,66.04209l-2.10887,1.03451a14.44908,14.44908,0,1,0-.15536,15.54607l2.24242,1.07774,1.7068-3.55348-2.256-1.08432a14.39119,14.39119,0,0,0,.08-8.3881l2.22726-1.093Z"/><rect class="cls-1" x="113.42645" y="82.47501" width="3.94213" height="3.67636" transform="translate(-10.5837 151.79676) rotate(-64.32942)"/><rect class="cls-1" x="126.68045" y="88.84663" width="3.94213" height="3.67636" transform="translate(-8.81402 167.35404) rotate(-64.32942)"/><rect class="cls-1" x="120.05345" y="85.66082" width="3.94213" height="3.67636" transform="translate(-9.69886 159.5754) rotate(-64.32942)"/><rect class="cls-1" x="160.46718" y="32.92239" width="4.19916" height="3.9419" transform="translate(22.94139 125.17208) rotate(-45)"/><rect class="cls-1" x="166.4061" y="26.98356" width="4.19961" height="3.9419" transform="translate(28.88031 127.63225) rotate(-45)"/><rect class="cls-1" x="166.35534" y="117.72866" width="3.9431" height="4.05382" transform="translate(-34.93989 156.60601) rotate(-45.70542)"/><rect class="cls-1" x="160.55202" y="112.06743" width="3.94223" height="4.05429" transform="translate(-32.62644 150.80951) rotate(-45.72458)"/><rect class="cls-1" x="170.05657" y="66.37243" width="3.94276" height="4.04458" transform="translate(21.44509 176.08063) rotate(-57.25133)"/><rect class="cls-1" x="183.66604" y="75.12345" width="3.94276" height="4.04493" transform="translate(20.3351 191.54822) rotate(-57.25276)"/><rect class="cls-1" x="176.8613" y="70.74747" width="3.94276" height="4.04601" transform="translate(20.91036 183.84347) rotate(-57.26259)"/><rect class="cls-1" x="163.25119" y="61.9965" width="3.94276" height="4.04493" transform="translate(22.00396 168.35186) rotate(-57.25276)"/><rect class="cls-1" x="197.27552" y="83.87482" width="3.94276" height="4.04458" transform="translate(19.23859 207.03607) rotate(-57.2604)"/><rect class="cls-1" x="190.47078" y="79.49835" width="3.94276" height="4.04601" transform="translate(19.79911 199.30968) rotate(-57.26259)"/><rect class="cls-1" x="191.23543" y="64.00682" width="4.10837" height="3.9425" transform="translate(-3.50747 120.61222) rotate(-34.36252)"/><rect class="cls-1" x="172.35165" y="76.81705" width="4.10837" height="3.9425" transform="translate(-14.03915 112.15715) rotate(-34.35275)"/><rect class="cls-1" x="184.45187" y="68.64341" width="4.10837" height="3.9425" transform="translate(-7.30833 117.59255) rotate(-34.36252)"/><rect class="cls-1" x="165.56937" y="81.45429" width="4.10837" height="3.9425" transform="translate(-17.83446 109.17047) rotate(-34.36252)"/><rect class="cls-1" x="158.78581" y="86.09088" width="4.10837" height="3.9425" transform="translate(-21.63532 106.15081) rotate(-34.36252)"/><rect class="cls-1" x="198.019" y="59.36959" width="4.10837" height="3.9425" transform="translate(0.29376 123.63177) rotate(-34.36252)"/><path class="cls-1" d="M145.07568,65.921a14.42354,14.42354,0,0,0,11.1951-5.31482l2.78229,1.78942,2.13285-3.31607-2.86169-1.8405a14.42262,14.42262,0,0,0-1.34715-13.969l2.529-2.529-2.78734-2.78735-2.40083,2.40083A14.45415,14.45415,0,1,0,145.07568,65.921Z"/><path class="cls-1" d="M160.01442,97.97784a14.46488,14.46488,0,1,0-5.34064,11.21443l2.11938,2.0678,2.754-2.822-2.18539-2.13221A14.37411,14.37411,0,0,0,160.01442,97.97784Z"/><circle class="cls-1" cx="181.82241" cy="132.14943" r="14.45517" transform="translate(-9.84821 249.55997) rotate(-67.49998)"/><circle class="cls-1" cx="181.82241" cy="16.4552" r="14.45519" transform="translate(1.08332 42.21453) rotate(-13.28256)"/><circle class="cls-1" cx="215.24158" cy="51.46579" r="14.45525" transform="translate(26.65099 167.27276) rotate(-45)"/><circle class="cls-1" cx="215.24158" cy="97.97782" r="14.45519" transform="translate(-6.23798 180.89582) rotate(-45)"/></svg>