<svg id="Layer_1" data-name="Layer 1" xmlns="http://www.w3.org/2000/svg" viewBox="0 0 3379.52422 1022.47984"><defs><style>.cls-1{fill:#00746d;}.cls-2{fill:#6dc612;fill-rule:evenodd;}.cls-3{fill:#fff;}</style></defs><rect class="cls-1" y="-1.5" width="3379.52422" height="1022.47984"/><g id="covid-green-logo-inverse"><g id="Group"><g id="knot"><g id="Combined-Shape"><path class="cls-2" d="M1016.95938,134.60454a131.10542,131.10542,0,0,1,0,185.41105L983.9032,353.07183a372.14219,372.14219,0,0,0-28.219-50.88686l21.61129-21.61423a78.66336,78.66336,0,0,0-110.31934-112.159l-.92729.91239L692.32324,343.0484l-34.61032-34.61033L831.54833,134.60454A131.10541,131.10541,0,0,1,1016.95938,134.60454Z"/><path class="cls-2" d="M889.26781,262.29611c97.49992,97.49992,125.2072,238.42653,83.21308,360.90354l-42.23655-42.23528c24.10433-97.76723-1.93164-205.23992-78.16826-281.47653a297.90183,297.90183,0,0,0-43.28556-35.82845l37.76464-37.76222A351.12858,351.12858,0,0,1,889.26781,262.29611Z"/><path class="cls-2" d="M879.45957,377.40217a294.4754,294.4754,0,0,1,24.27,52.36669l-207.3919,207.3907L658.0194,598.84129Zm69.7818,6.8537-4.92736,4.928q-4.03478-9.35-8.64-18.5028Z"/></g><g id="Group-2" data-name="Group"><g id="Combined-Shape-2" data-name="Combined-Shape"><path class="cls-2" d="M1014.568,888.56112a131.10542,131.10542,0,0,1-185.41105,0l-33.05624-33.05619a372.14106,372.14106,0,0,0,50.88686-28.219l21.61423,21.61128a78.66335,78.66335,0,0,0,112.159-110.31933l-.91239-.92729L806.12418,563.925l34.61033-34.61033L1014.568,703.15007A131.10541,131.10541,0,0,1,1014.568,888.56112Z"/><path class="cls-2" d="M886.87647,760.86954c-97.49992,97.49993-238.42653,125.2072-360.90354,83.21309l42.23528-42.23655c97.76723,24.10432,205.23992-1.93165,281.47654-78.16826a297.9032,297.9032,0,0,0,35.82845-43.28557l37.76221,37.76465A351.12773,351.12773,0,0,1,886.87647,760.86954Z"/><path class="cls-2" d="M771.77041,751.0613a294.474,294.474,0,0,1-52.36669,24.27L512.013,567.93941l38.31827-38.31827Zm-6.8537,69.78181-4.928-4.92736q9.35-4.03477,18.50281-8.64Z"/></g></g><g id="Group-3" data-name="Group"><g id="Combined-Shape-3" data-name="Combined-Shape"><path class="cls-2" d="M263.44135,886.11145a131.10542,131.10542,0,0,1,0-185.41105l33.05618-33.05625a372.14171,372.14171,0,0,0,28.219,50.88687l-21.61128,21.61423a78.66335,78.66335,0,0,0,110.31933,112.159l.92729-.91239L588.07749,677.66758l34.61033,34.61033L448.8524,886.11144A131.10541,131.10541,0,0,1,263.44135,886.11145Z"/><path class="cls-2" d="M391.13292,758.41988C293.633,660.92,265.92573,519.99334,307.91984,397.51634l42.23655,42.23528c-24.10432,97.76722,1.93165,205.23991,78.16826,281.47653a297.90255,297.90255,0,0,0,43.28557,35.82845l-37.76465,37.76221A351.12938,351.12938,0,0,1,391.13292,758.41988Z"/><path class="cls-2" d="M400.94117,643.31381a294.47442,294.47442,0,0,1-24.27-52.36669l207.39191-207.3907,38.31827,38.31828Zm-69.78181-6.85369,4.92736-4.928q4.03477,9.35,8.64,18.50281Z"/></g></g><g id="Group-4" data-name="Group"><g id="Combined-Shape-4" data-name="Combined-Shape"><path class="cls-2" d="M264.59661,130.91872a131.10542,131.10542,0,0,1,185.41105,0l33.05624,33.05619a372.14106,372.14106,0,0,0-50.88686,28.219L410.56281,170.5826a78.66335,78.66335,0,0,0-112.159,110.31933l.91238.92729L473.04047,455.55486l-34.61032,34.61033L264.59661,316.32977A131.10541,131.10541,0,0,1,264.59661,130.91872Z"/><path class="cls-2" d="M392.28818,258.6103c97.49992-97.49993,238.42654-125.2072,360.90354-83.21309l-42.23528,42.23655c-97.76722-24.10432-205.23992,1.93165-281.47653,78.16826a297.90191,297.90191,0,0,0-35.82845,43.28557l-37.76222-37.76465A351.12773,351.12773,0,0,1,392.28818,258.6103Z"/><path class="cls-2" d="M507.39424,268.41854a294.47408,294.47408,0,0,1,52.3667-24.27l207.3907,207.3919L728.83336,489.8587Zm6.8537-69.78181,4.928,4.92736q-9.35,4.03477-18.5028,8.64Z"/></g></g></g></g></g><path id="COVID" class="cls-3" d="M1425.27174,520.58183q47.23407,0,81.81145-15.26616a145.16819,145.16819,0,0,0,57.54192-45.27693h0l-34.96879-36.79554a17.02525,17.02525,0,0,0-6.00211-4.04485,17.53007,17.53007,0,0,0-13.831.52188,30.85965,30.85965,0,0,0-6.785,4.30588,108.00666,108.00666,0,0,1-15.52718,11.35182,85.09648,85.09648,0,0,1-16.17966,7.43747,90.48053,90.48053,0,0,1-18.39776,4.04486,187.36781,187.36781,0,0,1-21.92074,1.17427,95.57771,95.57771,0,0,1-39.14424-8.08971,91.91192,91.91192,0,0,1-31.96769-23.61705q-13.70056-15.52719-21.6598-38.23082t-7.95936-51.93135q0-27.92284,7.95936-50.36555t22.18168-38.23082a96.12463,96.12463,0,0,1,34.05546-24.26944q19.83306-8.48108,43.84148-8.48124a122.87267,122.87267,0,0,1,24.13893,2.08768,110.00011,110.00011,0,0,1,18.00639,5.08878,79.09615,79.09615,0,0,1,13.309,6.52406q5.61066,3.52307,10.308,6.52407a98.09555,98.09555,0,0,0,8.87269,5.08878,19.57573,19.57573,0,0,0,8.87269,2.08768q7.046,0,10.96037-3.0011a37.87747,37.87747,0,0,0,6.785-6.65457h0l29.74958-39.92706a145.91107,145.91107,0,0,0-24.53038-20.48545,166.35456,166.35456,0,0,0-30.27147-15.91863,197.06982,197.06982,0,0,0-35.36032-10.43849,205.39891,205.39891,0,0,0-40.3185-3.78391q-44.10243,0-80.6371,14.35291t-62.7612,40.188a182.29656,182.29656,0,0,0-40.84039,61.45634q-14.61393,35.62134-14.61385,78.158,0,41.754,12.78711,77.37506,12.78708,35.62134,36.665,61.58685,23.878,25.96567,58.1944,40.71T1425.27174,520.58183Zm417.29848,0q44.36352,0,80.76753-14.87479,36.40416-14.8748,62.2394-41.10141a184.91691,184.91691,0,0,0,40.05749-61.71736q14.2224-35.49067,14.2224-76.72267,0-40.97089-14.2224-76.46165a183.48851,183.48851,0,0,0-40.05749-61.58685q-25.83524-26.0961-62.2394-41.10141-36.40392-15.00534-80.76753-15.0053-44.36327,0-80.898,14.87479-36.53458,14.8748-62.50026,40.971a182.50024,182.50024,0,0,0-40.188,61.58677q-14.2224,35.49092-14.2224,76.72267,0,41.232,14.2224,76.72267a183.91487,183.91487,0,0,0,40.188,61.71736q25.96567,26.22654,62.50026,41.10141T1842.57022,520.58183Zm0-73.06918q-25.57413,0-45.53779-8.22022a89.101,89.101,0,0,1-33.66392-23.87807q-13.70045-15.65761-21.00733-38.23083-7.307-22.573-7.307-51.01793,0-28.18371,7.307-50.75692,7.30672-22.57329,21.00733-38.23082a90.36564,90.36564,0,0,1,33.66392-24.00842q19.96374-8.35089,45.53779-8.35089,25.31329,0,45.14643,8.35089a90.5951,90.5951,0,0,1,33.53341,24.00842q13.70044,15.65761,21.00749,38.23082,7.307,22.573,7.30681,50.75692,0,28.4448-7.30681,51.01793-7.307,22.5733-21.00749,38.23083a89.31625,89.31625,0,0,1-33.53341,23.87807Q1867.88359,447.51264,1842.57022,447.51265Zm484.62659,68.89382,152.40141-380.22072h-71.50338q-10.96045,0-18.52828,5.87168T2379.389,155.236h0l-73.06918,203.54978q-4.69717,13.30915-9.525,28.96668-4.82784,15.65785-8.48124,32.88119-4.43629-17.22349-9.52516-32.88119-5.08869-15.65762-10.047-28.96668h0L2195.15033,155.236a28.594,28.594,0,0,0-10.43841-13.83095q-7.307-5.21925-18.7893-5.21929h-70.9815L2247.3427,516.40647Zm340.054,0V136.18575h-88.72688V516.40647Zm277.94512,0q44.36352,0,80.76735-14.22241,36.40417-14.2224,62.23941-39.66611a177.96872,177.96872,0,0,0,40.05749-60.28207q14.2224-34.83828,14.22256-76.07028,0-40.97089-14.22256-75.80926a176.58164,176.58164,0,0,0-40.05749-60.15156q-25.83523-25.31328-62.23941-39.66612-36.40367-14.35282-80.76735-14.35291H2797.49176V516.40647Zm0-67.8499h-58.9773V204.03565h58.9773q25.31328,0,45.14625,8.4814a91.228,91.228,0,0,1,33.53359,24.26928q13.70019,15.78828,21.00749,38.49184,7.30647,22.70373,7.30664,50.88743,0,28.4448-7.30664,51.14844-7.307,22.70373-21.00749,38.49185a91.23018,91.23018,0,0,1-33.53359,24.26944q-19.833,8.48107-45.14625,8.48124Z"/><path id="GREEN" class="cls-3" d="M1364.08869,894.55543a223.84048,223.84048,0,0,0,27.68052-1.59376,151.84683,151.84683,0,0,0,23.90594-4.865,128.55064,128.55064,0,0,0,20.97011-8.13651,133.36566,133.36566,0,0,0,18.87308-11.40773h0V776.28408h-73.81478v18.45367a6.02392,6.02392,0,0,0,1.9293,4.52952,7.09378,7.09378,0,0,0,5.11664,1.84535h37.243v53.01249q-6.375,3.35508-12.74981,5.95554a104.57058,104.57058,0,0,1-13.58871,4.44564,113.581,113.581,0,0,1-15.3501,2.768,159.26749,159.26749,0,0,1-17.86655.92268,93.65567,93.65567,0,0,1-35.56527-6.54276,78.55759,78.55759,0,0,1-27.84832-18.95686,85.905,85.905,0,0,1-18.202-30.2809q-6.45882-17.86662-6.45881-40.68192,0-21.809,6.20713-39.33992a83.897,83.897,0,0,1,17.78268-29.86156,77.71148,77.71148,0,0,1,28.016-18.95687q16.44056-6.62653,36.73963-6.62662a115.95762,115.95762,0,0,1,24.07367,2.181,101.96093,101.96093,0,0,1,17.61487,5.28446,80.44614,80.44614,0,0,1,12.66594,6.45873q5.2006,3.35532,9.39465,5.704a11.8892,11.8892,0,0,0,5.8716,1.84535q4.52955,0,7.38148-4.52968h0l9.22684-14.76281a118.38043,118.38043,0,0,0-16.60832-12.666,105.89551,105.89551,0,0,0-19.37636-9.56237,123.91308,123.91308,0,0,0-22.73159-6.03941,157.26259,157.26259,0,0,0-26.50624-2.09695q-28.18383,0-50.91538,8.8913A107.83844,107.83844,0,0,0,1253.786,721.594q-8.63979,22.64765-8.6397,50.16059,0,27.17709,8.80743,49.825a114.24347,114.24347,0,0,0,24.57695,38.83657,110.48547,110.48547,0,0,0,37.57843,25.16416Q1337.91795,894.55551,1364.08869,894.55543Zm379.353-2.68416v-100.321h24.66081q6.7104,0,10.06573,1.76149a18.17767,18.17767,0,0,1,6.20714,5.78781h0l62.407,85.89351q4.194,6.87814,13.08535,6.87822h28.85487l-70.124-95.4559a34.37129,34.37129,0,0,0-10.73664-10.23346,92.18106,92.18106,0,0,0,24.9124-9.39464,69.7528,69.7528,0,0,0,18.62157-15.01457,62.91815,62.91815,0,0,0,11.65932-19.87971,69.18071,69.18071,0,0,0,4.02617-23.822,70.36473,70.36473,0,0,0-5.20044-27.59656,53.40362,53.40362,0,0,0-16.02127-21.05414q-10.8205-8.7234-27.42883-13.337Q1801.82239,651.47,1779.007,651.47h-67.94319v240.4013Zm34.05546-123.9753h-34.05546V677.13732H1779.007q28.016,0,42.19181,10.90454,14.17584,10.90437,14.17576,32.37784a49.02839,49.02839,0,0,1-3.6907,19.29248,40.3581,40.3581,0,0,1-10.98841,15.01457,51.02818,51.02818,0,0,1-18.11805,9.73011,82.9098,82.9098,0,0,1-25.0803,3.43911Zm496.61779,123.9753V865.36511H2158.69546V783.33h93.44281V757.8304h-93.44281V677.97613h115.41946V651.47H2125.98216v240.4013Zm397.13557,0V865.36511H2555.831V783.33h93.44281V757.8304H2555.831V677.97613h115.41946V651.47H2523.11773v240.4013Zm277.52222,0V720.58743q0-3.35533-.16773-7.38141-.16773-4.02648-.50336-8.22038h0l139.0739,181.014a16.30827,16.30827,0,0,0,5.11673,4.52952,13.98362,13.98362,0,0,0,6.45857,1.34216h16.44075V651.47H3086.672v170.2773q0,3.85851.16773,7.96862.16821,4.11011.67124,8.472h0L2948.26935,657.006a16.712,16.712,0,0,0-4.7811-4.44565,14.60023,14.60023,0,0,0-6.4589-1.0904h-16.776v240.4013Z"/></svg>