<svg id="Layer_1" data-name="Layer 1" xmlns="http://www.w3.org/2000/svg" viewBox="0 0 494 211"><defs><style>.cls-1{fill:#fff;}</style></defs><path class="cls-1" d="M131.36452,86.32134c-23.51127,0-37.91311-15.32861-37.91311-40.91328,0-25.203,14.40184-40.47712,37.53141-40.47712,18.38374,0,32.24,10.85559,34.58568,26.78474H149.03931c-2.40015-8.23762-9.10994-13.14681-18.002-13.14681-12.98293,0-20.78388,9.87384-20.78388,26.62087,0,17.07476,8.29157,27.49419,21.38391,27.49419,10.74668,0,18.22037-6.60089,18.54763-16.36582l.05446-1.25452H133.11015V43.06238h33.16729V51.954C166.27744,73.39287,153.29451,86.32134,131.36452,86.32134Z"/><path class="cls-1" d="M226.08708,65.91916H198.42952l-6.00085,19.0932H175.51778l27.3303-78.718h19.366l27.38477,78.718H232.08792ZM201.97527,53.59072h20.56605l-10.09216-32.24h-.38172Z"/><path class="cls-1" d="M315.35486,85.01236H263.20331V6.29436h52.15158V19.87785H279.678V38.86164h33.65842V51.51782H279.678V71.37443h35.67685Z"/><path class="cls-1" d="M332.83231,85.01236V6.29436h13.74734L383.34717,57.5731h.43664V6.29438h15.7648v78.718H385.91116l-36.82245-51.551h-.49063v51.551Z"/><path class="cls-1" d="M54.10166,147.23712c.83935,6.19769,6.59738,9.95629,14.874,9.95629,7.83742,0,13.515-4.11881,13.515-9.79641,0-4.83825-3.19852-8.03677-11.19581-9.7964l-6.39754-1.39941c-11.55554-2.519-16.55367-7.757-16.55367-15.95363,0-9.51662,8.397-16.19394,20.35221-16.19394,11.51558,0,19.83264,6.87766,20.15239,16.67357H81.6508c-.6395-6.3176-5.63762-10.1961-13.1548-10.1961-7.19742,0-12.75511,3.51878-12.75511,9.39672,0,4.558,3.07911,7.67705,10.956,9.39621l6.39754,1.39941c12.03517,2.63895,16.79348,7.43723,16.79348,15.59392,0,10.67623-8.397,17.35355-21.312,17.35355-12.59524,0-20.99173-6.47748-21.6717-16.43376Z"/><path class="cls-1" d="M97.67688,178.02525v-5.838a14.69689,14.69689,0,0,0,2.71889.20034c3.87848,0,6.03782-1.87954,7.63707-6.71778l.95975-2.91875L93.6385,121.12733h7.43724L112.59131,155.754h.11991l11.51557-34.62665h7.31683l-16.35331,44.5025c-3.55874,9.71648-6.99758,12.6352-14.51475,12.6352A18.22619,18.22619,0,0,1,97.67688,178.02525Z"/><path class="cls-1" d="M137.01538,121.12737h6.55742v6.63734h.15987a12.431,12.431,0,0,1,11.79536-7.35729c5.6776,0,9.87634,2.87877,11.67545,7.91686h.15986a13.9169,13.9169,0,0,1,13.0349-7.91686c8.23711,0,13.555,5.35784,13.555,13.595v28.70874h-6.95711V135.60164c0-5.6781-3.159-9.0365-8.6368-9.0365-5.51773,0-9.39671,4.07834-9.39671,9.716v26.43h-6.95711V134.84174c0-4.99813-3.3589-8.2766-8.5169-8.2766-5.51772,0-9.51612,4.31816-9.51612,10.07619v26.06979h-6.9571Z"/><path class="cls-1" d="M240.765,141.91924c0,13.03489-7.157,21.51182-17.63333,21.51182a14.60918,14.60918,0,0,1-13.23474-7.4772H209.737v20.632h-6.95711V121.12737h6.5974v7.037h.15988a14.92631,14.92631,0,0,1,13.43459-7.757C233.568,120.40742,240.765,128.88435,240.765,141.91924Zm-7.117,0c0-9.39672-4.63839-15.39408-12.03567-15.39408-7.117,0-11.91527,6.15773-11.91527,15.39408,0,9.2763,4.79828,15.39407,11.91525,15.39407C229.00957,157.31331,233.648,151.35542,233.648,141.91924Z"/><path class="cls-1" d="M245.71561,141.91924c0-13.27521,7.757-21.51183,19.27255-21.51183,11.47559,0,19.23309,8.2366,19.23309,21.51183,0,13.23474-7.75747,21.51182-19.23309,21.51182C253.4726,163.43106,245.71561,155.154,245.71561,141.91924Zm31.42813,0c0-9.79641-4.79828-15.39408-12.15558-15.39408s-12.19556,5.59767-12.19556,15.39408c0,9.79591,4.83826,15.39407,12.19556,15.39407S277.14374,151.71515,277.14374,141.91924Z"/><path class="cls-1" d="M305.76556,120.40742c9.117,0,15.19422,5.35784,15.474,12.71514h-6.63687c-.51959-4.35863-3.71911-7.03754-8.83716-7.03754-5.07806,0-8.43646,2.519-8.43646,6.15772,0,2.87877,2.11936,4.83825,6.75778,5.95788l6.5969,1.59926c8.39749,2.03941,11.43612,5.31789,11.43612,11.27576,0,7.23739-6.8377,12.35542-16.11352,12.35542-9.75644,0-15.83472-4.91818-16.6341-12.71513h6.95761c.83936,4.75781,4.03788,7.037,9.67652,7.037,5.63763,0,9.11593-2.39914,9.11593-6.15773,0-2.99867-1.63974-4.71783-6.397-5.87744l-6.5979-1.59976c-7.83691-1.87905-11.636-5.51773-11.636-11.51558C290.49139,125.48547,296.76953,120.40742,305.76556,120.40742Z"/><path class="cls-1" d="M328.79071,109.37147a4.35813,4.35813,0,1,1,4.35764,4.35862h0a4.34215,4.34215,0,0,1-4.35764-4.32661Q328.79067,109.38748,328.79071,109.37147Zm.87933,11.75588h6.95762v41.58376H329.67Z"/><path class="cls-1" d="M380.16788,162.71112H373.571v-6.75726h-.16088c-2.47907,4.79777-6.79673,7.4772-13.19477,7.4772-9.076,0-14.39383-5.87794-14.39383-15.31412V121.12737h6.95661v25.75c0,6.75726,3.15954,10.39593,9.59655,10.39593,6.75776,0,10.83561-4.63841,10.83561-11.71542V121.12737h6.95761Z"/><path class="cls-1" d="M389.1579,121.12737h6.55691v6.63734h.15988a12.43225,12.43225,0,0,1,11.79584-7.35729c5.67761,0,9.87635,2.87877,11.676,7.91686h.15988a13.91585,13.91585,0,0,1,13.03488-7.91686c8.2366,0,13.5545,5.35784,13.5545,13.595v28.70874h-6.95761V135.60164c0-5.6781-3.15857-9.0365-8.63632-9.0365-5.51773,0-9.3967,4.07834-9.3967,9.716v26.43h-6.9566V134.84174c0-4.99813-3.35941-8.2766-8.5174-8.2766-5.51773,0-9.51663,4.31816-9.51663,10.07619v26.06979H389.1579Z"/><polygon class="cls-1" points="489 206.2 4 206.2 4 55.337 58.373 55.337 58.373 57.383 6.046 57.383 6.046 204.154 486.954 204.154 486.954 57.383 426.204 57.383 426.204 55.337 489 55.337 489 206.2"/></svg>