<svg id="Layer_1" data-name="Layer 1" xmlns="http://www.w3.org/2000/svg" viewBox="0 0 360 360"><defs><style>.cls-1{fill:#00746d;}.cls-2{fill:#6dc612;fill-rule:evenodd;}</style></defs><rect class="cls-1" x="0.68423" y="0.09849" width="360" height="360"/><g id="covid-green-logo-inverse"><g id="Group"><g id="knot"><g id="Combined-Shape"><path class="cls-2" d="M309.34839,51.9888a44.77283,44.77283,0,0,1,0,63.31835l-11.28877,11.28879a127.08659,127.08659,0,0,0-9.63685-17.378l7.38031-7.38132A26.86374,26.86374,0,0,0,258.12874,63.534l-.31667.31158-59.32775,59.32729L186.66481,111.3534l59.36524-59.3646A44.77282,44.77282,0,0,1,309.34839,51.9888Z"/><path class="cls-2" d="M265.7414,95.5958a119.36891,119.36891,0,0,1,28.41748,123.24948L279.735,204.42182a101.48724,101.48724,0,0,0-41.4768-108.36046l12.89673-12.89589A119.91158,119.91158,0,0,1,265.7414,95.5958Z"/><path class="cls-2" d="M262.39186,134.90481a100.56474,100.56474,0,0,1,8.28827,17.88336l-70.82487,70.82446-13.08579-13.08579Zm23.83066,2.34056-1.68271,1.68293q-1.37788-3.193-2.95057-6.31875Z"/></g><g id="Group-2" data-name="Group"><g id="Combined-Shape-2" data-name="Combined-Shape"><path class="cls-2" d="M308.53175,309.4669a44.77283,44.77283,0,0,1-63.31835,0l-11.28879-11.28877a127.08884,127.08884,0,0,0,17.378-9.63685l7.38132,7.3803a26.86373,26.86373,0,0,0,38.30258-37.67433l-.31158-.31667-59.32729-59.32775,11.81952-11.81952,59.36459,59.36524A44.77284,44.77284,0,0,1,308.53175,309.4669Z"/><path class="cls-2" d="M264.92475,265.8599a119.36889,119.36889,0,0,1-123.24948,28.41748l14.42345-14.42389A101.48722,101.48722,0,0,0,264.45918,238.3767l12.8959,12.89672A119.91171,119.91171,0,0,1,264.92475,265.8599Z"/><path class="cls-2" d="M225.61573,262.51036a100.56338,100.56338,0,0,1-17.88336,8.28827l-70.82445-70.82486L149.99371,186.888ZM223.27518,286.341l-1.68293-1.68271q3.193-1.37788,6.31875-2.95058Z"/></g></g><g id="Group-3" data-name="Group"><g id="Combined-Shape-3" data-name="Combined-Shape"><path class="cls-2" d="M52.02006,308.63033a44.77284,44.77284,0,0,1,0-63.31835l11.28877-11.28879a127.08836,127.08836,0,0,0,9.63685,17.378l-7.3803,7.38131a26.86373,26.86373,0,0,0,37.67433,38.30259l.31667-.31158,59.32775-59.32729,11.81952,11.81951-59.36524,59.3646A44.77283,44.77283,0,0,1,52.02006,308.63033Z"/><path class="cls-2" d="M95.62706,265.02333A119.36889,119.36889,0,0,1,67.20958,141.77385l14.42389,14.42346a101.48729,101.48729,0,0,0,41.47679,108.36046l-12.89672,12.89589A119.91082,119.91082,0,0,1,95.62706,265.02333Z"/><path class="cls-2" d="M98.9766,225.71432A100.56371,100.56371,0,0,1,90.68833,207.831l70.82486-70.82445L174.599,150.09229Zm-23.83066-2.34056,1.6827-1.68293q1.37789,3.193,2.95058,6.31876Z"/></g></g><g id="Group-4" data-name="Group"><g id="Combined-Shape-4" data-name="Combined-Shape"><path class="cls-2" d="M52.41459,50.73009a44.77282,44.77282,0,0,1,63.31834,0l11.28879,11.28877a127.08777,127.08777,0,0,0-17.378,9.63685l-7.38131-7.38031a26.86374,26.86374,0,0,0-38.30259,37.67434l.31158.31667,59.32729,59.32775-11.81952,11.81951L52.41459,114.04843A44.77282,44.77282,0,0,1,52.41459,50.73009Z"/><path class="cls-2" d="M96.02158,94.33708A119.36891,119.36891,0,0,1,219.27106,65.9196L204.84761,80.34349a101.48718,101.48718,0,0,0-108.36046,41.4768l-12.8959-12.89673A119.91247,119.91247,0,0,1,96.02158,94.33708Z"/><path class="cls-2" d="M135.3306,97.68662A100.56409,100.56409,0,0,1,153.214,89.39835l70.82445,70.82487L210.95262,173.309ZM137.67115,73.856l1.68294,1.68271q-3.193,1.37789-6.31876,2.95057Z"/></g></g></g></g></g></svg>