<svg id="Layer_1" data-name="Layer 1" xmlns="http://www.w3.org/2000/svg" viewBox="0 0 2165.5892 1884"><defs><style>.cls-1{fill:#00746d;}.cls-2{fill:#6dc612;fill-rule:evenodd;}</style></defs><g id="covid-green-logo-inverse"><path id="COVID" class="cls-1" d="M245.46825,1433.0654q51.67771,0,89.508-16.70236a158.82521,158.82521,0,0,0,62.95531-49.53646h0L359.673,1326.56942a18.62683,18.62683,0,0,0-6.56677-4.42538,19.17927,19.17927,0,0,0-15.13213.571,33.76256,33.76256,0,0,0-7.42332,4.71095,118.16579,118.16579,0,0,1-16.98794,12.41977,93.10255,93.10255,0,0,1-17.70179,8.13718,98.99256,98.99256,0,0,1-20.12858,4.42538,204.9956,204.9956,0,0,1-23.983,1.28474,104.56931,104.56931,0,0,1-42.82682-8.85076,100.55873,100.55873,0,0,1-34.97513-25.83888q-14.98948-16.98794-23.6975-41.82748t-8.70815-56.8169q0-30.54975,8.70815-55.1038t24.26847-41.82748a105.16793,105.16793,0,0,1,37.25931-26.55264q21.69889-9.279,47.966-9.27913a134.43138,134.43138,0,0,1,26.40986,2.28409,120.34862,120.34862,0,0,1,19.70039,5.56751,86.537,86.537,0,0,1,14.56106,7.13783q6.1385,3.85449,11.27773,7.13783a107.32215,107.32215,0,0,0,9.70741,5.56752,21.41732,21.41732,0,0,0,9.7074,2.28408q7.70886,0,11.99149-3.28343a41.43988,41.43988,0,0,0,7.42333-7.28062h0l32.54834-43.68328a159.63716,159.63716,0,0,0-26.83813-22.41266,182.00469,182.00469,0,0,0-33.11932-17.41622,215.60912,215.60912,0,0,0-38.68693-11.42051,224.7224,224.7224,0,0,0-44.11156-4.1399q-48.25146,0-88.22321,15.7032t-68.66561,43.96877a199.44678,199.44678,0,0,0-44.68254,67.238q-15.98877,38.97251-15.98868,85.51085,0,45.68205,13.99009,84.65429,13.99,38.9725,40.11436,67.38078,26.12433,28.40846,63.66917,44.53993T245.46825,1433.0654Zm456.55678,0q48.53712,0,88.36591-16.27417,39.829-16.27417,68.09472-44.96812a202.3134,202.3134,0,0,0,43.826-67.52356q15.5604-38.82954,15.5604-83.94053,0-44.82533-15.5604-83.655a200.75066,200.75066,0,0,0-43.826-67.38078q-28.26575-28.55115-68.09472-44.96812-39.82869-16.417-88.36591-16.417-48.53685,0-88.5087,16.27418-39.97166,16.27416-68.38012,44.82541a199.66952,199.66952,0,0,0-43.96877,67.38069q-15.5604,38.8298-15.56041,83.94053,0,45.111,15.56041,83.94053a201.21723,201.21723,0,0,0,43.96877,67.52356q28.40846,28.69386,68.38012,44.96812T702.025,1433.0654Zm0-79.94333q-27.98009,0-49.82186-8.99356a97.48355,97.48355,0,0,1-36.83094-26.12445q-14.98933-17.13064-22.98364-41.82748-7.99439-24.69666-7.99439-55.81756,0-30.83516,7.99439-55.532,7.99411-24.69693,22.98364-41.82747a98.867,98.867,0,0,1,36.83094-26.26707Q674.045,1087.596,702.025,1087.596q27.69469,0,49.39368,9.13652a99.118,99.118,0,0,1,36.68815,26.26707q14.98933,17.13063,22.98382,41.82747,7.99438,24.69666,7.9942,55.532,0,31.12081-7.9942,55.81756-7.9944,24.69693-22.98382,41.82748a97.719,97.719,0,0,1-36.68815,26.12445Q729.71982,1353.12206,702.025,1353.12207Zm530.21893,75.37516,166.73893-415.99085h-78.23023q-11.99157,0-20.27136,6.42407t-11.135,14.41837h0L1209.40293,1256.048q-5.139,14.56125-10.42108,31.6918-5.282,17.1309-9.27913,35.97456-4.85366-18.84384-10.42126-35.97456-5.56741-17.13065-10.99224-31.6918h0l-80.51431-222.69918a31.28406,31.28406,0,0,0-11.42042-15.13214q-7.99439-5.71024-20.55695-5.7103H978.13829l166.73911,415.99085Zm372.04537,0V1012.50638h-97.07406v415.99085Zm304.09344,0q48.53712,0,88.36573-15.56041,39.829-15.5604,68.09472-43.39779a194.71161,194.71161,0,0,0,43.826-65.95325q15.5604-38.11577,15.56058-83.22676,0-44.82533-15.56058-82.94119a193.194,193.194,0,0,0-43.826-65.81046q-28.26575-27.69468-68.09472-43.39779-39.82843-15.70311-88.36573-15.7032H1746.783v415.99085Zm0-74.233h-64.52572V1086.73942h64.52572q27.6947,0,49.3935,9.2793a99.81031,99.81031,0,0,1,36.68832,26.55247q14.98908,17.27361,22.98382,42.11305,7.99386,24.83962,7.994,55.67478,0,31.12081-7.994,55.96035-7.99438,24.83963-22.98382,42.11305a99.81278,99.81278,0,0,1-36.68832,26.55265q-21.69891,9.279-49.3935,9.27913Z"/><path id="GREEN" class="cls-1" d="M178.52926,1842.22142a244.8971,244.8971,0,0,0,30.28462-1.7437,166.13261,166.13261,0,0,0,26.155-5.32265,140.644,140.644,0,0,0,22.94291-8.902,145.9119,145.9119,0,0,0,20.64861-12.48093h0V1712.82342H197.80128v20.18974a6.59062,6.59062,0,0,0,2.11081,4.95564,7.76117,7.76117,0,0,0,5.598,2.019h40.7467v57.99976q-6.97468,3.67071-13.94928,6.51582a114.40828,114.40828,0,0,1-14.86709,4.86388,124.26813,124.26813,0,0,1-16.79421,3.02844,174.25157,174.25157,0,0,1-19.54738,1.00948,102.46662,102.46662,0,0,1-38.91115-7.15828,85.94809,85.94809,0,0,1-30.46822-20.74028,93.9867,93.9867,0,0,1-19.91439-33.12964q-7.06644-19.54746-7.06644-44.50916,0-23.86074,6.79108-43.04091a91.78987,91.78987,0,0,1,19.45562-32.67087,85.02262,85.02262,0,0,1,30.65173-20.74027q17.98723-7.25,40.196-7.25a126.86634,126.86634,0,0,1,26.33846,2.38616,111.55314,111.55314,0,0,1,19.272,5.7816,88.015,88.015,0,0,1,13.85752,7.06635q5.68984,3.671,10.27847,6.24056a13.00773,13.00773,0,0,0,6.424,2.019q4.95569,0,8.07592-4.95582h0l10.09487-16.15165a129.51586,129.51586,0,0,0-18.17079-13.85762,115.858,115.858,0,0,0-21.19923-10.462,135.57179,135.57179,0,0,0-24.87012-6.60758,172.05757,172.05757,0,0,0-28.99988-2.29422q-30.83527,0-55.70536,9.72777a117.98355,117.98355,0,0,0-69.37937,69.93q-9.45259,24.77827-9.4525,54.87957,0,29.73382,9.636,54.51237a124.99117,124.99117,0,0,0,26.88908,42.49021,120.87944,120.87944,0,0,0,41.11371,27.53154Q149.89644,1842.2215,178.52926,1842.22142Zm415.04147-2.93668v-109.759h26.98084q7.34169,0,11.01268,1.9272a19.88778,19.88778,0,0,1,6.79109,6.33231h0l68.27805,93.97415q4.58853,7.5252,14.31639,7.5253h31.56945l-76.72108-104.43613a37.60463,37.60463,0,0,0-11.74672-11.19619,100.85336,100.85336,0,0,0,27.2561-10.27848,76.31486,76.31486,0,0,0,20.37343-16.42709,68.83724,68.83724,0,0,0,12.7562-21.74993,75.68935,75.68935,0,0,0,4.40493-26.06311,76.98464,76.98464,0,0,0-5.68967-30.19278,58.42762,58.42762,0,0,0-17.52851-23.03485q-11.83848-9.54408-30.00927-14.59165-18.17088-5.04731-43.13266-5.0474H558.14687v263.01761ZM630.83,1703.64618H593.57073v-99.297H632.482q30.65163,0,46.1611,11.93041,15.50946,11.93023,15.50937,35.42386a53.64087,53.64087,0,0,1-4.03791,21.10747,44.15482,44.15482,0,0,1-12.02217,16.4271,55.82887,55.82887,0,0,1-19.82255,10.64549,90.70964,90.70964,0,0,1-27.43978,3.76265Zm543.33824,135.63856V1810.285H1047.89047v-89.75272h102.23365v-27.89856H1047.89047v-87.36675h126.27781v-28.99979H1012.09959v263.01761Zm434.497,0V1810.285H1482.38747v-89.75272h102.23366v-27.89856H1482.38747v-87.36675h126.27781v-28.99979H1446.59659v263.01761Zm303.63075,0V1651.887q0-3.671-.18351-8.07583-.18351-4.40529-.5507-8.99373h0l152.15759,198.04325a17.8427,17.8427,0,0,0,5.59809,4.95564,15.29921,15.29921,0,0,0,7.06618,1.46843h17.98746V1576.26713h-31.20262v186.29653q0,4.22151.18351,8.71829.184,4.49678.7344,9.269h0L1911.74533,1582.324a18.28438,18.28438,0,0,0-5.2309-4.86389q-2.2944-1.19307-7.06653-1.193h-18.3543v263.01761Z"/><g id="Group"><g id="knot"><g id="Combined-Shape"><path class="cls-2" d="M1471.72936,69.28022a130.08693,130.08693,0,0,1,0,183.97068L1438.93,286.05035a369.25049,369.25049,0,0,0-27.99976-50.49155l21.4434-21.44632a78.05226,78.05226,0,0,0-109.46232-111.2877l-.92008.9053-172.37605,172.3747-34.34145-34.34145,172.485-172.4831A130.08691,130.08691,0,0,1,1471.72936,69.28022Z"/><path class="cls-2" d="M1345.02977,195.97982c96.74249,96.74249,124.23452,236.57431,82.56663,358.09985L1385.688,512.17249c23.91707-97.00771-1.91664-203.6455-77.561-279.28987a295.5878,295.5878,0,0,0-42.9493-35.55012l37.47128-37.46885A348.401,348.401,0,0,1,1345.02977,195.97982Z"/><path class="cls-2" d="M1335.29772,310.19167a292.18708,292.18708,0,0,1,24.08147,51.95989L1153.59842,567.93113l-38.0206-38.0206Zm69.2397,6.80046-4.88908,4.88974q-4.00344-9.27736-8.57286-18.35907Z"/></g><g id="Group-2" data-name="Group"><g id="Combined-Shape-2" data-name="Combined-Shape"><path class="cls-2" d="M1469.3566,817.37966a130.08692,130.08692,0,0,1-183.97068,0l-32.79944-32.79938a369.25168,369.25168,0,0,0,50.49155-27.99976l21.44631,21.4434a78.05226,78.05226,0,0,0,111.28771-109.46231l-.9053-.92009L1262.532,495.26547,1296.8735,460.924l172.4831,172.485A130.0869,130.0869,0,0,1,1469.3566,817.37966Z"/><path class="cls-2" d="M1342.657,690.68007c-96.74249,96.74249-236.57431,124.23452-358.09985,82.56664l41.90717-41.90844c97.00772,23.91707,203.64551-1.91664,279.28987-77.561a295.58833,295.58833,0,0,0,35.55012-42.9493l37.46886,37.47127A348.40184,348.40184,0,0,1,1342.657,690.68007Z"/><path class="cls-2" d="M1228.44515,680.948a292.187,292.187,0,0,1-51.95988,24.08147L970.70569,499.24872l38.0206-38.0206Zm-6.80046,69.2397-4.88974-4.88908q9.27736-4.00342,18.35907-8.57286Z"/></g></g><g id="Group-3" data-name="Group"><g id="Combined-Shape-3" data-name="Combined-Shape"><path class="cls-2" d="M724.06507,814.949a130.0869,130.0869,0,0,1,0-183.97067l32.79938-32.79945a369.25061,369.25061,0,0,0,27.99976,50.49155l-21.4434,21.44632a78.05225,78.05225,0,0,0,109.46231,111.2877l.92009-.9053,172.376-172.37471,34.34146,34.34146L908.03574,814.949A130.0869,130.0869,0,0,1,724.06507,814.949Z"/><path class="cls-2" d="M850.76466,688.24943C754.02217,591.50694,726.53014,451.67512,768.198,330.14958l41.90843,41.90718c-23.91706,97.00771,1.91665,203.6455,77.561,279.28987a295.58825,295.58825,0,0,0,42.9493,35.55011L893.14549,724.3656A348.40108,348.40108,0,0,1,850.76466,688.24943Z"/><path class="cls-2" d="M860.49671,574.03757a292.18629,292.18629,0,0,1-24.08147-51.95988L1042.196,316.29812l38.02059,38.02059Zm-69.2397-6.80045,4.88908-4.88974q4.00342,9.27736,8.57286,18.35906Z"/></g></g><g id="Group-4" data-name="Group"><g id="Combined-Shape-4" data-name="Combined-Shape"><path class="cls-2" d="M725.21135,65.623a130.08693,130.08693,0,0,1,183.97068,0l32.79944,32.79939a369.25054,369.25054,0,0,0-50.49155,27.99975L870.0436,104.97879A78.05225,78.05225,0,0,0,758.7559,214.4411l.9053.92009,172.37471,172.376-34.34146,34.34146-172.4831-172.485A130.08692,130.08692,0,0,1,725.21135,65.623Z"/><path class="cls-2" d="M851.91094,192.32264c96.74249-96.74249,236.57431-124.23452,358.09985-82.56664l-41.90718,41.90843c-97.00771-23.91706-203.6455,1.91664-279.28987,77.561a295.58772,295.58772,0,0,0-35.55011,42.9493l-37.46886-37.47127A348.40108,348.40108,0,0,1,851.91094,192.32264Z"/><path class="cls-2" d="M966.1228,202.05468a292.187,292.187,0,0,1,51.95988-24.08146L1223.86226,383.754l-38.0206,38.02059Zm6.80045-69.2397,4.88974,4.88908q-9.27737,4.00344-18.35906,8.57286Z"/></g></g></g></g></g></svg>