<svg id="Layer_1" data-name="Layer 1" xmlns="http://www.w3.org/2000/svg" viewBox="0 0 664 500"><path d="M249.88092,180.067c4.18988,2.18084,8.48865,4.197,12.47766,6.70288,2.549,1.60125,4.346,1.13092,6.534-.44965a254.938,254.938,0,0,0,21.19488-17.26507,224.51688,224.51688,0,0,0,26.49646-28.23249c1.46125-1.86059,1.675-3.26068.27289-5.48907a106.77764,106.77764,0,0,1-5.91315-11.73743c-3.139-6.70441-3.16333-6.75287-10.12158-4.31811-22.91949,8.01959-39.39184,23.04095-49.015,45.38354-1.727,4.00958-3.47345,8.07947-3.94715,12.93994C247.66791,178.76562,248.67352,179.4386,249.88092,180.067Z"/><path d="M327.92749,123.54437c1.44324-.22381,2.15894-1.95276,2.808-3.31421a70.81211,70.81211,0,0,0,6.05463-17.999,60.54636,60.54636,0,0,0-8.59064-44.151c-1.95092-3.12555-2.94989-3.072-4.70471.23358a64.98549,64.98549,0,0,0-8.06622,31.41205A59.59277,59.59277,0,0,0,324.94287,120.59C325.73151,121.7865,326.1983,123.81256,327.92749,123.54437Z"/><path d="M250.30811,193.331a60.814,60.814,0,0,0-16.83881-6.25647c-11.92279-2.61474-23.20667-.436-34.0285,4.7248-4.01557,1.91491-4.06067,2.748-.57044,5.33441a43.52037,43.52037,0,0,0,26.81366,8.47064,47.71919,47.71919,0,0,0,24.8067-7.121C253.939,196.45013,253.80957,195.29211,250.30811,193.331Z"/><path d="M337.02759,139.43823a197.17216,197.17216,0,0,0,27.2088,32.13422,191.71462,191.71462,0,0,0,18.75476,15.87622c1.22052.89331,2.313,1.288,3.79993.50268,4.79107-2.53015,9.61035-5.01159,14.48083-7.38415a2.66387,2.66387,0,0,0,1.61377-3.62323c-.96112-3.19336-1.74817-6.4505-2.90088-9.57282-7.019-19.01159-19.6109-33.23248-37.34088-42.925a69.75538,69.75538,0,0,0-14.727-5.93219c-1.67541-.2995-2.18793.8974-2.85626,2.02435-2.64618,4.46179-5.24311,8.95923-8.07892,13.29926C335.64954,135.87634,335.61517,137.363,337.02759,139.43823Z"/><path d="M317.24719,250.59247c-13.803-17.85211-29.57678-33.5752-48.51642-46.00592a3.59045,3.59045,0,0,0-4.40063-.11371c-4.05859,2.431-8.162,4.78815-12.27179,7.13245-4.73785,2.70251-5.01758,3.47509-3.224,8.77227,5.75385,16.994,15.53052,31.06629,30.19434,41.57874a73.13033,73.13033,0,0,0,28.06823,12.35937c2.738.76117,3.13575-.98205,3.73023-2.29565,2.09564-4.63025,3.93652-9.40656,6.73529-13.65973C319.42609,255.52814,319.3786,253.34918,317.24719,250.59247Z"/><path d="M367.92334,200.75476c3.21277-2.34906,3.22125-3.03375.43457-5.40332-3.33972-2.83984-6.78021-5.5658-10.043-8.49066a199.96615,199.96615,0,0,1-30.58453-34.35028c-.56189-.80371-.98468-1.92371-2.31012-1.83075v-.00006a4.869,4.869,0,0,0-2.36176,1.92944,241.94935,241.94935,0,0,1-41.61932,40.06867c-4.2962,3.23077-4.31848,3.6651.12494,6.87377a207.65369,207.65369,0,0,1,42.29645,40.66327c2.41436,3.08966,2.99078,3.10041,5.32238-.09216A188.35712,188.35712,0,0,1,367.92334,200.75476Z"/><path d="M470.03894,203.66724a19.84609,19.84609,0,0,0-2.26007-1.61383A71.875,71.875,0,0,0,427.7912,190.202c-9.29138.03741-18.09638,2.2561-26.65753,5.63549-2.94275,1.16162-3.04279,2.21772-.612,4.31617a13.86029,13.86029,0,0,0,1.38183,1.04559c12.17737,8.0968,25.56848,12.21545,43.30371,12.25751v-.00006c6.411.08306,15.46033-2.14478,24.25965-5.54432C472.11365,206.88977,472.2533,205.58154,470.03894,203.66724Z"/><path d="M331.7403,7C225.97882,7,140.24219,92.73663,140.24219,198.49805s85.73663,191.4981,191.49811,191.4981,191.498-85.73663,191.498-191.4981S437.50177,7,331.7403,7ZM447.57269,227.5293a70.04735,70.04735,0,0,1-30.72931-3.682c-2.134-.744-2.87585-.15076-3.54089,1.7348-7.065,20.03089-19.11957,36.22889-36.87836,48.09259a92.19028,92.19028,0,0,1-21.33459,10.61316c-2.63959.90668-3.59473,1.82386-2.72308,4.88318,6.77587,23.78266,1.129,44.52655-15.824,62.314-5.2829,5.543-5.987,5.53784-10.919-.09235a79.14551,79.14551,0,0,1-20.184-53.96734c.00214-1.15278.18-2.30542.28162-3.45771.73859-8.37591,1.87549-6.16821-5.64179-8.50421q-34.64308-10.76541-53.56073-41.54681a87.44994,87.44994,0,0,1-9.69012-22.5022c-.48761-1.74414-1.23187-2.56189-3.12622-2.18048a33.45366,33.45366,0,0,1-3.80487.34631c-22.03381-.376-39.40588-9.33008-51.71076-27.84326-1.42627-2.14587.27259-2.83069,1.1858-3.58258a64.56639,64.56639,0,0,1,18.71527-11.01184c11.15649-4.09766,22.62-5.59808,34.41864-3.094,2.24743.477,3.81115.03741,4.5979-2.71381a92.305,92.305,0,0,1,19.091-35.804,93.67057,93.67057,0,0,1,44.78851-28.97613c2.27991-.672,2.814-1.59979,2.55878-3.9-1.038-9.35455-1.28656-18.69451.98157-27.9671a77.98786,77.98786,0,0,1,17.7893-34.04687c1.88428-2.10871,3.123-2.24543,5.20325-.45276,13.25452,11.422,21.43164,25.571,23.588,43.06793a57.10933,57.10933,0,0,1-.50909,19.01221c-.52081,2.45056.17651,3.69848,2.74847,4.54529,26.96863,8.87957,46.289,26.23431,57.607,52.37738a66.3633,66.3633,0,0,1,4.42328,13.10791c.521,2.56536,2.06183,3.29461,4.51385,3.14325,10.46112-.646,20.83808-.03052,30.931,2.96844,14.38178,4.27325,27.331,11.18774,38.31739,21.53363,3.47766,3.2749,3.56781,3.68128.42608,6.90863C478.02673,218.70294,464.14862,225.79272,447.57269,227.5293Z"/><path d="M325.39136,270.55011c-4.83216,9.39539-7.597,19.31274-7.158,29.65479v-.00007a61.2296,61.2296,0,0,0,9.813,33.69141c2.3258,3.54633,3.39556,3.56616,5.24639-.22156,10.587-21.66711,9.22187-42.84015-2.8822-63.47253C328.3396,266.67206,327.34076,266.75977,325.39136,270.55011Z"/><path d="M399.49609,215.25494c-4.06878-2.161-8.0401-4.528-11.91723-7.01922-2.57874-1.657-4.60645-1.52777-7.14411.3081a191.154,191.154,0,0,0-43.74884,44.02039,4.71587,4.71587,0,0,0-1.15521,2.89777,19.97425,19.97425,0,0,0,1.08337,2.472c2.32258,3.99084,4.90717,7.84436,6.99427,11.95221,1.6571,3.26166,3.61285,3.754,6.93249,2.53448,13.35236-4.90521,24.93164-12.29553,34.36872-23.05889a75.98237,75.98237,0,0,0,16.53582-29.68824C402.06354,217.48541,401.52258,216.33112,399.49609,215.25494Z"/><path d="M7.651,465.07507v-.16131c0-15.989,12.05262-29.08628,29.32759-29.08628,10.606,0,16.95366,3.5358,22.17668,8.67817l-7.87419,9.07879c-4.33908-3.93643-8.75815-6.34695-14.38248-6.34695-9.48144,0-16.311,7.8742-16.311,17.515v.16132c0,9.64209,6.66894,17.67627,16.311,17.67627,6.42761,0,10.36471-2.5705,14.78378-6.58759l7.8742,7.95352C53.77163,490.14288,47.344,494,36.49666,494,19.94431,494,7.651,481.22409,7.651,465.07507Z"/><path d="M73.38117,465.07507v-.16131c0-15.989,12.61525-29.08628,29.97021-29.08628,17.35564,0,29.80955,12.93589,29.80955,28.92493v.16132c0,15.989-12.61457,29.08627-29.97022,29.08627S73.38117,481.06412,73.38117,465.07507Zm46.84388,0v-.16131c0-9.64209-7.07092-17.67627-17.03433-17.67627s-16.873,7.8742-16.873,17.515v.16132c0,9.64209,7.07023,17.67627,17.03364,17.67627S120.22505,474.71582,120.22505,465.07507Z"/><path d="M143.77168,436.79141h13.65918l14.7038,39.613,14.70447-39.613H200.177L177.43767,493.438H166.51031Z"/><path d="M217.45667,436.79141H229.8306v56.24466H217.45667Z"/><path d="M251.92931,436.79141h21.93534c17.677,0,29.88956,12.13327,29.88956,27.961v.16132c0,15.82907-12.21258,28.12234-29.88956,28.12234H251.92931Zm21.93534,45.07666c10.12406,0,16.95365-6.83093,16.95365-16.793v-.16131c0-9.96341-6.82959-16.95435-16.95368-16.95435h-9.5621v33.90866Z"/><path d="M342.45135,465.07507v-.16131c0-15.989,12.45459-29.08628,29.48826-29.08628,10.12408,0,16.23037,2.73185,22.096,7.71286l-7.79354,9.40143c-4.33909-3.61511-8.19617-5.70431-14.70447-5.70431-8.99878,0-16.14969,7.95352-16.14969,17.515v.16132c0,10.28473,7.07025,17.83761,17.03366,17.83761a19.74623,19.74623,0,0,0,11.65063-3.37448v-8.03552H371.61829V460.65463h24.42587v24.42658A36.503,36.503,0,0,1,372.02026,494C354.504,494,342.45135,481.70673,342.45135,465.07507Z"/><path d="M415.975,436.79141H441.6868c7.15091,0,12.69525,2.00855,16.391,5.70432,3.13382,3.13382,4.821,7.55288,4.821,12.85656v.16c0,9.08014-4.9017,14.78445-12.05261,17.437L464.586,493.0361H450.123l-12.05262-17.99893h-9.72143V493.0361H415.975Zm24.90783,27.31836c6.027,0,9.48078-3.21313,9.48078-7.95352v-.16132c0-5.30233-3.69577-8.03552-9.72141-8.03552H428.34894V464.1098Z"/><path d="M482.10645,436.79141h42.42547v11.008h-30.1322v11.41h26.51575v11.008H494.39972v11.81064h30.53284v11.008H482.10645Z"/><path d="M543.97876,436.79141h42.42548v11.008H556.272v11.41h26.51575v11.008H556.272v11.81064h30.53284v11.008H543.97876Z"/><path d="M605.85114,436.79141h11.41L643.61554,471.422V436.79138h12.21393V493.036H645.3028l-27.23774-35.75586V493.036H605.85114Z"/></svg>