<svg id="Layer_1" data-name="Layer 1" xmlns="http://www.w3.org/2000/svg" viewBox="0 0 888 202"><defs><style>.cls-1{fill:#fff;}</style></defs><path class="cls-1" d="M60.476,97.09347a28.86,28.86,0,0,0-7.99117-2.96913A24.47366,24.47366,0,0,0,36.336,96.36658c-1.90563.90876-1.927,1.30414-.27071,2.53154A20.65329,20.65329,0,0,0,48.79019,102.918a22.64594,22.64594,0,0,0,11.77247-3.37938C62.199,98.57371,62.13766,98.02418,60.476,97.09347Z"/><path class="cls-1" d="M60.27325,90.7988c1.98835,1.035,4.02841,1.99175,5.9215,3.181a2.40537,2.40537,0,0,0,3.10083-.21339A120.98972,120.98972,0,0,0,79.354,85.5729,106.54766,106.54766,0,0,0,91.92838,72.17466a1.91507,1.91507,0,0,0,.12947-2.60491,50.6769,50.6769,0,0,1-2.80619-5.57021c-1.48966-3.1817-1.50122-3.20469-4.80338-2.04924a37.85686,37.85686,0,0,0-23.261,21.53758,20.1252,20.1252,0,0,0-1.87316,6.1409C59.22305,90.1812,59.70026,90.50058,60.27325,90.7988Z"/><path class="cls-1" d="M111.73259,94.02294A94.90076,94.90076,0,0,1,97.21814,77.72135c-.26665-.38141-.4673-.91295-1.09631-.86884a2.31073,2.31073,0,0,0-1.12082.91565,114.82161,114.82161,0,0,1-19.7512,19.01532c-2.03884,1.53322-2.04941,1.73934.05929,3.26208a98.54615,98.54615,0,0,1,20.07255,19.29749c1.14579,1.46626,1.41932,1.47133,2.52584-.04374a89.38787,89.38787,0,0,1,18.385-18.68276c1.52468-1.1148,1.52871-1.43972.20623-2.56424C114.91374,96.70463,113.281,95.411,111.73259,94.02294Z"/><path class="cls-1" d="M92.24314,124.26794a95.35256,95.35256,0,0,0-23.02434-21.833,1.70393,1.70393,0,0,0-2.08841-.054c-1.92607,1.15366-3.87345,2.27233-5.8238,3.38484-2.24843,1.28251-2.38119,1.64917-1.53,4.16307a38.89076,38.89076,0,0,0,14.32923,19.732,34.70551,34.70551,0,0,0,13.32033,5.86536c1.29935.36124,1.48809-.46608,1.77024-1.08945a46.08913,46.08913,0,0,1,3.19636-6.4825A2.74857,2.74857,0,0,0,92.24314,124.26794Z"/><path class="cls-1" d="M97.31167,63.975c.68492-.10621,1.02454-.92672,1.33258-1.57282a33.605,33.605,0,0,0,2.87334-8.54176,28.7334,28.7334,0,0,0-4.07686-20.95266c-.92585-1.48326-1.39991-1.45786-2.23268.11085a30.84,30.84,0,0,0-3.828,14.90719,28.28045,28.28045,0,0,0,4.51521,14.64713C96.2695,63.14069,96.491,64.10223,97.31167,63.975Z"/><path class="cls-1" d="M101.63026,71.51767a93.57223,93.57223,0,0,0,12.91246,15.24991,90.98,90.98,0,0,0,8.90042,7.53435,1.519,1.519,0,0,0,1.80332.23856c2.27369-1.20076,4.56075-2.37835,6.87215-3.50432a1.26439,1.26439,0,0,0,.76584-1.71947c-.45612-1.51542-.82964-3.06117-1.37667-4.54292A37.32883,37.32883,0,0,0,113.787,64.40294a33.1024,33.1024,0,0,0-6.989-2.81523c-.79506-.14216-1.03829.42585-1.35549.96067-1.2558,2.11741-2.48821,4.25176-3.834,6.3114A2.05239,2.05239,0,0,0,101.63026,71.51767Z"/><path class="cls-1" d="M99.12111,8.66669A90.8789,90.8789,0,1,0,190,99.54559h0A90.8789,90.8789,0,0,0,99.12111,8.66669Zm54.97038,104.65619a33.24193,33.24193,0,0,1-14.58319-1.7473c-1.01274-.353-1.36476-.07154-1.68039.82328a44.37694,44.37694,0,0,1-17.5013,22.82322,43.75108,43.75108,0,0,1-10.12471,5.03666c-1.25267.43029-1.70592.86551-1.29229,2.31737,3.21562,11.28652.53582,21.13091-7.50953,29.57228-2.50712,2.63053-2.84124,2.62807-5.18181-.04385a37.55983,37.55983,0,0,1-9.5787-25.61119c.001-.547.08545-1.09409.13365-1.64089.35054-3.97494.89-2.92724-2.67738-4.03582a44.39111,44.39111,0,0,1-25.41822-19.7168A41.50128,41.50128,0,0,1,54.079,110.421c-.23137-.82772-.58461-1.21579-1.48358-1.03479a15.871,15.871,0,0,1-1.80569.16432c-10.45655-.17842-18.70079-4.42776-24.54029-13.21352-.67687-1.01838.12936-1.34337.56274-1.70018a30.64073,30.64073,0,0,1,8.8816-5.22583,29.072,29.072,0,0,1,16.334-1.4683,1.5913,1.5913,0,0,0,2.182-1.28789,43.80522,43.80522,0,0,1,9.06-16.99142A44.45345,44.45345,0,0,1,84.525,55.91222c1.082-.31891,1.33547-.75922,1.21434-1.85083a37.75569,37.75569,0,0,1,.46579-13.2723,37.011,37.011,0,0,1,8.44224-16.15757c.89422-1.00072,1.48207-1.0656,2.46933-.21483a31.27361,31.27361,0,0,1,11.19409,20.43867,27.10183,27.10183,0,0,1-.24157,9.02259c-.24716,1.16293.08377,1.75516,1.30432,2.157,12.79847,4.214,21.96731,12.45,27.33845,24.85667a31.49364,31.49364,0,0,1,2.09915,6.22059c.24724,1.21741.97847,1.56353,2.14214,1.49166a42.01989,42.01989,0,0,1,14.67891,1.40873,44.54507,44.54507,0,0,1,18.18419,10.21917c1.6504,1.5542,1.69317,1.747.20222,3.27862A31.673,31.673,0,0,1,154.09149,113.32288Z"/><path class="cls-1" d="M96.1081,133.73924a28.011,28.011,0,0,0-3.397,14.0732A29.05755,29.05755,0,0,0,97.368,163.80132c1.10376,1.683,1.61143,1.69238,2.48974-.10515,5.0243-10.28252,4.37641-20.3306-1.36776-30.122C97.50725,131.89883,97.03323,131.94046,96.1081,133.73924Z"/><path class="cls-1" d="M164.75325,101.99875a9.41941,9.41941,0,0,0-1.07256-.76588,34.10936,34.10936,0,0,0-18.97688-5.62431A34.63426,34.63426,0,0,0,132.053,98.283c-1.39654.55127-1.444,1.05245-.29043,2.04834a6.58233,6.58233,0,0,0,.65581.49617c5.779,3.84246,12.134,5.79706,20.55053,5.817,3.04244.03942,7.337-1.01784,11.51287-2.63115C165.73784,103.52806,165.80412,102.90722,164.75325,101.99875Z"/><path class="cls-1" d="M131.27586,107.49788c-1.93092-1.02549-3.81558-2.14883-5.65554-3.33111a2.62714,2.62714,0,0,0-3.39034.14625,90.71393,90.71393,0,0,0-20.76184,20.89068,2.23791,2.23791,0,0,0-.54823,1.37519,9.47479,9.47479,0,0,0,.51413,1.17312c1.10219,1.89393,2.32876,3.72269,3.31923,5.67214.78643,1.54785,1.71454,1.78154,3.29,1.20279a39.08341,39.08341,0,0,0,16.31031-10.943,36.05886,36.05886,0,0,0,7.84736-14.08912,1.54143,1.54143,0,0,0-.92508-2.09694Z"/><path class="cls-1" d="M259.576,117.22182c-9.64209,0-16.311-8.03418-16.311-17.67627v-.16131c0-9.64075,6.82959-17.51495,16.311-17.51495,5.62433,0,10.04339,2.41053,14.38251,6.347l7.8742-9.07879c-5.223-5.14239-11.57068-8.67816-22.17669-8.67816-17.275,0-29.32758,13.09722-29.32758,29.08624V99.707c0,16.149,12.29327,28.92493,28.84558,28.92493,10.84735,0,17.275-3.85711,23.06-10.04407l-7.87421-7.95355C269.94077,114.65133,266.00366,117.22182,259.576,117.22182Z"/><path class="cls-1" d="M326.02878,70.45931c-17.355,0-29.97022,13.09723-29.97022,29.08625v.16137c0,15.989,12.45392,28.92494,29.80957,28.92494s29.97022-13.09723,29.97022-29.08631v-.16131C355.83835,83.39523,343.38443,70.45931,326.02878,70.45931Zm16.87366,29.24762c0,9.64075-6.91028,17.51489-16.87366,17.51489s-17.03363-8.03418-17.03363-17.67626v-.16131c0-9.64075,6.90954-17.515,16.873-17.515s17.03431,8.03418,17.03431,17.67627Z"/><polygon class="cls-1" points="394.812 111.036 380.108 71.423 366.449 71.423 389.188 128.07 400.115 128.07 422.854 71.423 409.517 71.423 394.812 111.036"/><rect class="cls-1" x="440.13409" y="71.42324" width="12.3739" height="56.24469"/><path class="cls-1" d="M496.54211,71.42324H474.60672v56.24469h21.93539c17.677,0,29.88953-12.29327,29.88953-28.12238v-.16131C526.43164,83.55654,514.219,71.42324,496.54211,71.42324Zm16.95362,28.28369c0,9.962-6.82959,16.793-16.95362,16.793H486.98V82.59127h9.56213c10.124,0,16.95359,6.99091,16.95359,16.95428Z"/><path class="cls-1" d="M594.29572,105.97317h12.45391v8.03552A19.7462,19.7462,0,0,1,595.099,117.3832c-9.96338,0-17.03363-7.55292-17.03363-17.83765v-.16131c0-9.5614,7.15088-17.51495,16.14966-17.51495,6.5083,0,10.36541,2.08924,14.70446,5.70434l7.79358-9.40143c-5.86566-4.98108-11.972-7.71289-22.09607-7.71289-17.03363,0-29.48822,13.09723-29.48822,29.08625v.16137c0,16.63165,12.05262,28.92494,29.56891,28.92494a36.503,36.503,0,0,0,24.02393-8.91887V95.28652h-24.4259Z"/><path class="cls-1" d="M685.57629,90.14413v-.16c0-5.30371-1.68719-9.72278-4.821-12.85656-3.69574-3.6958-9.24011-5.70435-16.391-5.70435H638.65247V127.6679h12.3739V109.669h9.72143l12.05262,17.999h14.46313l-13.73987-20.08685C680.67462,104.92861,685.57629,99.22427,685.57629,90.14413Zm-12.53521.644c0,4.74035-3.4538,7.9535-9.48078,7.9535H651.02637V82.59127h12.29327c6.02564,0,9.72144,2.73315,9.72144,8.03552Z"/><polygon class="cls-1" points="717.077 104.849 743.593 104.849 743.593 93.841 717.077 93.841 717.077 82.431 747.209 82.431 747.209 71.423 704.784 71.423 704.784 127.668 747.61 127.668 747.61 116.66 717.077 116.66 717.077 104.849"/><polygon class="cls-1" points="778.949 104.849 805.465 104.849 805.465 93.841 778.949 93.841 778.949 82.431 809.082 82.431 809.082 71.423 766.656 71.423 766.656 127.668 809.482 127.668 809.482 116.66 778.949 116.66 778.949 104.849"/><polygon class="cls-1" points="866.293 71.423 866.293 106.054 839.939 71.423 828.529 71.423 828.529 127.668 840.742 127.668 840.742 91.912 867.98 127.668 878.507 127.668 878.507 71.423 866.293 71.423"/></svg>