<svg id="Layer_1" data-name="Layer 1" xmlns="http://www.w3.org/2000/svg" viewBox="0 0 360 360"><defs><style>.cls-1{fill:#0e592f;}.cls-2{fill:#57ce68;}</style></defs><path class="cls-1" d="M106.1696,175.94838a54.10733,54.10733,0,0,0-14.98176-5.56649c-10.6079-2.32638-20.64739-.38789-30.27576,4.20373-3.57265,1.70373-3.61278,2.445-.50752,4.74611a38.72065,38.72065,0,0,0,23.8566,7.53646,42.45641,42.45641,0,0,0,22.07091-6.33564C109.4,178.72352,109.28491,177.69327,106.1696,175.94838Z"/><path class="cls-1" d="M105.78952,164.1472c3.72775,1.94034,7.55244,3.73411,11.10158,5.96366,2.26779,1.42467,3.86671,1.00615,5.8134-.4a226.82909,226.82909,0,0,0,18.85743-15.36107,199.75255,199.75255,0,0,0,23.57432-25.1189c1.3-1.6554,1.49021-2.901.24274-4.88366a95.00817,95.00817,0,0,1-5.261-10.443c-2.7928-5.965-2.81446-6.00813-9.00533-3.84189-20.39184,7.13516-35.04756,20.49985-43.60945,40.37847-1.53647,3.56738-3.09033,7.18843-3.51178,11.51287C103.82063,162.98933,104.71528,163.58809,105.78952,164.1472Z"/><path class="cls-1" d="M202.265,170.19178a177.9191,177.9191,0,0,1-27.21155-30.562c-.49992-.71508-.87609-1.71161-2.05535-1.62891a4.33205,4.33205,0,0,0-2.10129,1.71666,215.2659,215.2659,0,0,1-37.02938,35.64973c-3.8224,2.87448-3.84222,3.2609.11116,6.11572a184.75324,184.75324,0,0,1,37.63183,36.17876c2.1481,2.74892,2.66094,2.75842,4.73541-.082a167.5839,167.5839,0,0,1,34.468-35.02627c2.85845-2.09,2.866-2.69918.38664-4.80742C208.229,175.2194,205.16794,172.79408,202.265,170.19178Z"/><path class="cls-1" d="M165.72638,226.89483c-12.28074-15.88331-26.31494-29.87245-43.16584-40.93226a3.1945,3.1945,0,0,0-3.91531-.10117c-3.611,2.16287-7.26191,4.26014-10.91841,6.34585-4.21535,2.40447-4.46422,3.09185-2.86845,7.80489,5.11929,15.1198,13.81775,27.64017,26.86433,36.99327a65.06567,65.06567,0,0,0,24.97282,10.99633c2.436.67723,2.78986-.8738,3.31884-2.04248,1.86453-4.11966,3.50239-8.36916,5.99249-12.15333C167.665,231.28612,167.62272,229.34746,165.72638,226.89483Z"/><path class="cls-1" d="M175.22881,113.8581c1.28407-.19913,1.92078-1.7374,2.4983-2.9487a63.00025,63.00025,0,0,0,5.3869-16.014,53.86908,53.86908,0,0,0-7.64322-39.28186c-1.73578-2.78079-2.62457-2.73317-4.18581.20783a57.81825,57.81825,0,0,0-7.1767,27.94785,53.02015,53.02015,0,0,0,8.46506,27.46032C173.275,112.294,173.69027,114.09671,175.22881,113.8581Z"/><path class="cls-1" d="M183.32526,127.99912a175.42979,175.42979,0,0,0,24.20816,28.59038,170.56787,170.56787,0,0,0,16.68641,14.12533,2.84791,2.84791,0,0,0,3.38085.44725c4.2627-2.25117,8.55043-4.4589,12.88383-6.56986a2.37021,2.37021,0,0,0,1.4358-3.22364c-.85512-2.84113-1.55537-5.73906-2.581-8.517-6.24495-16.915-17.44813-29.56748-33.22278-38.19105a62.061,62.061,0,0,0-13.10295-5.278c-1.49059-.26652-1.94658.79838-2.54126,1.80105-2.35435,3.96972-4.66487,7.97117-7.18794,11.83256A3.8478,3.8478,0,0,0,183.32526,127.99912Z"/><path class="cls-1" d="M178.62112,10.16671A170.37888,170.37888,0,1,0,349,180.54559,170.37889,170.37889,0,0,0,178.62112,10.16671ZM281.67906,206.37515a62.32166,62.32166,0,0,1-27.34041-3.27583c-1.89869-.66191-2.55864-.13413-3.15039,1.54348-6.28585,17.8218-17.011,32.23336-32.81127,42.78875a82.02371,82.02371,0,0,1-18.98173,9.4427c-2.34848.80668-3.19823,1.62265-2.42277,4.34459,6.02861,21.15986,1.00457,39.616-14.07879,55.44184-4.70033,4.93167-5.32673,4.92705-9.71481-.08222a70.4168,70.4168,0,0,1-17.958-48.01561c.0019-1.02559.1602-2.05117.25056-3.07632.65719-7.45219,1.66865-5.488-5.01953-7.56633A83.224,83.224,0,0,1,102.798,220.95533a77.80577,77.80577,0,0,1-8.62152-20.02056c-.43378-1.55179-1.096-2.27936-2.78139-1.94a29.761,29.761,0,0,1-3.38531.30806c-19.60384-.33451-35.06-8.30112-46.00788-24.77259-1.269-1.90922.24252-2.51851,1.055-3.18748a57.44508,57.44508,0,0,1,16.65122-9.79741c9.92617-3.64575,20.12543-4.98071,30.62287-2.75278,1.99953.42439,3.39085.03329,4.09078-2.41452a82.1256,82.1256,0,0,1,16.98557-31.85535,83.341,83.341,0,0,1,39.849-25.78053c2.02853-.59789,2.50374-1.42336,2.27664-3.46991-.92349-8.32285-1.14472-16.63282.87327-24.88278a69.3878,69.3878,0,0,1,15.82743-30.29205c1.67647-1.87615,2.77857-1.99779,4.62946-.40278C186.656,49.857,193.93131,62.44556,195.84981,78.01287a50.81035,50.81035,0,0,1-.45289,16.91547c-.46338,2.18025.157,3.29055,2.4453,4.044,23.99448,7.90036,41.18412,23.34114,51.25387,46.60105a59.04272,59.04272,0,0,1,3.93546,11.66232c.46354,2.28239,1.83444,2.93127,4.016,2.79654,9.30743-.5747,18.54-.0271,27.51989,2.64107A83.5125,83.5125,0,0,1,318.659,181.8321c3.09419,2.91379,3.17434,3.27529.37915,6.14672C308.77445,198.52226,296.42693,204.83015,281.67906,206.37515Z"/><path class="cls-1" d="M172.97237,244.65151c-4.2993,8.35923-6.75921,17.18281-6.36861,26.38429a54.47666,54.47666,0,0,0,8.73078,29.97578c2.0693,3.15522,3.02109,3.17287,4.66775-.19712,9.41951-19.27758,8.20484-38.11562-2.56429-56.47253C175.59547,241.20115,174.70678,241.27918,172.97237,244.65151Z"/><path class="cls-1" d="M301.66764,185.14475a17.65671,17.65671,0,0,0-2.01082-1.43585,63.948,63.948,0,0,0-35.57767-10.54442,64.93276,64.93276,0,0,0-23.71764,5.01394c-2.61821,1.03351-2.70721,1.97314-.5445,3.84021a12.33915,12.33915,0,0,0,1.2295.93023c10.83434,7.2038,22.74863,10.86829,38.52795,10.9057,5.70392.07391,13.7553-1.90824,21.58419-4.93286C303.51354,188.01189,303.63779,186.84794,301.66764,185.14475Z"/><path class="cls-1" d="M238.90454,195.45446c-3.62006-1.92257-7.15341-4.02859-10.603-6.24511-2.29428-1.47425-4.09842-1.35929-6.35617.27418a170.06973,170.06973,0,0,0-38.92409,39.16564,4.19561,4.19561,0,0,0-1.02781,2.57819,17.75943,17.75943,0,0,0,.96389,2.19936c2.06637,3.55072,4.36593,6.97926,6.22285,10.63408,1.47441,2.90189,3.21442,3.34,6.168,2.255a73.27291,73.27291,0,0,0,30.57839-20.51587,67.60328,67.60328,0,0,0,14.7122-26.41415C241.18884,197.439,240.70754,196.412,238.90454,195.45446Z"/><path class="cls-2" d="M318.659,181.8321a83.5125,83.5125,0,0,0-34.09153-19.15882c-8.97987-2.66817-18.21246-3.21577-27.51989-2.64107-2.18161.13473-3.55251-.51415-4.016-2.79654a59.04272,59.04272,0,0,0-3.93546-11.66232c-10.06975-23.25991-27.25939-38.70069-51.25387-46.601-2.28826-.75341-2.90868-1.86371-2.4453-4.044a50.81035,50.81035,0,0,0,.45289-16.91547c-1.9185-15.56731-9.19382-28.15589-20.98658-38.31823-1.85089-1.595-2.953-1.47337-4.62946.40278a69.3878,69.3878,0,0,0-15.82743,30.29205c-2.018,8.25-1.79676,16.55993-.87327,24.88278.2271,2.04655-.24811,2.872-2.27664,3.46991a83.341,83.341,0,0,0-39.849,25.78053A82.1256,82.1256,0,0,0,94.42181,156.378c-.69993,2.44781-2.09125,2.83891-4.09078,2.41452-10.49744-2.22793-20.6967-.893-30.62287,2.75278a57.44508,57.44508,0,0,0-16.65122,9.79741c-.81249.669-2.324,1.27826-1.055,3.18748,10.94784,16.47147,26.404,24.43808,46.00788,24.77259a29.761,29.761,0,0,0,3.38531-.30806c1.68538-.33935,2.34761.38822,2.78139,1.94a77.80577,77.80577,0,0,0,8.62152,20.02056,83.224,83.224,0,0,0,47.65384,36.96487c6.68818,2.07837,5.67672.11414,5.01953,7.56633-.09036,1.02515-.24866,2.05073-.25056,3.07632a70.4168,70.4168,0,0,0,17.958,48.01561c4.38808,5.00927,5.01448,5.01389,9.71481.08222,15.08336-15.8258,20.1074-34.282,14.07879-55.44184-.77546-2.72194.07429-3.53791,2.42277-4.34459a82.02371,82.02371,0,0,0,18.98173-9.4427c15.80028-10.55539,26.52542-24.96695,32.81127-42.78875.59175-1.67761,1.2517-2.20539,3.15039-1.54348a62.32166,62.32166,0,0,0,27.34041,3.27583c14.74787-1.545,27.09539-7.85289,37.35911-18.39633C321.83336,185.10739,321.75321,184.74589,318.659,181.8321Zm-125.6454-72.44957a62.061,62.061,0,0,1,13.10295,5.278c15.77465,8.62357,26.97783,21.27607,33.22278,38.19105,1.02559,2.778,1.72584,5.6759,2.581,8.517a2.37021,2.37021,0,0,1-1.4358,3.22364c-4.3334,2.111-8.62113,4.31869-12.88383,6.56986a2.84791,2.84791,0,0,1-3.38085-.44725,170.56787,170.56787,0,0,1-16.68641-14.12533,175.42979,175.42979,0,0,1-24.20816-28.59038,3.8478,3.8478,0,0,1-.04084-4.983c2.52307-3.86139,4.83359-7.86284,7.18794-11.83256C191.067,110.18091,191.523,109.116,193.01362,109.38253Zm17.80019,73.17089a167.5839,167.5839,0,0,0-34.468,35.02627c-2.07447,2.84042-2.58731,2.83092-4.73541.082a184.75324,184.75324,0,0,0-37.63183-36.17876c-3.95338-2.85482-3.93356-3.24124-.11116-6.11572a215.2659,215.2659,0,0,0,37.02938-35.64973,4.33205,4.33205,0,0,1,2.10129-1.71666c1.17926-.0827,1.55543.91383,2.05535,1.62891A177.9191,177.9191,0,0,0,202.265,170.19178c2.90293,2.6023,5.964,5.02762,8.93544,7.55422C213.67981,179.85424,213.67226,180.46342,210.81381,182.55342ZM171.285,55.82135c1.56124-2.941,2.45-2.98862,4.18581-.20783A53.86908,53.86908,0,0,1,183.114,94.89538a63.00025,63.00025,0,0,1-5.3869,16.014c-.57752,1.2113-1.21423,2.74957-2.4983,2.9487-1.53854.23861-1.95386-1.56406-2.65547-2.62858a53.02015,53.02015,0,0,1-8.46506-27.46032A57.81825,57.81825,0,0,1,171.285,55.82135Zm-67.29357,106.1323c.42145-4.32444,1.97531-7.94549,3.51178-11.51287,8.56189-19.87862,23.21761-33.24331,43.60945-40.37847,6.19087-2.16624,6.21253-2.12312,9.00533,3.84189a95.00817,95.00817,0,0,0,5.261,10.443c1.24747,1.98264,1.0573,3.22826-.24274,4.88366a199.75255,199.75255,0,0,1-23.57432,25.1189,226.82909,226.82909,0,0,1-18.85743,15.36107c-1.94669,1.4062-3.54561,1.82472-5.8134.4-3.54914-2.22955-7.37383-4.02332-11.10158-5.96366C104.71528,163.58809,103.82063,162.98933,103.99141,161.95365ZM84.26116,186.86819a38.72065,38.72065,0,0,1-23.8566-7.53646c-3.10526-2.30113-3.06513-3.04238.50752-4.74611,9.62837-4.59162,19.66786-6.53011,30.27576-4.20373a54.10733,54.10733,0,0,1,14.98176,5.56649c3.11531,1.74489,3.23038,2.77514.16247,4.58417A42.45641,42.45641,0,0,1,84.26116,186.86819Zm75.7532,59.09107c-.529,1.16868-.88282,2.71971-3.31884,2.04248a65.06567,65.06567,0,0,1-24.97282-10.99633c-13.04658-9.3531-21.745-21.87347-26.86433-36.99327-1.59577-4.713-1.3469-5.40042,2.86845-7.80489,3.6565-2.08571,7.30741-4.183,10.91841-6.34585a3.1945,3.1945,0,0,1,3.91531.10117c16.8509,11.05981,30.8851,25.04895,43.16584,40.93226,1.89634,2.45263,1.93859,4.39129.28047,6.9111C163.51675,237.5901,161.87889,241.8396,160.01436,245.95926Zm19.98793,54.8552c-1.64666,3.37-2.59845,3.35234-4.66775.19712a54.47666,54.47666,0,0,1-8.73078-29.97578c-.3906-9.20148,2.06931-18.02506,6.36861-26.38429,1.73441-3.37233,2.6231-3.45036,4.46563-.30958C188.20713,262.69884,189.4218,281.53688,180.00229,300.81446Zm60.63656-101.42871a67.60328,67.60328,0,0,1-14.7122,26.41415,73.27291,73.27291,0,0,1-30.57839,20.51587c-2.95359,1.085-4.6936.64692-6.168-2.255-1.85692-3.65482-4.15648-7.08336-6.22285-10.63408a17.75943,17.75943,0,0,1-.96389-2.19936,4.19561,4.19561,0,0,1,1.02781-2.57819,170.06973,170.06973,0,0,1,38.92409-39.16564c2.25775-1.63347,4.06189-1.74843,6.35617-.27418,3.44955,2.21652,6.9829,4.32254,10.603,6.24511C240.70754,196.412,241.18884,197.439,240.63885,199.38575Zm60.5198-10.46405c-7.82889,3.02462-15.88027,5.00677-21.58419,4.93286-15.77932-.03741-27.69361-3.7019-38.52795-10.9057a12.33915,12.33915,0,0,1-1.2295-.93023c-2.16271-1.86707-2.07371-2.8067.5445-3.84021a64.93276,64.93276,0,0,1,23.71764-5.01394,63.948,63.948,0,0,1,35.57767,10.54442,17.65671,17.65671,0,0,1,2.01082,1.43585C303.63779,186.84794,303.51354,188.01189,301.15865,188.9217Z"/></svg>