<svg id="Layer_1" data-name="Layer 1" xmlns="http://www.w3.org/2000/svg" viewBox="0 0 611.01721 120"><defs><style>.cls-1{fill:#009ade;}.cls-2{fill:#003764;}.cls-3{fill:#fff;}.cls-4{fill:none;}</style></defs><polygon class="cls-1" points="31.309 88.682 31.309 51.903 12.883 51.903 12.883 107.075 68.078 107.075 68.078 88.682 31.309 88.682"/><polygon class="cls-2" points="104.847 15.095 12.895 15.095 12.895 42.687 31.282 42.687 31.282 33.569 86.461 33.569 86.461 88.682 77.277 88.682 77.277 107.075 104.847 107.075 104.847 15.095"/><path class="cls-2" d="M60.828,44.037c0-.47254.0024-.86385-.00166-1.2551-.001-.09862.022-.13787.14808-.16248.22129-.04323.44643-.06543.668-.10671a1.3979,1.3979,0,0,0,1.14736-.9404,2.89228,2.89228,0,0,1,.497-.8523,1.80573,1.80573,0,0,1,1.29059-.5231,6.55194,6.55194,0,0,1,3.08136.514,15.55085,15.55085,0,0,0,3.03777.77246c.78328.13264,1.57273.19068,2.3638.25549.63618.05213,1.27315.08682,1.91.1278.67148.04321,1.34445.0538,2.01485.09233.517.02974,1.03258.00383,1.54711.03343,1.52713.08779,3.0561.00455,4.58288.04937.39554.0116.79177.03119,1.188.03218.13787.00035.1596.04634.13116.155a2.89262,2.89262,0,0,1-.875,1.501,3.37644,3.37644,0,0,1-1.80951.8265A7.65626,7.65626,0,0,1,80.174,44.507c-.25834-.01864-.29355-.00506-.318.23756a1.75039,1.75039,0,0,1-1.30981,1.56817,4.98373,4.98373,0,0,1-2.12134.16379c-.2049-.01881-.31372.009-.40035.2111a3.08206,3.08206,0,0,1-1.85176,1.82155,3.63027,3.63027,0,0,1-1.25691.2977,4.248,4.248,0,0,1-1.30479-.22642,5.32931,5.32931,0,0,1-1.43147-.70074c-.09411-.06752-.16242-.09608-.219.03109a3.19064,3.19064,0,0,1-1.1003,1.15253,4.86333,4.86333,0,0,1-2.08394.91537,6.95509,6.95509,0,0,1-1.84637.13439c-.61952-.0485-1.24162-.08325-1.86065-.14318-.695-.06729-1.37852-.19934-2.06622-.3072-.11028-.01729-.17568-.06012-.18137-.1942-.05642-1.32794-.06353-2.65671-.02992-3.98421C60.80477,44.97513,60.81176,44.46517,60.828,44.037Z"/><path class="cls-2" d="M47.65826,47.7984a5.84711,5.84711,0,0,1-1.58858.78586,3.51532,3.51532,0,0,1-2.525-.0633,3.064,3.064,0,0,1-1.84453-1.85512c-.06847-.18821-.18916-.21848-.37156-.19173a5.74339,5.74339,0,0,1-1.86394-.0538,1.81665,1.81665,0,0,1-1.58724-1.64156c-.03075-.27246-.10247-.29956-.40973-.26405a4.2102,4.2102,0,0,1-2.546-.26436,2.99034,2.99034,0,0,1-1.63237-2.05142c-.03025-.14066.08156-.11913.176-.12346,1.17616-.0538,2.35328-.0411,3.5302-.04223.45411-.00043.9094.01851,1.36205-.00438.69869-.03532,1.39831-.016,2.09576-.04484.67192-.02775,1.3445-.04872,2.016-.08268.82616-.04177,1.65132-.10414,2.47576-.16919a27.888,27.888,0,0,0,3.29549-.46817,13.10832,13.10832,0,0,0,1.96354-.61246,7.99968,7.99968,0,0,1,1.7097-.43866,4.40567,4.40567,0,0,1,1.82051.09025A1.6,1.6,0,0,1,54.806,41.34422a1.611,1.611,0,0,0,.93777,1.06944,3.48387,3.48387,0,0,0,.83965.17687c.15893.01584.33032-.00645.329.241q-.01753,3.307-.00269,6.61427a.19471.19471,0,0,1-.19947.22279c-.85964.11582-1.70983.28064-2.57853.3521-.63631.05235-1.27331.121-1.9101.11419a5.8758,5.8758,0,0,1-3.17487-.903A4.05557,4.05557,0,0,1,47.65826,47.7984Z"/><path class="cls-2" d="M71.4,54.22866a3.02377,3.02377,0,0,0-1.86959-2.37894,7.67243,7.67243,0,0,0-2.13352-.61042c-.69362-.10377-1.39048-.13566-2.08581-.19411a5.90606,5.90606,0,0,0-1.66927.12267,3.24726,3.24726,0,0,0-1.93036,1.13872,2.72,2.72,0,0,0-.64838,1.89666.77263.77263,0,0,0,.38881.63691,3.77927,3.77927,0,0,0,1.97335.44945,3.53842,3.53842,0,0,0,2.17847-.71828,2.60022,2.60022,0,0,1,.78016-.49688,3.92133,3.92133,0,0,1,1.22464-.08712c.3448.016.34407.02816.34407.33042a4.826,4.826,0,0,0,.00255.49067.92391.92391,0,0,1-.61757.96194,13.345,13.345,0,0,1-2.45637.93662A31.66307,31.66307,0,0,1,60.378,57.448c-.65617.06335-1.31315.02065-1.97.06851-.47871.035-.95581.06335-1.42911.13814a10.61625,10.61625,0,0,0-3.52406,1.22224,7.54743,7.54743,0,0,0-2.1004,1.708,3.99809,3.99809,0,0,0-.80191,1.364,5.41456,5.41456,0,0,0-.20987,2.17148,3.09013,3.09013,0,0,0,1.19494,2.032c.27226.24151.59189.43981.88071.66714a1.309,1.309,0,0,0,1.50518.1139,5.67257,5.67257,0,0,1,.815-.41148c.7922-.38282,1.64913-.64386,2.45046-1.03826-.45-.28408-.91925-.53518-1.35447-.83074a1.62279,1.62279,0,0,1-.63809-.86808,3.25248,3.25248,0,0,1-.05333-1.18327A.86871.86871,0,0,1,55.571,61.905a3.01977,3.01977,0,0,1,.81395-.368,17.42622,17.42622,0,0,1,3.49492-.54717c.51147-.03028,1.02353-.06172,1.53529-.0842a18.243,18.243,0,0,0,2.22628-.32868,15.48968,15.48968,0,0,0,3.27994-1.05154,11.41424,11.41424,0,0,0,2.74381-1.63965A6.16076,6.16076,0,0,0,71.05379,56.249a1.776,1.776,0,0,0,.28933-.59356A4.25406,4.25406,0,0,0,71.4,54.22866Z"/><path class="cls-2" d="M61.63619,61.496a10.718,10.718,0,0,0,1.78662-.11978,12.694,12.694,0,0,0,2.27634-.55973c.2112-.07022.445-.22507.628-.18683.20012.04184.2354.32235.33393.50184A4.40485,4.40485,0,0,1,67.27585,63.63a3.36343,3.36343,0,0,1-.80106,1.85019A5.98623,5.98623,0,0,1,64.92456,66.791a14.84713,14.84713,0,0,1-3.35276,1.48942c-1.08225.33932-2.17774.64507-3.25975.985a8.32286,8.32286,0,0,0-1.78226.835,1.11944,1.11944,0,0,0-.47893.90375,1.45593,1.45593,0,0,0,.73783,1.44224c.26556.18355.53223.36562.82366.5428a.98365.98365,0,0,1-.41205.13238,8.96394,8.96394,0,0,0-2.99268,1.39391.17919.17919,0,0,1-.23912.014,5.80341,5.80341,0,0,1-2.175-2.1198,2.58018,2.58018,0,0,1-.20848-1.54388,3.57939,3.57939,0,0,1,1.08729-1.91616,6.58561,6.58561,0,0,1,1.22319-.95648,16.83981,16.83981,0,0,1,4.9725-2.06145,7.40358,7.40358,0,0,0,2.72735-1.26553,1.80692,1.80692,0,0,0,.73381-1.83141A2.738,2.738,0,0,0,61.63619,61.496Z"/><path class="cls-2" d="M58.74923,56.88648c-.27089-.00006-.54207-.00655-.81257.00261-.14034.00479-.18813-.04133-.16921-.15871a.22487.22487,0,0,0,.0002-.04263c-.08173-2.50119.05252-5.00659-.07173-7.50358-.13815-2.776-.08729-5.54982-.11514-8.3246-.00149-.149-.1086-.18348-.21069-.24013a3.669,3.669,0,0,1-1.61122-1.52379,1.157,1.157,0,0,1-.14451-.547,3.29388,3.29388,0,0,1,.04889-1.12725,2.9891,2.9891,0,0,1,.972-1.39445,3.04488,3.04488,0,0,1,1.35691-.62539,3.244,3.244,0,0,1,2.832.58993,2.81834,2.81834,0,0,1,1.093,2.29247,2.52819,2.52819,0,0,1-.667,1.51477,2.82,2.82,0,0,1-.9261.73631.64683.64683,0,0,0-.35521.68345c-.01219.54747-.00366,1.0953-.00358,1.643.0002,2.29031.043,4.58144-.01179,6.87071-.05086,2.12516-.00545,4.24953-.03721,6.374a2.52739,2.52739,0,0,1-.15518.67738c-.0275.09182-.10163.10664-.19921.10473C59.29111,56.88307,59.02012,56.88654,58.74923,56.88648Z"/><path class="cls-2" d="M57.7674,71.38474c.00033-.30585.00515-.61177-.0021-.91746a.24878.24878,0,0,1,.15555-.25217,11.16264,11.16264,0,0,1,2.77618-.94069,22.29413,22.29413,0,0,0,2.65542-.87808.83977.83977,0,0,1,.90185.14476,4.4655,4.4655,0,0,1,1.257,1.70967,2.62757,2.62757,0,0,1,.18746,1.35027,3.539,3.539,0,0,1-.47689,1.52345,4.212,4.212,0,0,1-1.8562,1.64582,24.63693,24.63693,0,0,1-3.89942,1.31913,9.99067,9.99067,0,0,0-2.26446.94364.73538.73538,0,0,0-.37233.85185c.06921.24343.14122.48645.22392.72639.02893.084.045.12624-.065.1795a22.31032,22.31032,0,0,0-2.08653,1.16138.55689.55689,0,0,1-.71856-.13271,2.62064,2.62064,0,0,1-.87214-1.49889,3.36978,3.36978,0,0,1,.73584-2.52491,4.499,4.499,0,0,1,1.40009-1.14519,12.01118,12.01118,0,0,1,2.349-.98686c.715-.26565,1.48126-.39888,2.19061-.68055a5.20092,5.20092,0,0,0,1.23238-.63963,1.51956,1.51956,0,0,0,.54182-.84308c.05739-.22412-.132-.43335-.26117-.632a3.173,3.173,0,0,0-1.46395-1.0134c-.16717-.07674-.15088.06651-.15942.12249a6.68853,6.68853,0,0,0-.0971.85844,11.953,11.953,0,0,0-.051,1.336c.01062.118-.03954.17253-.15956.21695A11.79244,11.79244,0,0,1,57.937,72.842c-.13555.029-.11119-.05022-.12269-.12007A9.16791,9.16791,0,0,1,57.7674,71.38474Z"/><path class="cls-2" d="M55.59273,57.20438c-.35125.1057-.65076.18215-.93853.28487A10.67041,10.67041,0,0,0,51.87605,58.915a4.97305,4.97305,0,0,0-.6951.62912.19694.19694,0,0,1-.2726.0458,17.21147,17.21147,0,0,1-2.88451-1.56432A6.47936,6.47936,0,0,1,46.774,56.771a2.79061,2.79061,0,0,1-.64332-1.19787,3.422,3.422,0,0,1,.34987-2.5453A3.55142,3.55142,0,0,1,47.81209,51.857a6.74337,6.74337,0,0,1,2.75441-.777c.82217-.07354,1.64529-.08489,2.47-.08337a3.66343,3.66343,0,0,1,1.95021.52417,2.78762,2.78762,0,0,1,1.43015,2.36089c.02969.63965-.35.94686-1.0055,1.12507a6.57659,6.57659,0,0,1-2.07592.11634,2.12791,2.12791,0,0,1-.97381-.38681,4.877,4.877,0,0,0-1.25939-.71775,4.05431,4.05431,0,0,0-1.47849-.03432c-.06074.00558-.07492.03361-.083.08195a1.70074,1.70074,0,0,0,.08795,1.13621c.17732.33418.54923.44558.86291.61215a12.73271,12.73271,0,0,0,3.44186,1.07207C54.46459,56.99617,54.99958,57.09123,55.59273,57.20438Z"/><path class="cls-2" d="M59.95349,77.48562c-.68544.52774-1.4478.89192-2.19589,1.37768a11.709,11.709,0,0,1,.04914-1.314c.02311-.10746.08059-.13655.17239-.1636.80033-.23573,1.61259-.43519,2.42125-.64617a10.8357,10.8357,0,0,0,2.15143-.76666,3.22669,3.22669,0,0,0,.45335-.29884c.10441-.077.1531-.05966.21427.04423a2.49619,2.49619,0,0,1,.23529.74382,1.81839,1.81839,0,0,1-.40372,1.5738,4.38079,4.38079,0,0,1-1.34654,1.142,25.35579,25.35579,0,0,1-3.32992,1.45c-.8308.3057-1.66938.59529-2.48131.941-.663.28229-1.34607.52317-2.02113.78063-.179.06826-.17855-.08011-.24868-.12223-.23111-.13861-.22642-.18616-.00465-.3462q.49344-.35611.99993-.69776c1.12376-.76161,2.38181-1.33293,3.5731-1.99888a10.65916,10.65916,0,0,0,1.25563-.76948A1.07785,1.07785,0,0,0,59.95349,77.48562Z"/><path class="cls-2" d="M59.97245,80.94452c-.06605.52773-.1109,1.05249-.1572,1.57777-.07045.79876-.11425,1.59958-.22716,2.39582-.06609.466-.11777.93376-.19527,1.39872-.00935.05613-.00023.09914-.09124.11978a3.327,3.327,0,0,1-.92207.02963c-.148-.00786-.12044-.17495-.12994-.27431-.0617-.64417-.20666-1.279-.25082-1.92565-.05509-.80651-.25341-1.60143-.238-2.41555a.556.556,0,0,1,.37288-.53516c.73538-.34364,1.521-.58855,2.26319-.91906.2726-.12139.54626-.23887.83185-.339a.75679.75679,0,0,1,.63922.05769,8.9189,8.9189,0,0,1,1.21114.75921c.39139.27909.72983.60943,1.0888.91991.08148.07047.06706.08881-.01089.16166a.55314.55314,0,0,1-.56829.15064,19.02762,19.02762,0,0,1-3.54017-1.13941C60.02724,80.95866,60.004,80.95388,59.97245,80.94452Z"/><path class="cls-2" d="M57.76762,65.3783c0-.89688.00652-1.77852-.00435-2.65993a6.36057,6.36057,0,0,0,.05186-.69591c-.01534-.12566.11279-.117.17514-.12612a7.14428,7.14428,0,0,1,.88868-.10075,3.87621,3.87621,0,0,0,.8542-.03764c.1141-.02773.18957.00095.18746.13823-.00822.53344.02863,1.06911-.01441,1.59989-.02933.36192-.02948.722-.03215,1.08283-.0009.12075-.05677.16513-.16548.216A8.94341,8.94341,0,0,1,57.76762,65.3783Z"/><path class="cls-3" d="M62.678,53.09431c.03526-.05133.06075-.13457.10969-.14764a1.462,1.462,0,0,1,1.31278.08689c.13927.10213.00557.216-.114.29731C63.67918,53.53977,63.32778,53.47872,62.678,53.09431Z"/><path class="cls-3" d="M54.84738,53.09431c-.03526-.05133-.06073-.13457-.10968-.14764a1.462,1.462,0,0,0-1.31272.08689c-.13928.10213-.00557.216.114.29731C53.84623,53.53977,54.19762,53.47872,54.84738,53.09431Z"/><polygon class="cls-4" points="474.501 38.337 488.156 38.337 481.45 20.551 474.501 38.337"/><path class="cls-4" d="M446.64933,20.06482h-7.04687V49.12549h7.04687c9.96216,0,14.28707-4.13077,14.28707-14.53034S456.61149,20.06482,446.64933,20.06482Z"/><path class="cls-4" d="M347.30089,19.33592c-9.18483,0-13.07253,7.67886-13.07253,15.25948,0,7.58113,3.88776,15.2593,13.07253,15.2593v.00019c9.13591,0,13.02361-7.67817,13.02361-15.25949C360.3245,27.01465,356.43674,19.33592,347.30089,19.33592Z"/><path class="cls-4" d="M549.25142,19.33592c-9.18477,0-13.07254,7.67886-13.07254,15.25948,0,7.58113,3.88777,15.2593,13.07254,15.2593v.00019c9.1359,0,13.0236-7.67817,13.0236-15.25949C562.275,27.01465,558.3872,19.33592,549.25142,19.33592Z"/><polygon class="cls-2" points="306.671 51.944 309.975 51.944 309.975 35.422 326.595 35.422 326.595 32.603 309.975 32.603 309.975 20.065 328.685 20.065 328.685 17.246 306.672 17.246 306.671 51.944"/><path class="cls-2" d="M347.30089,16.5178c-10.93463,0-16.37742,8.55278-16.37735,18.0776,0,9.5252,5.44279,18.07817,16.37735,18.07817,10.88565,0,16.32844-8.553,16.32844-18.07817C363.62933,25.07077,358.18654,16.5178,347.30089,16.5178Zm0,33.33709V49.8547c-9.18477,0-13.07253-7.67817-13.07253-15.2593,0-7.58062,3.8877-15.25948,13.07253-15.25948,9.13585,0,13.02361,7.67873,13.02361,15.25948C360.3245,42.17672,356.4368,49.85489,347.30089,49.85489Z"/><path class="cls-2" d="M392.11285,38.726c0,8.01865-3.74085,11.12883-10.20485,11.12883-6.41508,0-10.15706-3.1103-10.15706-11.12883V17.2462h-3.3037v22.209a13.4879,13.4879,0,0,0,26.97044,0V17.2462h-3.30483Z"/><polygon class="cls-2" points="426.038 46.599 425.941 46.599 405.725 17.246 402.032 17.246 402.032 51.944 405.337 51.944 405.337 22.592 405.434 22.592 425.65 51.944 429.343 51.944 429.343 17.246 426.038 17.246 426.038 46.599"/><path class="cls-2" d="M448.30115,17.2462H436.29881v34.698h12.00234c10.49748-.24313,15.94027-5.87994,15.94027-17.349C464.24142,23.12677,458.79863,17.48921,448.30115,17.2462Zm-1.65182,31.87929h-7.04687V20.06482h7.04687c9.96216,0,14.28707,4.13077,14.28707,14.53033S456.61149,49.12549,446.64933,49.12549Z"/><path class="cls-2" d="M479.7492,17.2462,465.75338,51.9443h3.54727L473.481,41.156h15.79337l4.22818,10.78829H497.05L483.4422,17.2462ZM474.501,38.3372,481.45,20.551,488.1564,38.3372Z"/><polygon class="cls-2" points="493.167 20.065 505.267 20.065 505.267 51.944 508.572 51.944 508.572 20.065 520.672 20.065 520.672 17.246 493.167 17.246 493.167 20.065"/><rect class="cls-2" x="524.17524" y="17.2462" width="3.30483" height="34.6981"/><path class="cls-2" d="M549.25142,16.5178c-10.93463,0-16.37742,8.55278-16.37736,18.0776,0,9.5252,5.44285,18.07817,16.37736,18.07817,10.88564,0,16.32843-8.553,16.32843-18.07817C565.57985,25.07077,560.13706,16.5178,549.25142,16.5178Zm0,33.33709V49.8547c-9.18477,0-13.07254-7.67817-13.07254-15.2593,0-7.58062,3.88777-15.25948,13.07254-15.25948,9.13578,0,13.0236,7.67873,13.0236,15.25948C562.275,42.17672,558.38732,49.85489,549.25142,49.85489Z"/><polygon class="cls-2" points="594.695 17.246 594.695 46.599 594.598 46.599 574.382 17.246 570.689 17.246 570.689 51.944 573.994 51.944 573.994 22.592 574.091 22.592 594.307 51.944 598 51.944 598 17.246 594.695 17.246"/><polygon class="cls-2" points="133.831 15.497 122.684 15.497 122.684 51.667 149.841 51.667 149.841 42.396 133.831 42.396 133.831 15.497"/><rect class="cls-2" x="157.13376" y="15.49665" width="11.14673" height="36.17036"/><polygon class="cls-2" points="198.628 34.848 198.527 34.848 187.988 15.497 176.589 15.497 176.589 51.667 187.126 51.667 187.126 31.91 187.228 31.91 198.324 51.667 209.166 51.667 209.166 15.497 198.628 15.497 198.628 34.848"/><path class="cls-2" d="M239.2074,35.20314c0,3.64719,0,8.308-5.26965,8.308-5.47164,0-5.42116-4.66085-5.42116-8.308V15.49665h-11.146V37.68533c0,10.081,5.37062,14.8429,16.51672,14.8429,11.14672,0,16.46617-4.76195,16.46617-14.8429V15.49665h-11.146Z"/><polygon class="cls-2" points="292.453 15.497 280.091 15.497 274.72 25.324 269.249 15.497 256.177 15.497 268.084 32.417 255.011 51.667 267.779 51.667 274.163 40.877 280.344 51.667 293.771 51.667 280.851 32.518 292.453 15.497"/><path class="cls-1" d="M140.77744,66.80263c8.95551,0,14.9828,5.71979,14.9828,14.67631,0,8.87211-6.39005,14.5919-15.79274,14.5919h-5.74692v10.99341H122.3901V66.80263Zm-6.55686,20.53528h3.32013c3.93412,0,6.2775-1.98063,6.2775-5.83134,0-3.82207-2.34338-5.80319-6.19409-5.80319h-3.40354Z"/><path class="cls-1" d="M174.644,91.4122c0,4.24061,2.09317,6.55586,5.91574,6.55586,3.82157,0,5.91474-2.31525,5.91474-6.55586V66.80263h11.82948V92.72257c0,9.1796-7.11457,15.03907-17.74422,15.03907-10.63065,0-17.74522-5.85947-17.74522-15.03907V66.80263H174.644Z"/><path class="cls-1" d="M206.754,107.06425V66.80263h19.78111c8.231,0,13.05845,3.7668,13.05845,10.0448,0,4.63151-3.51609,8.11895-8.17573,8.7048v.22359c5.44144.13917,9.98854,4.2406,9.98854,9.56949,0,7.0593-5.58012,11.71894-14.201,11.71894Zm11.82947-24.13476h4.57624c3.04077,0,4.938-1.59023,4.938-4.01752,0-2.48307-1.78567-3.98989-4.77118-3.98989h-4.743ZM223.634,98.9448c3.65476,0,5.74693-1.646,5.74693-4.68677,0-2.874-2.1203-4.5481-5.66352-4.5481h-5.13395V98.9448Z"/><path class="cls-1" d="M275.80451,107.06425H248.1823V66.80263h11.82948V97.66157h15.79273Z"/><path class="cls-1" d="M283.13513,107.06425V66.80263h11.82948v40.26162Z"/><path class="cls-1" d="M302.43189,86.91937c0-13.28053,7.67228-20.81413,19.97706-20.81413,10.63066,0,18.6657,6.91962,18.69383,16.90815h-11.328c-.27935-4.57573-3.26386-7.617-7.36579-7.617-4.85458,0-7.9235,4.29688-7.9235,11.49536,0,7.28188,3.04078,11.57876,7.95164,11.57876,4.07379,0,7.03116-2.98551,7.39393-7.64515h11.327c-.05527,10.04481-7.89536,16.93629-18.7491,16.93629C310.077,107.76164,302.43189,100.20091,302.43189,86.91937Z"/><path class="cls-1" d="M388.23881,107.06425V91.49561H374.06494v15.56864H362.23546V66.80263h11.82948V82.09292h14.17387V66.80263h11.83048v40.26162Z"/><path class="cls-1" d="M436.92235,107.06425h-28.403V66.80263h28.403v9.40268H420.34883V82.7064h15.54151v8.48272H420.34883v6.47245h16.57352Z"/><path class="cls-1" d="M469.784,99.05634H457.50737l-2.09216,8.00791H443.36164l13.14185-40.26162h14.84312l13.14186,40.26162H471.87619Zm-10.12821-8.34153h7.97977l-3.87784-14.621h-.22308Z"/><path class="cls-1" d="M518.60725,107.06425H490.985V66.80263h11.82948V97.66157h15.79274Z"/><path class="cls-1" d="M530.81858,107.06425V76.20531H520.21606V66.80263h33.03552v9.40268H542.64906v30.85894Z"/><path class="cls-1" d="M586.16952,107.06425V91.49561H571.99565v15.56864H560.16617V66.80263h11.82948V82.09292h14.17387V66.80263H598v40.26162Z"/></svg>