<svg id="Layer_1" data-name="Layer 1" xmlns="http://www.w3.org/2000/svg" viewBox="0 0 360 360"><path d="M106.1696,175.94838a54.10691,54.10691,0,0,0-14.98176-5.56648c-10.6079-2.32639-20.64739-.3879-30.27576,4.20373-3.57265,1.70374-3.61278,2.445-.50752,4.74611a38.72068,38.72068,0,0,0,23.8566,7.53645,42.45647,42.45647,0,0,0,22.07091-6.33563C109.4,178.72353,109.28491,177.69327,106.1696,175.94838Z"/><path d="M105.78952,164.1472c3.72775,1.94034,7.55244,3.73412,11.10158,5.96366,2.26779,1.42466,3.8667,1.00614,5.8134-.4a226.82608,226.82608,0,0,0,18.85742-15.36107,199.75229,199.75229,0,0,0,23.57433-25.11889c1.3-1.65541,1.4902-2.901.24273-4.88366a95.01065,95.01065,0,0,1-5.261-10.443c-2.7928-5.965-2.81445-6.00814-9.00532-3.84189-20.39185,7.13516-35.04757,20.49984-43.60946,40.37848-1.53646,3.56738-3.09033,7.18843-3.51178,11.51286C103.82063,162.98933,104.71528,163.58809,105.78952,164.1472Z"/><path d="M202.265,170.19177a177.91878,177.91878,0,0,1-27.21155-30.562c-.49992-.71508-.87608-1.71161-2.05534-1.62891a4.33212,4.33212,0,0,0-2.10129,1.71666,215.266,215.266,0,0,1-37.02939,35.64973c-3.8224,2.87448-3.84222,3.2609.11116,6.11573a184.7532,184.7532,0,0,1,37.63182,36.17875c2.1481,2.74892,2.66094,2.75843,4.73542-.082a167.58363,167.58363,0,0,1,34.468-35.02627c2.85844-2.09,2.866-2.69918.38664-4.80742C208.229,175.21941,205.16794,172.79408,202.265,170.19177Z"/><path d="M165.72638,226.89484c-12.28075-15.88332-26.31494-29.87246-43.16584-40.93225a3.1945,3.1945,0,0,0-3.91531-.10117c-3.611,2.16287-7.26191,4.26015-10.91841,6.34586-4.21535,2.40446-4.46422,3.09184-2.86844,7.80488,5.11929,15.1198,13.81774,27.64017,26.86432,36.99327a65.06569,65.06569,0,0,0,24.97283,10.99634c2.436.67723,2.78985-.87379,3.31884-2.04248,1.86454-4.11966,3.5024-8.36916,5.9925-12.15334C167.665,231.28612,167.62273,229.34746,165.72638,226.89484Z"/><path d="M175.22881,113.8581c1.28407-.19913,1.92077-1.7374,2.4983-2.9487a62.99966,62.99966,0,0,0,5.3869-16.014,53.869,53.869,0,0,0-7.64322-39.28186c-1.73577-2.78079-2.62457-2.73317-4.1858.20783a57.81818,57.81818,0,0,0-7.1767,27.94785,53.02011,53.02011,0,0,0,8.46506,27.46032C173.275,112.294,173.69028,114.09671,175.22881,113.8581Z"/><path d="M183.32526,127.99912a175.42952,175.42952,0,0,0,24.20816,28.59039,170.56833,170.56833,0,0,0,16.68641,14.12533,2.84791,2.84791,0,0,0,3.38085.44725c4.26269-2.25117,8.55043-4.45889,12.88383-6.56985a2.37017,2.37017,0,0,0,1.43581-3.22363c-.85512-2.84113-1.55538-5.73906-2.581-8.517-6.24494-16.915-17.44813-29.56748-33.22277-38.19106a62.06153,62.06153,0,0,0-13.10295-5.278c-1.49059-.26651-1.94658.79838-2.54126,1.80105-2.35436,3.96972-4.66488,7.97117-7.18795,11.83256A3.84779,3.84779,0,0,0,183.32526,127.99912Z"/><path d="M178.62112,10.16671A170.37888,170.37888,0,1,0,349,180.54559,170.37887,170.37887,0,0,0,178.62112,10.16671ZM281.67905,206.37515a62.32162,62.32162,0,0,1-27.34041-3.27583c-1.8987-.66191-2.55864-.13413-3.15039,1.54349-6.28585,17.82179-17.011,32.23335-32.81127,42.78874a82.02358,82.02358,0,0,1-18.98173,9.44269c-2.34848.80667-3.19823,1.62265-2.42278,4.3446,6.02861,21.15985,1.00458,39.616-14.07879,55.44184-4.70034,4.93167-5.32674,4.92706-9.71482-.08222a70.4168,70.4168,0,0,1-17.958-48.01559c.0019-1.02561.1602-2.05118.25056-3.07633.6572-7.45218,1.66866-5.488-5.01953-7.56631A83.224,83.224,0,0,1,102.798,220.95534a77.80552,77.80552,0,0,1-8.62152-20.02056c-.43378-1.55178-1.096-2.27935-2.78139-1.94a29.75965,29.75965,0,0,1-3.38531.30806c-19.60384-.3345-35.06-8.30112-46.00788-24.7726-1.269-1.90922.24252-2.51851,1.055-3.18748a57.44523,57.44523,0,0,1,16.65122-9.79741c9.92617-3.64575,20.12543-4.98071,30.62287-2.75278,1.99953.42439,3.39086.0333,4.09079-2.41452a82.12546,82.12546,0,0,1,16.98557-31.85534,83.341,83.341,0,0,1,39.849-25.78054c2.02853-.59789,2.50374-1.42336,2.27664-3.46991-.92349-8.32285-1.14471-16.63282.87328-24.88278a69.38763,69.38763,0,0,1,15.82742-30.29205c1.67647-1.87615,2.77856-1.99779,4.62945-.40278C186.656,49.857,193.9313,62.44556,195.84981,78.01287a50.81047,50.81047,0,0,1-.4529,16.91547c-.46338,2.18026.157,3.29055,2.4453,4.044,23.99448,7.90036,41.18413,23.34114,51.25386,46.601a59.04324,59.04324,0,0,1,3.93545,11.66233c.46355,2.28239,1.83445,2.93127,4.016,2.79654,9.30743-.57471,18.54-.0271,27.51989,2.64106A83.51264,83.51264,0,0,1,318.659,181.83211c3.09417,2.91379,3.17434,3.27528.37915,6.14671C308.77444,198.52226,296.42694,204.83015,281.67905,206.37515Z"/><path d="M172.97237,244.6515c-4.2993,8.35924-6.75922,17.18282-6.36861,26.3843a54.47674,54.47674,0,0,0,8.73077,29.97577c2.06931,3.15521,3.02109,3.17288,4.66776-.19712,9.41951-19.27758,8.20483-38.11563-2.56429-56.47253C175.59547,241.20116,174.70679,241.27917,172.97237,244.6515Z"/><path d="M301.66763,185.14474a17.65782,17.65782,0,0,0-2.01083-1.43585,63.948,63.948,0,0,0-35.57767-10.54442,64.93307,64.93307,0,0,0-23.71763,5.01395c-2.61821,1.03351-2.70722,1.97315-.5445,3.84021a12.34073,12.34073,0,0,0,1.22951.93024c10.83433,7.20379,22.74863,10.86828,38.52795,10.9057,5.70392.07391,13.75531-1.90824,21.5842-4.93286C303.51355,188.01189,303.63779,186.848,301.66763,185.14474Z"/><path d="M238.90454,195.45445c-3.62006-1.92257-7.15341-4.02859-10.603-6.24511-2.29428-1.47425-4.09842-1.35929-6.35617.27418a170.0701,170.0701,0,0,0-38.92408,39.16565,4.19562,4.19562,0,0,0-1.02782,2.57819,17.75892,17.75892,0,0,0,.96388,2.19935c2.06638,3.55072,4.36594,6.97927,6.22286,10.63408,1.47441,2.90189,3.21441,3.34,6.168,2.255a73.273,73.273,0,0,0,30.57838-20.51587,67.6033,67.6033,0,0,0,14.7122-26.41416C241.18884,197.439,240.70753,196.412,238.90454,195.45445Z"/></svg>